<svg width="56" height="42" viewBox="0 0 56 42" fill="none" xmlns="http://www.w3.org/2000/svg">
<path d="M41.0315 13.9479V21.0521H11.9685V13.9479H41.0315ZM49 12H41.0315H11.9685H4V13.9479V21.0521V23H11.9685H41.0315H49V21.0521V13.9479V12Z" fill="black"/>
<rect x="7" y="13" width="39" height="9" fill="white"/>
<path d="M29.5106 31.5937V37.4063H9.48943V31.5937H29.5106ZM35 30H29.5106H9.48943H4V31.5937V37.4063V39H9.48943H29.5106H35V37.4063V31.5937V30Z" fill="black"/>
<rect x="6" y="31" width="27" height="7" fill="white"/>
<path d="M0.751953 29.2791C0.751953 26.7795 2.77365 24.7535 5.26796 24.7535C7.76226 24.7535 9.78396 26.7795 9.78396 29.2791C9.78396 31.7786 5.26796 37.4489 5.26796 37.4489C5.26796 37.4489 0.751953 31.7786 0.751953 29.2791Z" fill="white"/>
<path d="M5.26795 38.2024C5.0391 38.2024 4.82322 38.0979 4.68043 37.9191C4.20109 37.3174 0 31.9651 0 29.2791C0 26.368 2.36305 24 5.26795 24C8.17285 24 10.5359 26.368 10.5359 29.2791C10.5359 31.9646 6.33481 37.3174 5.85547 37.9191C5.71268 38.0979 5.4968 38.2024 5.26795 38.2024ZM5.26795 25.5066C3.19241 25.5066 1.50341 27.1991 1.50341 29.2791C1.50341 30.7269 3.61694 34.0209 5.26795 36.2184C6.91896 34.0209 9.03249 30.7269 9.03249 29.2795C9.03249 27.1991 7.34349 25.5066 5.26795 25.5066Z" fill="black"/>
<path d="M5.26818 30.377C6.05972 30.377 6.70139 29.734 6.70139 28.9407C6.70139 28.1475 6.05972 27.5045 5.26818 27.5045C4.47663 27.5045 3.83496 28.1475 3.83496 28.9407C3.83496 29.734 4.47663 30.377 5.26818 30.377Z" fill="white"/>
<path d="M5.26817 31.1305C4.06333 31.1305 3.08301 30.1481 3.08301 28.9407C3.08301 27.7334 4.06333 26.751 5.26817 26.751C6.47302 26.751 7.45333 27.7334 7.45333 28.9407C7.45333 30.1481 6.47302 31.1305 5.26817 31.1305ZM5.26817 28.2576C4.8922 28.2576 4.58642 28.564 4.58642 28.9407C4.58642 29.3175 4.8922 29.6239 5.26817 29.6239C5.64414 29.6239 5.94992 29.3175 5.94992 28.9407C5.94992 28.564 5.64414 28.2576 5.26817 28.2576Z" fill="black"/>
<circle cx="39.5348" cy="15.8936" r="13" fill="white"/>
<path d="M39.5836 31.1676C30.9908 31.1676 24 24.1763 24 15.5835C24 6.99078 30.9908 0 39.5836 0C48.1763 0 55.1677 6.99078 55.1677 15.5835C55.1677 24.1763 48.1769 31.1676 39.5836 31.1676ZM39.5836 3.29112C32.8059 3.29112 27.2911 8.80591 27.2911 15.5835C27.2911 22.3617 32.8059 27.8765 39.5836 27.8765C46.3617 27.8765 51.8765 22.3617 51.8765 15.5835C51.8765 8.80591 46.3617 3.29112 39.5836 3.29112Z" fill="black"/>
<path d="M39.5836 41.8936C38.6744 41.8936 37.9377 41.157 37.9377 40.2478V29.5218C37.9377 28.6126 38.6744 27.876 39.5836 27.876C40.4928 27.876 41.2294 28.6126 41.2294 29.5218V40.2478C41.2294 41.157 40.4928 41.8936 39.5836 41.8936Z" fill="black"/>
<path d="M39.5836 23.4401C33.5681 23.4401 28.6917 15.5834 28.6917 15.5834C28.6917 15.5834 33.5681 7.72672 39.5836 7.72672C45.5991 7.72672 50.4755 15.5834 50.4755 15.5834C50.4755 15.5834 45.5991 23.4401 39.5836 23.4401Z" fill="white"/>
<path d="M39.5836 24.7119C32.9375 24.7119 27.8257 16.5998 27.612 16.2545L27.1957 15.584L27.612 14.9134C27.8263 14.5682 32.9381 6.45557 39.5836 6.45557C46.2302 6.45557 51.342 14.5682 51.5557 14.9134L51.972 15.584L51.5557 16.2545C51.342 16.5998 46.2302 24.7119 39.5836 24.7119ZM30.2281 15.5829C31.5065 17.3797 35.3144 22.1684 39.5836 22.1684C43.8666 22.1684 47.6645 17.383 48.9396 15.5851C47.6618 13.7888 43.8533 8.99898 39.5836 8.99898C35.3011 8.99842 31.5032 13.7838 30.2281 15.5829Z" fill="black"/>
<path d="M39.5838 18.914C41.4232 18.914 42.9144 17.4228 42.9144 15.5834C42.9144 13.744 41.4232 12.2529 39.5838 12.2529C37.7444 12.2529 36.2533 13.744 36.2533 15.5834C36.2533 17.4228 37.7444 18.914 39.5838 18.914Z" fill="#FB3544"/>
<path d="M39.5837 20.1862C37.0464 20.1862 34.9814 18.1213 34.9814 15.584C34.9814 13.0461 37.0464 10.9812 39.5837 10.9812C42.1216 10.9812 44.1865 13.0461 44.1865 15.584C44.1865 18.1213 42.1216 20.1862 39.5837 20.1862ZM39.5837 13.5246C38.4485 13.5246 37.5249 14.4483 37.5249 15.584C37.5249 16.7191 38.4485 17.6428 39.5837 17.6428C40.7194 17.6428 41.643 16.7191 41.643 15.584C41.643 14.4483 40.7194 13.5246 39.5837 13.5246Z" fill="black"/>
<path d="M6.04244 15.0776H5.20395C4.02266 15.0776 3.06494 14.1179 3.06494 12.9341V10.8975C3.06494 9.71375 4.02266 8.75401 5.20395 8.75401H6.04244C7.22372 8.75401 8.18144 9.71375 8.18144 10.8975V12.9341C8.18144 14.1179 7.22372 15.0776 6.04244 15.0776Z" fill="white"/>
<path d="M6.04243 15.8311H5.20394C3.61014 15.8311 2.31299 14.5317 2.31299 12.9341V10.8971C2.31299 9.29989 3.60966 8 5.20394 8H6.04243C7.63623 8 8.93338 9.29941 8.93338 10.8971V12.9341C8.93338 14.5313 7.63623 15.8311 6.04243 15.8311ZM5.20394 9.50706C4.43901 9.50706 3.8164 10.131 3.8164 10.8975V12.9346C3.8164 13.7011 4.43901 14.325 5.20394 14.325H6.04243C6.80736 14.325 7.42997 13.7011 7.42997 12.9346V10.8975C7.42997 10.131 6.80736 9.50706 6.04243 9.50706H5.20394Z" fill="black"/>
<path d="M2.87976 22.3887C1.16336 22.3887 0.130635 20.4225 1.15759 19.0441C2.17541 17.6787 3.80094 16.7946 5.63225 16.7946C7.42653 16.7946 9.02369 17.643 10.0449 18.9617C11.1257 20.3575 10.1454 22.3882 8.38233 22.3882H2.87976V22.3887Z" fill="white"/>
<path d="M8.38284 23.1418H2.88026C1.78456 23.1418 0.797026 22.5289 0.303742 21.5417C-0.178004 20.5781 -0.0813653 19.4483 0.555673 18.5931C1.76485 16.9719 3.6149 16.0415 5.63323 16.0415C7.60541 16.0415 9.4295 16.9376 10.6396 18.5006C11.319 19.3775 11.4392 20.5415 10.9521 21.5374C10.4685 22.527 9.48383 23.1418 8.38284 23.1418ZM5.63275 17.5481C4.09376 17.5481 2.68218 18.2578 1.76004 19.4946C1.46051 19.8964 1.4182 20.409 1.64753 20.8672C1.88792 21.348 2.349 21.6357 2.87978 21.6357H8.38235C8.91314 21.6357 9.36892 21.3509 9.60162 20.8749C9.83721 20.3926 9.78095 19.8501 9.45114 19.4242C8.52851 18.2318 7.13664 17.5481 5.63275 17.5481Z" fill="black"/>
<path d="M7.16554 10.8184H3.99573V12.2811H7.16554V10.8184Z" fill="black"/>
</svg>
