<svg xmlns="http://www.w3.org/2000/svg" width="37" height="37" viewBox="0 0 37 37" fill="none">
  <path d="M18.4764 29.1819C14.352 29.1819 10.242 29.1819 6.1176 29.1819C5.79922 29.1819 5.69792 29.1391 5.77028 28.7822C6.33468 25.884 6.85566 22.9857 7.40558 20.0875C7.85421 17.7175 8.30283 15.3333 8.73698 12.9633C9.15666 10.679 10.9801 9.13706 13.3245 9.12278C16.7543 9.1085 20.1841 9.1085 23.6139 9.13706C25.7412 9.15134 27.6225 10.8646 27.9843 12.949C28.3461 15.0192 28.7948 17.0893 29.2289 19.1452C29.8946 22.3718 30.5458 25.5984 31.226 28.825C31.2839 29.1248 31.226 29.1962 30.9076 29.1962C26.7687 29.1677 22.6298 29.1819 18.4764 29.1819ZM16.2188 12.7634C15.8281 12.7634 15.4229 12.7634 15.0322 12.7634C13.7442 12.7777 12.6299 13.6343 12.3694 14.8907C12.2102 15.6759 12.1378 16.4754 12.051 17.2892C12.0076 17.7746 12.3983 18.1887 12.8904 18.2458C13.339 18.3029 13.8165 17.946 13.8889 17.4605C13.9757 16.8895 14.0481 16.3041 14.106 15.733C14.2073 14.8479 14.4533 14.6051 15.365 14.6051C16.132 14.6051 16.899 14.6194 17.666 14.5766C18.187 14.548 18.5343 14.1197 18.5054 13.6486C18.4764 13.1489 18.0857 12.792 17.5502 12.7777C17.1016 12.7491 16.6675 12.7634 16.2188 12.7634Z" fill="white"/>
  <path d="M18.505 36.4204C13.2663 36.4204 8.02751 36.4204 2.80323 36.4204C2.22436 36.4204 1.87704 36.1348 1.87704 35.578C1.87704 34.75 1.76126 33.9076 1.9494 33.0938C2.23883 31.8517 3.33868 31.0094 4.62666 31.0094C13.8885 31.0094 23.136 31.0094 32.3979 31.0094C33.8884 31.0094 35.0751 32.1516 35.133 33.6221C35.1619 34.2646 35.1475 34.907 35.133 35.5495C35.1185 36.1348 34.8002 36.4347 34.2068 36.4347C28.9825 36.4204 23.7438 36.4204 18.505 36.4204Z" fill="white"/>
  <path d="M17.5787 2.71263C17.5787 2.14155 17.5787 1.57047 17.5787 0.999389C17.5932 0.385479 17.955 0 18.5049 0C19.0548 0 19.4311 0.385479 19.4455 0.999389C19.46 2.15583 19.4455 3.29798 19.4455 4.45442C19.4455 5.05405 19.0548 5.46809 18.5194 5.46809C17.9839 5.46809 17.5932 5.05405 17.5787 4.45442C17.5642 3.86906 17.5787 3.29798 17.5787 2.71263Z" fill="white"/>
  <path d="M4.07688 10.9222C3.93217 10.9222 3.78745 10.8794 3.62826 10.7937C2.5863 10.1941 1.54434 9.60873 0.502374 9.00909C0.140582 8.79494 -0.0475505 8.48085 0.0103363 8.06681C0.0537514 7.68133 0.357657 7.39579 0.762865 7.29586C1.00888 7.23875 1.21149 7.31013 1.41409 7.42435C2.47053 8.02398 3.52696 8.60934 4.56892 9.22325C4.97413 9.45168 5.13332 9.86571 5.01754 10.2512C4.90177 10.6795 4.55445 10.9365 4.07688 10.9222Z" fill="white"/>
  <path d="M36.9998 8.2805C36.9853 8.50893 36.884 8.7802 36.6091 8.93724C35.4948 9.57971 34.3949 10.2222 33.2661 10.8361C32.8175 11.0788 32.2965 10.8789 32.0505 10.4649C31.8189 10.0366 31.9203 9.53688 32.3544 9.27989C33.4543 8.63743 34.5396 7.99496 35.6684 7.39533C36.2907 7.06696 37.0143 7.5381 36.9998 8.2805Z" fill="white"/>
  <path d="M8.34613 0.485352C8.70793 0.485352 8.96842 0.656675 9.14208 0.956492C9.74989 1.98443 10.3577 3.02665 10.9655 4.06888C11.2405 4.55429 11.0958 5.08254 10.6616 5.33953C10.213 5.59651 9.66306 5.45374 9.3881 4.9826C8.76581 3.94038 8.14353 2.89816 7.55019 1.84167C7.17393 1.1992 7.62255 0.485352 8.34613 0.485352Z" fill="white"/>
  <path d="M28.6786 0.485471C29.4167 0.499747 29.8219 1.22787 29.4456 1.88462C28.9246 2.79834 28.3747 3.71207 27.8537 4.6258C27.7669 4.78284 27.6801 4.93989 27.5788 5.08266C27.2893 5.46814 26.7683 5.56808 26.3631 5.33965C25.9579 5.09694 25.7843 4.59724 26.0158 4.16893C26.6381 3.06961 27.2749 1.98455 27.9116 0.91378C28.0853 0.613963 28.3602 0.471194 28.6786 0.485471Z" fill="white"/>
</svg>
