<svg width="63" height="48" viewBox="0 0 63 48" fill="none" xmlns="http://www.w3.org/2000/svg">
<path d="M5 6H23L22 34.5L6 27.5L5 6Z" fill="white"/>
<path d="M3.5 12L1 8L14 1.5L17.5 4L21.5 5L26.5 8L24.5 10.5L23.5 14.5H3.5V12Z" fill="white"/>
<rect x="43" y="22" width="19" height="7" fill="#D9D9D9"/>
<rect x="43" y="22" width="19" height="7" fill="white"/>
<path d="M25 22H44V29H39.5V33.5L37 34L36.5 39H27L26 36.5L20 45H12L18 28L24 25L25 22Z" fill="white"/>
<circle cx="40.5" cy="14.5" r="3.5" fill="white"/>
<circle cx="56.5" cy="14.5" r="3.5" fill="white"/>
<path d="M39.5 12L37.5 5.5H39.5L42.5 8H46L47.5 6L52.5 5L53 2H58.5L60.5 5L61.5 7L56.5 7.5V10L52.5 13L47.5 14L39.5 12Z" fill="white"/>
<path d="M21.3416 47.0696H9.43384L17.491 26.2641L18.2972 26.1886C24.8069 25.581 24.6524 21.6982 24.6498 21.659L24.5673 20.2729H43.6404V30.0462H40.8449V34.9832H38.4329V40.7334H25.6832V37.8387C22.849 40.744 22.6513 45.7405 22.6495 45.8001L22.6089 47.0665L21.3416 47.0696ZM13.2535 44.4533H20.1448C20.4661 41.9363 21.7016 36.397 26.4237 34.1209L28.3 33.2163V38.1175H35.8171V32.3673H38.2291V27.4304H41.0245V22.8901H27.0953C26.6514 24.7488 25.0531 27.9069 19.3541 28.7003L13.2535 44.4533Z" fill="#070707"/>
<path d="M62.8462 30.0467H41.0244V21.0703H62.8462V30.0467ZM43.6412 27.4304H60.2299V23.6875H43.6412V27.4304Z" fill="#070707"/>
<path d="M40.8456 31.8824H28.032V24.2506H40.8456V31.8824ZM30.6487 29.2656H38.2293V26.8669H30.6487V29.2656Z" fill="#070707"/>
<path d="M32.0849 32.891L29.9822 34.4477L31.9818 37.1488L34.0845 35.5921L32.0849 32.891Z" fill="#070707"/>
<path d="M21.6773 22.0817L19.5742 23.6387L21.5736 26.3394L23.6767 24.7824L21.6773 22.0817Z" fill="#070707"/>
<path d="M62.8467 18.5467H60.23V22.3791H62.8467V18.5467Z" fill="#070707"/>
<path d="M20.5823 15.5315L20.4914 15.531L6.53753 15.4812L2.52239 14.8837V12.3949C1.55954 11.519 -0.420011 9.39557 0.0795089 7.12522L0.23263 6.43067L0.913072 6.2237C3.54923 5.42412 10.8382 2.90004 12.8799 0.858277L13.7386 0L14.5974 0.858277C16.6391 2.90004 23.9276 5.42412 26.5638 6.2237L27.2447 6.43067L27.3973 7.12522C27.8969 9.39601 25.9173 11.519 24.9549 12.3949V14.8846L20.5823 15.5315ZM6.80803 13.0656L20.4067 13.1018L22.5257 12.7885V11.2458L22.9899 10.8813C23.6099 10.3902 24.7215 9.2473 24.9893 8.27606C22.6572 7.5281 16.6872 5.48546 13.7386 3.30337C10.7901 5.48502 4.8201 7.52766 2.48797 8.27606C2.75582 9.2473 3.86739 10.3906 4.48958 10.8827L4.94983 11.2476L4.95159 12.7894L6.80803 13.0656Z" fill="black"/>
<path d="M51.2133 46.3247C45.554 46.3247 40.9661 38.933 40.9661 38.933C40.9661 38.933 45.554 31.5412 51.2133 31.5412C56.8726 31.5412 61.4605 38.933 61.4605 38.933C61.4605 38.933 56.8726 46.3247 51.2133 46.3247Z" fill="white"/>
<path d="M51.2131 47.6331C44.8985 47.6331 40.0573 39.9506 39.8543 39.6236L39.4263 38.9339L39.8543 38.2442C40.0573 37.9172 44.8985 30.2342 51.2131 30.2342C57.5277 30.2342 62.3689 37.9172 62.5719 38.2442L62.9999 38.9339L62.5719 39.6236C62.3689 39.9506 57.5277 47.6331 51.2131 47.6331ZM42.5487 38.9334C43.7852 40.6579 47.2977 45.0164 51.2131 45.0164C54.8262 45.0164 58.3396 41.116 59.8823 38.9405C58.6507 37.2208 55.1338 32.8496 51.2131 32.8496C47.2981 32.8501 43.7856 37.2081 42.5487 38.9334Z" fill="black"/>
<path d="M51.2131 42.0669C52.9436 42.0669 54.3465 40.664 54.3465 38.9334C54.3465 37.2029 52.9436 35.8 51.2131 35.8C49.4825 35.8 48.0796 37.2029 48.0796 38.9334C48.0796 40.664 49.4825 42.0669 51.2131 42.0669Z" fill="#FB3544"/>
<path d="M51.2133 43.3748C48.7638 43.3748 46.7715 41.382 46.7715 38.9334C46.7715 36.4839 48.7643 34.4916 51.2133 34.4916C53.6624 34.4916 55.6552 36.4844 55.6552 38.9334C55.6556 41.3825 53.6628 43.3748 51.2133 43.3748ZM51.2133 37.1079C50.2068 37.1079 49.3878 37.9264 49.3878 38.9334C49.3878 39.9395 50.2063 40.7585 51.2133 40.7585C52.2203 40.7585 53.0389 39.94 53.0389 38.9334C53.0389 37.9269 52.2199 37.1079 51.2133 37.1079Z" fill="black"/>
<path d="M40.3907 18.9085C37.7095 18.9085 35.5283 16.7277 35.5283 14.0461C35.5283 11.3645 37.7091 9.1833 40.3907 9.1833C43.0723 9.1833 45.2535 11.3645 45.2535 14.0461C45.2535 16.7277 43.0719 18.9085 40.3907 18.9085ZM40.3907 11.6125C39.0488 11.6125 37.9571 12.7047 37.9571 14.0466C37.9571 15.3885 39.0488 16.4802 40.3907 16.4802C41.7326 16.4802 42.8248 15.3885 42.8248 14.0466C42.8248 12.7047 41.7326 11.6125 40.3907 11.6125Z" fill="#070707"/>
<path d="M56.0985 18.9085C53.4173 18.9085 51.2361 16.7277 51.2361 14.0461C51.2361 11.3645 53.4168 9.1833 56.0985 9.1833C58.7801 9.1833 60.9613 11.3645 60.9613 14.0461C60.9613 16.7277 58.7801 18.9085 56.0985 18.9085ZM56.0985 11.6125C54.7566 11.6125 53.6648 12.7047 53.6648 14.0466C53.6648 15.3885 54.7566 16.4802 56.0985 16.4802C57.4404 16.4802 58.5325 15.3885 58.5325 14.0466C58.5325 12.7047 57.4404 11.6125 56.0985 11.6125Z" fill="#070707"/>
<path d="M52.4505 12.8322H44.0386V15.2609H52.4505V12.8322Z" fill="#070707"/>
<path d="M37.5947 10.0244L35.7537 5.60591L38.7437 2.58276L42.7924 6.95091H44.8951C45.2463 5.7202 46.0432 3.9357 47.7113 3.9357H51.2114L50.5526 0.456705H58.4558L58.736 0.616445C58.9368 0.731176 63.6359 3.47237 62.3068 7.58855L62.035 8.42962H57.8733V8.86074H55.4446V6.00129H60.0969C59.9857 4.51509 58.4068 3.30776 57.7806 2.88547H53.4849L54.1437 6.36446H47.8057C47.5511 6.60671 47.1901 7.56649 47.0657 8.35504L46.9037 9.37967H41.732L38.6877 6.09397L38.6184 6.16413L39.8372 9.08976L37.5947 10.0244Z" fill="#070707"/>
<path d="M51.2138 9.18375H48.2449V11.6125H51.2138V9.18375Z" fill="#070707"/>
<path d="M11.5573 31.6798L4.16602 28.3314V14.0814H6.59478V26.7654L12.5599 29.4677L11.5573 31.6798Z" fill="black"/>
<path d="M23.8458 13.8365H21.417V20.4631H23.8458V13.8365Z" fill="black"/>
<path d="M34.0141 15.8412H28.0503V18.458H34.0141V15.8412Z" fill="black"/>
<path d="M34.0141 10.5508H28.0503V13.1676H34.0141V10.5508Z" fill="black"/>
<path d="M11.3438 37.6251H1.21484V40.2418H11.3438V37.6251Z" fill="black"/>
<path d="M11.3438 33.4449H1.21484V36.0616H11.3438V33.4449Z" fill="black"/>
</svg>
