<svg width="40" height="40" viewBox="0 0 40 40" fill="none" xmlns="http://www.w3.org/2000/svg">
<path d="M35.2936 10.0313L25.6865 0.419636C25.4185 0.151818 25.0525 0 24.6731 0H5.71327C4.92309 0 4.28473 0.638364 4.28473 1.42855V38.5715C4.28473 39.3616 4.92309 40 5.71327 40H34.2847C35.0749 40 35.7133 39.3616 35.7133 38.5715V11.0402C35.7133 10.6607 35.5615 10.2991 35.2936 10.0313ZM32.4185 11.6964H24.0167V3.29455L32.4185 11.6964ZM32.4991 36.7856H7.49909V3.21436H20.9813V12.8571C20.9813 13.3544 21.1787 13.8313 21.5305 14.1829C21.8822 14.5345 22.3591 14.732 22.8564 14.732H32.4993V36.7856H32.4991Z" fill="white"/>
<path d="M14.0282 20.4387C13.9025 20.4314 13.8303 20.4176 13.7604 20.4246C12.7674 20.5217 12.1693 19.8944 12.3565 18.7149C12.447 18.1452 12.9191 17.7957 13.5722 17.793C14.9116 17.7875 16.2514 17.8012 17.5906 17.7803C17.7877 17.7773 18.0265 17.6724 18.171 17.5372C18.9402 16.8181 20.0893 16.8215 20.8585 17.5439C21.0021 17.6786 21.2442 17.7773 21.4427 17.7805C22.7386 17.8012 24.035 17.7898 25.3313 17.7917C26.2384 17.793 26.6771 18.2079 26.6829 19.0639C26.6894 20.0042 26.2903 20.4073 25.3385 20.4235C25.2402 20.4252 25.142 20.433 25.0066 20.44C25.0581 20.5662 25.0909 20.6711 25.1414 20.7669C25.7143 21.8566 26.3046 22.9381 26.8533 24.0394C26.9754 24.2846 27.0298 24.6113 26.9838 24.8787C26.8234 25.8088 26.0703 26.5093 25.1105 26.6066C24.5421 26.6641 23.9566 26.6649 23.3888 26.6031C22.3688 26.4922 21.6017 25.6888 21.512 24.6875C21.4945 24.4925 21.5524 24.2679 21.6435 24.0904C22.2119 22.9828 22.8005 21.8849 23.3802 20.7826C23.4311 20.6859 23.4672 20.5818 23.5247 20.4472C22.6054 20.4472 21.7241 20.4472 20.8187 20.4472C20.8187 23.028 20.8187 25.5877 20.8187 28.1946C21.1786 28.1946 21.5204 28.1881 21.8618 28.1959C22.678 28.2143 23.2986 28.8158 23.3027 29.5848C23.3068 30.3489 22.6858 30.9816 21.875 30.989C20.2907 31.0033 18.7062 31.0044 17.1222 30.988C16.3153 30.9799 15.6995 30.3409 15.7051 29.5745C15.7109 28.8046 16.3291 28.2124 17.1519 28.1955C17.4822 28.1887 17.8127 28.1944 18.1805 28.1944C18.1805 25.6062 18.1805 23.0371 18.1805 20.4455C17.2971 20.4455 16.4236 20.4455 15.4886 20.4455C15.562 20.5996 15.6206 20.7346 15.689 20.8644C16.2632 21.9535 16.8536 23.0347 17.4022 24.136C17.5108 24.3538 17.5212 24.6592 17.4727 24.9041C17.2874 25.8386 16.5479 26.5176 15.5771 26.6107C15.0083 26.6653 14.4228 26.664 13.8555 26.5986C12.843 26.4819 12.0763 25.6571 12.0021 24.6611C11.9885 24.4779 12.0417 24.2688 12.1272 24.1031C12.6973 22.9963 13.2852 21.8982 13.8658 20.7963C13.9169 20.6984 13.9575 20.5949 14.0282 20.4387ZM19.4681 19.5764C19.4681 19.5755 19.4681 19.5747 19.4681 19.5738C19.8279 19.5738 20.1878 19.5736 20.5476 19.5738C22.1457 19.5745 23.7436 19.5713 25.3416 19.5798C25.6554 19.5816 25.8289 19.5006 25.8234 19.153C25.816 18.6948 25.7692 18.633 25.2665 18.6321C23.8556 18.6296 22.4446 18.6249 21.0337 18.6317C20.736 18.633 20.5278 18.5545 20.3503 18.2946C19.9151 17.6573 19.0958 17.6484 18.6633 18.2788C18.4753 18.5526 18.2565 18.6338 17.9434 18.6319C16.5326 18.6233 15.1215 18.6351 13.7109 18.6233C13.3636 18.6205 13.1809 18.6916 13.1772 19.0867C13.1733 19.4949 13.35 19.5846 13.7245 19.5821C15.6387 19.5698 17.5535 19.5764 19.4681 19.5764ZM19.1057 20.4343C19.1057 23.0387 19.1057 25.6064 19.1057 28.171C19.3933 28.171 19.6465 28.171 19.9064 28.171C19.9064 25.5803 19.9064 23.0128 19.9064 20.4343C19.6297 20.4343 19.3871 20.4343 19.1057 20.4343ZM19.4821 30.1579C20.2288 30.1579 20.9753 30.161 21.7219 30.1568C22.175 30.1541 22.4364 29.9495 22.442 29.6081C22.4477 29.2657 22.1812 29.0431 21.7394 29.0422C20.2462 29.0388 18.753 29.0386 17.2598 29.0424C16.8087 29.0435 16.558 29.2575 16.5658 29.6119C16.5732 29.9515 16.8126 30.1526 17.2422 30.1562C17.9887 30.1623 18.7354 30.1577 19.4821 30.1579ZM14.7568 20.9151C14.1806 22.006 13.6559 22.9995 13.1145 24.0248C14.2296 24.0248 15.2823 24.0248 16.3929 24.0248C15.848 22.9891 15.3254 21.9961 14.7568 20.9151ZM25.9013 24.0273C25.355 22.9902 24.8289 21.9917 24.2632 20.9178C23.6909 22.0001 23.166 22.9929 22.619 24.0273C23.7321 24.0273 24.7847 24.0273 25.9013 24.0273ZM12.9232 24.9117C13.1021 25.3538 13.392 25.6835 13.8142 25.7282C14.4484 25.7953 15.1023 25.7937 15.7358 25.7208C16.1533 25.6727 16.431 25.3395 16.5904 24.9117C15.3416 24.9117 14.156 24.9117 12.9232 24.9117ZM22.4294 24.911C22.6724 25.4741 23.0761 25.7563 23.6292 25.801C24.0574 25.8354 24.4936 25.8375 24.9212 25.7991C25.4696 25.7498 25.8782 25.4792 26.0875 24.911C24.8612 24.911 23.6746 24.911 22.4294 24.911Z" fill="white"/>
</svg>
