<svg width="42" height="42" viewBox="0 0 42 42" fill="none" xmlns="http://www.w3.org/2000/svg">
<path d="M31.4859 24.4371C31.4859 24.5686 31.5047 24.6437 31.5047 24.7188C31.5047 25.5829 31.5047 26.4281 31.5047 27.2922C31.3357 27.3485 31.2794 27.1982 31.2043 27.1231C30.6222 26.5408 30.0402 25.9398 29.4394 25.3762C28.0501 24.0238 25.9285 24.0238 24.5954 25.3575C23.2624 26.6911 23.2624 28.8136 24.633 30.2036C25.9848 31.5936 27.3554 32.946 28.7447 34.3172C28.97 34.5426 29.0451 34.7304 28.8198 34.9746C28.8011 34.9934 28.7823 35.031 28.7823 35.0498C28.5758 35.9326 27.9937 36.0453 27.1676 36.0265C21.7792 35.9889 16.3907 36.0077 11.0022 36.0077C10.6267 36.0077 10.4953 35.9326 10.5141 35.5194C10.5328 34.4863 10.5141 34.505 11.5279 34.4863C12.6732 34.4675 13.8373 34.599 14.9826 34.4111C16.7099 34.1106 17.9866 32.6079 18.0054 30.861C18.0241 29.302 18.0241 27.743 18.0054 26.1652C17.9866 24.1553 16.3344 22.5211 14.3066 22.5024C13.7246 22.4836 13.7246 22.4836 13.8748 21.9013C13.9875 21.4505 14.0813 20.9997 14.2128 20.5489C14.3066 20.192 14.2503 19.8914 13.9687 19.666C13.6683 19.4406 13.3679 19.4782 13.0487 19.666C12.2226 20.1356 11.4153 20.6052 10.5141 21.1124C10.5141 20.361 10.5141 19.666 10.5141 18.9898C10.5141 18.8396 10.5704 18.7832 10.7018 18.7269C11.2275 18.4827 11.3214 18.2573 11.2087 17.675C11.0585 16.9049 10.9271 16.1347 10.7394 15.3834C10.6455 15.0265 10.7957 15.0077 11.0773 15.0077C12.5981 15.0077 14.1001 15.0077 15.6209 15.0077C17.8927 15.0077 19.5074 13.3923 19.5074 11.1008C19.5074 10.0301 19.5261 8.94064 19.5074 7.86998C19.5074 7.58823 19.5825 7.47553 19.8829 7.49431C20.2584 7.51309 20.7277 7.36283 20.9718 7.55066C21.2159 7.7385 21.0094 8.22687 21.0094 8.58376C21.0281 11.4201 21.0094 14.2376 21.0094 17.0739C21.0094 19.3843 22.624 20.9997 24.9146 20.9997C26.6607 20.9997 28.4068 20.9997 30.1716 20.9997C30.4908 20.9997 30.6222 21.0185 30.5284 21.4129C30.3406 22.1455 30.2467 22.9156 30.0965 23.6669C30.0214 24.0614 30.0402 24.3807 30.3782 24.6249C30.7161 24.8691 31.0353 24.7376 31.3357 24.531C31.3357 24.4934 31.392 24.4746 31.4859 24.4371Z" fill="white"/>
<path d="M9.38757 16.2665C8.27984 15.4776 7.22843 14.7451 6.1958 13.9937C5.72642 13.6369 5.25704 13.449 4.65624 13.4866C3.86768 13.5241 3.06035 13.5054 2.27179 13.4866C0.995083 13.4678 0.0187751 12.4911 0.0187751 11.2326C0 8.24597 0 5.25939 0 2.29159C0.0187751 0.976744 0.995083 0 2.29057 0C6.75905 0 11.2275 0 15.696 0C17.0291 0 18.0054 0.976744 18.0054 2.31038C18.0054 5.25939 18.0054 8.20841 18.0054 11.1762C18.0054 12.5474 17.0478 13.5054 15.6772 13.5054C13.781 13.5054 11.9034 13.5054 10.0072 13.5054C9.16227 13.5054 8.89942 13.8435 9.0684 14.6887C9.18105 15.1771 9.27492 15.6843 9.38757 16.2665ZM11.3026 6.2737C11.2088 6.0483 11.3214 5.91682 11.4153 5.76655C12.2602 4.62075 12.1851 3.23077 11.2463 2.27281C10.2888 1.31485 8.86187 1.22093 7.75414 2.08497C7.54761 2.23524 7.45373 2.23524 7.24721 2.08497C6.1207 1.23971 4.71256 1.33363 3.75503 2.29159C2.81627 3.23077 2.74117 4.63953 3.56728 5.74776C3.6987 5.91682 3.75503 6.08587 3.75503 6.29249C3.75503 7.62612 3.75503 8.94097 3.75503 10.2746C3.75503 11.0072 4.01788 11.2513 4.75011 11.2513C6.51498 11.2513 8.27984 11.2513 10.0447 11.2513C10.3451 11.2513 10.6643 11.3077 10.9459 11.1011C11.2275 10.8945 11.2651 10.5751 11.2839 10.2182C11.9034 10.5188 12.4855 10.8005 13.0675 11.0635C13.7434 11.3828 14.2503 11.0447 14.2691 10.3122C14.2691 8.92218 14.2691 7.5322 14.2691 6.14222C14.2691 5.35331 13.7622 5.03399 13.0487 5.37209C12.4667 5.67263 11.8847 5.97317 11.3026 6.2737Z" fill="white"/>
<path d="M38.245 34.8621C38.245 37.0974 38.245 39.3326 38.245 41.5679C38.245 41.906 38.1886 42.0187 37.8131 42.0187C35.4475 41.9999 33.1006 41.9999 30.7349 42.0187C30.4533 42.0187 30.2843 41.9248 30.1341 41.6806C28.9325 39.5392 29.0076 37.4167 30.3219 35.3505C30.9039 34.4489 30.9039 34.355 30.1529 33.6036C28.6884 32.1385 27.224 30.6734 25.7407 29.1895C25.1775 28.626 24.9709 27.9498 25.2338 27.1797C25.4779 26.4471 26.0224 26.0339 26.7734 25.9212C27.4117 25.8273 27.9562 26.0527 28.4256 26.5223C30.397 28.4945 32.3871 30.4668 34.3397 32.4578C34.6214 32.7396 34.7528 32.7396 35.0344 32.4578C35.7479 31.7065 35.7479 31.7253 35.0344 31.0115C34.4336 30.4104 33.8516 29.8094 33.2508 29.2271C33.063 29.0392 32.9692 28.8514 32.9692 28.5697C32.9879 26.9543 32.9879 25.3201 32.9692 23.7047C32.9692 23.423 33.063 23.2539 33.2883 23.1036C33.7577 22.7843 34.2083 22.465 34.6589 22.1269C34.8467 21.9766 34.9405 22.0142 35.0907 22.202C35.6915 23.0097 36.3299 23.7611 36.9119 24.5688C37.7568 25.7333 38.2074 27.0482 38.2074 28.4945C38.245 30.5983 38.245 32.7208 38.245 34.8621Z" fill="white"/>
<path d="M22.5677 15.6845C22.4551 15.5154 22.5114 15.3464 22.5114 15.1961C22.5114 12.9233 22.5114 10.6693 22.5114 8.39648C22.5114 6.93136 23.4502 5.99219 24.8958 5.99219C29.7962 5.99219 34.6965 5.99219 39.6156 5.99219C41.0425 5.99219 42 6.93136 42 8.35891C42 10.8196 42 13.2614 42 15.7221C41.8122 15.7972 41.7371 15.6469 41.6245 15.5906C40.6857 14.9707 39.747 14.3509 38.827 13.7122C38.4327 13.4305 38.076 13.4493 37.6629 13.731C36.4801 14.5387 35.2785 15.3276 34.0957 16.1353C33.8704 16.2856 33.7202 16.2856 33.4949 16.1165C31.8051 14.8392 30.0966 13.562 28.4068 12.2847C27.8623 11.8714 27.6746 11.8714 27.1113 12.2847C25.7407 13.299 24.3889 14.3321 23.0371 15.3464C22.8681 15.4779 22.7179 15.5718 22.5677 15.6845ZM36.743 10.4815C36.743 8.8285 35.3724 7.49487 33.7014 7.51365C32.0679 7.53244 30.7349 8.88485 30.7349 10.519C30.7349 12.172 32.0867 13.5244 33.7389 13.5244C35.4099 13.4868 36.743 12.1344 36.743 10.4815Z" fill="white"/>
<path d="M12.2602 21.8262C12.2789 22.2206 12.1287 22.5399 12.0536 22.8593C11.8846 23.5543 12.1663 23.9487 12.8797 23.9863C13.3491 24.0051 13.8185 23.9863 14.2879 24.0051C15.5083 24.0238 16.4846 25.0006 16.4846 26.2215C16.5033 27.743 16.5033 29.2457 16.4846 30.7671C16.4846 32.0069 15.4895 33.0024 14.2503 33.0024C10.2324 33.0024 6.23333 33.0024 2.21545 33.0024C0.995065 33.0024 -1.77603e-05 32.0069 -1.77603e-05 30.8047C-0.0187929 29.2832 -0.0187929 27.743 -1.77603e-05 26.2215C0.0187574 25.0194 0.995065 24.0238 2.21545 24.0238C4.01786 24.0051 5.83905 24.0051 7.64147 24.0238C8.20472 24.0238 8.6741 23.8924 9.14348 23.6106C10.1761 22.9908 11.2087 22.4272 12.2602 21.8262ZM8.24227 29.2457C6.32721 29.2457 4.39337 29.2457 2.4783 29.2457C1.48322 29.2457 1.52077 29.2457 1.48322 30.2412C1.46444 30.6544 1.57709 30.7484 1.99015 30.7484C5.97048 30.7296 9.95081 30.7296 13.9311 30.7296C15.0013 30.7296 14.9825 30.7296 15.0013 29.6589C15.0013 29.302 14.9074 29.2081 14.5695 29.2269C12.4667 29.2645 10.3639 29.2457 8.24227 29.2457ZM5.67008 26.2403C4.61867 26.2403 3.58604 26.2403 2.53463 26.2403C1.48322 26.2403 1.50199 26.2403 1.48322 27.2734C1.48322 27.6303 1.55832 27.743 1.93382 27.743C4.16807 27.7242 6.40231 27.7242 8.63655 27.7242C9.76306 27.7242 9.74428 27.7242 9.74428 26.616C9.74428 26.2591 9.61286 26.2215 9.31246 26.2215C8.11085 26.2591 6.89046 26.2403 5.67008 26.2403ZM13.1426 27.743C13.3867 27.743 13.6495 27.743 13.8936 27.743C15.0389 27.743 15.0201 27.743 15.0201 26.5972C15.0201 26.2967 14.9074 26.2403 14.6446 26.2403C13.8936 26.2591 13.1426 26.2403 12.3916 26.2403C11.2087 26.2403 11.2275 26.2403 11.2463 27.4237C11.2463 27.7054 11.3402 27.7618 11.603 27.7618C12.11 27.743 12.6169 27.743 13.1426 27.743Z" fill="white"/>
<path d="M19.2069 37.4917C21.9481 37.4917 24.7081 37.4917 27.4492 37.4917C27.806 37.4917 27.8998 37.5668 27.8623 37.9425C27.7496 39.2198 27.9186 40.4595 28.4819 41.6241C28.6133 41.887 28.6133 41.9809 28.2566 41.9809C23.0746 41.9622 17.8927 41.9809 12.7107 41.9622C11.4904 41.9622 10.5328 40.9666 10.514 39.7457C10.514 39.1258 10.5328 38.4872 10.4953 37.8673C10.4765 37.5292 10.5891 37.4541 10.9083 37.4541C13.687 37.5105 16.447 37.4917 19.2069 37.4917ZM20.9906 40.497C21.7604 40.497 21.7604 40.497 21.7604 39.9335C21.7604 38.9944 21.7604 38.9944 21.1783 38.9944C20.2583 38.9944 20.2583 38.9944 20.2583 39.633C20.2396 40.497 20.2396 40.497 20.9906 40.497Z" fill="white"/>
<path d="M31.8614 22.2772C31.9928 21.6197 32.1055 21.0938 32.2181 20.5491C32.3495 19.8729 32.0491 19.4784 31.3732 19.4784C29.1953 19.4784 26.9986 19.4784 24.8207 19.4784C23.8256 19.4784 22.9807 18.8773 22.6616 17.9757C22.5677 17.694 22.6052 17.5249 22.8493 17.3371C24.4077 16.1913 25.9472 15.0267 27.4868 13.8621C27.6933 13.6931 27.8247 13.6931 28.05 13.8621C29.7398 15.1394 31.4483 16.4167 33.1381 17.694C33.6826 18.1072 33.8516 18.1072 34.4336 17.7128C35.6164 16.9239 36.7992 16.1349 37.9633 15.3273C38.1886 15.177 38.3576 15.177 38.5829 15.3273C39.6155 16.041 40.6482 16.736 41.6996 17.4122C41.9436 17.5813 41.9812 17.7315 41.8873 17.9945C41.5681 18.8773 40.7233 19.4784 39.7657 19.4972C38.6017 19.4972 37.4188 19.516 36.2548 19.4972C35.9168 19.4972 35.654 19.5911 35.3911 19.779C34.2271 20.6054 33.0818 21.4131 31.8614 22.2772Z" fill="white"/>
<path d="M24.6517 3.00534C26.1725 3.00534 27.7121 3.00534 29.2329 3.00534C30.0778 3.00534 30.7161 3.41858 31.1667 4.11357C31.3545 4.39532 31.3169 4.50802 30.9414 4.50802C28.97 4.48924 26.9986 4.50802 25.046 4.48924C23.7881 4.47046 22.7179 4.86491 21.8918 5.82287C21.7979 5.93557 21.6853 5.99192 21.5351 5.99192C20.953 5.99192 20.371 5.97314 19.8078 5.99192C19.5637 5.99192 19.4886 5.91679 19.4886 5.6726C19.5073 4.88369 19.5073 4.11357 19.4886 3.32466C19.4698 3.00534 19.62 2.96777 19.8829 2.96777C21.46 3.00534 23.0559 3.00534 24.6517 3.00534Z" fill="white"/>
<path d="M7.51001 9.7483C6.85288 9.7483 6.19575 9.7483 5.53862 9.7483C5.31332 9.7483 5.23822 9.69195 5.23822 9.46655C5.257 8.65886 5.257 7.85116 5.23822 7.04347C5.23822 6.79929 5.3321 6.76172 5.53862 6.76172C6.83411 6.76172 8.12959 6.76172 9.42508 6.76172C9.66915 6.76172 9.74426 6.81807 9.74426 7.08104C9.72548 7.86995 9.72548 8.67764 9.74426 9.46655C9.74426 9.72952 9.65038 9.78587 9.4063 9.76709C8.78672 9.7483 8.14837 9.7483 7.51001 9.7483Z" fill="white"/>
<path d="M5.63255 3.00488C6.25213 3.00488 6.75906 3.53082 6.74029 4.15068C6.72151 4.77054 6.19581 5.27769 5.595 5.25891C4.9942 5.24012 4.50604 4.73297 4.50604 4.1319C4.50604 3.51204 5.03175 3.00488 5.63255 3.00488Z" fill="white"/>
<path d="M9.40631 3.00537C10.0259 3.02415 10.5328 3.55009 10.514 4.15117C10.4953 4.77102 9.95079 5.2594 9.34999 5.24061C8.76796 5.22183 8.26103 4.69589 8.2798 4.1136C8.26103 3.51253 8.78673 2.98659 9.40631 3.00537Z" fill="white"/>
<path d="M12.7483 9.27908C12.2602 9.03489 11.8283 8.84706 11.4341 8.62166C11.1524 8.47139 11.1712 8.02058 11.4528 7.87031C11.8471 7.6637 12.2602 7.45708 12.7483 7.21289C12.7483 7.58856 12.7483 7.8891 12.7483 8.20842C12.7483 8.54652 12.7483 8.86584 12.7483 9.27908Z" fill="white"/>
<path d="M32.2369 10.4998C32.2369 9.67328 32.9128 8.99707 33.7577 8.99707C34.5651 9.01585 35.241 9.67328 35.241 10.4998C35.241 11.3262 34.5463 12.0024 33.7202 12.0024C32.9128 11.9837 32.2369 11.3074 32.2369 10.4998Z" fill="white"/>
</svg>
