<svg width="39" height="52" viewBox="0 0 39 52" fill="none" xmlns="http://www.w3.org/2000/svg">
<path d="M39 15.1302C39 27.0109 39 38.8916 39 50.7724C38.6319 51.5851 38.0473 52.0012 37.1097 52.0001C25.3686 51.9861 13.6274 51.9912 1.8864 51.9884C1.66857 51.9884 1.4431 51.9805 1.23423 51.9263C0.41287 51.7135 0.0140512 51.0958 0.0140512 50.0646C0.0134404 34.0912 0.0192425 18.1178 3.93792e-06 2.14444C-0.00121756 1.13881 0.281458 0.405446 1.23189 0C8.94789 0 16.664 0 24.3801 0C24.7367 0.246828 25.1465 0.442277 25.4419 0.748218C29.685 5.1426 33.9158 9.54878 38.1379 13.9632C38.4695 14.3099 38.7147 14.7392 39 15.1302ZM21.1312 3.28619C15.1413 3.28619 9.21458 3.28619 3.30222 3.28619C3.30222 18.456 3.30222 33.589 3.30222 48.7155C14.1293 48.7155 24.9166 48.7155 35.7211 48.7155C35.7211 38.43 35.7211 28.1704 35.7211 17.8719C35.5094 17.8719 35.3264 17.8719 35.1432 17.8719C31.1169 17.8719 27.0905 17.8726 23.0641 17.8715C21.7473 17.871 21.1322 17.2616 21.1317 15.9551C21.1303 11.928 21.1312 7.90105 21.1312 3.87396C21.1312 3.68961 21.1312 3.50535 21.1312 3.28619ZM34.2649 14.6083C30.9462 11.1554 27.7052 7.78344 24.4154 4.3606C24.4154 7.84743 24.4154 11.2209 24.4154 14.6083C27.6775 14.6083 30.9042 14.6083 34.2649 14.6083Z" fill="white"/>
<path d="M27.1143 38.6161C27.9364 36.8288 28.6989 35.1761 29.4565 33.5213C29.7374 32.9076 30.0045 32.2876 30.2818 31.6721C30.5716 31.0287 31.5395 30.7619 32.1337 31.1583C32.5154 31.4131 32.5987 31.8076 32.3545 32.3246C31.7778 33.5456 31.1812 34.7573 30.6124 35.9818C29.7807 37.7727 28.9665 39.5718 28.1443 41.3671C27.8351 42.0421 27.5934 42.1482 26.6622 42.0983C26.0849 42.0674 25.8601 41.7158 25.7021 41.2214C24.7781 38.328 23.8374 35.4401 22.9067 32.5488C22.8349 32.3259 22.7231 32.0788 22.7618 31.867C22.8086 31.6107 22.9361 31.2998 23.1333 31.1531C23.7393 30.7021 24.6964 31.0667 24.9266 31.7898C25.5871 33.8639 26.2471 35.938 26.908 38.0118C26.9578 38.1679 27.0136 38.3218 27.1143 38.6161Z" fill="white"/>
<path d="M12.2788 30.8569C12.7095 30.9193 13.3831 30.9849 14.0422 31.1208C14.7664 31.2701 15.1472 32.426 14.6904 33.0115C14.4229 33.3544 14.0703 33.346 13.6789 33.2713C12.987 33.1392 12.2805 32.9162 11.5939 32.9579C9.89873 33.061 8.80977 34.2314 8.66787 36.0222C8.61789 36.6534 8.65444 37.3119 8.77842 37.9326C9.08562 39.4698 10.406 40.3703 11.969 40.155C12.4846 40.084 12.993 39.9499 13.4996 39.8245C14.125 39.6696 14.5743 39.8367 14.7168 40.3018C14.8904 40.8683 14.5888 41.7433 14.1185 41.8704C12.8865 42.2033 11.6366 42.3859 10.3656 42.0796C8.3116 41.5845 7.10893 40.2792 6.68009 38.2235C6.35883 36.6832 6.5047 35.1818 7.14873 33.763C8.09275 31.6832 9.86199 30.917 12.2788 30.8569Z" fill="white"/>
<path d="M19.5429 30.8613C19.9076 30.9155 20.4453 30.9748 20.9741 31.0792C21.6071 31.204 21.7442 31.7923 21.649 32.6243C21.59 33.1409 21.1231 33.3316 20.4982 33.1882C20.0716 33.0903 19.6428 32.9885 19.2092 32.9386C18.8043 32.892 18.4221 32.9986 18.2121 33.394C18.0018 33.79 18.1873 34.1188 18.4605 34.399C19.3224 35.2827 20.2036 36.1475 21.0566 37.0395C21.7753 37.7909 22.0618 38.7006 21.9476 39.738C21.8103 40.9844 20.8712 41.9064 19.503 42.1574C18.3987 42.36 17.3491 42.1587 16.3278 41.7568C15.7944 41.5468 15.5342 40.6283 15.8117 40.0364C16.0334 39.5635 16.4584 39.5119 17.1258 39.7282C17.7393 39.9271 18.3964 40.1389 19.0241 40.1117C19.9038 40.0735 20.1625 39.3492 19.5823 38.6861C19.0381 38.0641 18.4241 37.5032 17.8425 36.9139C17.5339 36.6013 17.2154 36.2969 16.9241 35.9686C15.978 34.9016 15.7243 33.6968 16.3842 32.4088C16.9965 31.2137 18.1154 30.8862 19.5429 30.8613Z" fill="white"/>
</svg>
