<svg width="9" height="11" viewBox="0 0 9 11" fill="none" xmlns="http://www.w3.org/2000/svg">
<g id="shape">
<path id="shape_2" fill-rule="evenodd" clip-rule="evenodd" d="M9 1.83333C9 1 6.98528 0 4.5 0C2.01472 0 0 0.820811 0 1.83333V9.16667C0 10.1792 2.01472 11 4.5 11C6.98528 11 9 10.1792 9 9.16667V1.83333ZM1 1.89086C1.00958 1.87884 1.0246 1.86187 1.04737 1.83995C1.15323 1.73798 1.35904 1.60006 1.69532 1.46306C2.36284 1.19111 3.35395 1 4.5 1C5.61841 1 6.60605 1.22671 7.28315 1.52119C7.62489 1.66982 7.8473 1.81823 7.9668 1.92892C7.97994 1.9411 7.99091 1.95188 8 1.96127V2C8 2.01277 7.99489 2.08479 7.85396 2.20974C7.71361 2.33417 7.48199 2.46907 7.15287 2.5925C6.4983 2.83796 5.56049 3 4.5 3C3.43951 3 2.5017 2.83796 1.84713 2.5925C1.51801 2.46907 1.28639 2.33417 1.14604 2.20974C1.00511 2.08479 1 2.01277 1 2V1.89086ZM7.50399 3.52882C7.67869 3.46331 7.84545 3.3899 8 3.3081V5C8 5.01277 7.99489 5.08479 7.85396 5.20974C7.71361 5.33417 7.48199 5.46907 7.15287 5.5925C6.4983 5.83796 5.56049 6 4.5 6C3.43951 6 2.5017 5.83796 1.84713 5.5925C1.51801 5.46907 1.28639 5.33417 1.14604 5.20974C1.00511 5.08479 1 5.01277 1 5V3.3081C1.15455 3.3899 1.32131 3.46331 1.49601 3.52882C2.28916 3.82626 3.35135 4 4.5 4C5.64865 4 6.71084 3.82626 7.50399 3.52882ZM1 6.3081C1.15455 6.3899 1.32131 6.46331 1.49601 6.52882C2.28916 6.82626 3.35135 7 4.5 7C5.64865 7 6.71084 6.82626 7.50399 6.52882C7.67869 6.46331 7.84545 6.3899 8 6.3081V9.10914C7.99042 9.12116 7.9754 9.13813 7.95263 9.16006C7.84677 9.26202 7.64096 9.39994 7.30468 9.53694C6.63716 9.80889 5.64605 10 4.5 10C3.35395 10 2.36284 9.80889 1.69532 9.53694C1.35904 9.39994 1.15323 9.26202 1.04737 9.16006C1.0246 9.13813 1.00958 9.12116 1 9.10914V6.3081ZM8.01294 9.09118L8.01483 9.08781C8.01448 9.08846 8.01348 9.08998 8.01294 9.09118Z" fill="#ffffff"/>
</g>
</svg>
