 <svg
      width="18"
      height="18"
      viewBox="0 0 18 18"
      fill="none"
      xmlns="http://www.w3.org/2000/svg"
    >
      <circle
        cx="8.67429"
        cy="8.67429"
        r="8.42429"
        fill="red"
        stroke="red"
        strokeWidth="0.5"
      />
      <path
        d="M10.4776 9.00524C10.4776 9.93817 10.4776 10.8678 10.4776 11.8007C10.4776 12.029 10.3651 12.1878 10.1699 12.2308C10.1335 12.2407 10.0938 12.2407 10.0541 12.2407C9.19396 12.2407 8.33381 12.2407 7.47366 12.2407C7.20569 12.2407 7.04689 12.0819 7.04358 11.814C7.04358 10.9604 7.04358 10.1036 7.04358 9.25005C7.04358 9.22027 7.04689 9.18719 7.05351 9.16073C7.07005 9.10448 7.11306 9.07802 7.17261 9.07802C7.23215 9.08133 7.27185 9.1111 7.28509 9.17065C7.2917 9.20373 7.2917 9.24343 7.2917 9.27652C7.2917 10.1102 7.2917 10.9406 7.2917 11.7743C7.2917 11.9529 7.3314 11.9926 7.51005 11.9926C8.34374 11.9926 9.18073 11.9926 10.0144 11.9926C10.1831 11.9926 10.2261 11.9496 10.2261 11.7842C10.2261 9.92825 10.2261 8.07561 10.2261 6.21967C10.2261 6.05425 10.1831 6.01124 10.0144 6.01124C9.17742 6.01124 8.33712 6.01124 7.50012 6.01124C7.3314 6.01124 7.2917 6.05425 7.2917 6.22297C7.2917 6.65967 7.29501 7.09305 7.28839 7.52974C7.28839 7.60253 7.30824 7.62568 7.38103 7.62238C7.47366 7.61576 7.57291 7.63561 7.66223 7.61576C7.76148 7.5926 7.77471 7.47681 7.83095 7.40403C8.13531 7.02689 8.63817 6.86809 9.10133 7.00704C9.56449 7.14598 9.89532 7.55621 9.93833 8.04253C9.99788 8.72734 9.45863 9.32614 8.7705 9.32614C8.32389 9.32614 7.97652 9.12764 7.74494 8.74057C7.71185 8.68433 7.67546 8.66118 7.6093 8.66448C6.77561 8.66779 5.94523 8.66448 5.11155 8.66779C4.92297 8.66779 4.75756 8.61817 4.63846 8.46268C4.51606 8.30388 4.4929 8.12523 4.5723 7.93997C4.6517 7.76132 4.79064 7.65546 4.98914 7.62899C5.09831 7.61576 5.2108 7.62238 5.31997 7.62238C5.86583 7.62238 6.4117 7.61907 6.95757 7.62238C7.03035 7.62238 7.0502 7.60253 7.0502 7.52974C7.04689 7.09305 7.04689 6.65967 7.0502 6.22297C7.0502 5.9153 7.20238 5.76312 7.51336 5.76312C8.34704 5.76312 9.18404 5.76312 10.0177 5.76312C10.332 5.76312 10.4809 5.9153 10.4809 6.22959C10.4776 7.1526 10.4776 8.07892 10.4776 9.00524ZM6.90463 8.41305C7.49682 8.41305 8.089 8.41305 8.68118 8.41305C8.72088 8.41305 8.76389 8.41305 8.80359 8.40644C8.93592 8.38659 9.03186 8.27742 9.03186 8.14178C9.03517 8.00614 8.93592 7.89035 8.80028 7.8705C8.76389 7.86388 8.72419 7.86388 8.68449 7.86388C7.49682 7.86388 6.30914 7.86388 5.12147 7.86388C5.07846 7.86388 5.03215 7.86388 4.98914 7.8738C4.84027 7.90027 4.74433 8.05907 4.78403 8.20463C4.82042 8.34358 4.92297 8.41305 5.0917 8.41305C5.69711 8.41305 6.30253 8.41305 6.90463 8.41305ZM7.99968 8.67441C8.20479 9.00854 8.67126 9.16073 9.06163 9.02839C9.47186 8.88614 9.73652 8.48253 9.69351 8.05907C9.6472 7.62238 9.31306 7.2717 8.89953 7.21546C8.47276 7.15591 8.09892 7.40403 8.00298 7.61907C8.04268 7.61907 8.07577 7.61907 8.11216 7.61907C8.34374 7.62238 8.57532 7.60583 8.8069 7.62568C9.07817 7.64884 9.27998 7.86719 9.28329 8.13847C9.2866 8.40644 9.08148 8.6314 8.81351 8.65456C8.57862 8.67441 8.34043 8.65787 8.10223 8.66448C8.07246 8.66448 8.03937 8.65456 7.99968 8.67441Z"
        fill="white"
        strokeWidth="1"
      />
      <path
        d="M12.0695 5.88866C12.0695 6.44114 12.0695 6.99694 12.0695 7.54942C12.0695 7.84055 11.9173 7.99273 11.6261 7.99604C11.3979 7.99604 11.1696 7.99604 10.9413 7.99604C10.9149 7.99604 10.8851 7.99604 10.8586 7.98942C10.7958 7.97619 10.7627 7.93649 10.7627 7.87363C10.7627 7.81408 10.7925 7.77438 10.8487 7.75784C10.8785 7.74792 10.9149 7.74792 10.948 7.74792C11.1696 7.74792 11.3946 7.74792 11.6162 7.74792C11.775 7.74792 11.818 7.70491 11.818 7.54942C11.818 6.43784 11.818 5.32625 11.818 4.21798C11.818 4.0658 11.7717 4.02279 11.6195 4.02279C11.2655 4.02279 10.9083 4.02279 10.5543 4.02279C10.4914 4.02279 10.4749 4.03933 10.4782 4.10219C10.4815 4.49257 10.4782 4.88625 10.4782 5.27663C10.4782 5.29979 10.4782 5.31964 10.4782 5.3428C10.4716 5.43212 10.4219 5.48505 10.3458 5.48174C10.2731 5.47843 10.2301 5.4255 10.2301 5.33949C10.2301 4.93257 10.2267 4.52234 10.2301 4.11542C10.2301 4.04264 10.2135 4.02279 10.1407 4.02279C9.94885 4.02941 9.94885 4.02279 9.94885 4.21467C9.94885 4.57197 9.94885 4.93257 9.94885 5.28986C9.94885 5.32625 9.94885 5.36265 9.93562 5.39573C9.91908 5.45528 9.87276 5.48505 9.8099 5.47843C9.75035 5.47182 9.71396 5.43874 9.70404 5.37919C9.69742 5.34941 9.70073 5.31964 9.70073 5.28986C9.70073 4.89949 9.69742 4.5058 9.70073 4.11542C9.70073 4.04595 9.6875 4.01948 9.61141 4.02279C9.46253 4.02941 9.41622 4.06911 9.41622 4.21467C9.41622 4.56866 9.41622 4.91934 9.41622 5.27332C9.41622 5.29648 9.41622 5.31633 9.41622 5.33949C9.4096 5.42881 9.35998 5.48174 9.28719 5.47843C9.21441 5.47513 9.1681 5.4255 9.1681 5.33618C9.1681 4.9458 9.16479 4.55212 9.1681 4.16174C9.1714 3.93347 9.33682 3.77467 9.56509 3.77467C10.2698 3.77136 10.9678 3.77136 11.6692 3.77136C11.9074 3.77136 12.0695 3.94008 12.0695 4.1849C12.0695 4.75392 12.0695 5.32295 12.0695 5.88866Z"
        fill="white"
        strokeWidth="1"
      />
    </svg>
