<svg width="32" height="40" viewBox="0 0 32 40" fill="none" xmlns="http://www.w3.org/2000/svg">
<path d="M31.0089 10.0313L21.4018 0.419636C21.1338 0.151818 20.7678 0 20.3884 0H1.42855C0.638364 0 0 0.638364 0 1.42855V38.5715C0 39.3616 0.638364 40 1.42855 40H30C30.7902 40 31.4285 39.3616 31.4285 38.5715V11.0402C31.4285 10.6607 31.2767 10.2991 31.0089 10.0313ZM28.1338 11.6964H19.732V3.29455L28.1338 11.6964ZM28.2144 36.7856H3.21436V3.21436H16.6965V12.8571C16.6965 13.3544 16.894 13.8313 17.2458 14.1829C17.5975 14.5345 18.0744 14.732 18.5716 14.732H28.2145V36.7856H28.2144Z" fill="white"/>
<path d="M23.3486 23.1186C23.3108 23.3788 23.2828 23.641 23.2337 23.899C22.9139 25.5817 22.0655 26.9419 20.6993 27.969C19.5006 28.8701 18.1375 29.2986 16.6402 29.2685C15.1704 29.2388 13.8526 28.7634 12.696 27.8506C12.6569 27.8199 12.6171 27.7901 12.5782 27.7603C11.3555 28.9834 10.1348 30.2048 8.92294 31.417C8.63294 31.1257 8.35676 30.8483 8.0824 30.5726C9.28622 29.3688 10.5064 28.149 11.7329 26.9225C11.6739 26.8457 11.6293 26.7883 11.5851 26.7308C10.7793 25.6861 10.2988 24.5092 10.2282 23.1905C10.0884 20.575 11.1342 18.5423 13.322 17.1106C14.1986 16.537 15.1795 16.2355 16.2251 16.1508C16.2689 16.1472 16.3119 16.1337 16.3553 16.125C16.6342 16.125 16.9131 16.125 17.1922 16.125C17.2357 16.1337 17.2788 16.1474 17.3226 16.1506C18.028 16.2032 18.71 16.3614 19.3533 16.6525C21.4735 17.6117 22.7757 19.2321 23.2379 21.5172C23.2888 21.7692 23.3126 22.0268 23.3489 22.2817C23.3486 22.5606 23.3486 22.8395 23.3486 23.1186ZM16.7831 17.3205C13.822 17.3143 11.4019 19.7265 11.3959 22.6899C11.3899 25.649 13.8046 28.0712 16.7669 28.0775C19.7269 28.0837 22.1473 25.6699 22.1529 22.7059C22.1584 19.7428 19.7495 17.3266 16.7831 17.3205Z" fill="white"/>
<path d="M15.8765 25.4516C15.6743 25.8003 15.4805 26.1348 15.2813 26.4785C14.7433 26.1616 14.3502 25.7323 14.0845 25.1859C13.8854 24.7768 13.788 24.3427 13.7869 23.8881C13.7849 23.0914 13.7823 22.2947 13.7873 21.4979C13.7969 19.9312 14.9873 18.6516 16.55 18.5217C18.0763 18.395 19.4685 19.483 19.7194 21.0201C19.776 21.3661 19.7609 21.7237 19.7793 22.089C19.3671 22.089 18.9771 22.089 18.5673 22.089C18.5673 21.8983 18.5682 21.7061 18.5671 21.5137C18.5613 20.4928 17.7556 19.7003 16.7349 19.711C15.8074 19.7207 15.0034 20.4981 14.986 21.4299C14.9702 22.2712 14.9696 23.1132 14.9873 23.9545C14.9996 24.5423 15.2705 25.0117 15.7462 25.3599C15.7854 25.3892 15.8262 25.4165 15.8765 25.4516Z" fill="white"/>
<path d="M16.1873 20.9141C16.5842 20.9141 16.9702 20.9141 17.364 20.9141C17.364 22.107 17.364 23.2928 17.364 24.4857C16.9702 24.4857 16.5842 24.4857 16.1873 24.4857C16.1873 23.2979 16.1873 22.1121 16.1873 20.9141Z" fill="white"/>
<path d="M18.5533 23.3008C18.9746 23.3008 19.3573 23.3008 19.7397 23.3008C19.8788 24.4441 19.5377 25.7224 18.2681 26.4764C18.0724 26.1393 17.8768 25.8022 17.6722 25.4495C18.4828 24.9531 18.6459 24.1806 18.5533 23.3008Z" fill="white"/>
</svg>
