<svg width="52" height="52" viewBox="0 0 52 52" fill="none" xmlns="http://www.w3.org/2000/svg">
<g clip-path="url(#clip0_4129_44336)">
<path d="M45.8819 13.0348L33.3926 0.545536C33.0444 0.197322 32.5743 0 32.081 0H7.42746C6.40022 0 5.57031 0.829911 5.57031 1.85714V50.1429C5.57031 51.1701 6.40022 52 7.42746 52H44.5703C45.5975 52 46.4275 51.1701 46.4275 50.1429V14.3522C46.4275 13.8589 46.2301 13.383 45.8819 13.0348ZM42.1444 15.2054H31.2221V4.28304L42.1444 15.2054ZM42.2489 47.8214H9.74888V4.17857H27.2757V16.7143C27.2757 17.3608 27.5325 17.9807 27.9896 18.4379C28.4467 18.895 29.0667 19.1518 29.7132 19.1518H42.2489V47.8214ZM26.1208 29.9522L22.5342 24.0094C22.4065 23.8004 22.1801 23.6728 21.9364 23.6728H19.7078C19.5743 23.6728 19.4467 23.7076 19.3364 23.783C19.0114 23.9862 18.9127 24.4156 19.1217 24.7464L23.898 32.3143L19.0578 40.0214C18.9921 40.1271 18.9557 40.2485 18.9526 40.3729C18.9495 40.4974 18.9796 40.6204 19.04 40.7293C19.1003 40.8382 19.1887 40.929 19.2959 40.9923C19.4031 41.0555 19.5253 41.089 19.6498 41.0893H21.652C21.8958 41.0893 22.1163 40.9616 22.244 40.7585L25.8828 34.8679L29.4984 40.7527C29.6261 40.9616 29.8525 41.0835 30.0904 41.0835H32.2667C32.4002 41.0835 32.5279 41.0429 32.644 40.9732C32.969 40.7643 33.0618 40.3348 32.8529 40.0098L27.9779 32.442L32.9284 24.7522C32.9954 24.6468 33.0329 24.5254 33.0371 24.4006C33.0412 24.2758 33.0119 24.1521 32.952 24.0425C32.8922 23.9329 32.804 23.8413 32.6968 23.7773C32.5895 23.7133 32.4671 23.6792 32.3422 23.6786H30.2703C30.0266 23.6786 29.8002 23.8062 29.6725 24.0152L26.1208 29.9522Z" fill="white"/>
</g>
<defs>
<clipPath id="clip0_4129_44336">
<rect width="52" height="52" fill="white"/>
</clipPath>
</defs>
</svg>
