<svg width="64" height="53" viewBox="0 0 64 53" fill="none" xmlns="http://www.w3.org/2000/svg">
<path d="M55.7338 14.7156H29.0535V41.0079H55.7338V14.7156Z" fill="white"/>
<path d="M57.1608 42.4349H27.6265V13.2886H57.1608V42.4349ZM30.4804 39.5809H54.3068V16.1431H30.4804V39.5809Z" fill="black"/>
<path d="M51.2572 10.1897H27.6018V36.4819H51.2572V10.1897Z" fill="white"/>
<path d="M52.6839 37.9089H26.1746V8.76225H52.6839V37.9089ZM29.0285 35.055H49.83V11.6167H29.0285V35.055Z" fill="black"/>
<path d="M46.8156 6.02898H23.1602V32.3212H46.8156V6.02898Z" fill="white"/>
<path d="M48.2425 33.7482H21.7332V4.60155H48.2425V33.7482ZM24.5871 30.8943H45.3886V7.45597H24.5871V30.8943Z" fill="black"/>
<path d="M38.964 3.85783V0.714081L35.3851 1.85996L31.8062 0.714081V3.85783H28.8577V8.6466H41.9122V3.85783H38.964Z" fill="white"/>
<path d="M41.9127 9.36055H28.8578C28.4633 9.36055 28.1438 9.04105 28.1438 8.6466V3.85783C28.1438 3.46338 28.4633 3.14388 28.8578 3.14388H31.0919V0.714537C31.0919 0.486457 31.2007 0.272089 31.3854 0.137709C31.5696 0.0028725 31.8068 -0.035524 32.0239 0.0339512L35.3852 1.10991L38.7465 0.0339512C38.9641 -0.035524 39.2009 0.0028725 39.3851 0.137709C39.5693 0.272089 39.6785 0.486457 39.6785 0.714537V3.14388H41.9127C42.3071 3.14388 42.6266 3.46338 42.6266 3.85783V8.6466C42.6266 9.04105 42.3071 9.36055 41.9127 9.36055ZM29.5722 7.93219H41.1987V4.57178H38.9646C38.5701 4.57178 38.2506 4.25229 38.2506 3.85783V1.69267L35.6032 2.54009C35.4611 2.5858 35.3093 2.5858 35.1677 2.54009L32.5207 1.69267V3.85783C32.5207 4.25229 32.2012 4.57178 31.8068 4.57178H29.5726V7.93219H29.5722Z" fill="black"/>
<path d="M43.3735 19.7736H26.3497C26.0193 19.7736 25.751 19.5053 25.751 19.1749C25.751 18.8444 26.0193 18.5761 26.3497 18.5761H43.3735C43.7039 18.5761 43.9722 18.8444 43.9722 19.1749C43.9722 19.5053 43.7039 19.7736 43.3735 19.7736Z" fill="black"/>
<path d="M43.3735 23.3064H26.3497C26.0193 23.3064 25.751 23.0381 25.751 22.7076C25.751 22.3771 26.0193 22.1088 26.3497 22.1088H43.3735C43.7039 22.1088 43.9722 22.3771 43.9722 22.7076C43.9722 23.0381 43.7039 23.3064 43.3735 23.3064Z" fill="black"/>
<path d="M43.3735 26.8395H26.3497C26.0193 26.8395 25.751 26.5712 25.751 26.2408C25.751 25.9103 26.0193 25.642 26.3497 25.642H43.3735C43.7039 25.642 43.9722 25.9103 43.9722 26.2408C43.9722 26.5712 43.7039 26.8395 43.3735 26.8395Z" fill="black"/>
<path d="M43.3736 29.8644H37.6693C37.3389 29.8644 37.0706 29.5961 37.0706 29.2657C37.0706 28.9352 37.3389 28.6669 37.6693 28.6669H43.3736C43.7041 28.6669 43.9724 28.9352 43.9724 29.2657C43.9724 29.5961 43.7041 29.8644 43.3736 29.8644Z" fill="black"/>
<path d="M25.5943 41.3713C30.7821 41.3713 34.9876 37.9373 34.9876 33.7016C34.9876 30.0148 31.8009 26.9364 27.5547 26.2001C27.556 26.1439 27.5597 26.0881 27.5597 26.0314C27.5597 21.7953 23.3542 18.3617 18.1664 18.3617C12.9786 18.3617 8.77305 21.7957 8.77305 26.0314C8.77305 26.1027 8.77716 26.1731 8.77945 26.244C4.65024 27.0512 1.58008 30.0825 1.58008 33.7011C1.58008 37.9373 5.78561 41.3708 10.9734 41.3708H25.5943V41.3713Z" fill="white"/>
<path d="M25.5943 42.9514H10.9739C4.92314 42.9514 0 38.8021 0 33.7016C0 29.7337 2.92939 26.2901 7.26199 24.9925C7.8763 20.3792 12.5325 16.7816 18.1669 16.7816C23.7729 16.7816 28.4099 20.3427 29.0621 24.9225C33.4788 26.1608 36.5682 29.6958 36.5682 33.7016C36.5677 38.8016 31.6455 42.9514 25.5943 42.9514ZM18.1664 19.9418C13.858 19.9418 10.3532 22.6737 10.3532 26.0314L10.4053 27.5361L9.08252 27.7948C5.5955 28.4758 3.16021 30.9052 3.16021 33.7011C3.16021 37.0592 6.66505 39.7907 10.9734 39.7907H25.5943C29.9027 39.7907 33.4075 37.0588 33.4075 33.7011C33.4075 30.8723 30.8324 28.3721 27.2846 27.7564L25.9421 27.5238L25.9783 26.0648C25.9796 22.6733 22.4748 19.9418 18.1664 19.9418Z" fill="black"/>
<path d="M33.2621 11.7049C33.439 11.7177 33.6077 11.73 33.7759 11.7419C33.7763 11.7584 33.7773 11.7753 33.7777 11.7918C33.7325 11.8023 33.6868 11.8105 33.6424 11.8233C33.4299 11.8859 33.3645 12.0089 33.4655 12.2068C33.6031 12.4751 33.7169 12.7489 34.0748 12.8403C34.2494 12.8851 34.3907 13.0108 34.6009 12.9495C34.6763 12.9276 34.7993 13.0149 34.8802 13.078C35.1229 13.2672 35.3363 13.2772 35.5649 13.0752C35.6979 12.9577 35.8309 12.9107 36.0087 12.9669C36.0727 12.987 36.1618 12.9418 36.2345 12.9139C36.3332 12.8759 36.4242 12.8151 36.5247 12.7831C36.6934 12.7297 37.0901 12.1917 37.0225 12.0377C36.9713 11.9206 36.8195 11.848 36.7053 11.7488C36.8397 11.7342 37.0088 11.7159 37.2154 11.693C37.2154 11.9554 37.2501 12.2342 37.203 12.4988C37.1724 12.6721 37.0252 12.8252 36.9265 12.9852C36.8867 13.0496 36.8456 13.1182 36.7898 13.1675C36.6545 13.2864 36.5261 13.4372 36.3657 13.4998C35.9968 13.6443 35.792 13.8646 35.7683 14.2563C35.7578 14.4286 35.872 14.5036 36.0256 14.5593C36.3291 14.669 36.6276 14.7929 36.9224 14.9245C37.0179 14.967 37.108 15.0393 37.1793 15.1174C37.4457 15.4104 37.3534 15.7861 36.9768 15.905C36.8058 15.9589 36.6175 15.958 36.4073 15.9859C36.4722 16.0668 36.5316 16.1426 36.5928 16.2167C36.7949 16.4617 36.836 16.4539 37.0435 16.2149C37.1029 16.1463 37.2213 16.107 37.3155 16.102C37.352 16.1001 37.3955 16.2299 37.4361 16.2994C37.4083 16.2889 37.3799 16.2788 37.352 16.2683C37.2625 16.3241 37.1436 16.3597 37.0892 16.4397C36.9567 16.634 36.8159 16.7839 36.5645 16.8136C36.4813 16.8237 36.4073 16.9128 36.2921 16.9905C36.2729 16.9503 36.2007 16.8694 36.2144 16.8072C36.2254 16.7556 36.3369 16.7245 36.4045 16.6866C36.4489 16.6619 36.5311 16.6436 36.533 16.6175C36.5366 16.5663 36.5097 16.4987 36.4717 16.4617C36.3076 16.2994 36.1353 16.1454 35.9251 15.9507C36.011 16.2336 36.2043 16.4434 36.1102 16.7295C35.7866 16.6029 35.7148 16.2802 35.5356 16.0535C35.5137 16.0672 35.4922 16.0814 35.4703 16.0951C35.5859 16.2766 35.691 16.4658 35.8199 16.6372C35.9497 16.81 35.9634 16.8324 35.8396 17.1025C35.7436 16.9398 35.6522 16.8132 35.5905 16.6738C35.532 16.5408 35.51 16.3922 35.4607 16.2542C35.4415 16.2002 35.3926 16.1573 35.3574 16.1093C35.3235 16.1678 35.2596 16.2267 35.2605 16.2843C35.2655 16.5302 35.2934 16.7757 35.3048 17.0216C35.3085 17.097 35.2865 17.1738 35.2765 17.2497C35.2449 17.251 35.2129 17.2524 35.1814 17.2538C35.1718 17.1711 35.1508 17.0879 35.1549 17.0056C35.1672 16.7601 35.1969 16.5152 35.2024 16.2697C35.2038 16.208 35.1403 16.1449 35.079 16.0311C34.9049 16.4187 34.9227 16.8182 34.5977 17.0696C34.4953 16.9073 34.5008 16.7894 34.6228 16.6468C34.7623 16.4841 34.8633 16.2884 34.9812 16.107C34.9647 16.096 34.9483 16.0851 34.9318 16.0741C34.7581 16.3017 34.5845 16.5289 34.4112 16.7565C34.3861 16.7414 34.3609 16.7263 34.3358 16.7108C34.2581 16.4425 34.4364 16.2263 34.5483 15.9292C34.323 16.1381 34.1466 16.2958 33.9779 16.4617C33.94 16.4987 33.9126 16.5659 33.9158 16.6171C33.9176 16.6431 34.0003 16.661 34.0428 16.6875C34.1137 16.7314 34.2087 16.7665 34.2403 16.831C34.259 16.8689 34.174 16.9576 34.1548 16.991C34.0437 16.9151 33.9706 16.826 33.8874 16.8155C33.6383 16.7839 33.493 16.6381 33.3609 16.4429C33.3065 16.3629 33.1886 16.3264 33.0994 16.2702C33.0711 16.2807 33.0427 16.2916 33.0144 16.3022C33.0533 16.2318 33.0807 16.1157 33.1342 16.102C33.205 16.0837 33.3019 16.1353 33.3769 16.1769C33.4185 16.2002 33.4299 16.2894 33.4701 16.3026C33.5579 16.3314 33.6868 16.3739 33.7421 16.3332C33.86 16.2468 33.9418 16.1106 34.0597 15.9689C33.887 15.9612 33.7572 15.9662 33.6305 15.9475C33.4075 15.9141 33.2091 15.8309 33.1369 15.59C33.0761 15.3862 33.1625 15.1426 33.3892 15.016C33.6831 14.8519 33.9939 14.7115 34.3107 14.5973C34.7051 14.4547 34.8212 14.1151 34.531 13.8079C34.4108 13.6804 34.2343 13.6063 34.0812 13.5108C34.0492 13.4907 34.0076 13.4875 33.9729 13.471C33.5839 13.2887 33.1168 12.4518 33.1721 12.0244C33.1876 11.9138 33.2329 11.8077 33.2621 11.7049Z" fill="black"/>
<path d="M35.239 12.364C35.5539 12.3663 35.6239 12.4143 35.6239 12.6291C35.6234 12.8846 35.4982 13.0089 35.2372 13.0121C34.9666 13.0158 34.8404 12.8874 34.8464 12.6159C34.851 12.4047 34.9177 12.3617 35.239 12.364Z" fill="black"/>
<path d="M34.7229 12.5016C34.6813 12.47 34.6397 12.439 34.5945 12.4042C34.7371 12.252 34.9007 12.1227 35.0027 11.9558C35.1009 11.7949 35.1361 11.5952 35.2284 11.3941C35.286 11.8146 35.5347 12.1108 35.8162 12.4358C35.7705 12.4285 35.7102 12.4376 35.681 12.4115C35.4213 12.1848 34.9236 12.2241 34.7229 12.5016Z" fill="black"/>
<path d="M33.2489 13.5647C32.6524 13.5387 32.2744 13.2215 32.3156 12.7717C32.5907 13.0848 33.0473 13.157 33.2489 13.5647Z" fill="black"/>
<path d="M37.1965 13.572C37.4173 13.1643 37.8556 13.0802 38.1386 12.7799C38.1788 13.2228 37.8387 13.5094 37.1965 13.572Z" fill="black"/>
<path d="M32.8353 13.0048C32.2881 12.785 32.1176 12.3252 32.3695 11.9088C32.5171 12.2557 32.6652 12.6049 32.8353 13.0048Z" fill="black"/>
<path d="M37.6182 13.0112C37.7896 12.6072 37.9367 12.2598 38.0826 11.9152C38.3435 12.3009 38.1735 12.769 37.6182 13.0112Z" fill="black"/>
<path d="M36.7532 13.8897C37.074 13.5848 37.5329 13.7201 37.863 13.4591C37.8369 13.8678 37.3401 14.051 36.7532 13.8897Z" fill="black"/>
<path d="M32.5774 13.4546C32.9298 13.7124 33.3814 13.5903 33.7004 13.8865C33.1423 14.0543 32.6496 13.881 32.5774 13.4546Z" fill="black"/>
<path d="M32.6511 12.2735C32.354 11.8087 32.4015 11.4233 32.8088 11.102C32.7535 11.512 32.7055 11.8694 32.6511 12.2735Z" fill="black"/>
<path d="M37.8073 12.2721C37.7511 11.8809 37.6995 11.5243 37.646 11.1527C38.0592 11.2862 38.0898 11.8831 37.8073 12.2721Z" fill="black"/>
<path d="M34.1942 14.1658C33.808 14.3623 33.4268 14.3262 33.1123 14.0332C33.5013 14.0758 33.8637 13.8774 34.1942 14.1658Z" fill="black"/>
<path d="M37.2921 14.0515C37.032 14.3258 36.6545 14.3628 36.2678 14.169C36.5846 13.8678 36.953 14.0872 37.2921 14.0515Z" fill="black"/>
<path d="M35.8398 14.2357C36.1561 14.2887 36.4336 14.3349 36.7234 14.3834C36.4912 14.6421 36.0227 14.5826 35.8398 14.2357Z" fill="black"/>
<path d="M34.5748 14.2417C34.3865 14.5922 33.9633 14.6375 33.7292 14.3852C34.0204 14.3354 34.2978 14.2883 34.5748 14.2417Z" fill="black"/>
<path d="M35.1157 16.3058C35.14 16.8008 35.0947 17.0216 34.927 17.2268C34.7999 17.0943 34.8995 16.6079 35.1157 16.3058Z" fill="black"/>
<path d="M35.5634 17.262C35.3596 17.028 35.3084 16.7702 35.3477 16.2811C35.4492 16.527 35.5566 16.7583 35.6356 16.9987C35.6576 17.0646 35.5945 17.1578 35.5634 17.262Z" fill="black"/>
<path d="M33.1859 12.8691C32.8226 12.816 32.7119 12.6629 32.7755 12.2982C32.9121 12.4888 33.0493 12.6789 33.1859 12.8691Z" fill="black"/>
<path d="M37.6995 12.2548C37.7589 12.6328 37.6606 12.7827 37.2744 12.8782C37.4061 12.6849 37.5381 12.4915 37.6995 12.2548Z" fill="black"/>
<path d="M37.155 13.4166C37.0462 13.6817 36.8918 13.7389 36.5686 13.6337C36.7971 13.391 36.8278 13.3796 37.155 13.4166Z" fill="black"/>
<path d="M33.9069 13.6255C33.5782 13.738 33.4484 13.6955 33.2939 13.44C33.5531 13.3563 33.5595 13.3582 33.9069 13.6255Z" fill="black"/>
<path d="M34.3971 13.8623C34.1142 14.0177 33.9762 14.0022 33.7632 13.8065C34.1037 13.6516 34.0086 13.6667 34.3971 13.8623Z" fill="black"/>
<path d="M36.0713 13.7928C36.2751 13.7681 36.479 13.7439 36.6829 13.7192C36.5188 13.9994 36.3547 14.0232 36.08 13.876C36.0768 13.8481 36.074 13.8202 36.0713 13.7928Z" fill="black"/>
<path d="M33.4719 13.2352C33.1277 13.322 32.965 13.2187 32.9065 12.8919C33.1177 13.0199 33.295 13.1273 33.4719 13.2352Z" fill="black"/>
<path d="M37.5177 12.9102C37.4601 13.2366 37.323 13.3179 36.9834 13.2366C37.1617 13.1278 37.3395 13.019 37.5177 12.9102Z" fill="black"/>
<path d="M37.5766 11.7122C37.7388 12.0212 37.7178 12.1469 37.4536 12.3604C37.4911 12.162 37.5286 11.9636 37.5766 11.7122Z" fill="black"/>
<path d="M33.0149 12.3576C32.7424 12.1634 32.7182 12.0358 32.8695 11.7072C32.9262 11.96 32.9705 12.1588 33.0149 12.3576Z" fill="black"/>
<path d="M34.5913 14.2119C34.44 14.1644 34.3395 14.1329 34.1909 14.0863C34.3276 14.0154 34.4135 13.9715 34.5104 13.9212C34.5328 14.0017 34.5525 14.0716 34.5913 14.2119Z" fill="black"/>
<path d="M35.8794 14.206C35.9027 14.0872 35.9169 14.0159 35.9352 13.9226C36.0371 13.9715 36.1271 14.0149 36.272 14.0844C36.1166 14.1324 36.0151 14.164 35.8794 14.206Z" fill="black"/>
<path d="M51.0235 51.1362C45.1684 51.1362 40.4221 43.4798 40.4221 43.4798C40.4221 43.4798 45.1684 35.8233 51.0235 35.8233C56.8786 35.8233 61.6249 43.4798 61.6249 43.4798C61.6249 43.4798 56.8782 51.1362 51.0235 51.1362Z" fill="white"/>
<path d="M51.0233 52.491C44.4894 52.491 39.4808 44.5329 39.2706 44.1942L38.8281 43.4802L39.2706 42.7663C39.4808 42.4276 44.4894 34.4695 51.0233 34.4695C57.5572 34.4695 62.5658 42.4276 62.7756 42.7663L63.218 43.4802L62.7756 44.1942C62.5658 44.5324 57.5572 52.491 51.0233 52.491ZM42.0596 43.4802C43.3381 45.2656 46.9727 49.7824 51.0233 49.7824C55.0739 49.7824 58.7076 45.2665 59.9865 43.4802C58.7081 41.6949 55.0739 37.1781 51.0233 37.1781C46.9732 37.1781 43.339 41.6935 42.0596 43.4802Z" fill="black"/>
<path d="M51.0233 46.7259C52.8138 46.7259 54.2653 45.2728 54.2653 43.4802C54.2653 41.6877 52.8138 40.2345 51.0233 40.2345C49.2328 40.2345 47.7812 41.6877 47.7812 43.4802C47.7812 45.2728 49.2328 46.7259 51.0233 46.7259Z" fill="#FB3544"/>
<path d="M51.0233 48.0802C48.4889 48.0802 46.427 46.0165 46.427 43.4802C46.427 40.9439 48.4889 38.8802 51.0233 38.8802C53.5578 38.8802 55.6197 40.9439 55.6197 43.4802C55.6197 46.0165 53.5578 48.0802 51.0233 48.0802ZM51.0233 41.5884C49.9826 41.5884 49.1356 42.4367 49.1356 43.4802C49.1356 44.5237 49.9826 45.3721 51.0233 45.3721C52.0641 45.3721 52.911 44.5237 52.911 43.4802C52.911 42.4367 52.0646 41.5884 51.0233 41.5884Z" fill="black"/>
</svg>
