 <svg
      width="140"
      height="140"
      viewBox="-0.25 0.20 140 140"
      fill="none"
      xmlns="http://www.w3.org/2000/svg"
    
    >
      <circle cx="70.5" cy="69.5" r="61" fill="none" stroke="#EEEEEE" />

      <path
        d="M70.0588 44C78.6134 44 87.168 44 95.7227 44C98.6369 44 100 45.3817 100 48.3091C100 62.1265 100 75.9204 100 89.7377C100 92.6183 98.6134 94 95.6757 94C78.5664 94 61.4571 94 44.3478 94C41.3631 94 40 92.6417 40 89.644C40 86.9508 40 84.281 40 81.5878C40 80.9321 40 80.2295 40.8461 80.2061C41.7391 80.1827 41.7391 80.9087 41.7391 81.541C41.7391 84.2576 41.7391 86.9977 41.7391 89.7143C41.7391 91.6581 42.3972 92.2904 44.3713 92.2904C61.4336 92.2904 78.4959 92.2904 95.5817 92.2904C97.6263 92.2904 98.2609 91.6815 98.2609 89.644C98.2609 75.8735 98.2609 62.103 98.2609 48.3326C98.2609 46.3185 97.6263 45.6862 95.5817 45.6862C78.5429 45.6862 61.5276 45.6862 44.4888 45.6862C42.3267 45.6862 41.7391 46.2717 41.7391 48.4965C41.7391 57.6768 41.7391 66.8571 41.7391 76.0375C41.7391 76.3888 41.7391 76.74 41.7391 77.0913C41.7156 77.6534 41.5746 78.1218 40.8931 78.1218C40.2585 78.1218 40.0235 77.7002 40 77.1148C40 76.8806 40 76.6464 40 76.4122C40 67.0445 40 57.6768 40 48.2857C40 45.3817 41.3866 44 44.2773 44C52.879 44 61.4571 44 70.0588 44Z"
        fill="white"
      />
      <path
        d="M69.9179 90.4869C61.6688 90.4869 53.4431 90.4869 45.194 90.4869C43.6194 90.4869 43.5254 90.3932 43.5254 88.8476C43.5254 75.6157 43.5254 62.4073 43.5254 49.1754C43.5254 47.6064 43.6429 47.4893 45.1705 47.4893C61.7158 47.4893 78.2845 47.4893 94.8297 47.4893C96.3809 47.4893 96.4749 47.6064 96.4749 49.1754C96.4749 58.8944 96.4749 68.6134 96.4749 78.3324C96.4749 78.6368 96.4984 78.9647 96.4514 79.2691C96.3574 79.7375 96.0518 80.0185 95.5348 79.9951C95.0648 79.9717 94.8062 79.7141 94.7592 79.2691C94.7122 78.8944 94.7122 78.4963 94.7122 78.0982C94.7122 68.9647 94.6887 59.8312 94.7357 50.6743C94.7357 49.5736 94.5477 49.152 93.3021 49.1754C77.7675 49.2223 62.2093 49.2223 46.6746 49.1754C45.5935 49.1754 45.2175 49.3862 45.2175 50.5572C45.2645 62.8523 45.2645 75.1239 45.2175 87.419C45.2175 88.59 45.57 88.8007 46.6746 88.8007C62.2093 88.7539 77.7675 88.7539 93.3021 88.8007C94.4067 88.8007 94.8532 88.59 94.7357 87.419C94.6182 86.1544 94.6887 84.8429 94.7122 83.5783C94.7122 82.9459 94.5712 82.1028 95.5583 82.0794C96.4984 82.056 96.4514 82.8523 96.4514 83.5314C96.4514 85.3581 96.4044 87.1848 96.4749 89.0115C96.5219 90.1356 96.0753 90.5103 94.9707 90.5103C86.6276 90.4869 78.261 90.4869 69.9179 90.4869Z"
        fill="white"
      />
      <path
        d="M53.8194 75.0772C52.2683 75.0772 50.6937 75.1006 49.1426 75.0772C47.6855 75.0537 47.0274 74.398 47.0039 72.9226C47.0039 72.7352 47.0039 72.5245 47.0039 72.3371C47.0039 69.4331 47.2624 69.1287 50.2001 69.1521C51.1167 69.1521 51.3517 68.8477 51.2812 68.0046C51.2107 67.2317 51.2342 66.4589 51.2812 65.6861C51.3282 64.1638 52.3153 63.1334 53.7254 63.0865C55.1825 63.0397 56.2401 64.0467 56.3341 65.6158C56.3811 66.5057 56.3811 67.3957 56.3341 68.2856C56.3106 68.8711 56.5221 69.0818 57.1332 69.1287C60.5644 69.3395 60.8699 69.7142 60.6349 73.0865C60.5409 74.3043 59.8594 75.0303 58.6138 75.0537C57.0157 75.1006 55.4175 75.0772 53.8194 75.0772ZM53.7254 73.3676C55.159 73.3676 56.5926 73.3441 58.0497 73.3676C59.2013 73.391 58.8253 72.5713 58.8723 71.9858C58.9193 71.4238 59.0133 70.8383 58.0497 70.8617C55.206 70.9085 52.3623 70.9085 49.5421 70.8617C48.5785 70.8383 48.6725 71.4238 48.743 71.9858C48.79 72.5479 48.367 73.391 49.5421 73.3676C50.9287 73.3441 52.3153 73.3676 53.7254 73.3676ZM54.548 67.1381C54.548 66.6697 54.548 66.2013 54.548 65.7563C54.548 65.2645 54.3835 64.8898 53.8429 64.8664C53.2319 64.8195 53.0439 65.2645 53.0204 65.7797C52.9969 66.6697 53.0204 67.5596 52.9969 68.4495C52.9734 69.0116 53.2554 69.1755 53.7724 69.1755C54.313 69.1755 54.5715 69.0116 54.5245 68.4495C54.5245 67.9811 54.548 67.5596 54.548 67.1381Z"
        fill="white"
      />
      <path
        d="M69.989 62.6183C71.5401 62.6183 73.1148 62.5949 74.6659 62.6183C76.1465 62.6417 76.781 63.2975 76.8045 64.7729C76.8045 64.9368 76.8045 65.0773 76.8045 65.2413C76.8045 68.2389 76.546 68.52 73.5613 68.52C72.7387 68.52 72.4332 68.7307 72.5037 69.5504C72.5742 70.3701 72.5507 71.1897 72.5037 72.0094C72.4332 73.5785 71.3756 74.6324 69.9185 74.609C68.5319 74.5855 67.4978 73.5551 67.4273 72.0328C67.3803 71.1429 67.3803 70.253 67.4273 69.3396C67.4508 68.7541 67.2628 68.5434 66.6518 68.52C63.1735 68.356 63.103 68.2389 63.15 64.7963C63.1735 63.2741 63.8081 62.6183 65.3827 62.6183C66.9338 62.6183 68.4614 62.6183 69.989 62.6183ZM70.1065 64.3513C68.6729 64.3513 67.2158 64.3982 65.7822 64.3279C64.8656 64.2811 64.8421 64.7963 64.9126 65.4286C64.9832 65.9907 64.4896 66.8572 65.6882 66.8572C68.5789 66.8572 71.4461 66.8572 74.3369 66.8572C75.5119 66.8572 74.9949 65.9673 75.0889 65.4052C75.1594 64.8666 75.2064 64.3045 74.3369 64.3279C72.9032 64.3748 71.4931 64.3513 70.1065 64.3513ZM70.7411 70.5808C70.7411 70.1125 70.7176 69.6441 70.7411 69.1757C70.7646 68.6371 70.4826 68.52 70.0125 68.5434C69.5895 68.5668 69.2135 68.5434 69.237 69.1289C69.2605 70.089 69.237 71.0727 69.237 72.0328C69.237 72.5246 69.4955 72.8759 70.0125 72.8525C70.5296 72.8291 70.7411 72.4544 70.7411 71.9626C70.7411 71.4942 70.7411 71.0492 70.7411 70.5808Z"
        fill="white"
      />
      <path
        d="M86.297 66.8336C87.6601 66.8336 89.0232 66.7868 90.3863 66.857C91.5379 66.9039 91.2559 66.131 91.2559 65.5221C91.2794 64.9132 91.4439 64.2341 90.3863 64.3277C89.6108 64.398 88.8352 64.3277 88.0361 64.3512C87.4486 64.3512 87.0021 64.1404 86.9786 63.5081C86.9551 62.8758 87.3781 62.6181 87.9656 62.6181C89.0702 62.6181 90.1513 62.6181 91.2559 62.6416C91.3264 62.6416 91.4204 62.665 91.4909 62.665C92.76 62.9226 93.1125 63.8828 92.9715 66.5994C92.901 67.747 92.29 68.4027 91.2089 68.5432C90.3863 68.6603 89.3052 68.0748 88.8352 68.8477C88.4592 69.4566 88.7412 70.4402 88.7177 71.2598C88.7177 71.494 88.7177 71.7282 88.7177 71.9624C88.6472 73.5315 87.6366 74.6088 86.1795 74.6088C84.7224 74.6088 83.7118 73.5783 83.6413 71.9624C83.5943 71.1193 83.5943 70.2528 83.6413 69.3863C83.6648 68.7306 83.4298 68.5432 82.7718 68.5198C79.5285 68.4261 78.6824 67.302 79.3875 64.1404C79.5755 63.3207 80.0691 62.7118 80.9621 62.6416C81.9727 62.5713 82.9833 62.5947 84.0173 62.6181C84.5579 62.6181 84.9339 62.9226 84.9339 63.4612C84.9339 63.9999 84.5579 64.3043 84.0173 64.3043C83.3593 64.3277 82.6777 64.3746 82.0197 64.3043C80.8916 64.1872 81.1266 64.9601 81.1031 65.5924C81.0796 66.2715 81.0091 66.9039 82.0667 66.857C83.5003 66.7868 84.9104 66.8336 86.297 66.8336ZM86.9316 70.6041C86.9551 70.0889 86.9551 69.5971 86.9551 69.0818C86.9551 68.4729 86.5085 68.5666 86.1325 68.5432C85.733 68.5198 85.451 68.59 85.451 69.0818C85.4745 70.0889 85.451 71.0959 85.4745 72.1029C85.4745 72.5713 85.78 72.8289 86.2265 72.8289C86.673 72.8289 86.9316 72.5245 86.9551 72.0795C86.9551 71.6111 86.9316 71.0959 86.9316 70.6041Z"
        fill="white"
      />
      <path
        d="M75.9817 75.8268C75.9817 77.1383 76.0052 78.4732 75.9817 79.7846C75.9347 81.6113 74.9476 82.5715 73.1144 82.5715C71.0463 82.5949 68.9781 82.5949 66.91 82.5715C65.0768 82.5481 64.0663 81.5879 64.0428 79.7846C63.9958 77.068 64.0193 74.3514 64.0428 71.6113C64.0428 71.0024 64.0898 70.3701 64.9123 70.3701C65.7114 70.3701 65.8054 70.979 65.8054 71.6113C65.8054 74.2109 65.8289 76.8104 65.7819 79.4334C65.7584 80.4872 66.1344 80.9322 67.2155 80.9088C69.0956 80.8619 70.9523 80.8619 72.8324 80.9088C73.9135 80.9322 74.266 80.4872 74.266 79.4334C74.219 76.9743 74.2425 74.5387 74.2425 72.0797C74.2425 71.7987 74.219 71.5411 74.266 71.26C74.313 70.7214 74.5716 70.3701 75.1591 70.3701C75.7466 70.3701 76.0052 70.7448 76.0052 71.2835C75.9817 72.7823 75.9817 74.3045 75.9817 75.8268Z"
        fill="white"
      />
      <path
        d="M59.7659 61.9626C59.7659 63.3677 59.7659 64.7729 59.7659 66.1546C59.7659 66.7401 59.6719 67.3256 58.9434 67.3256C58.1678 67.349 58.0268 66.7635 58.0268 66.1078C58.0268 63.5316 58.0268 60.979 58.0268 58.4028C58.0268 56.9743 57.8858 56.8338 56.4992 56.8338C54.6191 56.8338 52.7389 56.8572 50.8823 56.8103C49.9422 56.7869 49.5427 57.1616 49.5427 58.1218C49.5662 60.5808 49.5427 63.0164 49.5427 65.4754C49.5427 65.7565 49.5427 66.0141 49.5427 66.2951C49.5192 66.8572 49.2842 67.3256 48.6731 67.3256C48.0386 67.349 47.8035 66.8806 47.78 66.3185C47.7565 65.6862 47.78 65.0773 47.7565 64.445C47.7565 62.3139 47.733 60.1593 47.7565 58.0281C47.78 56.1078 48.7906 55.0773 50.7413 55.0539C52.7624 55.0305 54.8071 55.0071 56.8282 55.0539C58.7319 55.1007 59.6954 56.0843 59.7189 57.9579C59.7659 59.3162 59.7659 60.6277 59.7659 61.9626Z"
        fill="white"
      />
      <path
        d="M80.2344 75.7563C80.2344 74.3512 80.2344 72.946 80.2344 71.5643C80.2344 71.0022 80.2814 70.4167 81.0334 70.3933C81.8325 70.3699 81.9735 70.932 81.9735 71.5643C81.9735 74.1638 81.997 76.7633 81.95 79.3863C81.9265 80.487 82.3495 80.932 83.4541 80.9085C85.2402 80.8617 87.0499 80.9085 88.836 80.8851C90.2461 80.8851 90.4106 80.7212 90.4106 79.3629C90.4106 76.8804 90.4106 74.398 90.4106 71.8921C90.4106 71.5174 90.3636 71.1193 90.5752 70.768C90.7867 70.4167 91.1157 70.3231 91.4917 70.3933C91.9618 70.487 92.1733 70.8149 92.1733 71.2364C92.1733 74.3043 92.2203 77.3722 92.1028 80.4402C92.0558 81.7516 90.9512 82.5713 89.6116 82.5947C87.3554 82.6416 85.0757 82.6416 82.8196 82.5947C81.292 82.5713 80.3284 81.5409 80.2579 79.9952C80.2579 79.9249 80.2579 79.8313 80.2579 79.761C80.2344 78.4027 80.2344 77.0912 80.2344 75.7563Z"
        fill="white"
      />
      <path
        d="M70.0361 55.0773C71.0937 55.0773 72.1513 55.0305 73.1853 55.0773C74.948 55.1476 75.888 56.1312 75.9585 57.8642C75.982 58.52 75.982 59.1757 75.9585 59.8549C75.935 60.4169 75.6765 60.8619 75.042 60.815C74.5014 60.7916 74.2429 60.3935 74.2194 59.8549C74.1959 59.2225 74.1959 58.6136 74.2194 57.9813C74.2429 57.2085 73.9139 56.8104 73.1148 56.8104C71.0467 56.8104 68.9785 56.8104 66.9104 56.8104C66.1348 56.8104 65.7588 57.1382 65.7588 57.9345C65.7823 58.52 65.7588 59.1054 65.7588 59.6909C65.7588 60.2998 65.5473 60.7916 64.8422 60.7916C64.1842 60.7916 64.0196 60.2998 63.9961 59.7612C63.9726 59.1054 63.9726 58.4497 63.9961 57.7705C64.0901 56.1078 65.0537 55.1242 66.7458 55.0539C67.8504 55.0305 68.9315 55.0773 70.0361 55.0773Z"
        fill="white"
      />
      <path
        d="M86.2992 55.0773C87.3568 55.0773 88.4143 55.0305 89.4484 55.0773C91.1171 55.1476 92.1041 56.1546 92.1981 57.794C92.2451 58.4497 92.2216 59.1054 92.1981 59.7846C92.1746 60.3467 91.9631 60.815 91.3286 60.815C90.694 60.815 90.459 60.3701 90.4355 59.808C90.412 59.2225 90.412 58.6371 90.4355 58.0516C90.4825 57.1382 90.036 56.8104 89.1664 56.8104C87.2158 56.8338 85.2651 56.8572 83.3145 56.8104C82.2804 56.7869 81.9044 57.2553 81.9749 58.2155C81.9984 58.7542 81.9749 59.2928 81.9749 59.8549C81.9749 60.3935 81.6928 60.7682 81.1523 60.7916C80.5883 60.8385 80.2827 60.4638 80.2827 59.9251C80.2592 58.9883 80.2357 58.0516 80.3297 57.1382C80.4943 55.9204 81.5283 55.1242 82.9149 55.0539C84.0195 55.0305 85.1711 55.0773 86.2992 55.0773Z"
        fill="white"
      />
      <path
        d="M53.797 82.5714C52.6689 82.5714 51.5408 82.5948 50.4127 82.5714C49.0731 82.5245 48.0861 81.7283 47.8981 80.4402C47.757 79.5737 47.804 78.6604 47.8275 77.7704C47.851 77.2552 48.1096 76.8805 48.6971 76.9039C49.2847 76.9274 49.5197 77.3021 49.5667 77.8173C49.6137 78.4262 49.5902 79.0585 49.5902 79.6674C49.5667 80.4871 49.9427 80.8852 50.7653 80.8852C52.7864 80.8852 54.8076 80.8852 56.8522 80.8852C57.6748 80.8852 58.0743 80.5105 58.0508 79.6674C58.0273 79.0585 58.0508 78.4262 58.0508 77.8173C58.0508 77.2786 58.3328 76.9274 58.8969 76.9039C59.4609 76.8805 59.7664 77.2318 59.7664 77.7704C59.7664 78.6604 59.8134 79.5503 59.7194 80.4402C59.5784 81.6346 58.5914 82.5011 57.3223 82.5714C56.1237 82.6182 54.9721 82.5714 53.797 82.5714Z"
        fill="white"
      />
    </svg>
