<svg width="51" height="61" viewBox="0 0 51 61" fill="none" xmlns="http://www.w3.org/2000/svg">
<rect x="2" y="15" width="15" height="15" fill="white"/>
<rect x="2" y="37" width="15" height="15" fill="white"/>
<circle cx="35" cy="35" r="13" fill="white"/>
<path d="M25 15L21 8.5L35 2L48.5 7.5L47.5 11L43.5 15.5L25 15Z" fill="white"/>
<path d="M35.0489 50.274C26.4561 50.274 19.4653 43.2827 19.4653 34.6899C19.4653 26.0972 26.4561 19.1064 35.0489 19.1064C43.6417 19.1064 50.633 26.0972 50.633 34.6899C50.633 43.2827 43.6422 50.274 35.0489 50.274ZM35.0489 22.3975C28.2713 22.3975 22.7565 27.9123 22.7565 34.6899C22.7565 41.4681 28.2713 46.9829 35.0489 46.9829C41.8271 46.9829 47.3419 41.4681 47.3419 34.6899C47.3419 27.9123 41.8271 22.3975 35.0489 22.3975Z" fill="black"/>
<path d="M35.0489 61C34.1397 61 33.4031 60.2634 33.4031 59.3542V48.6282C33.4031 47.719 34.1397 46.9824 35.0489 46.9824C35.9582 46.9824 36.6947 47.719 36.6947 48.6282V59.3542C36.6947 60.2634 35.9582 61 35.0489 61Z" fill="black"/>
<path d="M45.6609 16.4087H24.0114C23.1021 16.4087 22.3655 15.6721 22.3655 14.7628V13.3468C21.2476 12.3016 19.1715 9.963 19.7294 7.42791C19.8571 6.84618 20.2889 6.37935 20.8585 6.20672C23.69 5.34688 31.5112 2.64305 33.6721 0.482094C34.3149 -0.160698 35.3568 -0.160698 35.9996 0.482094C38.1606 2.64361 45.9818 5.34744 48.8133 6.20672C49.3828 6.3799 49.8146 6.84618 49.9423 7.42791C50.5002 9.963 48.4241 12.3016 47.3062 13.3468V14.7628C47.3067 15.6721 46.5701 16.4087 45.6609 16.4087ZM25.6572 13.117H44.0151V12.5974C44.0151 12.0923 44.2471 11.6149 44.644 11.3035C45.3628 10.7329 46.2332 9.76427 46.5862 8.95496C43.914 8.08513 38.0046 6.0141 34.8361 3.76988C31.6677 6.0141 25.7582 8.08458 23.086 8.95496C23.4391 9.76483 24.31 10.7335 25.0316 11.3058C25.4246 11.6177 25.6572 12.0956 25.6572 12.5974V13.117Z" fill="black"/>
<path d="M34.9216 19.5138C32.0674 19.5138 22.7546 19.2024 22.7546 15.1958C22.7546 14.2866 23.4913 13.55 24.4005 13.55C25.1665 13.55 25.8104 14.0734 25.9941 14.7823C26.7507 15.3307 29.8659 16.2227 34.9216 16.2227C39.9768 16.2227 43.0919 15.3313 43.8485 14.7823C44.0323 14.074 44.6762 13.55 45.4422 13.55C46.3514 13.55 47.088 14.2866 47.088 15.1958C47.088 19.2024 37.7753 19.5138 34.9216 19.5138Z" fill="black"/>
<path d="M35.0489 42.5467C29.0334 42.5467 24.157 34.69 24.157 34.69C24.157 34.69 29.0334 26.8332 35.0489 26.8332C41.0644 26.8332 45.9409 34.69 45.9409 34.69C45.9409 34.69 41.0644 42.5467 35.0489 42.5467Z" fill="white"/>
<path d="M35.0488 43.8184C28.4027 43.8184 23.2909 35.7063 23.0772 35.3611L22.6609 34.6905L23.0772 34.02C23.2915 33.6747 28.4033 25.5621 35.0488 25.5621C41.6954 25.5621 46.8072 33.6747 47.0209 34.02L47.4372 34.6905L47.0209 35.3611C46.8072 35.7063 41.6954 43.8184 35.0488 43.8184ZM25.6933 34.6894C26.9717 36.4862 30.7796 41.275 35.0488 41.275C39.3319 41.275 43.1298 36.4896 44.4048 34.6916C43.127 32.8954 39.3185 28.1055 35.0488 28.1055C30.7663 28.1049 26.9684 32.8904 25.6933 34.6894Z" fill="black"/>
<path d="M35.0488 38.0205C36.8882 38.0205 38.3793 36.5293 38.3793 34.6899C38.3793 32.8505 36.8882 31.3594 35.0488 31.3594C33.2094 31.3594 31.7183 32.8505 31.7183 34.6899C31.7183 36.5293 33.2094 38.0205 35.0488 38.0205Z" fill="#FB3544"/>
<path d="M35.0488 39.2927C32.5115 39.2927 30.4465 37.2278 30.4465 34.6905C30.4465 32.1526 32.5115 30.0877 35.0488 30.0877C37.5866 30.0877 39.6516 32.1526 39.6516 34.6905C39.6516 37.2278 37.5866 39.2927 35.0488 39.2927ZM35.0488 32.6311C33.9136 32.6311 32.99 33.5548 32.99 34.6905C32.99 35.8257 33.9136 36.7493 35.0488 36.7493C36.1845 36.7493 37.1081 35.8257 37.1081 34.6905C37.1081 33.5548 36.1845 32.6311 35.0488 32.6311Z" fill="black"/>
<path d="M15.2971 16.5275V28.5329H3.29167V16.5275H15.2971ZM18.5888 13.2358H15.2971H3.29167H0V16.5275V28.5329V31.8246H3.29167H15.2971H18.5888V28.5329V16.5275V13.2358Z" fill="black"/>
<path d="M7.94705 27.3944L3.95044 23.3978L6.27792 21.0698L8.0209 22.8127L12.3483 18.7561L14.5998 21.1575L7.94705 27.3944Z" fill="black"/>
<path d="M15.2971 38.6233V50.6287H3.29167V38.6233H15.2971ZM18.5888 35.3316H15.2971H3.29167H0V38.6233V50.6287V53.9204H3.29167H15.2971H18.5888V50.6287V38.6233V35.3316Z" fill="black"/>
<path d="M7.94705 49.4902L3.95044 45.4936L6.27792 43.1656L8.0209 44.9085L12.3483 40.8514L14.5998 43.2527L7.94705 49.4902Z" fill="black"/>
<path d="M38.0004 8.52865V12.0962L34.8364 15.8053L31.6724 12.0962V8.52865L32.7725 8.22391C34.1231 7.84978 35.5496 7.84978 36.9002 8.22391L38.0004 8.52865Z" fill="white"/>
<path d="M34.8363 16.8206L31.0134 12.3388V8.02685L32.5965 7.58833C34.0625 7.18312 35.6107 7.18312 37.0761 7.58833L38.6598 8.02685V12.3388L34.8363 16.8206ZM32.3323 11.8531L34.8369 14.79L37.342 11.8531V9.0299L36.7253 8.85893C35.4891 8.51644 34.1847 8.51644 32.9496 8.85893L32.3329 9.0299V11.8531H32.3323Z" fill="black"/>
<path d="M34.8362 12.9122C34.4309 12.9122 34.0468 12.7357 33.7837 12.4265L32.8889 11.3774V9.89694H34.2072V10.8917L34.7868 11.5711H34.8867L35.4662 10.8917V9.89694H36.7845V11.3774L35.8897 12.4265C35.6255 12.7357 35.2419 12.9122 34.8362 12.9122Z" fill="#231F20"/>
</svg>
