    <svg
      width="140"
      height="140"
      viewBox="-0.25 0.20 140 140"
      fill="none"
      xmlns="http://www.w3.org/2000/svg"
    >
      <circle cx="70.5" cy="69.5" r="61" fill="none" stroke="#EEEEEE" />

      <path
        d="M70.0372 96C57.2978 96 46.0584 86.8733 43.5654 74.4296C42.0865 67.0564 43.5231 60.2536 47.7062 54.0001C47.9386 53.6621 47.9809 53.4086 47.7907 53.0072C46.9668 51.2114 47.3682 49.0987 48.7837 47.7255C50.1781 46.3523 52.2696 45.9508 54.0442 46.7748C54.4457 46.9649 54.6992 46.9227 55.0372 46.6903C58.7555 44.1128 62.8541 42.5494 67.3752 42.1269C75.0442 41.4297 81.847 43.6058 87.6779 48.6339C92.2202 52.5635 95.1779 57.4649 96.4033 63.3592C98.1357 71.7677 96.2765 79.3522 90.8892 86.0282C86.9174 90.9296 81.8047 94.0563 75.6357 95.4085C73.7766 95.8099 71.9174 96 70.0372 96ZM68.4315 58.0776C68.4315 57.148 68.4104 56.2184 68.4315 55.2888C68.4315 54.9508 68.3681 54.8241 67.9879 54.8874C66.5724 55.1198 65.2203 55.479 63.9315 56.1339C59.4104 58.3945 56.7273 62.0283 55.8823 67.0353C55.84 67.3311 55.8823 67.4578 56.2203 67.4367C56.5794 67.4156 56.9597 67.4156 57.3189 67.4367C58.2062 67.4578 58.9034 68.1339 58.9245 69.0001C58.9456 69.8874 58.2273 70.5846 57.3189 70.6057C56.9809 70.6057 56.6428 70.6268 56.3259 70.6057C55.9668 70.5846 55.84 70.6691 55.9034 71.0705C56.5161 74.7888 58.2485 77.831 61.1851 80.1972C63.1921 81.824 65.516 82.7747 68.0724 83.155C68.347 83.1972 68.4527 83.1338 68.4527 82.8381C68.4315 82.4789 68.4527 82.0986 68.4527 81.7395C68.4738 80.8099 69.1498 80.1127 70.0372 80.1127C70.9245 80.1127 71.6005 80.8099 71.6005 81.7606C71.6005 82.1198 71.6217 82.4578 71.6005 82.8169C71.5794 83.1127 71.685 83.2183 71.9808 83.155C73.3752 82.9226 74.7062 82.5212 75.9949 81.9719C76.5442 81.7395 76.6921 81.4648 76.5019 80.9155C76.4385 80.7465 76.4385 80.5775 76.4385 80.3874C76.354 77.2395 79.0794 74.9789 82.2273 75.5705C82.4385 75.6127 82.5864 75.6761 82.7343 75.4015C83.4315 73.9649 83.8963 72.4649 84.1287 70.9015C84.1709 70.6691 84.1075 70.5846 83.854 70.5846C83.4526 70.6057 83.0512 70.6057 82.6498 70.5846C81.7625 70.5635 81.0864 69.8451 81.0864 69.0001C81.0864 68.1339 81.7836 67.4578 82.6709 67.4367C83.0301 67.4367 83.4104 67.4156 83.7695 67.4367C84.0864 67.4578 84.1709 67.3522 84.1075 67.0353C83.7273 64.6057 82.8399 62.4085 81.3822 60.4438C81.1498 60.148 81.0442 60.1902 80.8118 60.4226C79.523 61.7325 78.2343 63.0212 76.9245 64.3099C76.6709 64.5635 76.6287 64.7325 76.8188 65.0494C77.4949 66.148 77.854 67.3522 77.8752 68.6409C78.023 73.7113 73.84 77.4719 68.8118 76.817C64.3752 76.2465 61.2273 71.7465 62.2414 67.3944C62.9597 64.2677 64.9245 62.2607 67.9879 61.3733C68.3048 61.2888 68.4104 61.1621 68.3893 60.8452C68.4104 59.9156 68.4315 58.986 68.4315 58.0776ZM49.4809 70.5846C48.5302 70.5846 47.5795 70.5846 46.6288 70.5846C46.333 70.5846 46.2274 70.648 46.2485 70.9649C46.3119 71.8944 46.4386 72.824 46.6288 73.7325C48.2344 81.0634 52.3541 86.5141 58.9245 90.1056C61.6921 91.6056 64.6498 92.4507 67.7766 92.7465C68.2625 92.7887 68.4315 92.7042 68.4315 92.1549C68.3893 90.6761 68.4315 89.1972 68.4104 87.7183C68.4104 87.2747 68.6005 86.7043 68.3259 86.3874C68.1146 86.155 67.5442 86.2395 67.1217 86.155C59.4738 84.8662 53.6428 78.6972 52.7133 70.9226C52.671 70.648 52.5865 70.5846 52.333 70.5846C51.3823 70.5846 50.4316 70.5846 49.4809 70.5846ZM68.4315 48.4649C68.4315 47.8311 68.4527 47.1973 68.4315 46.5635C68.4104 46.1199 68.6217 45.5494 68.347 45.2959C68.0724 45.0424 67.5231 45.2748 67.0794 45.3382C63.3822 45.803 60.002 47.1339 56.8963 49.2044C56.664 49.3734 56.6006 49.5001 56.6851 49.7959C57.5935 53.472 54.4879 56.5776 50.8119 55.648C50.495 55.5635 50.3682 55.648 50.2203 55.8804C49.9034 56.4086 49.5443 56.9156 49.2485 57.4438C47.5795 60.4015 46.5443 63.5494 46.2485 66.9508C46.2062 67.3311 46.333 67.4156 46.6922 67.4156C48.4668 67.3944 50.2414 67.3944 52.0161 67.4156C52.502 67.4156 52.7555 67.3311 52.7344 66.7818C52.7133 66.4437 52.84 66.0846 52.9034 65.7466C54.1921 58.4156 60.5935 52.4579 68.0301 51.6973C68.3681 51.6551 68.4315 51.5705 68.4315 51.2536C68.4104 50.3452 68.4315 49.3945 68.4315 48.4649ZM90.5723 70.5846C89.6216 70.5846 88.6709 70.5846 87.7202 70.5846C87.4456 70.5846 87.3399 70.648 87.2977 70.9649C87.0441 73.162 86.4315 75.2536 85.354 77.1972C85.2061 77.4719 85.2061 77.6832 85.3751 77.9578C86.3681 79.8169 86.0301 82.0564 84.5723 83.5352C83.0935 85.0141 80.854 85.3733 78.9949 84.3803C78.6568 84.2113 78.4245 84.2324 78.1287 84.4014C76.2062 85.4366 74.1569 86.0493 71.9808 86.3028C71.6639 86.3451 71.5794 86.4296 71.5794 86.7465C71.6005 88.6268 71.6005 90.5071 71.5794 92.3873C71.5794 92.7254 71.685 92.7887 72.0019 92.7676C73.0794 92.7042 74.1357 92.5563 75.1709 92.2817C83.4104 90.2324 89.1357 85.2676 92.3047 77.3874C93.1075 75.3803 93.5512 73.2677 93.7413 71.1127C93.7836 70.6691 93.6357 70.5846 93.2343 70.6057C92.3469 70.5846 91.4596 70.5846 90.5723 70.5846ZM90.5723 67.4156C91.523 67.4156 92.4737 67.4156 93.4244 67.4156C93.6991 67.4156 93.7836 67.3311 93.7624 67.0564C93.7202 66.4437 93.6357 65.8311 93.5512 65.2395C92.854 60.8663 91.0371 57.0212 88.2272 53.6198C87.9949 53.3241 87.847 53.3663 87.6146 53.6198C86.3258 54.9297 85.0582 56.2184 83.7273 57.486C83.4104 57.7818 83.4315 57.9508 83.685 58.2888C85.692 60.824 86.8751 63.7184 87.2554 66.9085C87.3188 67.3733 87.4667 67.4367 87.8681 67.4367C88.7765 67.3944 89.685 67.4156 90.5723 67.4156ZM74.2625 66.9719C73.2484 67.986 72.2555 68.979 71.2836 69.9508C70.7343 70.5001 70.1217 70.7536 69.3822 70.4367C68.685 70.1198 68.4104 69.5494 68.4104 68.7888C68.4315 67.5423 68.3893 66.2959 68.4315 65.0494C68.4315 64.5846 68.3259 64.5212 67.9245 64.7325C65.7273 65.8099 64.7132 68.3451 65.5583 70.648C66.4034 72.9085 68.8329 74.1972 71.178 73.5846C74.0512 72.8451 75.5935 69.6128 74.2625 66.9719Z"
        fill="white"
      />
    </svg>
