<svg width="40" height="40" viewBox="0 0 40 40" fill="none" xmlns="http://www.w3.org/2000/svg">
<g clip-path="url(#clip0_5567_26274)">
<path d="M35.2936 10.0313L25.6865 0.419643C25.4186 0.151786 25.0525 0 24.6731 0H5.71324C4.92306 0 4.28467 0.638393 4.28467 1.42857V38.5714C4.28467 39.3616 4.92306 40 5.71324 40H34.2847C35.0749 40 35.7132 39.3616 35.7132 38.5714V11.0402C35.7132 10.6607 35.5615 10.2991 35.2936 10.0313ZM32.4186 11.6964H24.0168V3.29464L32.4186 11.6964ZM32.499 36.7857H7.49895V3.21429H20.9811V12.8571C20.9811 13.3544 21.1786 13.8313 21.5303 14.183C21.8819 14.5346 22.3588 14.7321 22.8561 14.7321H32.499V36.7857ZM15.0882 21.6518C15.0882 21.8929 15.2847 22.0759 15.5257 22.0759H16.9722C17.2132 22.0759 17.4097 21.8884 17.4097 21.6562C17.4097 20.3973 18.5615 19.3527 19.999 19.3527C21.4365 19.3527 22.5882 20.3973 22.5882 21.6518C22.5882 22.7812 21.6507 23.7589 20.3873 23.9241C19.5257 24.0491 18.8472 24.8304 18.8382 25.7143V27.1429C18.8382 27.3884 19.0391 27.5893 19.2847 27.5893H20.7132C20.9588 27.5893 21.1597 27.3884 21.1597 27.1429V26.5982C21.1597 26.3304 21.3382 26.0848 21.5927 26.0045C23.5838 25.3616 24.9409 23.5938 24.9097 21.5893C24.874 19.1116 22.7132 17.0893 20.0659 17.0536C17.3248 17.0223 15.0882 19.0893 15.0882 21.6518ZM18.5704 30.3571C18.5704 30.736 18.7209 31.0994 18.9888 31.3673C19.2567 31.6352 19.6201 31.7857 19.999 31.7857C20.3778 31.7857 20.7412 31.6352 21.0091 31.3673C21.277 31.0994 21.4275 30.736 21.4275 30.3571C21.4275 29.9783 21.277 29.6149 21.0091 29.347C20.7412 29.0791 20.3778 28.9286 19.999 28.9286C19.6201 28.9286 19.2567 29.0791 18.9888 29.347C18.7209 29.6149 18.5704 29.9783 18.5704 30.3571Z" fill="white"/>
</g>
<defs>
<clipPath id="clip0_5567_26274">
<rect width="40" height="40" fill="white"/>
</clipPath>
</defs>
</svg>
