<svg width="18" height="18" viewBox="0 0 18 18" fill="none" xmlns="http://www.w3.org/2000/svg">
<path d="M18.0001 6.82686C17.969 6.94029 17.9427 7.05561 17.9055 7.16679C17.6579 7.90901 16.9827 8.39694 16.1816 8.39995C14.9319 8.40483 13.6823 8.4037 12.4326 8.39807C12.2951 8.39732 12.2027 8.44014 12.108 8.53592C11.4365 9.21654 10.7584 9.8904 10.0851 10.5688C9.92086 10.7344 9.7345 10.8309 9.49779 10.7878C9.19496 10.7325 9.00371 10.4966 9.00183 10.174C8.99845 9.65526 9.0007 9.13691 9.0007 8.61818C9.0007 8.55095 9.0007 8.48333 9.0007 8.40746C8.45815 8.37666 8.00465 8.18547 7.65147 7.78431C7.36854 7.46278 7.20736 7.08566 7.20548 6.65933C7.19834 5.02239 7.1927 3.38544 7.20623 1.7485C7.21412 0.804946 8.00202 0.0131426 8.9466 0.00825958C11.3836 -0.0037602 13.8202 -0.00225773 16.2571 0.00788397C17.0743 0.0112645 17.7728 0.610751 17.9581 1.41683C17.9705 1.47092 17.9859 1.52388 18.0001 1.57759C18.0001 3.32722 18.0001 5.07685 18.0001 6.82686ZM12.6006 2.40245C12.0197 2.40245 11.4384 2.40132 10.8576 2.40283C10.4732 2.40395 10.2045 2.64886 10.2015 2.99705C10.1989 3.3445 10.4694 3.60105 10.8478 3.6018C12.0159 3.6033 13.1844 3.6033 14.3526 3.6018C14.7317 3.60142 15.0018 3.34563 14.9992 2.9978C14.9966 2.65111 14.726 2.40395 14.3432 2.40283C13.7627 2.40132 13.1814 2.40245 12.6006 2.40245ZM12.5979 4.8019C12.0231 4.8019 11.4482 4.80115 10.8737 4.80228C10.4739 4.80303 10.203 5.04455 10.2015 5.39913C10.2 5.75296 10.4732 6.00125 10.8692 6.00162C12.0249 6.00238 13.1807 6.00275 14.3368 6.00162C14.7306 6.00125 15.0037 5.74921 15 5.395C14.9962 5.04868 14.7253 4.80378 14.3413 4.80265C13.7601 4.80115 13.1792 4.8019 12.5979 4.8019Z" fill="white"/>
<path d="M2.66435 18.0004C2.53171 17.97 2.39871 17.9425 2.2672 17.9091C0.939003 17.5695 0.00531883 16.3882 0.00381592 15.0191C-0.00069282 11.0079 -0.00182 6.99702 0.00381592 2.98617C0.00644601 1.33758 1.33803 0.0146576 2.98785 0.00414028C3.775 -0.00074276 4.56215 0.00226219 5.34967 0.00376466C5.73029 0.00451589 6.00119 0.256556 6.00081 0.603627C6.00043 0.950698 5.72991 1.20161 5.34892 1.20274C4.59296 1.20424 3.83699 1.20199 3.08103 1.20349C1.98127 1.20537 1.20276 1.98027 1.20239 3.07782C1.20126 6.3889 1.20201 9.70035 1.20201 13.0114C1.20201 13.0666 1.20201 13.1219 1.20201 13.1891C4.40321 13.1891 7.59164 13.1891 10.8015 13.1891C10.8015 12.7879 10.7962 12.3898 10.803 11.9924C10.8082 11.6776 11.0453 11.4293 11.3489 11.4034C11.645 11.3782 11.9181 11.5766 11.985 11.8718C12.0001 11.9379 12.0001 12.0081 12.0001 12.0765C12.0008 13.0449 12.0034 14.0132 12.0001 14.9815C11.9948 16.5039 10.9319 17.7337 9.42332 17.9685C9.39401 17.973 9.36658 17.9895 9.3384 18.0004C7.11372 18.0004 4.88903 18.0004 2.66435 18.0004ZM6.6001 15.5998C6.59972 15.273 6.33295 15.0045 6.00494 15.0014C5.67844 14.9981 5.40566 15.2648 5.4019 15.5912C5.39814 15.927 5.6713 16.2019 6.00607 16.1993C6.33295 16.1967 6.60047 15.927 6.6001 15.5998Z" fill="white"/>
</svg>
