<svg width="63" height="43" viewBox="0 0 63 43" fill="none" xmlns="http://www.w3.org/2000/svg">
<path d="M52.83 18.2467H51.9915C50.8103 18.2467 49.8525 17.2869 49.8525 16.1031V14.0666C49.8525 12.8828 50.8103 11.923 51.9915 11.923H52.83C54.0113 11.923 54.969 12.8828 54.969 14.0666V16.1031C54.969 17.2869 54.0113 18.2467 52.83 18.2467Z" fill="white"/>
<path d="M52.83 19.0002H51.9915C50.3977 19.0002 49.1006 17.7008 49.1006 16.1031V14.0661C49.1006 12.4689 50.3973 11.169 51.9915 11.169H52.83C54.4238 11.169 55.721 12.4684 55.721 14.0661V16.1031C55.721 17.7003 54.4238 19.0002 52.83 19.0002ZM51.9915 12.6761C51.2266 12.6761 50.604 13.3 50.604 14.0666V16.1036C50.604 16.8702 51.2266 17.4941 51.9915 17.4941H52.83C53.595 17.4941 54.2176 16.8702 54.2176 16.1036V14.0666C54.2176 13.3 53.595 12.6761 52.83 12.6761H51.9915Z" fill="black"/>
<path d="M48.9011 37.9922H47.3467V34.8769H49.6785L52.9223 31.9986H56.7066V34.9954H62.2481V37.9922H48.9011Z" fill="white"/>
<path d="M62.2486 38.7452H47.3472C46.9322 38.7452 46.5957 38.408 46.5957 37.9922V34.8769C46.5957 34.4611 46.9322 34.1238 47.3472 34.1238H49.3934L52.4242 31.4349C52.5618 31.313 52.7387 31.2456 52.9223 31.2456H56.7071C57.122 31.2456 57.4585 31.5828 57.4585 31.9986V34.2419H62.2486C62.6635 34.2419 63 34.5791 63 34.9949V37.9917C63 38.408 62.6635 38.7452 62.2486 38.7452ZM48.0986 37.2387H61.4966V35.7485H56.7066C56.2917 35.7485 55.9551 35.4112 55.9551 34.9954V32.7522H53.207L50.1761 35.4411C50.0386 35.563 49.8617 35.6304 49.678 35.6304H48.0986V37.2387Z" fill="black"/>
<path d="M18.8762 38.5781C18.8762 35.4136 18.8762 32.2496 18.8762 29.0852C18.8762 25.5681 18.8762 22.0509 18.8762 18.5333C26.0861 18.5333 33.2954 18.5333 40.5052 18.5333C40.5052 21.586 40.5052 24.6392 40.5052 27.6918C40.5052 31.3202 40.5052 34.9492 40.5052 38.5776C38.6134 39.5426 34.9998 41.0699 30.2242 41.1769C24.8572 41.2978 20.807 39.5624 18.8762 38.5781Z" fill="white"/>
<path d="M40.5051 38.5781C39.7575 38.5781 39.1522 37.971 39.1522 37.2223V19.8896H20.229V37.2223C20.229 37.9715 19.6233 38.5781 18.8761 38.5781C18.129 38.5781 17.5232 37.971 17.5232 37.2223V18.5338C17.5232 17.7846 18.129 17.178 18.8761 17.178H40.5051C41.2528 17.178 41.8581 17.7851 41.8581 18.5338V37.2223C41.8581 37.9715 41.2528 38.5781 40.5051 38.5781Z" fill="black"/>
<path d="M29.6902 22.3362C35.6631 22.3362 40.505 20.2749 40.505 17.7321C40.505 15.1893 35.6631 13.128 29.6902 13.128C23.7174 13.128 18.8755 15.1893 18.8755 17.7321C18.8755 20.2749 23.7174 22.3362 29.6902 22.3362Z" fill="white"/>
<path d="M29.6902 23.7642C21.6544 23.7642 17.4504 20.7294 17.4504 17.7316C17.4504 14.7339 21.6544 11.699 29.6902 11.699C37.7261 11.699 41.9305 14.7339 41.9305 17.7316C41.9305 20.7294 37.7261 23.7642 29.6902 23.7642ZM29.6902 14.5566C23.6151 14.5566 20.3015 16.6543 20.3015 17.7321C20.3015 18.8099 23.6155 20.9076 29.6902 20.9076C35.7649 20.9076 39.0795 18.8099 39.0795 17.7321C39.0795 16.6543 35.7654 14.5566 29.6902 14.5566Z" fill="black"/>
<path d="M29.6902 36.7646C21.6544 36.7646 17.4504 33.7297 17.4504 30.732C17.4504 29.9428 18.0884 29.3034 18.876 29.3034C19.6635 29.3034 20.3015 29.9428 20.3015 30.732C20.3015 31.8098 23.6155 33.9075 29.6902 33.9075C35.7649 33.9075 39.0795 31.8098 39.0795 30.732C39.0795 29.9428 39.7175 29.3034 40.505 29.3034C41.2925 29.3034 41.9305 29.9428 41.9305 30.732C41.9305 33.7297 37.7261 36.7646 29.6902 36.7646Z" fill="black"/>
<path d="M29.6902 30.2743C21.6544 30.2743 17.4504 27.2394 17.4504 24.2417C17.4504 23.4525 18.0884 22.8131 18.876 22.8131C19.6635 22.8131 20.3015 23.4525 20.3015 24.2417C20.3015 25.3195 23.6155 27.4172 29.6902 27.4172C35.7649 27.4172 39.0795 25.3195 39.0795 24.2417C39.0795 23.4525 39.7175 22.8131 40.505 22.8131C41.2925 22.8131 41.9305 23.4525 41.9305 24.2417C41.9305 27.2394 37.7261 30.2743 29.6902 30.2743Z" fill="black"/>
<path d="M29.6902 43C21.6544 43 17.4504 39.9652 17.4504 36.9674C17.4504 36.1782 18.0884 35.5389 18.876 35.5389C19.6635 35.5389 20.3015 36.1782 20.3015 36.9674C20.3015 38.0452 23.6155 40.1429 29.6902 40.1429C35.7649 40.1429 39.0795 38.0452 39.0795 36.9674C39.0795 36.1782 39.7175 35.5389 40.505 35.5389C41.2925 35.5389 41.9305 36.1782 41.9305 36.9674C41.9305 39.9652 37.7261 43 29.6902 43Z" fill="black"/>
<path d="M49.6674 25.5575C47.951 25.5575 46.9182 23.5912 47.9452 22.2128C48.963 20.8474 50.5885 19.9633 52.4198 19.9633C54.2141 19.9633 55.8113 20.8117 56.8325 22.1304C57.9133 23.5262 56.933 25.557 55.1699 25.557H49.6674V25.5575Z" fill="white"/>
<path d="M55.1704 26.3105H49.6679C48.5722 26.3105 47.5846 25.6977 47.0913 24.7105C46.6096 23.7469 46.7062 22.617 47.3433 21.7619C48.5524 20.1406 50.4025 19.2103 52.4208 19.2103C54.393 19.2103 56.2171 20.1064 57.4272 21.6693C58.1066 22.5462 58.2268 23.7102 57.7397 24.7061C57.2561 25.6957 56.2714 26.3105 55.1704 26.3105ZM52.4203 20.7168C50.8814 20.7168 49.4698 21.4265 48.5476 22.6633C48.2481 23.0651 48.2058 23.5778 48.4351 24.0359C48.6755 24.5168 49.1366 24.8044 49.6674 24.8044H55.17C55.7007 24.8044 56.1565 24.5197 56.3892 24.0436C56.6248 23.5614 56.5686 23.0189 56.2387 22.593C55.3161 21.4005 53.9242 20.7168 52.4203 20.7168Z" fill="black"/>
<path d="M5.64345 40.5356C8.34495 40.5356 10.5349 38.341 10.5349 35.6338C10.5349 32.9266 8.34495 30.732 5.64345 30.732C2.94195 30.732 0.751953 32.9266 0.751953 35.6338C0.751953 38.341 2.94195 40.5356 5.64345 40.5356Z" fill="white"/>
<path d="M5.64344 41.2891C2.53181 41.2891 0 38.7525 0 35.6338C0 32.5156 2.53181 29.9789 5.64344 29.9789C8.75508 29.9789 11.2864 32.5161 11.2864 35.6338C11.2869 38.7525 8.75508 41.2891 5.64344 41.2891ZM5.64344 31.4855C3.36068 31.4855 1.50341 33.3462 1.50341 35.6338C1.50341 37.9214 3.36068 39.7826 5.64344 39.7826C7.9262 39.7826 9.78299 37.9214 9.78299 35.6338C9.78299 33.3462 7.9262 31.4855 5.64344 31.4855Z" fill="black"/>
<path d="M50.6621 39.6173C51.4654 39.6173 52.1165 38.9648 52.1165 38.1599C52.1165 37.3549 51.4654 36.7024 50.6621 36.7024C49.8589 36.7024 49.2078 37.3549 49.2078 38.1599C49.2078 38.9648 49.8589 39.6173 50.6621 39.6173Z" fill="white"/>
<path d="M50.6621 40.3708C49.4457 40.3708 48.4558 39.3788 48.4558 38.1599C48.4558 36.9409 49.4457 35.9489 50.6621 35.9489C51.878 35.9489 52.868 36.9409 52.868 38.1599C52.868 39.3788 51.878 40.3708 50.6621 40.3708ZM50.6621 37.4555C50.2746 37.4555 49.9592 37.7715 49.9592 38.1599C49.9592 38.5482 50.2746 38.8642 50.6621 38.8642C51.0496 38.8642 51.3646 38.5482 51.3646 38.1599C51.3646 37.7715 51.0496 37.4555 50.6621 37.4555Z" fill="black"/>
<path d="M57.961 39.6173C58.7642 39.6173 59.4153 38.9648 59.4153 38.1599C59.4153 37.3549 58.7642 36.7024 57.961 36.7024C57.1577 36.7024 56.5066 37.3549 56.5066 38.1599C56.5066 38.9648 57.1577 39.6173 57.961 39.6173Z" fill="white"/>
<path d="M57.961 40.3708C56.7446 40.3708 55.7546 39.3788 55.7546 38.1599C55.7546 36.9409 56.7446 35.9489 57.961 35.9489C59.1773 35.9489 60.1673 36.9409 60.1673 38.1599C60.1673 39.3788 59.1773 40.3708 57.961 40.3708ZM57.961 37.4555C57.5734 37.4555 57.258 37.7715 57.258 38.1599C57.258 38.5482 57.5734 38.8642 57.961 38.8642C58.3485 38.8642 58.6639 38.5482 58.6639 38.1599C58.6639 37.7715 58.348 37.4555 57.961 37.4555Z" fill="black"/>
<path d="M2.77759 17.0923C2.77759 14.5927 4.79928 12.5667 7.29359 12.5667C9.7879 12.5667 11.8096 14.5927 11.8096 17.0923C11.8096 19.5918 7.29359 25.2621 7.29359 25.2621C7.29359 25.2621 2.77759 19.5918 2.77759 17.0923Z" fill="white"/>
<path d="M7.29358 26.0156C7.06473 26.0156 6.84886 25.9111 6.70607 25.7324C6.22673 25.1306 2.02563 19.7783 2.02563 17.0923C2.02563 14.1812 4.38869 11.8132 7.29358 11.8132C10.1985 11.8132 12.5615 14.1812 12.5615 17.0923C12.5615 19.7778 8.36044 25.1306 7.8811 25.7324C7.73831 25.9111 7.52244 26.0156 7.29358 26.0156ZM7.29358 13.3198C5.21804 13.3198 3.52905 15.0123 3.52905 17.0923C3.52905 18.5401 5.64257 21.8341 7.29358 24.0316C8.9446 21.8341 11.0581 18.5401 11.0581 17.0927C11.0581 15.0123 9.36913 13.3198 7.29358 13.3198Z" fill="black"/>
<path d="M4.99354 38.579C4.48006 38.5332 3.98053 38.42 3.65552 38.2456V37.0329C4.21515 37.321 4.83488 37.4574 5.34932 37.4574C5.84789 37.4574 6.05271 37.3061 6.05271 37.0257C6.05271 36.6923 5.79549 36.5781 5.08441 36.2828C4.11611 35.8732 3.68533 35.3885 3.68533 34.6379C3.68533 33.9104 4.19255 33.3573 4.99354 33.1602V32.4096H6.21136V33.0995C6.61234 33.1453 6.94456 33.2436 7.27822 33.3949V34.5772C6.83206 34.3426 6.37772 34.2284 5.93924 34.2284C5.49307 34.2284 5.19066 34.3797 5.19066 34.676C5.19066 34.994 5.50077 35.1154 6.17386 35.3808C7.20226 35.8053 7.58064 36.1763 7.58064 37.0406C7.58064 37.8134 7.14216 38.3521 6.21136 38.5337V39.269H4.99354V38.579Z" fill="black"/>
<path d="M7.29357 18.1898C8.08511 18.1898 8.72678 17.5468 8.72678 16.7536C8.72678 15.9603 8.08511 15.3173 7.29357 15.3173C6.50202 15.3173 5.86035 15.9603 5.86035 16.7536C5.86035 17.5468 6.50202 18.1898 7.29357 18.1898Z" fill="white"/>
<path d="M7.29356 18.9433C6.08872 18.9433 5.1084 17.961 5.1084 16.7536C5.1084 15.5462 6.08872 14.5638 7.29356 14.5638C8.49841 14.5638 9.47872 15.5462 9.47872 16.7536C9.47872 17.961 8.49841 18.9433 7.29356 18.9433ZM7.29356 16.0704C6.91759 16.0704 6.61181 16.3768 6.61181 16.7536C6.61181 17.1303 6.91759 17.4368 7.29356 17.4368C7.66953 17.4368 7.97531 17.1303 7.97531 16.7536C7.97531 16.3768 7.66953 16.0704 7.29356 16.0704Z" fill="black"/>
<path d="M53.953 13.9871H50.7832V15.4498H53.953V13.9871Z" fill="black"/>
<path d="M18.8761 29.076H14.1808C13.7659 29.076 13.4293 28.7388 13.4293 28.323V20.0919H12.937C12.5221 20.0919 12.1855 19.7547 12.1855 19.3389C12.1855 18.9231 12.5221 18.5858 12.937 18.5858H14.1813C14.5962 18.5858 14.9327 18.9231 14.9327 19.3389V27.5695H18.8761C19.2911 27.5695 19.6276 27.9067 19.6276 28.3225C19.6276 28.7383 19.2911 29.076 18.8761 29.076Z" fill="black"/>
<path d="M14.1806 37.4458H12.1128C11.6979 37.4458 11.3613 37.1086 11.3613 36.6928C11.3613 36.277 11.6979 35.9397 12.1128 35.9397H13.4287V28.3225C13.4287 27.9067 13.7652 27.5695 14.1802 27.5695C14.5951 27.5695 14.9316 27.9067 14.9316 28.3225V36.6923C14.9326 37.1086 14.5956 37.4458 14.1806 37.4458Z" fill="black"/>
<path d="M45.7087 37.4458H44.4649C44.05 37.4458 43.7134 37.1086 43.7134 36.6928V28.4613H39.77C39.3551 28.4613 39.0186 28.124 39.0186 27.7082C39.0186 27.2924 39.3551 26.9552 39.77 26.9552H44.4654C44.8803 26.9552 45.2168 27.2924 45.2168 27.7082V35.9392H45.7087C46.1236 35.9392 46.4601 36.2765 46.4601 36.6923C46.4601 37.1081 46.1241 37.4458 45.7087 37.4458Z" fill="black"/>
<path d="M44.4648 28.4613C44.0499 28.4613 43.7134 28.124 43.7134 27.7082V19.3389C43.7134 18.9231 44.0499 18.5858 44.4648 18.5858H48.5313C48.9462 18.5858 49.2828 18.9231 49.2828 19.3389C49.2828 19.7547 48.9462 20.0919 48.5313 20.0919H45.2163V27.7082C45.2168 28.124 44.8802 28.4613 44.4648 28.4613Z" fill="black"/>
<path d="M29.6904 17.5692C23.5243 17.5692 18.5256 9.49865 18.5256 9.49865C18.5256 9.49865 23.5243 1.42853 29.6904 1.42853C35.8565 1.42853 40.8552 9.49913 40.8552 9.49913C40.8552 9.49913 35.8565 17.5692 29.6904 17.5692Z" fill="white"/>
<path d="M29.6904 18.9978C22.8108 18.9978 17.5361 10.6097 17.3145 10.2527L16.8477 9.49961L17.3145 8.74656C17.5357 8.38859 22.8108 0 29.6904 0C36.5709 0 41.8451 8.38859 42.0662 8.7456L42.5326 9.49865L42.0662 10.2517C41.8451 10.6097 36.5699 18.9978 29.6904 18.9978ZM20.2502 9.49913C21.5973 11.382 25.4248 16.1407 29.6904 16.1407C33.627 16.1407 37.455 11.8821 39.1358 9.50684C37.794 7.62927 33.9626 2.85706 29.6904 2.85706C25.4248 2.85706 21.5983 7.6153 20.2502 9.49913Z" fill="black"/>
<path d="M29.6904 12.9199C31.5759 12.9199 33.1045 11.3882 33.1045 9.49866C33.1045 7.60915 31.5759 6.07741 29.6904 6.07741C27.8049 6.07741 26.2764 7.60915 26.2764 9.49866C26.2764 11.3882 27.8049 12.9199 29.6904 12.9199Z" fill="#FB3544"/>
<path d="M29.6904 14.3484C27.0216 14.3484 24.8508 12.1726 24.8508 9.49913C24.8508 6.82467 27.0221 4.64935 29.6904 4.64935C32.3588 4.64935 34.53 6.82467 34.53 9.49913C34.53 12.1731 32.3592 14.3484 29.6904 14.3484ZM29.6904 7.50593C28.5937 7.50593 27.7014 8.39967 27.7014 9.49913C27.7014 10.5976 28.5933 11.4918 29.6904 11.4918C30.7876 11.4918 31.6794 10.5981 31.6794 9.49913C31.6794 8.40015 30.7871 7.50593 29.6904 7.50593Z" fill="black"/>
</svg>
