<svg width="60" height="60" viewBox="0 0 60 60" fill="none" xmlns="http://www.w3.org/2000/svg">
<g clip-path="url(#clip0_6012_8629)">
<path d="M11.0137 0C23.6712 0 36.3288 0 48.9863 0C49.9139 0.375 50.5832 0.972656 50.6184 2.05078C50.6419 2.87109 50.6419 3.69141 50.6184 4.51172C50.5832 5.66016 49.7025 6.51563 48.5519 6.5625C48.3288 6.57422 48.0939 6.5625 47.8591 6.5625C47.8591 9.71484 47.8591 12.8086 47.8591 15.9375C48.1057 15.9375 48.317 15.9375 48.5284 15.9375C51.4755 15.9375 54.4227 15.9727 57.3699 15.9258C58.6615 15.9023 59.5421 16.3594 60.0117 17.5781C60.0117 18.3633 60.0117 19.1367 60.0117 19.9219C59.5303 21.2227 58.544 21.6914 57.1937 21.5742C57.1937 21.8906 57.1937 22.125 57.1937 22.3477C57.1937 30.0469 57.1937 37.7344 57.1937 45.4336C57.1937 45.6094 57.2055 45.7852 57.1937 45.9609C57.1468 46.6289 56.6067 46.9102 56.0313 46.5586C55.6791 46.3477 55.362 46.0898 55.0098 45.8672C54.1292 45.3164 54.0939 45.1992 54.5519 44.2852C56.818 39.7852 53.7182 34.3594 48.7162 34.125C46.0274 33.9961 43.8669 35.0625 42.3992 37.3242C40.9315 39.5859 40.8493 41.9766 42.0704 44.3906C42.3053 44.8477 42.4579 45.2461 41.953 45.6211C41.0137 46.3359 40.6732 46.3477 40.0626 45.8555C39.1585 45.1289 38.2309 44.4023 37.2564 43.7578C36.3053 43.125 36.2348 43.0547 36.7867 42.0703C38.4775 39.082 38.0431 35.3203 35.6947 32.8477C33.3229 30.3398 29.6595 29.6719 26.5597 31.1836C22.4618 33.1875 20.9589 38.2383 23.2955 42.2109C23.7299 42.9609 23.636 43.1836 22.9198 43.6641C21.8982 44.3438 20.9472 45.1172 19.9374 45.8203C19.7025 45.9844 19.3855 46.1953 19.1272 46.1602C18.0117 46.0195 17.6125 45.2109 18.0939 44.2148C19.8317 40.6758 18.317 36.4219 14.7476 34.7578C11.1781 33.0938 6.93933 34.6875 5.36595 38.2969C4.47358 40.3477 4.55577 42.3984 5.5773 44.3906C5.80039 44.8242 5.95303 45.2344 5.48337 45.5859C4.96673 45.9609 4.42661 46.3242 3.87476 46.6523C3.40509 46.9219 2.91194 46.6641 2.82975 46.125C2.80626 45.9375 2.818 45.7383 2.818 45.5391C2.818 37.7813 2.818 30.0352 2.818 22.2773C2.818 22.0547 2.818 21.8203 2.818 21.5508C2.59491 21.5508 2.44227 21.5508 2.28963 21.5508C0.845401 21.5391 0.0117417 20.6953 0 19.2539C0 18.9375 0 18.6328 0 18.3164C0 16.7695 0.833659 15.9375 2.3953 15.9375C5.4364 15.9375 8.48924 15.9375 11.5303 15.9375C11.7417 15.9375 11.9413 15.9375 12.1409 15.9375C12.1409 12.7617 12.1409 9.67969 12.1409 6.5625C11.9648 6.5625 11.8239 6.5625 11.683 6.5625C10.2153 6.53906 9.38161 5.69531 9.38161 4.21875C9.38161 3.69141 9.41683 3.16406 9.36986 2.63672C9.27593 1.34766 9.79256 0.457031 11.0137 0ZM30.0587 1.40625C28.4149 1.40625 26.7828 1.40625 25.1389 1.40625C20.6888 1.40625 16.2387 1.40625 11.7769 1.40625C10.9902 1.40625 10.7789 1.61719 10.7789 2.41406C10.7789 2.91797 10.7789 3.43359 10.7789 3.9375C10.7789 5.01562 10.9198 5.15625 11.9765 5.15625C23.9883 5.15625 36 5.15625 48 5.15625C48.1409 5.15625 48.2701 5.15625 48.411 5.15625C48.9393 5.14453 49.1977 4.875 49.2094 4.35938C49.2094 3.75 49.2094 3.15234 49.2094 2.54297C49.2094 1.58203 49.0333 1.41797 48.0939 1.40625C42.0939 1.40625 36.0822 1.40625 30.0587 1.40625ZM22.6967 17.5781C23.4129 17.5781 24.1409 17.5898 24.8571 17.5781C25.8552 17.5664 26.4775 16.9688 26.4775 15.9844C26.4892 14.5547 26.4892 13.1367 26.4775 11.707C26.4658 10.6992 25.8787 10.0898 24.8806 10.0898C23.4364 10.0781 21.9922 10.0781 20.5479 10.0898C19.5851 10.1016 18.9863 10.7109 18.9863 11.6836C18.9746 13.1133 18.9746 14.5313 18.9863 15.9609C18.998 16.9922 19.5969 17.5781 20.6419 17.5898C21.3229 17.5898 22.0039 17.5781 22.6967 17.5781ZM37.2798 10.0781C36.5636 10.0781 35.8356 10.0664 35.1194 10.0781C34.1566 10.0898 33.546 10.6875 33.5342 11.6484C33.5225 13.0898 33.5225 14.5312 33.5342 15.9844C33.546 16.957 34.1448 17.5664 35.1076 17.5781C36.5519 17.5898 37.9961 17.5898 39.4403 17.5781C40.4031 17.5664 41.0137 16.9688 41.0254 16.0078C41.0372 14.5664 41.0372 13.125 41.0254 11.6719C41.0137 10.6992 40.4149 10.1016 39.4521 10.0781C38.7241 10.0664 37.9961 10.0781 37.2798 10.0781ZM33.5225 26.0156C33.5225 26.7422 33.5108 27.457 33.5225 28.1836C33.546 29.1445 34.1448 29.7539 35.1076 29.7656C36.5519 29.7773 37.9961 29.7773 39.4403 29.7656C40.4031 29.7539 41.0137 29.1445 41.0137 28.1836C41.0254 26.7422 41.0254 25.3008 41.0137 23.8477C41.002 22.8867 40.4031 22.2773 39.4286 22.2656C37.9843 22.2539 36.5401 22.2539 35.0959 22.2656C34.1331 22.2773 33.5342 22.8867 33.5108 23.8477C33.5108 24.5742 33.5225 25.2891 33.5225 26.0156ZM22.7906 22.2656C22.0861 22.2656 21.3816 22.2656 20.6888 22.2656C20.6536 22.2656 20.6067 22.2656 20.5714 22.2656C19.6086 22.2891 18.998 22.8867 18.9863 23.8477C18.9746 25.2891 18.9746 26.7305 18.9863 28.1836C18.998 29.1445 19.6086 29.7539 20.5714 29.7656C22.0157 29.7773 23.4599 29.7773 24.9041 29.7656C25.8669 29.7539 26.4775 29.1563 26.4892 28.1836C26.501 26.7422 26.501 25.3008 26.4892 23.8477C26.4775 22.8867 25.8787 22.2891 24.9159 22.2656C24.1996 22.2539 23.4951 22.2656 22.7906 22.2656ZM12.8454 32.5664C12.8454 30.0234 12.8454 27.5625 12.8454 25.0781C11.4364 25.0781 10.0744 25.0547 8.71233 25.0898C7.87867 25.1016 7.27984 25.7227 7.2681 26.5547C7.24462 28.0781 7.24462 29.5898 7.2681 31.1133C7.27984 31.9219 7.86693 32.543 8.66536 32.5547C10.0626 32.6016 11.4364 32.5664 12.8454 32.5664ZM47.1311 32.5664C48.5753 32.5664 49.9491 32.5898 51.3346 32.5547C52.1331 32.5312 52.7084 31.9102 52.7319 31.1016C52.7554 29.5781 52.7554 28.0664 52.7319 26.543C52.7202 25.8047 52.2153 25.1484 51.5108 25.1133C50.0548 25.0547 48.6106 25.0898 47.1311 25.0898C47.1311 27.6094 47.1311 30.0586 47.1311 32.5664ZM12.1644 17.3438C9.11155 17.3438 6.12916 17.3438 3.13503 17.3438C1.39726 17.3438 1.39726 17.3438 1.409 19.0898C1.409 19.9688 1.59687 20.1563 2.46575 20.1563C5.50685 20.1563 8.55969 20.1563 11.6008 20.1563C11.7887 20.1563 11.9765 20.1445 12.1644 20.1328C12.1644 19.1836 12.1644 18.293 12.1644 17.3438ZM47.8474 20.1563C48.0822 20.1563 48.2935 20.1563 48.5049 20.1563C51.2994 20.1563 54.0822 20.1563 56.8767 20.1563C58.6145 20.1563 58.6145 20.1563 58.6027 18.4102C58.6027 17.543 58.4149 17.3438 57.546 17.3438C54.5049 17.3438 51.4521 17.3438 48.411 17.3438C48.2231 17.3438 48.0352 17.3555 47.8474 17.3672C47.8474 18.3164 47.8474 19.207 47.8474 20.1563Z" fill="white"/>
<path d="M18.5158 60C17.3064 59.4961 16.9072 58.5352 16.8368 57.2695C16.508 51.1172 20.1832 45.7266 26.0423 43.8281C26.1949 43.7812 26.3358 43.7344 26.5706 43.6523C24.3632 42.0234 23.2947 39.9023 23.6822 37.1836C23.9288 35.5078 24.7624 34.1484 26.101 33.1055C28.8368 30.9961 32.8172 31.4648 34.9777 34.1367C37.0912 36.75 37.0677 41.0391 33.4513 43.6406C33.6509 43.7109 33.8153 43.7812 33.9914 43.8281C39.9562 45.6914 43.8427 51.7031 43.1147 57.8789C42.9855 58.9805 42.3984 59.6484 41.3769 60C33.7448 60 26.1362 60 18.5158 60Z" fill="white"/>
<path d="M44.6519 60C44.2644 59.6719 44.2527 59.2851 44.3466 58.793C44.8985 55.8867 44.511 53.0742 43.2898 50.3906C42.9493 49.6523 42.5031 48.9492 42.0922 48.2461C41.7399 47.6484 41.7986 47.3437 42.3975 46.9922C42.8202 46.7461 43.2546 46.5117 43.6891 46.3125C44.1235 46.1133 44.5814 45.9609 45.0511 45.7851C41.7282 43.1484 42.2566 39.1992 44.2761 37.1719C46.5188 34.9336 50.1118 34.9453 52.3192 37.207C54.3035 39.2344 54.8084 43.1484 51.5325 45.7617C52.1783 46.043 52.8358 46.2773 53.4464 46.5937C57.7321 48.7969 60.1509 53.2734 59.6577 58.0664C59.5521 59.0859 58.8945 59.6367 58.0139 59.9883C53.5521 60 49.102 60 44.6519 60Z" fill="white"/>
<path d="M1.99596 60C0.716118 59.4727 0.352126 58.4414 0.340384 57.1406C0.293417 51.9727 3.31103 47.6367 8.23079 45.9258C8.33647 45.8906 8.4304 45.832 8.54782 45.7852C5.16622 43.0899 5.84723 39.0117 7.87854 37.0899C10.1564 34.9336 13.7142 34.9922 15.8746 37.2539C17.8825 39.3516 18.2347 43.2539 15.0645 45.75C15.8511 46.1133 16.6496 46.4531 17.4128 46.8516C18.2934 47.3086 18.3404 47.5781 17.8003 48.3985C15.7924 51.4922 15.041 54.8555 15.5811 58.5117C15.6633 59.0508 15.8981 59.5781 15.3463 60C10.8962 60 6.44606 60 1.99596 60Z" fill="white"/>
</g>
<defs>
<clipPath id="clip0_6012_8629">
<rect width="60" height="60" fill="white"/>
</clipPath>
</defs>
</svg>
