<svg width="48" height="57" viewBox="0 0 48 57" fill="none" xmlns="http://www.w3.org/2000/svg">
<g clip-path="url(#clip0_6012_8624)">
<path d="M39.1053 57C29.016 57 18.9268 57 8.83754 57C8.45426 56.9219 8.08226 56.8439 7.69898 56.777C3.42655 55.9742 0.439232 52.9078 0.0897724 48.6596C-0.0793211 46.6749 0.022135 44.6567 0.213774 42.6719C0.518143 39.4272 1.25088 36.2828 2.86291 33.3838C4.64402 30.1725 7.28188 28.1655 11.0019 27.6637C12.0616 27.5188 13.1325 27.3961 14.1133 28.0317C14.9925 28.6003 15.8831 29.1578 16.7737 29.6931C21.5872 32.6367 26.412 32.6367 31.2255 29.6819C32.0484 29.169 32.8488 28.6115 33.6943 28.1432C34.2128 27.8644 34.799 27.5745 35.3627 27.5634C37.9104 27.5411 40.2551 28.2435 42.2391 29.8715C44.5163 31.7335 45.7901 34.2423 46.6356 36.9742C47.7403 40.5311 48.0898 44.1995 47.9996 47.9014C47.8981 51.9712 45.3843 55.2717 41.45 56.4759C40.6722 56.7101 39.8831 56.8327 39.1053 57Z" fill="white"/>
<path d="M37.4932 13.8153C37.482 21.4755 31.0226 27.5189 23.5599 27.4855C15.7704 27.4409 9.61536 20.9961 9.72809 13.5366C9.84082 6.05475 16.2213 -0.100184 23.8192 0.0113182C31.2931 0.11167 37.5834 6.2889 37.4932 13.8153Z" fill="white"/>
</g>
<defs>
<clipPath id="clip0_6012_8624">
<rect width="48" height="57" fill="white"/>
</clipPath>
</defs>
</svg>
