<svg
      width="140"
      height="140"
      viewBox="-0.25 0.20 140 140"
      fill="none"
      xmlns="http://www.w3.org/2000/svg"
    >
      <circle cx="70.5" cy="69.5" r="61" fill="none" stroke="#EEEEEE" />

      <path
        d="M67.2658 88.7364C67.2658 90.9164 67.2419 93.0965 67.2658 95.2523C67.2658 95.7125 67.1465 95.8337 66.693 95.8337C65.428 95.8094 64.163 95.8094 62.8742 95.8337C62.4923 95.8337 62.3014 95.7368 62.3252 95.3008C62.3491 93.702 62.3491 92.1276 62.3252 90.5289C62.3252 90.1171 62.4923 90.0202 62.8265 89.9717C64.3778 89.6811 65.4757 88.3488 65.428 86.847C65.3803 85.2967 64.2824 84.0129 62.731 83.7949C62.4207 83.7465 62.3252 83.6496 62.3252 83.3589C62.3252 81.1788 62.3252 78.9988 62.3252 76.8429C62.3252 76.528 62.4207 76.4312 62.731 76.4312C65.5235 76.4312 68.3398 76.4312 71.1323 76.4312C71.3949 76.4312 71.5142 76.528 71.6097 76.7703C72.087 77.8119 72.9224 78.4174 74.0203 78.587C74.3306 78.6354 74.4022 78.7323 74.4022 79.023C74.4022 83.4316 74.3783 87.8401 74.4022 92.2487C74.4022 92.5393 74.3545 92.6605 74.0442 92.7331C72.4928 92.9996 71.5858 93.8958 71.3472 95.4219C71.2994 95.761 71.1801 95.8337 70.8698 95.8337C69.1752 95.8821 69.1752 95.8821 69.1752 94.1865C69.1752 90.3108 69.1752 86.411 69.1752 82.5353C69.1752 82.3658 69.1752 82.2204 69.1752 82.0509C69.1275 81.4211 68.7456 81.0335 68.2205 81.0335C67.6477 81.0335 67.2658 81.4453 67.2658 82.0993C67.2658 84.3036 67.2658 86.5079 67.2658 88.7364Z"
        fill="white"
      />
      <path
        d="M69.1755 69.2612C69.1755 67.7594 69.1994 66.2818 69.1755 64.78C69.1755 64.344 69.2232 64.1017 69.7483 64.0048C70.4882 63.8595 71.1804 63.4962 71.7771 63.0359C71.9919 62.8664 72.1112 62.8906 72.326 63.0602C73.3523 63.8837 74.498 64.0048 75.6675 63.3993C76.8131 62.7937 77.3621 61.8006 77.3382 60.4925C77.3382 60.2503 77.3382 60.0807 77.5769 59.9596C79.5579 59.0876 81.0377 57.5616 82.4936 56.0355C83.2096 55.2604 83.9256 54.4853 84.6655 53.7101C85.1906 53.153 85.8112 52.9108 86.5511 53.1046C87.8876 53.4437 88.3411 54.3157 87.9115 55.6722C87.6251 56.5442 87.1239 57.2951 86.6227 58.046C86.4317 58.3367 86.2885 58.1671 86.0976 58.046C84.1166 56.7864 81.7298 57.828 81.3002 60.1534C81.157 60.9285 81.3479 61.631 81.7298 62.285C81.8492 62.503 81.9685 62.6484 81.6821 62.8179C79.7965 64.1017 77.8633 65.2887 75.6197 65.7973C74.4741 66.0638 74.4741 66.0638 74.4741 67.2749C74.4741 68.7767 74.4502 70.2543 74.4741 71.7562C74.4741 72.0953 74.4264 72.2648 74.0206 72.3375C72.9227 72.5071 72.1112 73.1126 71.6577 74.1542C71.5623 74.3965 71.4429 74.4933 71.1804 74.4691C70.536 74.4207 69.7006 74.7356 69.2948 74.3238C68.9846 74.0331 69.1994 73.1853 69.1994 72.5797C69.1755 71.4897 69.1755 70.3755 69.1755 69.2612Z"
        fill="white"
      />
      <path
        d="M60.3684 73.0157C60.0343 72.6039 59.7479 72.1921 59.2944 71.9257C58.6261 71.5139 57.8862 71.3443 57.1224 71.4897C56.7883 71.5623 56.6689 71.5381 56.6689 71.1505C56.6928 69.0674 56.7167 67.0084 56.7405 64.9253C56.7644 63.6172 57.385 62.6725 58.3874 61.9458C59.4853 61.1707 60.7264 60.8316 62.0153 60.5409C62.3733 60.4683 62.4687 60.6863 62.612 60.88C63.4473 62.1154 64.4498 63.1328 65.8341 63.7383C66.025 63.811 66.1921 63.9321 66.383 63.9563C67.1945 64.0048 67.2423 64.4892 67.2423 65.1675C67.1945 68.0985 67.2184 71.0052 67.2423 73.9362C67.2423 74.3964 67.1229 74.5175 66.6694 74.4933C65.3806 74.4691 64.0917 74.4691 62.8029 74.4933C62.3971 74.4933 62.3017 74.3722 62.3017 73.9846C62.3255 72.8219 62.3255 71.6592 62.3017 70.4723C62.3017 70.1089 62.3971 70.0121 62.7552 69.9878C64.3304 69.8667 65.5477 68.6556 65.667 67.2264C65.8102 65.5793 64.9032 64.247 63.3518 63.811C62.1346 63.4719 60.798 63.9563 60.0581 65.0464C59.3182 66.1122 59.2705 67.5171 60.0343 68.6071C60.2968 68.9947 60.4161 69.3823 60.3923 69.8183C60.3684 70.8356 60.3923 71.8772 60.3684 72.8946C60.4639 72.9188 60.4161 72.943 60.3684 73.0157Z"
        fill="white"
      />
      <path
        d="M73.3757 41.1143C75.0226 42.9067 75.8818 49.4711 73.519 51.9661C73.1371 50.973 72.7791 49.9798 72.3972 48.9867C72.3256 48.7929 72.3017 48.5991 71.9676 48.696C69.5808 49.4227 67.2657 49.132 64.9982 48.26C64.5686 48.0904 64.3777 48.1389 64.2345 48.5749C63.8526 49.6649 63.3991 50.755 62.9456 51.9177C62.6354 51.2636 62.5876 50.6338 62.4206 50.0283C62.2535 49.3985 62.0864 48.7445 61.9432 48.0904C61.4659 45.9831 62.4683 44.5781 64.5925 44.3843C65.0221 44.3601 65.2369 44.2875 65.3324 43.803C65.4279 43.2459 65.8813 43.0279 66.4542 43.0279C67.934 43.0521 69.3899 43.0279 70.8697 43.0279C72.3017 43.0279 72.9461 42.5434 73.3757 41.1143Z"
        fill="white"
      />
      <path
        d="M68.221 58.4092C66.0729 58.4577 64.5215 56.7378 63.8055 55.3329C63.71 55.1149 63.8055 54.9696 63.8532 54.8242C64.3545 53.5162 64.8795 52.2082 65.3808 50.9001C65.5001 50.6095 65.5956 50.5368 65.9536 50.6095C67.5527 51.0213 69.1518 51.1424 70.7748 50.9486C71.0374 50.9244 71.1328 50.997 71.2044 51.215C71.6579 52.4504 72.1353 53.6858 72.5887 54.9211C72.6365 55.0665 72.6603 55.236 72.5887 55.3814C71.8011 56.9801 70.1781 58.4577 68.221 58.4092Z"
        fill="white"
      />
      <path
        d="M51.3941 99.9757C49.9859 99.9757 48.5777 99.9757 47.1695 99.9757C46.3819 99.9757 46.0239 99.6366 46 98.8615C46 95.9789 46 93.0964 46 90.2139C46 89.4872 46.3819 89.0754 46.9547 89.0996C47.5514 89.0996 47.8855 89.4872 47.8855 90.2381C47.8855 92.6362 47.9094 95.0342 47.8855 97.4323C47.8855 97.941 48.0287 98.0621 48.53 98.0621C50.9167 98.0379 53.3035 98.0379 55.6663 98.0621C56.4778 98.0621 56.9791 98.7646 56.6449 99.4186C56.4301 99.8304 56.0721 99.9999 55.6186 99.9757C54.2104 99.9757 52.8022 99.9757 51.3941 99.9757Z"
        fill="white"
      />
      <path
        d="M51.3941 40.0243C52.7545 40.0243 54.115 40.0485 55.4993 40.0001C56.3824 39.9759 56.7404 40.4846 56.7642 40.969C56.7881 41.5746 56.3108 41.9379 55.5231 41.9379C53.1841 41.9379 50.8451 41.9622 48.5061 41.9379C48.0287 41.9379 47.9094 42.0833 47.9094 42.5435C47.9333 44.8447 47.9094 47.1458 47.9094 49.4228C47.9094 49.665 47.9094 49.9072 47.8617 50.1495C47.7662 50.5855 47.4798 50.8519 47.0502 50.9004C46.5728 50.9488 46.2387 50.7308 46.0955 50.2706C46.0239 50.0526 46.0239 49.7861 46.0239 49.5439C46 46.8309 46 44.118 46 41.3808C46 40.2908 46.2864 40.0001 47.3843 40.0001C48.7209 40.0243 50.0575 40.0243 51.3941 40.0243Z"
        fill="white"
      />
      <path
        d="M89.6297 40.0242C91.0379 40.0242 92.4461 40.0242 93.8543 40.0242C94.618 40.0242 94.976 40.3633 94.976 41.1143C94.9999 44.021 94.9999 46.9277 94.976 49.8103C94.976 50.5369 94.5703 50.9245 93.9736 50.9003C93.4008 50.8761 93.0666 50.4885 93.0666 49.786C93.0666 47.388 93.0428 44.9899 93.0666 42.5918C93.0666 42.0347 92.9234 41.9378 92.3983 41.9378C90.0832 41.9621 87.7442 41.9621 85.429 41.9378C84.6653 41.9378 84.1879 41.5503 84.2118 40.9447C84.2357 40.3633 84.6891 40 85.429 40C86.8372 40.0242 88.2454 40.0242 89.6297 40.0242Z"
        fill="white"
      />
      <path
        d="M89.6298 99.9758C88.2217 99.9758 86.8135 99.9758 85.4053 99.9758C84.7131 99.9758 84.2596 99.5882 84.2596 99.0311C84.2358 98.4497 84.7131 98.038 85.4292 98.038C87.792 98.038 90.1549 98.0137 92.5178 98.038C92.9713 98.038 93.1145 97.9168 93.1145 97.4324C93.0906 95.0343 93.0906 92.6363 93.1145 90.2382C93.1145 89.5357 93.4009 89.1482 93.9021 89.0755C94.4033 89.0028 94.8568 89.2935 94.9762 89.8022C95.0239 89.9717 95.0239 90.1655 95.0239 90.3351C95.0239 93.0965 95.0239 95.8579 95.0239 98.6193C95.0239 99.6609 94.7136 99.9516 93.7112 99.9516C92.3269 99.9758 90.9664 99.9758 89.6298 99.9758Z"
        fill="white"
      />
      <path
        d="M64.4971 60.1533C65.2131 60.2018 65.7382 59.8142 66.4542 60.0564C67.6953 60.5167 68.9842 60.4682 70.2253 59.9838C70.631 59.8384 71.0606 59.9111 71.1084 60.1533C71.2038 60.4924 71.2993 60.9769 70.8936 61.2918C69.557 62.3334 68.1011 62.5514 66.5497 61.8974C65.7382 61.5582 65.0699 61.0011 64.4971 60.1533Z"
        fill="white"
      />
      <path
        d="M60.4641 76.2131C60.4641 77.4727 60.4641 78.7323 60.4641 79.9919C60.4641 80.331 60.3687 80.4764 60.0107 80.3795C58.6264 79.9677 57.6 79.1441 56.9795 77.715C58.4354 77.8361 59.5811 77.3758 60.4641 76.2131Z"
        fill="white"
      />
      <path
        d="M57.7193 73.379C58.3637 73.4032 58.8411 73.9604 58.8172 74.6144C58.7934 75.2926 58.1967 75.8255 57.5522 75.7771C56.9317 75.7286 56.4066 75.1473 56.4305 74.5175C56.4782 73.8635 57.051 73.3548 57.7193 73.379Z"
        fill="white"
      />
      <path
        d="M62.6596 65.6519C63.3279 65.6519 63.8291 66.1606 63.8291 66.8146C63.8291 67.4928 63.304 68.0499 62.6358 68.0499C62.0152 68.0499 61.4663 67.4928 61.4424 66.863C61.4424 66.1848 61.9913 65.6277 62.6596 65.6519Z"
        fill="white"
      />
      <path
        d="M75.6432 75.4622C75.6432 76.1404 75.1419 76.6491 74.4975 76.6491C73.8531 76.6491 73.2803 76.092 73.2803 75.4379C73.2803 74.8082 73.8292 74.251 74.4498 74.2268C75.1181 74.2268 75.6432 74.7597 75.6432 75.4622Z"
        fill="white"
      />
      <path
        d="M84.3549 59.4509C85.0232 59.4509 85.5006 59.9596 85.5006 60.6378C85.5006 61.3161 84.9516 61.8732 84.3072 61.849C83.6866 61.8248 83.1377 61.2676 83.1377 60.6378C83.1377 59.9838 83.6866 59.4509 84.3549 59.4509Z"
        fill="white"
      />
      <path
        d="M75.4291 60.6863C75.4052 61.3403 74.8801 61.849 74.2357 61.849C73.5674 61.8248 73.0423 61.2677 73.0662 60.5894C73.0901 59.9112 73.639 59.4025 74.3312 59.4509C74.9756 59.4752 75.453 60.0081 75.4291 60.6863Z"
        fill="white"
      />
      <path
        d="M61.1797 86.8953C61.1797 86.217 61.657 85.7084 62.3253 85.6841C63.0175 85.6599 63.5664 86.1928 63.5664 86.8711C63.5664 87.5251 62.9936 88.1064 62.3492 88.1064C61.7048 88.0822 61.1797 87.5493 61.1797 86.8953Z"
        fill="white"
      />
      <path
        d="M74.45 94.6226C75.0944 94.6226 75.6195 95.1555 75.6195 95.7853C75.6195 96.4635 75.0706 97.0206 74.4262 96.9964C73.7579 96.9964 73.2328 96.4393 73.2566 95.761C73.2566 95.107 73.7817 94.6226 74.45 94.6226Z"
        fill="white"
      />
    </svg>
