<svg width="55" height="55" viewBox="0 0 55 55" fill="none" xmlns="http://www.w3.org/2000/svg">
<path d="M49.6983 55C34.9048 55 20.1224 55 5.32884 55C5.32884 53.8775 5.30661 52.744 5.33995 51.6215C5.35106 51.177 5.19546 50.9214 4.82868 50.6991C3.87282 50.099 2.9392 49.4655 2.01668 48.8321C0.682931 47.9208 0.00493982 46.6428 0.00493982 45.0313C0.00493982 40.9972 -0.00617478 36.9741 0.00493982 32.94C0.00493982 30.2394 1.61656 28.2168 4.25072 27.5945C6.15132 27.1388 8.06303 26.7165 9.96363 26.272C10.9862 26.0386 11.4863 25.4051 11.5419 24.416C11.5641 23.9271 11.3641 23.6381 11.0417 23.2936C10.4416 22.649 9.79691 21.9711 9.4857 21.1821C9.15226 20.3374 8.70768 19.9929 7.84074 19.8262C6.54033 19.5706 5.71785 18.6704 5.42887 17.3591C5.12877 16.0477 5.55113 14.9586 6.54033 14.0695C6.65147 13.9695 6.77373 13.8695 6.90711 13.7583C4.71753 12.1024 4.98428 9.49081 6.85154 7.96828C8.88551 6.31239 10.775 4.47868 12.7645 2.76723C13.2202 2.37826 13.8093 2.05597 14.3872 1.88927C15.5209 1.56698 16.5324 1.93372 17.3993 2.72277C18.3552 3.58961 19.3221 4.43423 20.3002 5.31218C21.9452 3.84522 23.5457 2.42271 25.1462 1.0002C26.6466 -0.333401 28.3694 -0.333401 29.881 1.0002C31.3481 2.30046 32.8041 3.60073 34.2713 4.90099C34.4158 5.03435 34.5714 5.1566 34.727 5.28996C35.7606 4.36755 36.7498 3.47848 37.7501 2.61164C38.7282 1.76702 39.8508 1.56698 41.0623 2.0004C41.4513 2.14488 41.8292 2.37826 42.1404 2.65609C44.2633 4.52314 46.3862 6.39018 48.4868 8.29056C50.1763 9.81309 50.0762 12.158 48.2979 13.5805C48.2312 13.6361 48.1201 13.6472 47.9978 13.6917C48.209 13.8584 48.2868 13.9028 48.3535 13.9695C49.4094 14.8252 49.8762 15.9143 49.6094 17.2479C49.3316 18.6482 48.4424 19.5151 47.0531 19.8596C46.7974 19.9262 46.5307 19.9374 46.2973 20.0374C46.1194 20.1152 45.9083 20.2596 45.8638 20.4263C45.4526 21.671 44.7412 22.7046 43.7187 23.527C43.5853 23.6381 43.4853 23.8604 43.4742 24.0271C43.3964 25.3718 43.8743 25.983 45.208 26.2942C47.0753 26.7276 48.9537 27.1388 50.8098 27.6056C53.0216 28.1501 54.3998 29.5615 54.9 31.7953C54.9222 31.8842 54.9667 31.962 55 32.0398C55 36.6296 55 41.2083 55 45.7981C54.6332 47.4651 53.5884 48.5654 52.1547 49.3989C51.4211 49.8212 50.7431 50.3435 50.0318 50.7992C49.765 50.9659 49.665 51.1437 49.665 51.466C49.7094 52.6329 49.6983 53.8109 49.6983 55ZM5.30661 42.6531C5.30661 38.1077 5.30661 33.6512 5.30661 29.1614C4.98428 29.2392 4.6953 29.2948 4.41744 29.3726C2.86139 29.7949 1.79439 31.1285 1.79439 32.7399C1.78328 36.863 1.77216 40.9749 1.80551 45.098C1.80551 45.5981 1.98334 46.1871 2.27232 46.5983C3.02811 47.6541 4.26183 48.0986 5.33995 48.921C5.33995 47.554 5.35106 46.3427 5.32884 45.1202C5.32884 44.9535 5.16212 44.7313 5.00651 44.6201C4.38409 44.1756 3.73945 43.7533 3.08369 43.3199C3.42824 42.8086 3.72833 42.353 4.06177 41.864C4.4619 42.1085 4.85091 42.353 5.30661 42.6531ZM17.7216 40.8638C17.7216 36.3184 17.7216 31.862 17.7216 27.3833C17.3771 27.4611 17.0659 27.5167 16.7658 27.6056C15.2986 28.0279 14.2316 29.3504 14.2205 30.8729C14.1983 35.0515 14.2094 39.219 14.2205 43.3977C14.2205 44.0867 14.4428 44.7424 14.9874 45.1758C15.8433 45.8537 16.7658 46.4538 17.7661 47.1651C17.7661 45.7648 17.7772 44.5201 17.755 43.2643C17.755 43.1198 17.5994 42.9531 17.466 42.8531C16.8325 42.4086 16.1878 41.9863 15.5098 41.5306C15.8433 41.0305 16.1545 40.5637 16.4879 40.0636C16.8991 40.3415 17.277 40.586 17.7216 40.8638ZM49.6983 48.8988C50.4875 48.3764 51.1543 47.9097 51.8323 47.4763C52.8104 46.865 53.255 45.9982 53.255 44.8313C53.2328 40.8749 53.255 36.9297 53.2439 32.9733C53.2439 30.8284 51.8768 29.3726 49.7317 29.2059C49.7317 33.6624 49.7317 38.1188 49.7317 42.6308C50.1763 42.353 50.5764 42.1085 50.9876 41.8418C51.3211 42.353 51.6323 42.8086 51.9546 43.2976C51.2766 43.7533 50.632 44.1756 49.9984 44.609C49.8651 44.6979 49.7095 44.8757 49.6983 45.0202C49.6872 46.2871 49.6983 47.5318 49.6983 48.8988ZM19.5555 53.1774C24.8905 53.1774 30.1811 53.1774 35.4828 53.1774C35.4828 51.9994 35.4828 50.8658 35.4828 49.6989C30.17 49.6989 24.8794 49.6989 19.5555 49.6989C19.5555 50.8658 19.5555 52.0105 19.5555 53.1774ZM23.0789 14.1806C23.0789 15.1253 23.0677 16.0255 23.0789 16.9256C23.1233 18.9816 24.5904 20.7486 26.58 21.1598C28.6584 21.5821 30.6924 20.5486 31.5593 18.6371C32.2151 17.1924 31.8594 15.6698 31.9594 14.1695C28.9696 14.1806 26.0687 14.1806 23.0789 14.1806ZM10.675 15.9477C10.675 17.0145 10.6305 18.0148 10.6972 19.0038C10.7305 19.4928 10.8861 19.9818 11.0751 20.4375C11.9531 22.4268 14.1761 23.4603 16.2656 22.8824C18.3996 22.2934 19.8112 20.1819 19.5333 17.9703C19.5111 17.8369 19.3777 17.7147 19.2777 17.5924C18.8887 17.1368 18.4885 16.6811 18.0884 16.2366C17.9773 16.1144 17.8328 15.9477 17.6994 15.9477C15.3653 15.9477 13.0424 15.9477 10.675 15.9477ZM18.9553 6.46797C18.2107 5.80117 17.5104 5.16771 16.7991 4.54536C15.2542 3.17842 14.9541 3.16731 13.4203 4.52314C11.5308 6.20125 9.63019 7.87937 7.75182 9.5686C7.08494 10.1576 6.96268 10.7577 7.30723 11.4579C8.22975 10.6133 8.24086 10.6133 9.57461 10.6133C12.2199 10.6133 14.8541 10.6133 17.4993 10.6133C17.6883 10.6133 17.8772 10.6133 18.1329 10.6133C17.4326 9.01293 17.755 7.6571 18.9553 6.46797ZM36.9721 10.6244C37.1833 10.6244 37.3834 10.6244 37.5834 10.6244C40.1287 10.6244 42.6739 10.6355 45.2303 10.6244C46.1861 10.6244 47.142 10.5466 47.7311 11.5912C48.0756 10.8022 47.9533 10.1798 47.431 9.71307C45.2636 7.75712 43.0851 5.8234 40.8956 3.88967C40.3287 3.38957 39.5952 3.38957 39.0172 3.87856C38.028 4.71206 37.0833 5.59002 36.1163 6.44575C37.35 7.9016 37.5278 8.824 36.9721 10.6244ZM19.7222 9.81309C20.1779 9.11295 20.767 8.824 21.5006 8.84623C22.0007 8.86846 22.5009 8.84623 23.0011 8.84623C23.6568 8.84623 24.3126 8.84623 24.9906 8.84623C24.6682 7.52374 24.9906 6.47909 26.0576 5.75672C26.9579 5.13437 27.9471 5.11214 28.8807 5.69004C30.0477 6.41241 30.3812 7.50152 30.0588 8.85735C31.0147 8.85735 31.9372 8.86846 32.8486 8.85735C33.7822 8.83512 34.7158 8.80178 35.2938 9.81309C35.6384 8.99071 35.5272 8.41281 34.927 7.86826C32.8041 5.96787 30.6812 4.0786 28.5472 2.20044C27.8915 1.62255 27.1468 1.61144 26.491 2.18933C24.3459 4.0786 22.2008 5.9901 20.0779 7.9016C19.5333 8.36836 19.3777 8.99071 19.7222 9.81309ZM19.5666 26.9499C19.5666 30.9952 19.5666 34.996 19.5666 38.9745C21.9341 38.9745 24.2681 38.9745 26.6244 38.9745C26.6244 38.4522 26.6022 37.9743 26.6355 37.4965C26.6466 37.1964 26.5466 37.0519 26.2799 36.9075C25.3351 36.4074 24.8683 35.585 24.8572 34.5181C24.8572 34.2514 24.8572 33.9846 24.8572 33.7179C22.5454 33.4512 21.3116 32.0731 21.3116 29.8282C21.3116 28.7614 21.3116 27.6945 21.3116 26.5609C20.7003 26.6943 20.1446 26.8276 19.5666 26.9499ZM39.0505 27.9501C39.0505 28.239 39.0505 28.4169 39.0505 28.5947C39.0505 29.9616 39.0505 31.3285 39.0505 32.6955C39.0505 33.7846 38.5837 34.6181 37.6168 35.1404C37.3389 35.2849 37.2611 35.4516 37.2722 35.7406C37.2833 36.8297 37.2833 37.9188 37.2833 39.0079C37.2833 39.608 37.2833 40.2081 37.2833 40.8972C37.7613 40.5971 38.1503 40.3415 38.5726 40.0748C38.9061 40.5749 39.2062 41.0305 39.5396 41.5306C39.195 41.764 38.9061 42.0418 38.5615 42.1863C37.4945 42.6531 37.1055 43.4088 37.2611 44.5757C37.3722 45.3758 37.2833 46.2093 37.2833 47.1206C38.1058 46.5761 38.8283 46.0871 39.5507 45.6092C40.4176 45.0313 40.84 44.2312 40.84 43.1865C40.8289 41.6751 40.84 40.1526 40.84 38.6411C40.84 36.1073 40.8511 33.5846 40.84 31.0507C40.8178 29.7505 40.2509 28.7391 39.0505 27.9501ZM44.2744 15.9588C41.907 15.9588 39.5062 15.9588 37.2833 15.9588C36.7498 16.5478 36.3275 17.0923 35.8273 17.5369C35.5939 17.748 35.4716 17.9258 35.505 18.2259C35.5272 18.4482 35.505 18.6704 35.5161 18.8927C35.6272 20.1819 36.1607 21.2376 37.2833 22.1156C37.2833 20.593 37.2833 19.1817 37.2833 17.7591C37.8946 17.7591 38.4615 17.7591 39.0617 17.7591C39.0617 18.6371 39.0617 19.4928 39.0617 20.3374C39.0617 21.2043 39.0617 22.0711 39.0617 22.9157C41.2735 23.5492 43.8743 21.9044 44.2522 19.5484C44.4189 18.3926 44.2744 17.1924 44.2744 15.9588ZM47.9089 28.728C47.3309 28.5947 46.7752 28.4724 46.1528 28.3279C46.1528 29.4726 46.1528 30.5395 46.1528 31.6175C46.1528 33.8291 44.9191 35.2071 42.7073 35.4849C42.6739 35.4849 42.6517 35.5294 42.6406 35.5294C42.6406 36.6963 42.6406 37.8521 42.6406 38.9857C44.4189 38.9857 46.1417 38.9857 47.8978 38.9857C47.9089 35.5627 47.9089 32.1621 47.9089 28.728ZM12.4088 38.9968C12.4088 37.7854 12.4088 36.6518 12.4088 35.5183C12.0532 35.4516 11.7308 35.4072 11.4085 35.3182C9.93028 34.8848 8.90774 33.529 8.88551 31.9731C8.87439 30.784 8.88551 29.5838 8.88551 28.3391C8.25198 28.4835 7.70736 28.6169 7.15163 28.7391C7.15163 32.1732 7.15163 35.585 7.15163 38.9968C8.90774 38.9968 10.6416 38.9968 12.4088 38.9968ZM47.8978 46.1204C46.1972 46.1204 44.5412 46.1427 42.8851 46.1093C42.1293 46.0982 41.4291 46.0871 40.9178 46.7872C40.7844 46.9762 40.5399 47.0762 40.3398 47.2095C39.4173 47.8319 38.4948 48.432 37.5834 49.0655C37.4278 49.1766 37.3389 49.3878 37.1499 49.6434C40.8289 49.6434 44.3522 49.6434 47.8978 49.6434C47.8978 48.4765 47.8978 47.3429 47.8978 46.1204ZM7.1294 49.6434C10.6972 49.6434 14.2094 49.6434 17.9217 49.6434C17.6772 49.3544 17.5549 49.1544 17.3771 49.021C16.0989 48.0875 14.8096 47.1651 13.5203 46.2538C13.3869 46.1649 13.1757 46.1315 13.009 46.1315C12.0865 46.1204 11.164 46.1315 10.2415 46.1315C9.20783 46.1315 8.18529 46.1315 7.1294 46.1315C7.1294 47.3207 7.1294 48.4542 7.1294 49.6434ZM30.1366 31.9176C30.1366 30.5395 30.1366 29.1726 30.1366 27.7723C27.5025 28.8947 25.1795 28.4169 23.1011 26.4053C23.1011 27.7945 23.0566 29.0948 23.1233 30.395C23.1678 31.2508 23.9569 31.8953 24.835 31.9064C26.58 31.9287 28.3361 31.9176 30.1366 31.9176ZM23.0566 40.8305C21.8674 40.8305 20.7226 40.8305 19.5778 40.8305C19.5778 43.1976 19.5778 45.5314 19.5778 47.8652C20.7559 47.8652 21.8896 47.8652 23.0566 47.8652C23.0566 45.5203 23.0566 43.1976 23.0566 40.8305ZM35.4716 47.8763C35.4716 45.487 35.4716 43.1754 35.4716 40.8416C34.2935 40.8416 33.1376 40.8416 31.9928 40.8416C31.9928 43.2087 31.9928 45.5425 31.9928 47.8763C33.1709 47.8763 34.3046 47.8763 35.4716 47.8763ZM35.505 35.4738C34.6158 35.4738 33.8045 35.4738 32.9931 35.4738C31.8483 35.4849 31.0147 34.9848 30.4701 33.9846C30.4145 33.8846 30.3367 33.8068 30.2033 33.6068C30.1922 33.8402 30.1811 33.9513 30.1811 34.0513C30.2589 35.3738 29.8143 36.4074 28.5806 37.0186C28.5028 37.063 28.4139 37.1742 28.4139 37.2631C28.4028 37.841 28.4028 38.43 28.4028 38.9968C30.8146 38.9968 33.1265 38.9968 35.4828 38.9968C35.4939 38.8634 35.505 38.7523 35.505 38.6411C35.505 37.6076 35.505 36.5741 35.505 35.4738ZM31.9483 31.9064C31.9483 32.1509 31.9483 32.3065 31.9483 32.4732C31.9483 33.4067 32.2262 33.6957 33.1709 33.6957C34.2046 33.6957 35.2382 33.7068 36.2719 33.6957C36.9277 33.6846 37.2611 33.3512 37.2722 32.6955C37.2833 31.862 37.2722 31.0285 37.2722 30.2061C37.2722 29.606 37.2722 29.0059 37.2722 28.4057C35.4605 28.4057 33.7378 28.4057 31.9817 28.4057C31.9817 28.9947 31.9817 29.5504 31.9817 30.1728C33.1709 30.1728 34.3157 30.1728 35.4716 30.1728C35.4716 30.784 35.4716 31.3285 35.4716 31.9176C34.3157 31.9064 33.1709 31.9064 31.9483 31.9064ZM21.3005 10.6466C21.3005 10.8244 21.3005 10.9467 21.3005 11.08C21.2894 12.158 21.545 12.4025 22.6343 12.4025C23.7791 12.4025 24.9239 12.4025 26.0687 12.4025C28.2694 12.4025 30.459 12.4025 32.6596 12.4025C33.3932 12.4025 33.7044 12.0802 33.7266 11.369C33.7266 11.1356 33.7266 10.9022 33.7266 10.6577C29.5698 10.6466 25.4685 10.6466 21.3005 10.6466ZM12.4422 44.3201C12.4422 43.142 12.4422 41.9863 12.4422 40.8416C10.6194 40.8416 8.87439 40.8416 7.14052 40.8416C7.14052 42.0196 7.14052 43.1643 7.14052 44.3201C8.94108 44.3201 10.7305 44.3201 12.4422 44.3201ZM47.8978 40.8416C46.1083 40.8416 44.3744 40.8416 42.5628 40.8416C42.5628 42.0196 42.5628 43.1643 42.5628 44.3201C44.2966 44.3201 46.0861 44.3201 47.8978 44.3201C47.8978 43.1532 47.8978 42.0196 47.8978 40.8416ZM7.1294 53.1885C10.6861 53.1885 14.1983 53.1885 17.7105 53.1885C17.7105 52.5884 17.7105 52.0327 17.7105 51.4771C14.1649 51.4771 10.6638 51.4771 7.1294 51.4771C7.1294 52.0438 7.1294 52.5995 7.1294 53.1885ZM37.3056 53.1774C40.8733 53.1774 44.3856 53.1774 47.9089 53.1774C47.9089 52.5884 47.9089 52.0438 47.9089 51.466C44.3633 51.466 40.8511 51.466 37.3056 51.466C37.3056 52.055 37.3056 52.5995 37.3056 53.1774ZM18.8887 25.294C20.1891 24.9828 21.4561 24.6939 22.7232 24.3827C22.9344 24.3271 23.1344 24.216 23.3012 24.0715C23.768 23.7048 23.9236 23.1936 23.9791 22.6157C24.0236 22.0822 23.8013 21.7822 23.4123 21.471C22.5454 20.7486 21.9563 19.8151 21.6117 18.7371C21.5673 18.5815 21.4895 18.4482 21.4228 18.3037C21.3116 18.4926 21.3005 18.6371 21.3005 18.7816C21.2338 20.5486 20.5447 22.0267 19.2443 23.2269C18.5552 23.8493 18.4441 24.3494 18.8887 25.294ZM36.3719 12.4247C36.6831 12.9915 36.9832 13.5472 37.3167 14.1695C39.9397 14.1695 42.6294 14.1806 45.3192 14.1584C45.7749 14.1584 46.075 13.8472 46.1305 13.3916C46.175 13.0693 46.1417 12.747 46.1417 12.4247C42.8295 12.4247 39.5952 12.4247 36.3719 12.4247ZM8.88551 12.4247C8.88551 12.5914 8.88551 12.7248 8.88551 12.847C8.87439 13.925 9.13003 14.1695 10.2193 14.1695C11.4752 14.1695 12.7312 14.1695 13.9871 14.1695C15.2542 14.1695 16.5324 14.1695 17.7216 14.1695C18.0551 13.5472 18.3663 12.9915 18.6664 12.4247C15.432 12.4247 12.1977 12.4247 8.88551 12.4247ZM25.8797 22.938C25.513 23.7381 25.1462 24.5605 24.7349 25.4496C25.8464 26.8276 28.5584 27.0388 29.981 25.7163C30.1255 25.5829 30.2033 25.194 30.1144 25.0051C29.8254 24.2827 29.4475 23.5937 29.1363 22.9491C28.0915 22.938 26.9579 22.938 25.8797 22.938ZM26.6133 40.8194C26.002 40.8194 25.4574 40.8194 24.8905 40.8194C24.8905 43.1754 24.8905 45.5092 24.8905 47.8541C25.4796 47.8541 26.0465 47.8541 26.6133 47.8541C26.6133 45.4981 26.6133 43.1865 26.6133 40.8194ZM30.1366 47.8763C30.1366 45.4981 30.1366 43.1643 30.1366 40.8416C29.5364 40.8416 28.9807 40.8416 28.425 40.8416C28.425 43.2087 28.425 45.5314 28.425 47.8763C29.0029 47.8763 29.5587 47.8763 30.1366 47.8763ZM31.3259 23.5159C32.6374 22.6824 34.1157 23.238 35.5383 22.9824C34.249 21.6488 33.7044 20.0707 33.6377 18.2926C33.5044 18.4704 33.4488 18.6371 33.3932 18.8149C33.0264 19.8707 32.4374 20.7597 31.6038 21.5043C30.9591 22.06 30.8702 22.6601 31.3259 23.5159ZM37.2722 26.572C37.2722 26.2609 37.2833 25.983 37.2722 25.7163C37.2389 25.1718 36.9054 24.8384 36.3497 24.8272C35.1938 24.8161 34.0267 24.8161 32.8708 24.8272C32.3151 24.8384 31.9928 25.1829 31.9705 25.7385C31.9594 26.0053 31.9705 26.2831 31.9705 26.572C33.7378 26.572 35.4716 26.572 37.2722 26.572ZM13.3647 28.0279C14.3206 26.6832 15.5765 25.9719 17.077 25.7052C16.9881 25.2829 16.9103 24.9495 16.8658 24.7161C15.6765 24.7161 14.5206 24.7161 13.4758 24.7161C13.1091 25.5163 12.72 26.3609 12.2977 27.2722C12.5533 27.4611 12.9312 27.7278 13.3647 28.0279ZM10.6638 28.2168C10.6638 29.5171 10.6305 30.784 10.675 32.0509C10.6972 32.9622 11.4308 33.6179 12.4978 33.6735C12.4978 32.3176 12.4978 30.9618 12.4978 29.5949C11.942 29.1837 11.3307 28.7169 10.6638 28.2168ZM42.5294 33.6846C43.5742 33.5846 44.2966 33.0289 44.3411 32.1954C44.4078 30.884 44.3633 29.5615 44.3633 28.2279C43.7076 28.7169 43.0851 29.1837 42.5405 29.606C42.5294 30.9729 42.5294 32.3065 42.5294 33.6846ZM42.7406 27.2722C42.3182 26.3498 41.9403 25.5163 41.5513 24.6717C40.8067 24.7272 39.9619 24.7939 39.0505 24.8606C39.0505 25.1273 39.0283 25.4274 39.0617 25.7385C39.0728 25.8608 39.1506 26.0386 39.2506 26.0719C40.2287 26.4831 41.0178 27.1166 41.6847 28.0168C42.0959 27.7278 42.4738 27.4611 42.7406 27.2722ZM46.1528 18.2037C46.9641 18.137 47.5532 17.8703 47.82 17.1368C48.0423 16.5478 47.92 16.0032 47.4865 15.5587C47.3643 15.4365 47.0419 15.292 47.0086 15.3253C46.753 15.6143 46.1639 15.5254 46.1528 16.0699C46.1417 16.7589 46.1528 17.4591 46.1528 18.2037ZM8.88551 18.2037C8.88551 17.4591 8.89662 16.7589 8.88551 16.0588C8.87439 15.5254 8.28532 15.6143 8.02968 15.3253C7.99634 15.292 7.67402 15.4365 7.55176 15.5698C7.11829 16.0255 6.99603 16.5589 7.22943 17.1479C7.49618 17.8703 8.07414 18.1481 8.88551 18.2037ZM33.7266 16.3922C34.5714 16.3922 35.1271 16.0588 35.3827 15.4142C35.6161 14.803 35.505 14.2473 35.0604 13.7806C34.9381 13.6583 34.6603 13.5027 34.5714 13.5583C34.2602 13.7361 33.8156 13.9806 33.7711 14.2473C33.6488 14.9475 33.7266 15.6698 33.7266 16.3922ZM21.3005 16.4255C21.3005 15.6809 21.3783 14.9364 21.2561 14.2251C21.2116 13.9584 20.7448 13.7361 20.4225 13.5472C20.3447 13.5027 20.089 13.6472 19.9779 13.7694C19.5222 14.2251 19.3888 14.7808 19.6333 15.392C19.9334 16.1033 20.5114 16.3811 21.3005 16.4255ZM26.6133 33.7179C26.6689 34.3403 26.4132 35.0293 27.1135 35.3405C27.3691 35.4516 27.7915 35.4183 28.0249 35.2627C28.6028 34.8848 28.3694 34.2625 28.3694 33.7179C27.7803 33.7179 27.2357 33.7179 26.6133 33.7179ZM28.4028 7.95716C28.4028 7.47929 27.9915 7.07921 27.5136 7.07921C27.0357 7.07921 26.6355 7.4904 26.6355 7.96828C26.6355 8.44615 27.0468 8.84623 27.5247 8.84623C28.0026 8.84623 28.4028 8.43504 28.4028 7.95716Z" fill="white"/>
</svg>
