<svg width="36" height="36" viewBox="0 0 36 36" fill="none" xmlns="http://www.w3.org/2000/svg">
<g clip-path="url(#clip0_3031_146236)">
<path d="M35.9988 13.6537C35.9364 13.8806 35.8838 14.1112 35.8094 14.3336C35.3142 15.818 33.9639 16.7939 32.3618 16.7999C29.8624 16.8097 27.3631 16.8074 24.8637 16.7961C24.5887 16.7946 24.4039 16.8803 24.2145 17.0718C22.8716 18.4331 21.5153 19.7808 20.1686 21.1375C19.8403 21.4688 19.4675 21.6619 18.9941 21.5755C18.3884 21.4651 18.006 20.9933 18.0022 20.348C17.9954 19.3105 17.9999 18.2738 17.9999 17.2364C17.9999 17.1019 17.9999 16.9667 17.9999 16.8149C16.9148 16.7533 16.0078 16.3709 15.3015 15.5686C14.7356 14.9256 14.4132 14.1713 14.4095 13.3187C14.3952 10.0448 14.3839 6.77089 14.411 3.497C14.4268 1.60989 16.0026 0.0262852 17.8917 0.0165192C22.7657 -0.0075204 27.6389 -0.00451545 32.5128 0.0157679C34.1472 0.0225291 35.5442 1.2215 35.9147 2.83366C35.9395 2.94183 35.9703 3.04776 35.9988 3.15518C35.9988 6.65444 35.9988 10.1537 35.9988 13.6537ZM25.1996 4.8049C24.0379 4.8049 22.8754 4.80265 21.7136 4.80565C20.9449 4.8079 20.4076 5.29771 20.4016 5.99411C20.3963 6.689 20.9374 7.2021 21.6941 7.2036C24.0304 7.2066 26.3674 7.2066 28.7037 7.2036C29.4619 7.20285 30.0022 6.69125 29.9969 5.99561C29.9917 5.30222 29.4506 4.8079 28.6849 4.80565C27.5239 4.80265 26.3614 4.8049 25.1996 4.8049ZM25.1944 9.6038C24.0447 9.6038 22.8949 9.60229 21.746 9.60455C20.9464 9.60605 20.4046 10.0891 20.4016 10.7983C20.3986 11.5059 20.9449 12.0025 21.7369 12.0032C24.0484 12.0047 26.3599 12.0055 28.6721 12.0032C29.4596 12.0025 30.006 11.4984 29.9984 10.79C29.9909 10.0974 29.4491 9.60755 28.6811 9.6053C27.5186 9.6023 26.3569 9.6038 25.1944 9.6038Z" fill="white"/>
<path d="M5.32869 36.0001C5.06343 35.9392 4.79741 35.8844 4.5344 35.8175C1.87801 35.1384 0.0106377 32.7758 0.00763183 30.0375C-0.00138564 22.0151 -0.00364001 13.9934 0.00763183 5.97167C0.012892 2.6745 2.67605 0.0286438 5.97569 0.00760917C7.54999 -0.00215691 9.12429 0.00385299 10.6993 0.00685793C11.4606 0.0083604 12.0024 0.51244 12.0016 1.20658C12.0009 1.90072 11.4598 2.40255 10.6978 2.4048C9.18591 2.40781 7.67399 2.4033 6.16206 2.40631C3.96254 2.41006 2.40553 3.95986 2.40478 6.15498C2.40252 12.7771 2.40402 19.4 2.40402 26.0222C2.40402 26.1326 2.40402 26.243 2.40402 26.3775C8.80643 26.3775 15.1833 26.3775 21.603 26.3775C21.603 25.5752 21.5924 24.7789 21.606 23.9841C21.6165 23.3545 22.0907 22.858 22.6978 22.8061C23.29 22.7558 23.8363 23.1524 23.9701 23.7429C24.0001 23.8751 24.0001 24.0156 24.0001 24.1523C24.0016 26.089 24.0069 28.0257 24.0001 29.9624C23.9896 33.0072 21.8637 35.4667 18.8466 35.9362C18.788 35.9453 18.7332 35.9783 18.6768 36.0001C14.2274 36.0001 9.77806 36.0001 5.32869 36.0001ZM13.2002 31.1989C13.1994 30.5454 12.6659 30.0082 12.0099 30.0022C11.3569 29.9955 10.8113 30.5288 10.8038 31.1817C10.7963 31.8533 11.3426 32.4032 12.0121 32.3979C12.6659 32.3927 13.2009 31.8533 13.2002 31.1989Z" fill="white"/>
</g>
<defs>
<clipPath id="clip0_3031_146236">
<rect width="36" height="36" fill="white"/>
</clipPath>
</defs>
</svg>
