<svg width="21" height="40" viewBox="0 0 21 40" fill="none" xmlns="http://www.w3.org/2000/svg">
<path d="M0 40C0.000821918 39.3302 -0.00164384 38.6605 0.00410959 37.9907C0.0090411 37.4041 0.25726 37.1439 0.827671 37.1439C7.27808 37.1414 13.7285 37.1414 20.1789 37.1439C20.7526 37.1439 20.9951 37.3991 20.9984 37.9907C21.0025 38.6605 20.9975 39.3302 20.9967 40C13.9981 40 6.99863 40 0 40Z" fill="white"/>
<path d="M19.5678 35.6911C13.525 35.6911 7.49133 35.6911 1.42969 35.6911C1.42969 24.7461 1.42969 13.8145 1.42969 2.85437C7.46667 2.85437 13.5004 2.85437 19.5678 2.85437C19.5678 13.786 19.5678 24.7276 19.5678 35.6911ZM18.205 12.8737C18.205 10.5438 18.2067 8.21316 18.2042 5.88333C18.2034 4.82751 17.6437 4.25513 16.6072 4.25429C12.5354 4.25177 8.46284 4.25177 4.39106 4.25429C3.35955 4.25513 2.79982 4.83255 2.79982 5.89088C2.79818 10.5237 2.79818 15.1557 2.79982 19.7885C2.80065 20.8493 3.35462 21.4091 4.39928 21.41C8.47106 21.4108 12.5437 21.4108 16.6154 21.41C17.6585 21.41 18.2034 20.8502 18.2042 19.7809C18.2059 17.478 18.205 15.1758 18.205 12.8737Z" fill="white"/>
<path d="M20.9815 0C20.9815 0.469157 20.9815 0.910617 20.9815 1.3739C13.9895 1.3739 7.01714 1.3739 0.0234375 1.3739C0.0234375 0.912295 0.0234375 0.471674 0.0234375 0C7.0007 0 13.973 0 20.9815 0Z" fill="white"/>
<path fill-rule="evenodd" clip-rule="evenodd" d="M4.22656 19.9677H16.7822V5.71344H4.22656V19.9677ZM10.546 9.0566H10.4438C10.4252 9.07398 10.4061 9.09072 10.3871 9.10739C10.3528 9.13741 10.3188 9.1672 10.2887 9.20012C9.99583 9.52911 9.6224 9.74061 9.20826 9.89084C8.7352 10.0629 8.24307 10.1342 7.73969 10.1418C7.56207 10.1443 7.50142 10.2031 7.50142 10.3726C7.50142 10.6302 7.50133 10.8879 7.50123 11.1456C7.50104 11.6609 7.50084 12.1762 7.50142 12.6915C7.50229 13.3646 7.65998 13.9983 8.0204 14.5774C8.42155 15.2219 8.98646 15.6919 9.67959 16.0184C9.86246 16.1047 10.0553 16.1727 10.2479 16.2405C10.3026 16.2598 10.3573 16.2791 10.4117 16.2987C10.4568 16.3147 10.5157 16.318 10.5607 16.3054C11.4887 16.0394 12.2667 15.5602 12.8359 14.7897C13.2042 14.2912 13.4112 13.7314 13.4727 13.1221C13.4918 12.9315 13.4987 12.7402 13.4996 12.5488C13.5015 12.0327 13.5011 11.5161 13.5008 10.9994C13.5006 10.7927 13.5005 10.586 13.5005 10.3793C13.5005 10.2056 13.439 10.1443 13.2605 10.1418C12.68 10.1326 12.1159 10.0394 11.5831 9.80775C11.2227 9.65081 10.903 9.44015 10.656 9.13465C10.6379 9.11198 10.6111 9.0962 10.5841 9.08033C10.5711 9.0727 10.5581 9.06505 10.546 9.0566ZM9.79655 14.1074C9.65013 14.1846 9.50111 14.1015 9.50544 13.9295C9.51387 13.8775 9.52146 13.824 9.52919 13.7694C9.54844 13.6333 9.5686 13.491 9.60508 13.352C9.65359 13.1699 9.62154 13.0381 9.46732 12.9156C9.37249 12.8398 9.28822 12.7516 9.20381 12.6632C9.16019 12.6176 9.11653 12.5719 9.07136 12.5279C9.01072 12.4691 8.98386 12.402 9.01331 12.3222C9.04191 12.2459 9.10429 12.2131 9.1866 12.2014C9.30703 12.1846 9.42746 12.1663 9.54789 12.1481C9.66832 12.1298 9.78876 12.1116 9.90919 12.0948C9.95424 12.0889 9.97677 12.0713 9.99496 12.0327C10.0486 11.9193 10.1036 11.8063 10.1586 11.6932C10.2095 11.5887 10.2604 11.4841 10.3103 11.3789C10.3493 11.2966 10.4048 11.2404 10.5027 11.2412C10.6006 11.2421 10.6543 11.3008 10.6933 11.3822C10.7492 11.5005 10.8066 11.6185 10.864 11.7365C10.9125 11.8363 10.961 11.9361 11.0087 12.036C11.0251 12.0721 11.0459 12.0881 11.0884 12.0939C11.2337 12.114 11.3788 12.1358 11.5239 12.1577C11.6218 12.1724 11.7198 12.1872 11.8179 12.2014C11.9002 12.2131 11.9626 12.2492 11.9886 12.3264C12.0154 12.4062 11.9868 12.4733 11.9271 12.5321C11.8493 12.6081 11.7722 12.6849 11.6951 12.7617C11.5987 12.8576 11.5023 12.9536 11.4046 13.0482C11.3674 13.0851 11.3578 13.1195 11.3665 13.1674C11.385 13.2733 11.4029 13.3791 11.4208 13.4849C11.4438 13.6215 11.4668 13.758 11.4913 13.8942C11.506 13.9781 11.4939 14.0511 11.4202 14.1032C11.3466 14.1552 11.2703 14.1435 11.1941 14.1023C11.12 14.0623 11.0455 14.0226 10.971 13.9829C10.8365 13.9112 10.7018 13.8395 10.5685 13.765C10.5157 13.7356 10.4784 13.7406 10.429 13.7675C10.2194 13.8833 10.0088 13.9966 9.79655 14.1074Z" fill="white"/>
</svg>
