<svg width="36" height="36" viewBox="0 0 36 36" fill="none" xmlns="http://www.w3.org/2000/svg">
<path d="M0 19.1398C0 18.3939 0 17.641 0 16.8951C0.0422701 16.5714 0.0845401 16.2477 0.12681 15.924C0.718591 11.139 2.86732 7.18434 6.58708 4.1304C12.4204 -0.661629 20.4587 -1.37234 26.9683 2.45565C32.7734 5.86144 35.7886 11.0546 35.993 17.7887C36.1057 21.4689 35.0771 24.8747 33.02 27.9287C30.1597 32.1718 26.1933 34.7825 21.1421 35.7184C20.4798 35.845 19.8035 35.9083 19.1272 35.9998C18.3804 35.9998 17.6266 35.9998 16.8798 35.9998C16.7883 35.9787 16.7037 35.9506 16.6121 35.9435C13.0262 35.655 9.79961 34.4306 6.96751 32.2141C3.33229 29.3571 1.08493 25.6488 0.26771 21.089C0.15499 20.4416 0.0915851 19.7872 0 19.1398ZM18.0141 14.8614C15.1045 14.8544 12.7303 17.2187 12.7303 20.1179C12.7233 23.0241 15.0904 25.3954 17.993 25.3954C20.9025 25.4025 23.2767 23.0381 23.2767 20.139C23.2838 17.2328 20.9166 14.8614 18.0141 14.8614ZM7.43953 25.3954C8.29198 25.3884 8.98943 25.2125 9.62348 24.8255C11.6595 23.587 11.7018 20.9975 9.69393 19.7098C9.43327 19.5409 9.14442 19.4001 8.85558 19.2805C8.10176 18.9639 7.33386 18.6683 6.58004 18.3587C6.1362 18.1757 6.02348 17.6832 6.37573 17.3454C6.51663 17.2047 6.72094 17.0991 6.9182 17.0428C7.74247 16.8247 8.46106 17.1062 9.13033 17.5635C9.72916 17.9646 10.3491 17.8943 10.7084 17.3736C11.0677 16.8528 10.9339 16.2266 10.328 15.8395C9.8771 15.5581 9.39804 15.2836 8.89785 15.1148C7.65088 14.6926 6.418 14.7348 5.30489 15.5018C4.382 16.1421 3.9593 17.0569 4.1002 18.1687C4.22701 19.2031 4.8047 19.9279 5.791 20.3079C6.51663 20.5964 7.24931 20.8779 7.96791 21.1875C8.2638 21.3141 8.55969 21.483 8.80626 21.6871C9.15147 21.9686 9.16556 22.3274 8.89785 22.6863C8.58787 23.1015 8.14403 23.2774 7.64384 23.2844C6.79843 23.2915 6.06575 23.017 5.45284 22.4119C4.95969 21.9263 4.32564 21.9123 3.88885 22.3556C3.4591 22.7989 3.48728 23.4252 3.98043 23.9177C4.96673 24.9029 6.17143 25.3532 7.43953 25.3954ZM28.7084 14.8544C27.863 14.8755 27.1022 15.0585 26.447 15.5651C24.6364 16.9584 25.1084 19.6183 27.0106 20.3079C27.701 20.5612 28.3843 20.8427 29.0607 21.1312C29.3918 21.2719 29.7229 21.4338 30.0047 21.6519C30.4063 21.9615 30.4204 22.3696 30.0892 22.7567C29.7793 23.1155 29.3706 23.2774 28.9057 23.2844C28.0321 23.2985 27.2853 23.003 26.6583 22.3837C26.2145 21.9404 25.6016 21.9334 25.1718 22.3274C24.7562 22.7144 24.7209 23.3337 25.0873 23.784C26.2638 25.2336 28.7859 25.8176 30.4838 25.0436C32.0759 24.3118 32.8227 22.637 32.2027 21.1664C31.8082 20.2375 31.0544 19.6816 30.1526 19.3016C29.3988 18.985 28.638 18.6824 27.8771 18.3868C27.6305 18.2883 27.4403 18.1687 27.4262 17.8732C27.4121 17.5706 27.5389 17.3243 27.7926 17.2047C28.0532 17.085 28.3421 16.9936 28.6239 16.9795C29.3072 16.9373 29.892 17.2328 30.4485 17.6058C30.9769 17.9646 31.5969 17.8661 31.9421 17.3876C32.2873 16.9021 32.1886 16.2899 31.6744 15.9029C30.7867 15.2414 29.7933 14.8825 28.7084 14.8544ZM18 5.01703C15.8372 5.05221 13.9562 5.79107 12.3851 7.29693C11.8849 7.77543 11.8427 8.4017 12.2654 8.85909C12.681 9.3024 13.3292 9.28833 13.8294 8.83094C16.3022 6.55807 19.7049 6.55807 22.1777 8.83094C22.6779 9.28833 23.326 9.3024 23.7417 8.85909C24.1644 8.40874 24.1221 7.78247 23.6219 7.29693C22.0579 5.79107 20.1699 5.05925 18 5.01703ZM17.9648 9.23907C16.9926 9.26722 16.0908 9.59795 15.344 10.3087C14.8861 10.7379 14.8438 11.3712 15.2243 11.8145C15.6188 12.2649 16.2599 12.286 16.7601 11.8567C17.5703 11.1671 18.4297 11.1671 19.254 11.8708C19.7401 12.2789 20.3742 12.2649 20.7687 11.8286C21.1632 11.3923 21.128 10.752 20.6771 10.3227C19.9303 9.60498 19.0356 9.26018 17.9648 9.23907Z" fill="white"/>
<path d="M21.1702 20.1321C21.1632 21.8773 19.733 23.2916 17.9788 23.2846C16.2457 23.2705 14.8367 21.8491 14.8438 20.1181C14.8508 18.373 16.281 16.9586 18.0352 16.9656C19.7612 16.9797 21.1702 18.4011 21.1702 20.1321Z" fill="white"/>
</svg>
