<svg width="40" height="41" viewBox="0 0 40 41" fill="none" xmlns="http://www.w3.org/2000/svg">
<g clip-path="url(#clip0_3031_146225)">
<path d="M0 2.72405C0.0247584 2.66548 0.060698 2.60852 0.0726779 2.54754C0.384155 1.01672 1.59252 0.00660136 3.1531 0.00419441C7.21668 -0.00222412 11.281 0.00178746 15.3446 0.00178746C16.9116 0.00178746 18.4786 -0.00142181 20.0463 0.00258978C21.9336 0.00740368 23.2585 1.32722 23.2625 3.22389C23.2697 6.39946 23.2705 9.57503 23.2625 12.7498C23.2577 14.6304 21.9471 15.9486 20.0767 15.9543C17.0354 15.9631 13.9941 15.9567 10.9528 15.9567C10.2324 15.9567 10.0575 16.1372 10.3027 16.8232C10.5599 17.5444 10.9272 18.2256 11.2547 18.9204C11.321 19.0616 11.4256 19.1844 11.5534 19.3777C10.6733 19.3192 9.8794 19.1635 9.11429 18.8763C7.8588 18.4053 6.88284 17.6022 6.28704 16.3787C6.14008 16.0762 5.93483 15.9462 5.59939 15.9518C4.82949 15.9663 4.05878 15.9583 3.28887 15.9559C1.54381 15.951 0.428879 15.0388 0.0575034 13.3146C0.0495168 13.2785 0.0191678 13.2472 0 13.2135C0 9.71704 0 6.22055 0 2.72405ZM14.3399 5.82821C14.3607 5.71107 14.3639 5.65892 14.3798 5.61079C14.6514 4.77958 14.8183 3.93956 14.6706 3.05701C14.4829 1.93938 13.7393 1.13225 12.8009 1.05603C12.3584 1.01993 12.1947 1.1491 12.1172 1.58396C12.0382 2.03004 11.9639 2.47694 11.8697 2.91981C11.5598 4.38404 10.9336 5.63967 9.54956 6.3762C9.45052 6.42835 9.33232 6.47247 9.22291 6.47167C8.40029 6.46926 7.57847 6.45322 6.75585 6.44439C6.38847 6.44038 6.23193 6.63936 6.23193 6.99639C6.23353 9.22442 6.23353 11.4525 6.23193 13.6805C6.23193 14.0407 6.40045 14.2285 6.76304 14.2277C7.54652 14.2253 8.33001 14.2164 9.11349 14.2237C9.24687 14.2253 9.39941 14.2606 9.50883 14.3328C10.1046 14.7251 10.7499 14.9153 11.4631 14.908C12.5517 14.8976 13.6411 14.9064 14.7297 14.9048C15.8031 14.9032 16.4124 14.3143 16.5067 13.2288C16.6688 11.3554 16.8381 9.48357 17.0218 7.61257C17.12 6.61208 16.4987 5.86191 15.4964 5.83062C15.1258 5.81858 14.7552 5.82821 14.3399 5.82821Z" fill="white"/>
<path d="M12.2763 41C11.6829 40.8684 11.0799 40.7689 10.4969 40.5997C9.05211 40.1808 7.93958 39.3264 7.26472 37.9544C7.12096 37.6624 6.92209 37.5533 6.60423 37.5581C5.78081 37.5725 4.95739 37.5709 4.13398 37.5605C2.35057 37.538 1.03358 36.2391 1.024 34.4491C1.00723 31.2069 1.00803 27.9648 1.024 24.7234C1.03279 22.9575 2.31703 21.6265 4.04692 21.6168C7.91163 21.5952 11.7763 21.608 15.6402 21.6088C15.7177 21.6088 15.7944 21.6249 15.9206 21.6385C15.9206 21.8038 15.9206 21.9594 15.9206 22.1159C15.9206 24.0238 15.9062 25.9317 15.9254 27.8396C15.9453 29.8478 17.2487 31.4043 19.1815 31.7517C19.4922 31.8079 19.8156 31.8031 20.1335 31.8047C21.4848 31.8103 22.837 31.8071 24.2913 31.8071C24.2386 32.9985 24.3041 34.1699 24.1068 35.2947C23.8688 36.6547 22.5846 37.5541 21.1486 37.5597C18.0809 37.5717 15.0133 37.5637 11.9457 37.5645C11.2213 37.5645 11.0528 37.7418 11.2939 38.4238C11.5359 39.1081 11.8738 39.7596 12.1805 40.4199C12.2739 40.6221 12.4017 40.8083 12.5143 41.0016C12.436 41 12.3562 41 12.2763 41ZM11.8698 34.2389C14.0996 34.2389 16.3295 34.2397 18.5593 34.2381C18.7047 34.2381 18.8804 34.2702 18.9874 34.202C19.1224 34.1161 19.2837 33.9388 19.2805 33.8056C19.2765 33.6692 19.1056 33.512 18.9714 33.4149C18.8908 33.3571 18.7398 33.394 18.6208 33.394C14.1212 33.3932 9.62156 33.3932 5.12192 33.394C5.00292 33.394 4.85197 33.3563 4.7713 33.4141C4.63713 33.5104 4.46781 33.6676 4.46382 33.8032C4.45983 33.938 4.61796 34.1161 4.75134 34.2028C4.85756 34.2718 5.03406 34.2381 5.17942 34.2381C7.41007 34.2389 9.63993 34.2389 11.8698 34.2389ZM9.04812 25.7793C10.3899 25.7793 11.7316 25.7793 13.0726 25.7793C13.1788 25.7793 13.3169 25.817 13.3848 25.7648C13.5358 25.6477 13.7354 25.4944 13.7546 25.3364C13.769 25.2192 13.5454 25.0508 13.4 24.944C13.3289 24.8919 13.194 24.9264 13.0877 24.9264C10.4314 24.9256 7.77426 24.9256 5.11792 24.9264C5.03806 24.9264 4.95819 24.9232 4.87912 24.9288C4.62036 24.9465 4.44465 25.066 4.44146 25.346C4.43826 25.622 4.60119 25.7568 4.86395 25.7768C4.96937 25.7849 5.07639 25.7809 5.18261 25.7809C6.47165 25.7793 7.75988 25.7793 9.04812 25.7793ZM9.08805 29.1546C7.78624 29.1546 6.48443 29.1546 5.18261 29.1546C5.07639 29.1546 4.96937 29.1498 4.86395 29.1586C4.60119 29.1795 4.43826 29.3135 4.44146 29.5895C4.44545 29.8687 4.62036 29.9882 4.87912 30.0067C4.95819 30.0123 5.03885 30.0091 5.11792 30.0091C7.77426 30.0091 10.4314 30.0091 13.0877 30.0091C13.194 30.0091 13.3289 30.0428 13.4 29.9906C13.5454 29.8839 13.769 29.7154 13.7546 29.5975C13.7354 29.4394 13.5358 29.287 13.384 29.1698C13.3161 29.1177 13.178 29.1546 13.0718 29.1546C11.7444 29.1546 10.4162 29.1546 9.08805 29.1546Z" fill="white"/>
<path d="M28.4703 34.36C28.6148 34.1426 28.7386 34.0014 28.8129 33.8369C29.1331 33.1253 29.4734 32.4184 29.7377 31.6859C29.9254 31.1652 29.7465 30.9767 29.1883 30.9767C26.1334 30.9751 23.0785 30.9919 20.0245 30.9606C19.4965 30.955 18.9271 30.8427 18.4535 30.6164C17.3394 30.0837 16.7635 29.1209 16.7547 27.8869C16.7316 24.6183 16.7476 21.3489 16.7476 18.0802C16.7476 18.0401 16.7492 18 16.7515 17.9599C16.817 16.8928 16.9025 16.8182 17.9471 16.8085C18.8888 16.7997 19.8352 16.8262 20.7704 16.7395C21.7943 16.6457 22.6193 16.1081 23.2518 15.2978C23.414 15.0908 23.5729 14.9945 23.8436 14.9953C28.1332 15.0041 32.4236 14.9977 36.7132 15.0033C38.6995 15.0057 39.9941 16.3215 39.9957 18.3257C39.9989 21.4347 39.9989 24.5437 39.9957 27.6527C39.9941 29.6729 38.6899 30.9726 36.6717 30.9759C35.8882 30.9767 35.1039 30.9566 34.3212 30.9903C34.1367 30.9983 33.8716 31.1403 33.7933 31.2968C32.8844 33.11 31.3279 33.942 29.4255 34.2702C29.2034 34.3087 28.979 34.3327 28.7546 34.3592C28.6907 34.3672 28.6244 34.36 28.4703 34.36ZM19.8392 22.9768C19.8368 24.1802 20.7824 25.1438 21.9708 25.147C23.1552 25.1502 24.1272 24.1875 24.1383 23C24.1495 21.8254 23.1664 20.8298 21.9939 20.8273C20.8007 20.8249 19.8416 21.7821 19.8392 22.9768ZM28.3592 25.147C29.5469 25.151 30.5148 24.1899 30.5228 23C30.5308 21.8166 29.5588 20.8298 28.3824 20.8273C27.1948 20.8249 26.2252 21.7893 26.222 22.9776C26.2188 24.1722 27.1756 25.143 28.3592 25.147ZM36.9065 22.992C36.9097 21.8022 35.9425 20.8249 34.7637 20.8265C33.5785 20.8281 32.6121 21.7965 32.6065 22.9856C32.6017 24.1674 33.5761 25.147 34.7557 25.147C35.9473 25.147 36.9033 24.1883 36.9065 22.992Z" fill="white"/>
<path d="M12.9342 1.88544C13.5827 2.24327 13.8087 2.80249 13.8654 3.45477C13.9381 4.28838 13.7248 5.06662 13.383 5.81599C13.0923 6.45383 13.2249 6.65601 13.9349 6.65682C14.3598 6.65762 14.7847 6.65601 15.2095 6.65682C16.0489 6.65922 16.2861 6.95608 16.1184 7.87473C15.8868 7.87473 15.64 7.87554 15.394 7.87473C15.0929 7.87393 14.8486 7.97181 14.8589 8.31761C14.8685 8.63292 15.0921 8.73642 15.3845 8.72679C15.5945 8.71957 15.8045 8.72519 16.0617 8.72519C16.0274 9.13678 15.9962 9.51467 15.9611 9.9399C15.6736 9.9399 15.4124 9.93829 15.1512 9.9399C14.8749 9.9415 14.6784 10.0586 14.6713 10.3547C14.6633 10.654 14.8605 10.7783 15.1329 10.7912C15.3573 10.8016 15.5825 10.7936 15.8716 10.7936C15.8389 11.1971 15.8093 11.5734 15.7742 12.0091C15.4923 12.0091 15.2191 12.0091 14.946 12.0091C14.6832 12.0083 14.5059 12.1174 14.4924 12.399C14.4772 12.7023 14.6529 12.8347 14.9348 12.8419C15.172 12.8483 15.4092 12.8435 15.6416 12.8435C15.7518 13.6867 15.4308 14.0718 14.6481 14.0726C13.6122 14.0742 12.5764 14.0927 11.5421 14.063C11.1524 14.0518 10.7466 13.978 10.3825 13.84C9.78905 13.6153 9.43924 13.2406 9.47518 12.4913C9.54387 11.0407 9.52869 9.58367 9.47838 8.13147C9.45921 7.56905 9.70679 7.28022 10.1149 7.00582C10.4775 6.76272 10.8393 6.50678 11.1532 6.20591C12.1076 5.28887 12.4869 4.08459 12.7505 2.83137C12.812 2.53371 12.8663 2.23284 12.9342 1.88544Z" fill="white"/>
<path d="M8.6483 7.31311C8.6483 9.33655 8.6483 11.3303 8.6483 13.3497C8.13397 13.3497 7.638 13.3497 7.11328 13.3497C7.11328 11.3456 7.11328 9.34217 7.11328 7.31311C7.61164 7.31311 8.11001 7.31311 8.6483 7.31311Z" fill="white"/>
<path d="M23.2878 22.9896C23.2846 23.7285 22.7047 24.307 21.9732 24.3006C21.2488 24.2942 20.657 23.6868 20.6722 22.9663C20.6873 22.2338 21.2791 21.669 22.0171 21.6802C22.7311 21.6915 23.2902 22.2675 23.2878 22.9896Z" fill="white"/>
<path d="M29.6744 22.9992C29.6672 23.7382 29.0826 24.3134 28.3502 24.3022C27.6218 24.2918 27.05 23.6924 27.0668 22.9575C27.0835 22.2202 27.669 21.6642 28.4125 21.6802C29.1257 21.6955 29.6816 22.2771 29.6744 22.9992Z" fill="white"/>
<path d="M33.461 22.972C33.4674 22.2346 34.048 21.6706 34.7892 21.6794C35.5 21.6882 36.0742 22.2715 36.0734 22.984C36.0726 23.7157 35.4872 24.3014 34.7564 24.2998C34.0248 24.2982 33.4546 23.7141 33.461 22.972Z" fill="white"/>
</g>
<defs>
<clipPath id="clip0_3031_146225">
<rect width="40" height="41" fill="white"/>
</clipPath>
</defs>
</svg>
