<svg width="63" height="48" viewBox="0 0 63 48" fill="none" xmlns="http://www.w3.org/2000/svg">
<path d="M61.0519 26.6248H34.709V45.268H61.0519V26.6248Z" fill="white"/>
<path d="M63.0001 47.2161H32.761V24.6767H63.0001V47.2161ZM36.6565 43.3199H59.1039V28.5729H36.6565V43.3199Z" fill="black"/>
<path d="M28.291 26.6248H1.948V45.268H28.291V26.6248Z" fill="white"/>
<path d="M30.2391 47.2161H0V24.6767H30.2385V47.2161H30.2391ZM3.89619 43.3199H26.343V28.5729H3.89619V43.3199Z" fill="black"/>
<path d="M61.0519 1.9481H34.709V20.5913H61.0519V1.9481Z" fill="white"/>
<path d="M63.0001 22.5388H32.761V0H63.0001V22.5388ZM36.6565 18.6432H59.1039V3.89553H36.6565V18.6432Z" fill="black"/>
<path d="M28.291 1.9481H1.948V20.5913H28.291V1.9481Z" fill="white"/>
<path d="M30.2391 22.5388H0V0H30.2385V22.5388H30.2391ZM3.89619 18.6432H26.343V3.89553H3.89619V18.6432Z" fill="black"/>
<path d="M31.5 34.2621C23.0736 34.2621 16.2424 23.2562 16.2424 23.2562C16.2424 23.2562 23.0736 12.2503 31.5 12.2503C39.9264 12.2503 46.7575 23.2562 46.7575 23.2562C46.7575 23.2562 39.9264 34.2621 31.5 34.2621Z" fill="white"/>
<path d="M31.4997 36.2102C22.0976 36.2102 14.89 24.7707 14.5878 24.2838L13.9504 23.2569L14.5878 22.2299C14.89 21.7431 22.0989 10.3042 31.4997 10.3042C40.9018 10.3042 48.1101 21.7431 48.4123 22.2299L49.0496 23.2569L48.4123 24.2838C48.1101 24.7707 40.9018 36.2102 31.4997 36.2102ZM18.5917 23.2457C20.4255 25.8061 25.662 32.3147 31.4997 32.3147C37.3289 32.3147 42.5588 25.8259 44.4005 23.2569C42.5595 20.6892 37.3295 14.1997 31.4997 14.1997C26.1199 14.1991 20.8887 20.0065 18.5917 23.2457Z" fill="black"/>
<path d="M31.5 27.9225C34.0768 27.9225 36.1656 25.8336 36.1656 23.2569C36.1656 20.6802 34.0768 18.5913 31.5 18.5913C28.9233 18.5913 26.8345 20.6802 26.8345 23.2569C26.8345 25.8336 28.9233 27.9225 31.5 27.9225Z" fill="#FB3544"/>
<path d="M31.4997 29.8705C27.8532 29.8705 24.8867 26.9034 24.8867 23.2569C24.8867 19.6104 27.8539 16.6439 31.4997 16.6439C35.1469 16.6439 38.1134 19.611 38.1134 23.2569C38.1134 26.9034 35.1469 29.8705 31.4997 29.8705ZM31.4997 20.5394C30.0017 20.5394 28.7822 21.7582 28.7822 23.2569C28.7822 24.7556 30.001 25.975 31.4997 25.975C32.9984 25.975 34.2179 24.7562 34.2179 23.2569C34.2179 21.7582 32.9984 20.5394 31.4997 20.5394Z" fill="black"/>
<path d="M12.3211 6.92375H7.2561V14.4757H12.3211V6.92375Z" fill="black"/>
<path d="M18.776 11.2694H13.7109V14.4757H18.776V11.2694Z" fill="black"/>
<path d="M13.6538 38.5361C15.0839 38.5361 16.2432 37.3768 16.2432 35.9467C16.2432 34.5167 15.0839 33.3574 13.6538 33.3574C12.2237 33.3574 11.0645 34.5167 11.0645 35.9467C11.0645 37.3768 12.2237 38.5361 13.6538 38.5361Z" fill="white"/>
<path d="M13.6537 40.4835C11.1518 40.4835 9.11694 38.448 9.11694 35.9467C9.11694 33.4441 11.1524 31.4093 13.6537 31.4093C16.1564 31.4093 18.1912 33.4447 18.1912 35.9467C18.1912 38.448 16.1557 40.4835 13.6537 40.4835ZM13.6537 35.3048C13.3003 35.3048 13.0125 35.5926 13.0125 35.9467C13.0125 36.3008 13.3003 36.588 13.6537 36.588C14.0072 36.588 14.2957 36.3002 14.2957 35.9467C14.2957 35.5932 14.0072 35.3048 13.6537 35.3048Z" fill="black"/>
<path d="M50.2326 31.335H46.3364V37.54H50.2326V31.335Z" fill="black"/>
<path d="M50.2326 38.5946H46.3364V41.2733H50.2326V38.5946Z" fill="black"/>
<path d="M45.1743 8.8607C45.1743 7.14322 46.5666 5.75032 48.2847 5.75032C50.0022 5.75032 51.3951 7.14257 51.3951 8.8607C51.3951 10.5788 48.2847 14.4757 48.2847 14.4757C48.2847 14.4757 45.1743 10.5788 45.1743 8.8607Z" fill="white"/>
<path d="M48.2847 16.7109L47.1947 15.3449C46.3938 14.3416 43.7808 10.9073 43.7808 8.8607C43.7808 6.37713 45.8011 4.35676 48.2847 4.35676C50.7683 4.35676 52.7893 6.37713 52.7893 8.8607C52.7893 10.9073 50.175 14.3416 49.3741 15.3456L48.2847 16.7109ZM48.2847 7.14519C47.3392 7.14519 46.5692 7.91523 46.5692 8.8607C46.5692 9.3469 47.2959 10.701 48.2847 12.1347C49.2735 10.7004 50.0009 9.3469 50.0009 8.8607C50.0009 7.91523 49.2308 7.14519 48.2847 7.14519Z" fill="black"/>
</svg>
