<svg width="47" height="29" viewBox="0 0 47 29" fill="none" xmlns="http://www.w3.org/2000/svg">
<g clip-path="url(#clip0_3031_146241)">
<path d="M47.0005 7.85639C47.0005 8.03811 47.0005 8.22075 47.0005 8.40247C46.5674 9.70193 45.7564 10.7667 44.7726 11.6826C43.581 12.7912 42.3231 13.8295 41.0772 14.8788C40.8474 15.0724 40.7324 15.2477 40.7361 15.5564C40.7563 17.3919 40.7536 19.2283 40.7591 21.0638C40.76 21.3195 40.7591 21.5761 40.7591 21.8646C29.2528 19.7935 17.7823 19.8027 6.27318 21.8683C6.27318 21.6309 6.27318 21.4656 6.27318 21.3003C6.27318 19.3735 6.26858 17.4466 6.2787 15.5198C6.28054 15.2495 6.19502 15.0815 5.97803 14.9153C5.24153 14.3491 4.47284 13.8085 3.81266 13.162C2.76078 12.1319 1.74384 11.0598 0.798613 9.93297C0.425305 9.48733 0.265316 8.85815 0.0455608 8.29745C-0.063857 8.01893 0.017057 7.79703 0.361861 7.66827C0.975152 7.43997 1.56546 7.14958 2.16771 6.88932C6.45064 5.03921 10.6949 3.09504 15.1222 1.59651C17.5285 0.781946 19.978 0.151849 22.536 0.0240028C25.2907 -0.112975 27.9535 0.371013 30.5704 1.17188C34.3439 2.32523 37.951 3.89682 41.5609 5.4611C43.3787 6.24827 45.1873 7.05735 47.0005 7.85639ZM27.9397 2.8704C27.8469 2.92245 27.8037 2.9398 27.7678 2.9672C26.5357 3.90686 25.1859 4.22556 23.6743 3.7571C23.5308 3.71235 23.3451 3.74888 23.1925 3.79363C22.4403 4.01553 21.6707 4.07398 20.9361 3.82011C20.2833 3.59455 19.6764 3.23933 19.0135 2.92428C18.3588 3.49319 17.6627 4.09772 16.9483 4.71868C17.0715 4.83557 17.1607 4.91593 17.2453 5.00086C18.5123 6.2711 18.985 7.7879 18.6236 9.53665C18.5077 10.0973 18.2724 10.6334 18.1335 11.1913C17.5818 13.4122 18.0048 15.3418 19.8989 16.8074C20.9149 17.5937 22.0873 18.0621 23.3157 18.4018C23.4665 18.4438 23.6596 18.432 23.8058 18.3754C24.6011 18.0704 25.4204 17.8046 26.1716 17.4119C27.7696 16.5755 28.8537 15.3198 29.0725 13.4706C29.2049 12.3474 28.953 11.2735 28.588 10.217C27.9563 8.38786 28.2588 6.72495 29.5332 5.25198C29.6895 5.07117 29.8945 4.93146 30.1069 4.74608C29.3484 4.09041 28.6496 3.48497 27.9397 2.8704Z" fill="white"/>
<path d="M6.60156 22.8643C17.936 20.8425 29.1389 20.8407 40.3933 22.8515C39.928 23.7675 39.2991 24.4615 38.5589 25.0578C36.6041 26.634 34.3036 27.475 31.8973 28.053C27.938 29.0046 23.9227 29.1936 19.8733 28.821C17.0137 28.558 14.2204 28.0138 11.5723 26.8769C9.98708 26.1965 8.52235 25.3308 7.40427 23.9866C7.13486 23.6634 6.91235 23.3017 6.60156 22.8643Z" fill="white"/>
<path d="M23.5118 11.8431C22.6493 12.4641 21.8236 13.0604 20.8812 13.7389C21.0494 13.2111 21.1772 12.8038 21.3087 12.3992C21.4586 11.9381 21.5919 11.4714 21.7721 11.0222C21.8861 10.7382 21.8052 10.5939 21.568 10.4304C20.8223 9.91629 20.0941 9.37933 19.25 8.77206C20.4187 8.77206 21.4494 8.77206 22.4958 8.77206C22.8213 7.78217 23.1366 6.81968 23.4529 5.85809C23.487 5.84987 23.5201 5.84257 23.5541 5.83435C23.8759 6.80689 24.1986 7.78035 24.5296 8.77937C25.5797 8.77937 26.6095 8.77937 27.768 8.77937C26.9405 9.37203 26.2224 9.90076 25.4887 10.4058C25.2284 10.5847 25.1374 10.7436 25.2588 11.0687C25.5641 11.8906 25.8206 12.7307 26.0238 13.6494C25.1953 13.0549 24.3678 12.4586 23.5118 11.8431Z" fill="white"/>
</g>
<defs>
<clipPath id="clip0_3031_146241">
<rect width="47" height="29" fill="white"/>
</clipPath>
</defs>
</svg>
