<svg width="35" height="38" viewBox="0 0 35 38" fill="none" xmlns="http://www.w3.org/2000/svg">
<path d="M18.3806 -2.60631e-06C19.008 0.119096 19.6504 0.208421 20.2703 0.364738C24.6845 1.48129 27.9709 5.26268 28.5386 9.77355C28.7925 11.8131 28.2622 13.674 27.4331 15.4829C26.3053 17.9467 24.8488 20.2245 23.2056 22.3757C21.794 24.2292 20.3076 26.0231 18.8213 27.817C17.9997 28.8071 16.9839 28.7922 16.1324 27.817C13.2942 24.579 10.6278 21.1996 8.53642 17.4257C7.91649 16.3017 7.38618 15.1256 6.9231 13.9271C5.98947 11.5079 6.22101 9.08873 7.25174 6.77375C9.00697 2.85093 12.0618 0.617823 16.3416 0.0595469C16.4237 0.0521032 16.5059 0.0148848 16.5881 -0.00744629C17.1856 -2.60631e-06 17.7831 -2.60631e-06 18.3806 -2.60631e-06ZM11.1356 11.0836C11.1207 14.5822 13.9814 17.4331 17.5068 17.4331C20.9649 17.4331 23.8106 14.6045 23.8405 11.1506C23.8629 7.63722 21.0471 4.76395 17.559 4.74907C13.9963 4.74162 11.1506 7.54045 11.1356 11.0836Z" fill="white"/>
<path d="M35.0003 28.6731C34.8509 29.4249 34.3505 29.8343 33.6857 30.1618C28.5993 32.6778 23.5129 35.2161 18.4414 37.7544C17.7841 38.0819 17.194 38.0819 16.5368 37.7544C11.4055 35.1863 6.26682 32.6331 1.13558 30.0725C0.23929 29.6259 -0.126694 29.0006 0.0450943 28.1893C0.164599 27.6384 0.515645 27.2811 1.0086 27.0429C3.30907 25.9041 5.60207 24.7577 7.89507 23.6188C8.56729 23.2839 9.24697 22.9489 9.93412 22.5991C10.4644 23.3062 10.9649 24.0134 11.5101 24.6833C12.6529 26.0976 13.8031 27.5119 14.9907 28.889C16.4098 30.5266 18.5758 30.5564 19.9725 28.9039C21.5859 26.9908 23.1245 25.0183 24.693 23.068C24.805 22.9266 24.9096 22.7703 25.0366 22.5991C25.1785 22.6661 25.3129 22.7182 25.4399 22.7852C28.1885 24.1548 30.9371 25.5393 33.7007 26.8866C34.3654 27.2141 34.8658 27.6235 35.0152 28.3754C35.0003 28.4796 35.0003 28.5763 35.0003 28.6731Z" fill="white"/>
</svg>
