<svg width="38" height="34" viewBox="0 0 38 34" fill="none" xmlns="http://www.w3.org/2000/svg">
<g clip-path="url(#clip0_3031_146196)">
<path d="M33.7625 34C33.4819 33.913 33.1878 33.8548 32.922 33.7354C31.5283 33.1109 30.833 32.0221 30.8121 30.5166C30.7973 29.4256 30.8092 28.3337 30.8092 27.2426C30.8092 27.1107 30.8092 26.9787 30.8092 26.8055C29.9061 26.8055 29.0425 26.7981 28.1796 26.818C28.0992 26.8202 27.9995 26.9876 27.9496 27.0967C27.3093 28.4745 25.8822 29.3305 24.4252 29.2007C22.87 29.0621 21.6319 28.0234 21.2425 26.5305C21.0505 25.7933 21.1167 25.0759 21.3914 24.3667C21.4331 24.2584 21.4301 24.0652 21.3609 23.993C20.7817 23.3899 20.1816 22.806 19.5652 22.1934C19.4513 22.2973 19.3515 22.3821 19.2592 22.4735C17.9623 23.7563 16.6684 25.0413 15.37 26.3233C14.6978 26.9868 14.1275 26.9809 13.453 26.313C11.5531 24.4309 9.65313 22.5487 7.75097 20.6688C7.62962 20.5486 7.4904 20.4469 7.35938 20.3363C7.37426 20.3002 7.38915 20.2633 7.40479 20.2272C7.53061 20.2272 7.65717 20.2272 7.78299 20.2272C9.70301 20.2272 11.6223 20.2184 13.5423 20.2331C14.0493 20.2368 14.4387 20.0695 14.7945 19.7149C17.7122 16.8117 20.641 13.9188 23.5638 11.02C23.6584 10.9264 23.7224 10.8018 23.8423 10.633C24.4513 11.2884 25.0491 11.8162 25.5047 12.4451C26.4733 13.7824 26.2522 15.5289 25.0178 16.7689C23.8356 17.9566 22.6384 19.1302 21.445 20.3068C21.3579 20.3924 21.247 20.455 21.1792 20.5037C21.8731 21.19 22.5178 21.8277 23.1886 22.4905C24.4304 21.9575 25.6759 22.0585 26.8403 22.8945C27.3533 23.2631 27.7084 23.7585 27.9719 24.3262C28.0181 24.4264 28.1417 24.5591 28.2325 24.5614C29.0723 24.5791 29.9121 24.5717 30.7883 24.5717C30.7965 24.4146 30.8084 24.2849 30.8084 24.1551C30.8099 23.0759 30.8054 21.9966 30.8099 20.9173C30.8196 18.8191 32.2698 17.3815 34.3827 17.3727C35.1629 17.3697 35.9431 17.3697 36.7233 17.3727C37.5348 17.3764 37.9972 17.8268 37.9972 18.6215C37.9987 23.3309 37.9949 28.0396 38.0016 32.749C38.0024 33.394 37.6755 33.7722 37.106 33.9986C35.9915 34 34.877 34 33.7625 34Z" fill="white"/>
<path d="M0 17.9525C0.120607 17.8227 0.197289 17.7335 0.279926 17.6517C6.0951 11.9176 11.9103 6.18344 17.7262 0.449323C18.3054 -0.122025 18.9375 -0.1552 19.4854 0.384447C21.3898 2.25994 23.286 4.14429 25.1852 6.02494C25.2105 6.05075 25.2299 6.08245 25.2701 6.13553C25.1919 6.21957 25.1152 6.30804 25.0318 6.3906C21.2163 10.1696 17.4008 13.9494 13.5779 17.7217C13.4536 17.8448 13.2481 17.9569 13.0799 17.9576C8.8214 17.9702 4.56369 17.968 0.305239 17.9672C0.22409 17.9672 0.141452 17.9598 0 17.9525Z" fill="white"/>
<path d="M10.8973 27.104C10.5176 27.4918 10.1185 27.9452 9.67035 28.3448C9.23781 28.7311 8.60276 28.7031 8.18585 28.2954C6.75197 26.8924 5.32703 25.4814 3.91027 24.0615C3.49411 23.6442 3.48517 23.0309 3.84476 22.5885C3.90655 22.5126 3.97951 22.4448 4.04875 22.3755C4.40461 22.0201 4.76122 21.6655 5.08135 21.3463C7.03041 23.2756 8.95862 25.1843 10.8973 27.104Z" fill="white"/>
</g>
<defs>
<clipPath id="clip0_3031_146196">
<rect width="38" height="34" fill="white"/>
</clipPath>
</defs>
</svg>
