<svg width="41" height="42" viewBox="0 0 41 42" fill="none" xmlns="http://www.w3.org/2000/svg">
<path d="M21.057 42H19.6158V31.8909H15.2595V41.9746H7.29946V40.5745C8.42364 40.4983 9.42923 40.1486 10.2497 39.3644C10.7181 38.9232 11.0821 38.383 11.315 37.7831C11.5479 37.1832 11.6438 36.5389 11.5958 35.8972C11.5478 35.2555 11.357 34.6327 11.0375 34.0741C10.7179 33.5156 10.2776 33.0355 9.74869 32.669C9.49578 32.4911 9.42197 32.3253 9.42802 32.0143C9.45949 30.4569 8.84234 29.2032 7.55842 28.3041C7.464 28.2498 7.38665 28.1701 7.33512 28.0741C7.28359 27.9781 7.25992 27.8696 7.26679 27.7608C7.27243 18.6076 7.27243 9.45528 7.26679 0.303734V0H33.3298V41.9746H25.3904V31.8824H21.0498L21.057 42ZM13.0474 7.19644V2.8885H10.2037V7.19644H13.0474ZM18.8377 7.19644V2.89939H15.9916V7.19644H18.8377ZM24.6462 7.19644V2.8885H21.7964V7.19765L24.6462 7.19644ZM27.5843 7.18192H30.4304V2.8885H27.5843V7.18192ZM13.0402 14.4425V10.1491H10.194V14.4461L13.0402 14.4425ZM15.9771 14.4328H18.8365V10.1491H15.9771V14.4328ZM24.6353 14.4425V10.1491H21.7904V14.4449L24.6353 14.4425ZM30.4438 14.4425V10.1491H27.6V14.4449L30.4438 14.4425ZM10.2037 17.3794V21.691H13.0402V17.3794H10.2037ZM15.9855 21.6825H18.8317V17.3879H15.9879L15.9855 21.6825ZM24.6571 17.3927H21.7964V21.6777H24.6571V17.3927ZM30.4329 21.6946V17.3988H27.5867V21.6946H30.4329ZM10.2037 24.6291V28.9407H13.0402V24.6291H10.2037ZM15.9819 28.9285H18.8426V24.6412H15.9819V28.9285ZM24.6438 24.6424H21.7976V28.9431H24.6438V24.6424ZM30.4268 28.9552V24.6424H27.5964V28.9552H30.4268Z" fill="white"/>
<path d="M7.63419 33.2874C9.74218 34.0921 10.5856 35.4583 10.0314 37.1294C9.47717 38.8006 7.98512 39.3984 5.82752 38.7788V41.9746H4.38508V38.7764C2.15729 39.3814 0.674924 38.7848 0.149743 37.0931C-0.374229 35.422 0.48736 34.0497 2.56993 33.291C2.18633 32.5081 2.07258 31.6973 2.37995 30.8587C2.58732 30.2707 2.98236 29.7673 3.50413 29.426C4.02436 29.084 4.64022 28.9172 5.26192 28.9498C5.88361 28.9825 6.47862 29.2129 6.96017 29.6075C8.01537 30.5041 8.26707 31.8328 7.63419 33.2874Z" fill="white"/>
<path d="M34.834 41.9746V30.4399H39.1238V41.9746H34.834Z" fill="white"/>
<path d="M34.8391 26.0835H40.5762V28.9345H34.8379L34.8391 26.0835Z" fill="white"/>
</svg>
