<svg width="12" height="13" viewBox="0 0 12 13" fill="none" xmlns="http://www.w3.org/2000/svg">
<g id="Group 42773">
<path id="Vector" d="M11.1901 13C10.1993 12.9992 9.20846 12.9985 8.21761 12.9977C7.9672 12.9974 7.9668 12.997 7.9668 12.7689C7.9668 9.79535 7.9668 6.82139 7.9668 3.8478C7.9668 3.62198 7.9672 3.62124 8.20279 3.62161C9.19844 3.62272 10.1945 3.62421 11.1901 3.62533C11.1901 6.74996 11.1901 9.87496 11.1901 13ZM10.0102 5.78716C10.0102 5.68969 10.0086 5.59222 10.0106 5.49475C10.0122 5.4196 9.97814 5.38277 9.8956 5.38314C9.68565 5.38426 9.4753 5.38389 9.26535 5.38351C9.18242 5.38314 9.15036 5.42332 9.15076 5.49698C9.15196 5.69192 9.15156 5.88724 9.15116 6.08218C9.15076 6.151 9.18362 6.18448 9.26014 6.18337C9.37033 6.18188 9.48011 6.18337 9.59029 6.18337C10.0106 6.18299 10.0106 6.18299 10.0102 5.78716ZM9.58188 8.06246C9.68685 8.06246 9.79223 8.06209 9.8972 8.06246C9.97774 8.06283 10.017 8.02712 10.0166 7.95197C10.0162 7.75666 10.0158 7.56134 10.017 7.3664C10.0174 7.28865 9.97613 7.26038 9.8956 7.26112C9.69046 7.26335 9.48492 7.2641 9.27978 7.26075C9.19043 7.25926 9.15317 7.29051 9.15477 7.37496C9.15838 7.56544 9.15797 7.75628 9.15517 7.94676C9.15397 8.03047 9.19363 8.06506 9.28138 8.06358C9.38155 8.06134 9.48171 8.06283 9.58188 8.06246ZM10.0102 9.56246C10.0102 9.46499 10.0074 9.36752 10.011 9.27005C10.0142 9.18597 9.97453 9.15398 9.88598 9.15547C9.68605 9.15844 9.48612 9.15844 9.28619 9.1551C9.19243 9.15361 9.14796 9.18374 9.14956 9.27526C9.15317 9.4609 9.15317 9.64654 9.14956 9.83218C9.14796 9.92221 9.18923 9.95644 9.28418 9.95495C9.47891 9.95197 9.67403 9.95123 9.86875 9.95532C9.96972 9.95755 10.0174 9.92519 10.011 9.8266C10.0062 9.73917 10.0106 9.65063 10.0102 9.56246Z" fill="#757C83"/>
<path id="Vector_2" d="M11.1901 2.8154C10.5246 2.81763 9.85911 2.82023 9.1936 2.82209C8.84342 2.82284 8.49284 2.81837 8.14266 2.82433C8.01244 2.82656 7.96597 2.78378 7.96757 2.66287C7.97318 2.30498 7.97118 1.94709 7.96877 1.58958C7.96797 1.49434 7.99642 1.44226 8.11221 1.44263C9.13791 1.44635 10.164 1.44709 11.1897 1.44858C11.1901 1.90394 11.1901 2.35967 11.1901 2.8154Z" fill="#757C83"/>
<path id="Vector_3" d="M0.000400751 6.48847C0.000400751 4.39658 0.000400751 2.30432 0.000400751 0.212426C0.000400751 0.000744022 0.000801343 0 0.23479 0C2.44286 0 4.65092 0 6.85899 0C7.1054 0 7.1058 0.000744022 7.1058 0.234375C7.1058 4.40923 7.1058 8.58408 7.1058 12.7589C7.1058 12.997 7.1054 12.997 6.84817 12.9974C6.53765 12.9978 6.22714 12.9933 5.91702 12.9993C5.7808 13.0019 5.73712 12.9569 5.73793 12.8289C5.74313 11.8944 5.73793 10.9598 5.74354 10.0257C5.74434 9.89286 5.70507 9.85082 5.55843 9.8512C4.18134 9.85566 2.80466 9.85566 1.42757 9.8512C1.28654 9.85082 1.25048 9.89361 1.25128 10.0194C1.25609 10.949 1.25408 11.8791 1.25368 12.8088C1.25368 12.9941 1.25128 12.9967 1.05415 12.9974C0.768876 12.9985 0.483202 12.9985 0.197929 12.9974C0.00160275 12.9967 0 12.9944 0 12.8069C0.000400665 10.7005 0.000400751 8.5945 0.000400751 6.48847ZM2.13474 2.46689C2.13474 2.21615 2.13234 1.96503 2.13595 1.71429C2.13755 1.62463 2.10149 1.58854 2.00453 1.59003C1.79939 1.59338 1.59425 1.59301 1.38911 1.59003C1.29655 1.58854 1.25248 1.61644 1.25328 1.70982C1.25609 2.21131 1.25609 2.71317 1.25328 3.21466C1.25288 3.30506 1.28734 3.33892 1.3847 3.33668C1.58984 3.33259 1.79498 3.33148 2.00012 3.33706C2.1079 3.34003 2.13835 3.29874 2.13635 3.20499C2.13154 2.95945 2.13474 2.71317 2.13474 2.46689ZM3.05748 2.46503C3.05748 2.71131 3.06028 2.95759 3.05587 3.2035C3.05427 3.29539 3.08031 3.34078 3.1901 3.3378C3.39484 3.33222 3.60038 3.33334 3.80552 3.33743C3.90088 3.33929 3.93974 3.30953 3.93894 3.21726C3.93573 2.71578 3.93573 2.21392 3.93894 1.71243C3.93934 1.62054 3.89927 1.58929 3.80512 1.59077C3.60519 1.59375 3.40485 1.59524 3.20492 1.59003C3.09594 1.58743 3.05307 1.6224 3.05587 1.72694C3.06148 1.97247 3.05748 2.21875 3.05748 2.46503ZM5.74033 2.46615C5.74033 2.2154 5.73753 1.96429 5.74153 1.71354C5.74314 1.62314 5.70547 1.58854 5.60931 1.59003C5.40417 1.59338 5.19903 1.59301 4.99389 1.59003C4.90094 1.58854 4.85807 1.61756 4.85847 1.71057C4.86127 2.21205 4.86127 2.71392 4.85847 3.2154C4.85807 3.30655 4.89413 3.33892 4.99069 3.33706C5.19062 3.33296 5.39135 3.32999 5.59088 3.33817C5.71509 3.34338 5.74474 3.29576 5.74193 3.19048C5.73632 2.94941 5.74073 2.70796 5.74033 2.46615ZM2.13474 7.68416C2.13474 7.44271 2.13034 7.2009 2.13675 6.95945C2.13955 6.8538 2.1091 6.80692 1.9853 6.81213C1.79057 6.82032 1.59505 6.81883 1.40032 6.8125C1.28974 6.80916 1.25168 6.84487 1.25248 6.94866C1.25689 7.44085 1.25689 7.93341 1.25248 8.4256C1.25168 8.532 1.29695 8.56288 1.40353 8.56027C1.59865 8.55544 1.79378 8.55507 1.9889 8.56027C2.09949 8.56325 2.13915 8.52567 2.13675 8.42225C2.13074 8.17672 2.13474 7.93044 2.13474 7.68416ZM3.93774 7.69197C3.93774 7.44569 3.93413 7.19941 3.93934 6.9535C3.94134 6.85492 3.9129 6.80878 3.7967 6.81288C3.59677 6.81957 3.39644 6.81808 3.19651 6.81325C3.09394 6.81064 3.05507 6.84338 3.05587 6.9416C3.05948 7.43862 3.05948 7.93564 3.05587 8.43267C3.05507 8.532 3.09794 8.56288 3.19851 8.56065C3.39844 8.55655 3.59877 8.55655 3.79871 8.56065C3.90128 8.56288 3.94134 8.52828 3.93934 8.43081C3.93413 8.18416 3.93734 7.93788 3.93774 7.69197ZM4.86047 7.67002C4.86047 7.9256 4.86287 8.18081 4.85927 8.43639C4.85807 8.52642 4.89453 8.56176 4.99109 8.5599C5.19623 8.55655 5.40137 8.55693 5.60651 8.5599C5.69906 8.56139 5.74273 8.53349 5.74233 8.44011C5.73953 7.93862 5.73953 7.43676 5.74233 6.93527C5.74273 6.84487 5.70748 6.81139 5.61051 6.81325C5.41058 6.81734 5.21025 6.82032 5.01032 6.81213C4.88691 6.8073 4.85566 6.85343 4.85887 6.95908C4.86488 7.19606 4.86047 7.43304 4.86047 7.67002ZM2.13474 5.07776C2.13474 4.83148 2.13274 4.58482 2.13595 4.33854C2.13715 4.25335 2.1099 4.20685 2.00934 4.20796C1.79899 4.21057 1.58864 4.20982 1.37829 4.20834C1.28974 4.20759 1.25328 4.24331 1.25368 4.32627C1.25568 4.82366 1.25609 5.32106 1.25328 5.81883C1.25288 5.90997 1.29335 5.94346 1.3875 5.94234C1.58784 5.93974 1.78817 5.93825 1.9885 5.94308C2.09868 5.94569 2.13875 5.90588 2.13675 5.8032C2.13074 5.56139 2.13474 5.31957 2.13474 5.07776ZM3.93774 5.07552C3.93774 4.83371 3.93413 4.59189 3.93934 4.35045C3.94134 4.25112 3.90809 4.20462 3.7947 4.20759C3.59437 4.21243 3.39404 4.21131 3.1941 4.20796C3.08873 4.2061 3.05587 4.24926 3.05627 4.34301C3.05948 4.8311 3.06028 5.3192 3.05587 5.8073C3.05507 5.91407 3.10275 5.94494 3.20853 5.94271C3.39884 5.93862 3.58916 5.93639 3.77907 5.94346C3.90649 5.94829 3.94335 5.89956 3.94014 5.78683C3.93293 5.54985 3.93774 5.3125 3.93774 5.07552ZM5.74073 5.07664C5.74073 4.83482 5.73753 4.59301 5.74233 4.35157C5.74434 4.25335 5.71389 4.20462 5.5989 4.20722C5.39856 4.21206 5.19823 4.21094 4.9983 4.20759C4.89413 4.20573 4.85887 4.24665 4.85927 4.34152C4.86247 4.82962 4.86327 5.31771 4.85887 5.80581C4.85807 5.91109 4.90294 5.94494 5.00992 5.94271C5.20504 5.93862 5.40057 5.93825 5.59569 5.94271C5.70708 5.94532 5.74474 5.90328 5.74233 5.80172C5.73712 5.56027 5.74073 5.31846 5.74073 5.07664Z" fill="#757C83"/>
<path id="Vector_4" d="M3.05708 11.8363C3.05708 12.1707 3.05348 12.5056 3.05949 12.84C3.06149 12.952 3.02463 13.0015 2.89882 12.9981C2.68887 12.9925 2.47852 12.9955 2.26817 12.9963C2.17682 12.9966 2.13354 12.9646 2.13354 12.872C2.13635 12.1748 2.13595 11.4777 2.13395 10.7809C2.13354 10.6942 2.166 10.651 2.26336 10.6518C2.48373 10.6536 2.70369 10.6544 2.92406 10.6514C3.03104 10.6499 3.05948 10.6994 3.05868 10.7902C3.05508 11.1391 3.05708 11.4877 3.05708 11.8363Z" fill="#757C83"/>
<path id="Vector_5" d="M4.86045 11.8412C4.86045 12.1756 4.85724 12.5105 4.86245 12.8449C4.86405 12.9498 4.8308 13 4.7118 12.9978C4.50186 12.9941 4.29151 12.9945 4.08116 12.9974C3.97058 12.9989 3.93613 12.9535 3.93653 12.8535C3.93973 12.1656 3.94013 11.4777 3.93653 10.7902C3.93613 10.686 3.9798 10.6496 4.08677 10.6514C4.29191 10.6548 4.49745 10.657 4.70219 10.6507C4.8304 10.647 4.86405 10.6994 4.86205 10.8096C4.85684 11.1533 4.86045 11.4974 4.86045 11.8412Z" fill="#757C83"/>
</g>
</svg>
