<svg
      width="24"
      height="24"
      viewBox="-0.25 0.20 18 18"
      fill="none"
      xmlns="http://www.w3.org/2000/svg"
    >
      <circle
        cx="8.67429"
        cy="8.67429"
        r="8.42429"
        fill="none"
        stroke="white"
        strokeWidth="0.5"
      />
      <path
        d="M8.49229 12.3236C7.06292 12.3236 5.63705 12.3201 4.20767 12.3271C4.05277 12.3271 3.97531 12.2954 4.007 12.13C4.01052 12.1018 4.007 12.0701 4.007 12.042C4.007 11.8025 4.007 11.7955 4.24288 11.8025C4.37666 11.8061 4.39075 11.7497 4.39075 11.6371C4.38723 10.9294 4.38723 10.2218 4.39075 9.51413C4.39427 8.19389 5.35893 7.19755 6.67917 7.17995C7.89731 7.16235 9.11193 7.16235 10.3301 7.17995C11.6503 7.19755 12.6079 8.19742 12.6114 9.51765C12.6114 10.2183 12.615 10.9224 12.6079 11.623C12.6079 11.7568 12.6361 11.8237 12.7804 11.7955C12.9565 11.7638 13.0093 11.8307 12.9987 12.0103C12.9811 12.3201 12.9952 12.3236 12.6854 12.3236C11.2877 12.3236 9.88999 12.3236 8.49229 12.3236ZM8.51342 8.28895C8.15079 8.28895 7.78817 8.28543 7.42554 8.28895C6.82351 8.29599 6.2919 8.69735 6.11586 9.27473C6.03489 9.53878 6.05601 9.80635 6.04897 10.0739C6.04545 10.1901 6.08418 10.2218 6.20036 10.2218C6.59115 10.2218 6.58411 10.2288 6.58059 10.6055C6.58059 10.7288 6.53482 10.7499 6.42568 10.7464C6.14051 10.7393 5.85182 10.7464 5.56664 10.7428C5.47863 10.7428 5.4399 10.764 5.44342 10.859C5.45046 11.1336 5.44694 11.4082 5.44342 11.6828C5.44342 11.7603 5.46103 11.792 5.54904 11.799C5.96448 11.8272 5.96799 11.8307 5.96799 11.4188C5.96799 11.3097 5.98912 11.2674 6.11234 11.2674C7.70367 11.2709 9.295 11.2709 10.8898 11.2674C11.006 11.2674 11.0377 11.2991 11.0377 11.4153C11.0377 11.8131 11.0412 11.8096 11.4355 11.799C11.5376 11.7955 11.5658 11.7673 11.5623 11.6688C11.5552 11.4047 11.5552 11.1407 11.5623 10.8801C11.5658 10.771 11.5341 10.7393 11.425 10.7428C11.1398 10.7499 10.8511 10.7464 10.566 10.7428C10.5131 10.7428 10.4357 10.771 10.4322 10.6759C10.4286 10.5316 10.3829 10.3661 10.4533 10.2464C10.5026 10.1619 10.661 10.2288 10.7701 10.2183C10.7878 10.2147 10.8054 10.2147 10.823 10.2183C10.9356 10.2359 10.9638 10.1795 10.9567 10.0774C10.9497 9.94365 10.9567 9.80987 10.9532 9.67256C10.9286 8.8769 10.3265 8.29247 9.53088 8.28543C9.1929 8.28543 8.8514 8.28895 8.51342 8.28895Z"
        fill="white"
      />
      <path
        d="M11.8405 7.0004C11.8545 6.9828 11.8651 6.96168 11.8827 6.94759C12.0094 6.82085 12.1186 6.65538 12.27 6.57441C12.4425 6.48287 12.4812 6.72931 12.6009 6.79269C12.6502 6.82085 12.7136 6.87014 12.6326 6.94055C12.5727 6.99336 12.5199 7.06025 12.4566 7.11306C12.365 7.19052 12.2876 7.36655 12.1925 7.33486C12.0693 7.29614 11.9778 7.14827 11.8721 7.04969C11.8616 7.03209 11.8545 7.01801 11.8405 7.0004Z"
        fill="white"
      />
      <path
        d="M5.16175 6.98982C5.14415 7.05671 5.09133 7.08488 5.04909 7.12713C4.80616 7.37357 4.80617 7.37357 4.56324 7.13065C4.30976 6.87716 4.31328 6.88068 4.56676 6.62016C4.65478 6.52862 4.71111 6.51102 4.79912 6.61663C4.88714 6.72577 4.99628 6.81731 5.09486 6.91589C5.11598 6.93701 5.14063 6.96518 5.16175 6.98982Z"
        fill="white"
      />
      <path
        d="M6.52784 5.38088C6.58769 5.37736 6.59825 5.40905 6.61234 5.44073C6.64402 5.51467 6.67571 5.5886 6.70739 5.66606C6.85878 6.0322 6.83766 6.07093 6.44687 6.17655C6.3835 6.19415 6.35181 6.18007 6.32717 6.12022C6.26731 5.96531 6.20042 5.8104 6.13353 5.65549C6.11945 5.62029 6.09128 5.57452 6.14057 5.54987C6.27083 5.49002 6.40814 5.43369 6.52784 5.38088Z"
        fill="white"
      />
      <path
        d="M10.8898 5.62383C10.8194 5.79282 10.7455 5.97237 10.6715 6.14841C10.6539 6.18713 10.6223 6.1977 10.5835 6.18009C10.4638 6.1308 10.3476 6.08504 10.2279 6.03575C10.1681 6.0111 10.1787 5.96533 10.1963 5.91957C10.2632 5.76466 10.3265 5.60975 10.3934 5.45132C10.4005 5.43372 10.404 5.40907 10.4145 5.40555C10.5624 5.35978 10.668 5.47949 10.7983 5.51469C10.8441 5.52877 10.9074 5.53934 10.8898 5.62383Z"
        fill="white"
      />
      <path
        d="M8.76332 5.3844C8.76332 5.73295 8.76332 5.7259 8.4183 5.73295C8.28099 5.73647 8.22466 5.69774 8.24227 5.56043C8.24931 5.5041 8.24227 5.44425 8.24227 5.3844C8.24227 5.01826 8.32324 4.95488 8.68587 5.0253C8.74924 5.03586 8.7598 5.06754 8.7598 5.12035C8.76332 5.20837 8.76332 5.29639 8.76332 5.3844Z"
        fill="white"
      />
      <path
        d="M8.50276 9.69017C7.91834 9.69017 7.33391 9.68665 6.74949 9.69369C6.5981 9.69721 6.57697 9.64792 6.60162 9.51061C6.67203 9.13743 7.01354 8.82057 7.39729 8.81705C8.1331 8.81001 8.86891 8.81001 9.60824 8.81705C10.0061 8.82057 10.3511 9.15151 10.411 9.5423C10.4286 9.66552 10.3933 9.69017 10.2772 9.69017C9.6857 9.69017 9.09423 9.69017 8.50276 9.69017Z"
        fill="white"
      />
      <path
        d="M8.50636 10.7464C8.09797 10.7464 7.68605 10.7428 7.27766 10.7499C7.15443 10.7534 7.10162 10.7252 7.10515 10.5879C7.10867 10.2218 7.10163 10.2218 7.47129 10.2218C8.22119 10.2218 8.97108 10.2253 9.71746 10.2183C9.8442 10.2183 9.90405 10.2359 9.90053 10.3873C9.89349 10.7464 9.90053 10.7464 9.54143 10.7464C9.1964 10.7464 8.85138 10.7464 8.50636 10.7464Z"
        fill="white"
      />
    </svg>
