<svg width="48" height="47" viewBox="0 0 48 47" fill="none" xmlns="http://www.w3.org/2000/svg">
<path d="M1.49487 16.6897C1.49487 8.29816 8.28926 1.49518 16.6712 1.49518C25.0527 1.49518 31.8476 8.29816 31.8476 16.6897C31.8476 25.0813 16.6712 44.1197 16.6712 44.1197C16.6712 44.1197 1.49487 25.0813 1.49487 16.6897Z" fill="white"/>
<path d="M16.6715 46.5195L15.5019 45.0521C15.4636 45.0041 11.6206 40.1703 7.83173 34.3698C2.63497 26.4139 0 20.4655 0 16.6902C0 7.48697 7.47838 0 16.6715 0C25.8647 0 33.3431 7.48697 33.3431 16.6902C33.3431 20.4655 30.7081 26.4144 25.5113 34.3698C21.7224 40.1703 17.8795 45.0041 17.8411 45.0521L16.6715 46.5195ZM16.6715 2.99085C9.12852 2.99085 2.99084 9.1366 2.99084 16.6902C2.99084 22.5992 11.9856 35.5676 16.6715 41.6877C21.3569 35.5676 30.3522 22.5992 30.3522 16.6902C30.3517 9.1366 24.2145 2.99085 16.6715 2.99085Z" fill="black"/>
<path d="M33.4371 44.2772C26.3661 44.2772 20.6343 35.0311 20.6343 35.0311C20.6343 35.0311 26.3661 25.7849 33.4371 25.7849C40.5082 25.7849 46.24 35.0311 46.24 35.0311C46.24 35.0311 40.5082 44.2772 33.4371 44.2772Z" fill="white"/>
<path d="M33.4368 45.7729C25.6232 45.7729 19.6148 36.2254 19.3629 35.819L18.8743 35.0306L19.3629 34.2421C19.6148 33.8357 25.6232 24.2882 33.4368 24.2882C41.2504 24.2882 47.2593 33.8357 47.5112 34.2421L47.9999 35.0306L47.5112 35.819C47.2588 36.2254 41.2504 45.7729 33.4368 45.7729ZM22.4391 35.0295C23.9408 37.1431 28.4177 42.7815 33.4363 42.7815C38.4539 42.7815 42.9298 37.1466 44.433 35.0311C42.9303 32.9165 38.4544 27.2806 33.4363 27.2806C30.295 27.2806 27.3541 29.5572 25.44 31.4673C24.0705 32.8332 23.0261 34.2017 22.4391 35.0295Z" fill="black"/>
<path d="M33.4368 38.9512C35.5991 38.9512 37.352 37.1961 37.352 35.0311C37.352 32.866 35.5991 31.1109 33.4368 31.1109C31.2746 31.1109 29.5217 32.866 29.5217 35.0311C29.5217 37.1961 31.2746 38.9512 33.4368 38.9512Z" fill="#FB3544"/>
<path d="M33.4372 40.4464C30.4539 40.4464 28.0264 38.0174 28.0264 35.0306C28.0264 32.0437 30.4539 29.6147 33.4372 29.6147C36.4209 29.6147 38.8484 32.0437 38.8484 35.0306C38.8484 38.0174 36.4209 40.4464 33.4372 40.4464ZM33.4372 32.6066C32.103 32.6066 31.0177 33.6939 31.0177 35.0311C31.0177 36.3682 32.103 37.4555 33.4372 37.4555C34.7718 37.4555 35.8571 36.3682 35.8571 35.0311C35.8571 33.6939 34.7713 32.6066 33.4372 32.6066Z" fill="black"/>
<path d="M21.0254 25.2079C20.305 25.2079 19.6271 24.9293 19.1143 24.422L19.9562 23.5699C20.243 23.8536 20.6225 24.0096 21.0254 24.0096C21.0289 24.0096 21.0319 24.0096 21.035 24.0096C21.4418 24.0066 21.8229 23.846 22.1081 23.5568C22.6982 22.9581 22.6922 21.9909 22.095 21.4009L22.937 20.5488C24.0036 21.6033 24.0147 23.3301 22.9612 24.3978C22.4504 24.9152 21.7694 25.2029 21.0425 25.2074C21.0365 25.2079 21.0304 25.2079 21.0254 25.2079Z" fill="#231F20"/>
<path d="M20.8834 26.3836C19.6345 26.3836 18.6194 25.367 18.6194 24.1181C18.6194 22.8693 19.635 21.8526 20.8834 21.8526V23.0505C20.2953 23.0505 19.8172 23.5295 19.8172 24.1181C19.8172 24.7067 20.2953 25.1857 20.8834 25.1857V26.3836Z" fill="#231F20"/>
<path d="M12.4413 25.2079C12.4352 25.2079 12.4297 25.2079 12.4236 25.2074C11.6972 25.2029 11.0163 24.9157 10.5059 24.3978C9.45246 23.3307 9.46306 21.6038 10.5292 20.5488L11.3722 21.4009C10.7745 21.992 10.7689 22.9591 11.359 23.5568C11.6442 23.846 12.0248 24.0071 12.4312 24.0096C12.8593 24.0262 13.2207 23.8556 13.5104 23.5699L14.3524 24.422C13.839 24.9288 13.1616 25.2079 12.4413 25.2079Z" fill="#231F20"/>
<path d="M21.3479 28.1796C19.6902 28.1796 18.1577 27.3765 17.138 25.9747C17.031 25.8632 16.8886 25.8021 16.7331 25.8021H16.7326C16.5772 25.8021 16.4343 25.8632 16.3273 25.9752C15.3076 27.3765 13.7751 28.1796 12.1179 28.1796C9.17399 28.1796 6.7793 25.6098 6.7793 22.4508V21.8516H9.24365V23.0495H8.01299C8.28154 25.266 10.02 26.9813 12.1179 26.9813C13.396 26.9813 14.5838 26.3488 15.3753 25.2463L15.4126 25.1999C15.7463 24.8208 16.2274 24.6032 16.7321 24.6032C16.7327 24.6032 16.7326 24.6032 16.7326 24.6032C17.2374 24.6032 17.7185 24.8208 18.0522 25.1999L18.089 25.2463C18.8805 26.3488 20.0683 26.9813 21.3469 26.9813C23.4448 26.9813 25.1832 25.266 25.4518 23.0495H24.2211V21.8516H26.686V22.4508C26.687 25.6098 24.2918 28.1796 21.3479 28.1796Z" fill="#231F20"/>
<path d="M12.5828 26.3836V25.1857C13.1703 25.1857 13.6484 24.7067 13.6484 24.1181C13.6484 23.5295 13.1703 23.0505 12.5828 23.0505V21.8526C13.8311 21.8526 14.8462 22.8693 14.8462 24.1181C14.8462 25.367 13.8311 26.3836 12.5828 26.3836Z" fill="#231F20"/>
<path d="M16.7329 18.519L13.2605 14.4424V10.5222L14.6986 10.1235C16.0303 9.75498 17.4366 9.75498 18.7682 10.1235L20.2063 10.5222V14.4424L16.7329 18.519ZM14.4584 14.0012L16.7329 16.671L19.008 14.0012V11.4329L18.4477 11.2774C17.3265 10.966 16.1403 10.966 15.0192 11.2774L14.4589 11.4329V14.0012H14.4584Z" fill="#231F20"/>
<path d="M16.7329 14.9638C16.3644 14.9638 16.0156 14.8028 15.7763 14.5222L14.9636 13.5676V12.2219H16.1615V13.1269L16.688 13.7453L17.2336 14.134L16.7778 13.7453L17.3043 13.1269V12.2219H18.5022V13.5676L17.69 14.5222C17.4502 14.8023 17.1014 14.9638 16.7329 14.9638Z" fill="#231F20"/>
<path d="M16.7205 22.7204C16.1102 22.7204 15.505 22.4912 15.0325 22.0369L14.6166 21.6366L14.9679 21.1747L15.9295 20.098L11.4006 15.029H9.76155C9.83222 15.3207 9.91904 15.561 9.99223 15.6337L11.0129 16.6559H6.04028V15.458H8.63234C8.52079 15.0517 8.47385 14.6625 8.45668 14.4873L8.39308 13.8306H11.9367L16.7321 19.1985L21.5276 13.8306H25.0717L25.0081 14.4873C24.9914 14.6625 24.944 15.0517 24.8324 15.458H27.4245V16.6559H22.4518L23.4725 15.6337C23.5462 15.56 23.6335 15.3202 23.7037 15.029H22.0637L17.5347 20.098L18.8795 21.6028L18.4671 22.0031C17.9699 22.4826 17.3424 22.7204 16.7205 22.7204ZM16.3278 21.4498C16.5968 21.5432 16.8826 21.5447 17.1425 21.4554L16.7326 20.997L16.3278 21.4498Z" fill="#231F20"/>
<path d="M10.162 21.1646C8.96571 21.1646 7.80369 20.7335 6.88953 19.934C4.82092 18.1258 4.6074 14.9704 6.41352 12.8993L7.31658 13.6872C5.94407 15.2602 6.10662 17.6579 7.67852 19.0319C8.51696 19.7654 9.6285 20.0884 10.733 19.9239L10.9122 21.1081C10.6618 21.146 10.4109 21.1646 10.162 21.1646Z" fill="#231F20"/>
<path d="M23.1793 21.1646C22.9304 21.1646 22.68 21.146 22.4302 21.1081L22.6094 19.9239C23.7103 20.0889 24.8249 19.7664 25.6643 19.0319C27.2362 17.6579 27.3988 15.2602 26.0263 13.6872L26.9293 12.8993C28.7349 14.9704 28.5214 18.1258 26.4533 19.934C25.5381 20.7335 24.3756 21.1646 23.1793 21.1646Z" fill="#231F20"/>
<path d="M21.7222 21.3978C21.4158 21.3978 21.1084 21.3453 20.8106 21.2403C20.3694 21.0834 19.9842 20.8219 19.6829 20.4796L19.1322 21.1712L18.1958 20.4246L20.7934 17.1622H24.0129L24.1755 17.5039C24.8201 18.8583 24.2441 20.4857 22.8903 21.1318C22.5188 21.309 22.1215 21.3978 21.7222 21.3978ZM20.4507 19.5155C20.6314 19.7906 20.8959 19.9986 21.2114 20.1111C21.5955 20.2479 22.0079 20.2262 22.3744 20.0506C23.021 19.7421 23.3512 19.0329 23.2088 18.36H21.3704L20.4507 19.5155Z" fill="#231F20"/>
<path d="M11.7439 21.3978C11.3446 21.3978 10.9473 21.309 10.5763 21.1323C9.22299 20.4857 8.64653 18.8583 9.29114 17.5039L9.45368 17.1622H12.6737L15.2713 20.4246L14.3349 21.1712L13.7837 20.4796C13.4819 20.8219 13.0972 21.0834 12.656 21.2403C12.3577 21.3453 12.0503 21.3978 11.7439 21.3978ZM10.2573 18.36C10.1159 19.0329 10.4456 19.7416 11.0922 20.0511C11.4577 20.2252 11.8701 20.2469 12.2547 20.1111C12.5702 19.9986 12.8347 19.7906 13.0159 19.515L12.0962 18.36H10.2573Z" fill="#231F20"/>
<path d="M20.8647 13.239L20.7072 12.1734L22.1938 11.9528V10.9554L22.3987 10.7933C22.741 10.5222 23.6122 9.67421 23.6995 8.94681C22.4729 8.5556 18.4922 7.22045 16.7325 5.85198C14.9738 7.22045 10.9921 8.5551 9.76546 8.94681C9.85278 9.67421 10.7241 10.5222 11.0663 10.7933L11.2707 10.9548L11.2712 11.9533L12.5993 12.1512L12.4408 13.2168L10.194 12.8821V11.4672C9.67005 11.0038 8.43434 9.74791 8.72409 8.42789L8.79224 8.11997L9.0941 8.02811C10.6882 7.54351 15.099 6.012 16.3514 4.7576L16.733 4.37548L17.1141 4.7571C18.368 6.0125 22.7783 7.54402 24.3719 8.0276L24.6738 8.11947L24.7419 8.42739C25.0317 9.74741 23.796 11.0038 23.272 11.4667V12.8821L20.8647 13.239Z" fill="#231F20"/>
</svg>
