<svg width="70" height="52" viewBox="0 0 70 52" fill="none" xmlns="http://www.w3.org/2000/svg">
<path d="M69.392 50.4504C69.0378 50.8757 68.6734 51.2823 68.032 51.0331C67.4068 50.7902 67.3551 50.2632 67.3565 49.6944C67.3627 47.1676 67.3612 44.6408 67.3584 42.1138C67.3566 40.5994 66.8178 39.8755 65.3761 39.4528C64.0785 39.0722 62.7823 38.6856 61.475 38.3413C61.2708 38.2876 60.945 38.3738 60.7881 38.518C60.1071 39.1434 59.4456 39.7941 58.8275 40.4808C58.6449 40.6837 58.5494 41.0346 58.5472 41.3186C58.5268 44.0483 58.5351 46.7782 58.5347 49.5081C58.5347 49.6886 58.5446 49.8703 58.527 50.0493C58.4634 50.6945 58.0587 51.1109 57.5077 51.1114C56.9317 51.1119 56.511 50.6671 56.5081 49.9796C56.4967 47.1144 56.4942 44.2491 56.5105 41.3839C56.5129 40.9457 56.408 40.6182 56.0745 40.3204C55.5872 39.8849 55.1419 39.4024 54.6788 38.9397C53.8718 38.1335 53.8718 38.1335 52.7132 38.6154C54.3378 40.2533 54.2325 42.3214 54.2106 44.3766C54.1924 46.091 54.207 47.8058 54.2068 49.5205C54.2068 49.6784 54.2135 49.8368 54.2036 49.9941C54.1603 50.6767 53.7497 51.1195 53.1739 51.1114C52.5977 51.1034 52.1827 50.6566 52.1795 49.9689C52.1678 47.5324 52.1762 45.0957 52.1731 42.6592C52.1706 40.7583 51.424 39.6975 49.6252 39.0388C47.5729 38.2872 45.519 37.54 43.3863 36.7618C42.7815 37.6693 42.173 38.5835 41.5633 39.497C41.2629 39.9472 40.9751 40.4067 40.6566 40.8438C39.8135 42.0007 38.4085 42.1395 37.3727 41.155C36.8698 40.6771 36.4112 40.1527 35.9327 39.6493C35.8674 39.6717 35.8021 39.6941 35.7369 39.7164C35.7369 39.9476 35.7369 40.1789 35.7369 40.4101C35.7369 43.4559 35.7379 46.5016 35.7364 49.5474C35.7359 50.5919 35.4148 51.09 34.7383 51.1107C34.0433 51.132 33.7042 50.6177 33.7039 49.5322C33.7028 46.509 33.7035 43.4858 33.7035 40.4626C33.7035 40.2206 33.7035 39.9785 33.7035 39.5424C33.1348 40.0998 32.6956 40.5289 32.2581 40.9595C30.9662 42.231 29.6012 42.092 28.5825 40.5775C27.7402 39.3252 26.9058 38.0674 26.0382 36.7675C24.2659 37.409 22.5128 38.0439 20.7594 38.678C17.6637 39.7976 17.2432 40.3935 17.2432 43.6624C17.2432 45.6251 17.2436 47.588 17.2426 49.5508C17.2425 49.7537 17.2464 49.9578 17.2276 50.1592C17.1727 50.7441 16.8177 51.0764 16.2585 51.0966C15.726 51.1158 15.3547 50.8066 15.2651 50.2673C15.2064 49.9149 15.213 49.5495 15.2121 49.1901C15.2077 47.2046 15.225 45.2192 15.2047 43.234C15.1914 41.9336 15.2951 40.6676 15.9927 39.5335C15.0368 38.7922 15.0368 38.7922 14.2146 39.5773C12.4004 41.3099 10.4751 41.6827 8.64527 40.5736C8.03654 40.2046 7.55054 39.6386 6.97358 39.2095C6.80782 39.0862 6.47482 39.0265 6.29644 39.1079C5.33325 39.5477 4.39641 40.0447 3.4468 40.5146C2.47452 40.9959 2.02898 41.7772 2.03468 42.8556C2.04662 45.089 2.03834 47.3226 2.03794 49.5562C2.03794 49.7366 2.04717 49.9184 2.02979 50.0973C1.97209 50.6906 1.56632 51.1007 1.03946 51.1115C0.490329 51.1228 0.0548268 50.6934 0.013693 50.0651C-0.0112859 49.6831 0.00554771 49.2984 0.00554771 48.9149C0.00514044 46.8844 0.00989187 44.8539 0.00419016 42.8234C-0.00124004 40.9222 0.849944 39.5493 2.53833 38.6898C3.3568 38.2732 4.18164 37.869 5.08808 37.4171C3.64365 36.7302 2.42185 35.9413 1.51379 34.7402C1.19965 34.3246 0.989772 33.9013 1.2082 33.3681C1.87937 31.7294 1.92879 29.9898 2.04676 28.2583C2.15699 26.6413 2.13744 24.9905 2.47385 23.4185C3.67351 17.8134 9.64157 14.8846 14.5818 17.4461C17.5174 18.9681 19.0398 21.5195 19.3726 24.7592C19.5845 26.8208 19.6215 28.9 19.8087 30.9647C19.8768 31.7162 20.1065 32.4645 20.3483 33.1856C20.5503 33.7883 20.4665 34.2683 20.0836 34.7577C19.1712 35.9238 17.9912 36.7295 16.6612 37.3495C17.239 37.928 17.3378 37.8815 18.0204 37.6062C19.7958 36.8901 21.5977 36.2394 23.3891 35.563C24.1607 35.2715 25.0752 35.1823 25.3309 34.1661C25.3551 34.0702 25.4641 33.9783 25.5561 33.9193C27.4091 32.7314 27.2747 30.8862 27.1538 29.0565C27.1411 28.8626 26.9935 28.6389 26.8434 28.4984C24.1769 26.0005 22.8607 22.9006 22.8438 19.2802C22.837 17.8411 22.5166 16.5054 22.1938 15.1206C21.4577 11.9633 21.2775 8.75136 22.737 5.71954C24.1959 2.68922 26.6715 0.921146 29.9946 0.34826C30.1209 0.326539 30.2398 0.26287 30.3623 0.21875C35.8735 0.21875 41.3846 0.21875 46.8959 0.21875C47.5156 0.494197 47.7021 0.991738 47.6997 1.6397C47.6866 5.06792 47.7044 8.49628 47.6843 11.9244C47.6801 12.6424 47.6769 13.3943 47.4743 14.0711C46.8317 16.2176 46.5621 18.3896 46.508 20.6314C46.4463 23.1888 45.523 25.5729 43.7063 27.3448C42.417 28.6021 42.1218 29.9047 42.2421 31.5285C42.2798 32.0381 42.4141 32.4056 42.7642 32.7693C43.3231 33.3496 43.8184 33.9909 44.3503 34.5979C44.5257 34.7981 44.6988 35.057 44.9282 35.1444C46.5705 35.7696 48.2251 36.3627 49.8813 36.9507C50.1036 37.0297 50.3753 37.0966 50.5919 37.0419C51.3334 36.8544 52.0732 36.643 52.7849 36.3671C52.9875 36.2885 53.1862 35.9746 53.225 35.7418C53.3476 35.005 53.1501 34.441 52.5183 33.88C50.7573 32.3167 49.9369 30.2723 49.9934 27.9159C50.0155 26.9932 49.8709 26.1569 49.4416 25.3222C49.1514 24.7582 48.9767 24.0864 48.9361 23.4509C48.6869 19.56 51.5225 16.5791 55.5615 16.5121C58.6309 16.4612 61.7019 16.4962 64.772 16.5046C65.766 16.5073 66.1295 16.8748 66.1337 17.8494C66.1408 19.4733 66.1825 21.0991 66.1148 22.7203C66.0816 23.5178 65.9928 24.383 65.6508 25.0817C65.131 26.1436 65.0451 27.2086 65.0386 28.3437C65.0253 30.678 64.1729 32.677 62.3119 34.1252C61.6104 34.6712 61.8019 35.3111 61.8158 35.945C61.8287 36.5346 62.4319 36.4252 62.7917 36.5967C62.8714 36.6348 62.967 36.6379 63.0536 36.663C63.7678 36.8699 64.4709 37.1319 65.1976 37.2758C67.3263 37.6976 68.8061 38.8207 69.3925 40.9728C69.392 44.132 69.392 47.2913 69.392 50.4504ZM45.6601 2.25426C41.0093 2.25426 36.4711 2.25385 31.933 2.25521C31.5944 2.25535 31.2534 2.24503 30.9175 2.27978C27.9677 2.58442 25.7243 4.00781 24.5187 6.72345C23.2947 9.48036 23.4848 12.3889 24.3365 15.1947C24.7069 16.4149 24.8668 17.5901 24.8548 18.8304C24.8381 20.5644 25.1194 22.2377 25.8695 23.8218C27.5034 27.2734 31.1672 29.9483 35.8439 29.4835C39.6871 29.1014 43.2733 26.1394 44.1783 22.2183C44.5379 20.6603 44.4439 18.9994 44.5792 17.3871C44.6182 16.9233 44.659 16.434 44.8329 16.0115C45.4005 14.6329 45.6589 13.2066 45.6597 11.7253C45.6612 8.90517 45.6601 6.085 45.6601 3.26482C45.6601 2.95449 45.6601 2.64415 45.6601 2.25426ZM64.0894 18.572C63.9147 18.555 63.8061 18.5354 63.6975 18.5352C60.9661 18.5336 58.2345 18.528 55.5033 18.5405C55.1006 18.5424 54.6883 18.5912 54.2974 18.6867C51.4973 19.3711 50.102 22.5267 51.448 24.8436C51.9074 25.6344 52.0281 26.4645 52.0354 27.3662C52.0425 28.2352 52.1158 29.1309 52.3424 29.9655C52.9271 32.1187 54.8618 33.6201 57.2004 33.865C59.1346 34.0675 61.2835 32.8692 62.3076 31.0411C62.8784 30.0223 63.051 28.9224 63.0126 27.7822C62.9765 26.7115 63.0529 25.6968 63.6042 24.7172C63.9011 24.1897 64.04 23.5199 64.0685 22.9057C64.1343 21.4893 64.0894 20.0678 64.0894 18.572ZM4.14906 27.2035C4.53393 27.4566 4.93508 27.5852 5.08713 27.8543C5.28587 28.206 5.31208 28.6655 5.37004 29.0846C5.70685 31.5211 7.65439 33.5454 9.9196 33.7969C12.7081 34.1065 15.0332 32.7508 15.9694 30.2911C16.2367 29.5888 16.2162 28.9795 15.744 28.3407C14.1241 26.1482 11.8492 25.309 9.24979 25.1203C9.08932 25.1086 8.88691 25.2662 8.75143 25.3949C8.31036 25.8141 7.93826 26.325 7.44533 26.6634C7.16771 26.854 6.64166 26.9127 6.34409 26.7765C6.08208 26.6566 5.85672 26.191 5.83663 25.8645C5.7955 25.1971 8.0231 23.025 8.69292 23.0495C12.0503 23.1718 15.0321 24.1438 17.1995 26.9014C17.2574 26.9751 17.343 27.0271 17.4522 27.1205C17.5427 24.3261 16.9798 22.4543 15.5583 20.7349C13.1946 17.8757 8.47693 17.887 6.06416 20.6987C4.41351 22.6225 4.12055 24.8879 4.14906 27.2035ZM40.2273 30.2311C36.4979 32.0096 32.8713 31.996 29.2025 30.2199C29.2025 30.7811 29.1573 31.2147 29.2195 31.6325C29.2567 31.8828 29.4026 32.1919 29.6007 32.3317C31.1666 33.4366 32.7509 34.5162 34.3489 35.5745C34.5161 35.6853 34.8737 35.7073 35.0318 35.6028C36.6686 34.5216 38.2867 33.4118 39.8962 32.2902C40.0537 32.1804 40.1941 31.9459 40.2124 31.7568C40.2579 31.2919 40.2273 30.8193 40.2273 30.2311ZM38.9337 39.7632C39.7819 38.4966 40.6066 37.2666 41.43 36.0354C42.133 34.9841 42.1328 34.9832 41.2292 34.0978C41.1855 34.055 41.1173 34.0374 41.0266 33.9905C39.4626 35.0588 37.8961 36.1287 36.3726 37.1694C37.2421 38.0499 38.0604 38.8788 38.9337 39.7632ZM33.0472 37.1665C31.5059 36.1145 29.9357 35.043 28.2767 33.9107C28.0976 34.1337 27.9747 34.3671 27.7839 34.5086C27.3005 34.8667 27.3934 35.186 27.7038 35.6228C28.4715 36.703 29.1877 37.8199 29.9254 38.9214C30.1172 39.2079 30.3122 39.4921 30.479 39.7381C31.3674 38.8485 32.1899 38.0249 33.0472 37.1665ZM12.9828 35.7775C11.5176 35.7775 10.07 35.7775 8.60359 35.7775C8.46064 36.846 8.12641 38.0743 9.58225 38.8096C10.4226 39.2341 11.1825 39.2281 12.0258 38.8075C13.4992 38.0725 13.1217 36.8448 12.9828 35.7775ZM57.4985 38.9445C58.1472 38.2819 58.6939 37.6552 59.3138 37.1121C59.8134 36.6745 59.865 36.2065 59.731 35.7651C58.2254 35.7651 56.7883 35.7651 55.2496 35.7651C55.2817 36.0164 55.1989 36.4991 55.4026 36.7489C56.0221 37.5086 56.7521 38.1786 57.4985 38.9445ZM6.31544 35.849C6.40205 35.7876 6.4888 35.7264 6.57541 35.6651C6.50428 35.2615 6.57745 34.6875 6.33689 34.4841C5.32334 33.6277 4.5004 32.6434 3.87606 31.3786C3.70189 32.0606 3.59111 32.6523 3.39399 33.2135C3.24724 33.631 3.34675 33.9182 3.67976 34.1389C4.55253 34.7176 5.43616 35.2801 6.31544 35.849ZM17.7828 31.6159C17.1111 32.4183 16.4836 33.3295 15.6896 34.06C15.152 34.5546 14.9393 35.0007 15.1432 35.7358C16.2945 35.3523 17.3146 34.7854 18.1454 33.903C18.227 33.8162 18.307 33.6556 18.2831 33.5538C18.1212 32.8631 17.9312 32.1789 17.7828 31.6159Z" fill="white"/>
<path d="M65.0506 46.8434C65.0506 47.856 65.0602 48.8688 65.0475 49.8814C65.0377 50.6533 64.6141 51.1325 63.9974 51.1098C63.4031 51.088 63.0235 50.6306 63.0208 49.8856C63.0132 47.8604 63.0133 45.8351 63.0208 43.8097C63.0235 43.053 63.3888 42.6139 63.9933 42.5938C64.6283 42.5726 65.0374 43.0267 65.0475 43.8057C65.0605 44.8181 65.0506 45.8308 65.0506 46.8434Z" fill="white"/>
<path d="M6.3785 47.5641C6.37863 48.3524 6.38868 49.1409 6.37578 49.929C6.36384 50.6565 5.94965 51.1205 5.35246 51.1099C4.78351 51.0998 4.36009 50.6489 4.35317 49.9651C4.33633 48.3211 4.33416 46.6767 4.35412 45.0328C4.3624 44.3498 4.7941 43.9276 5.38396 43.9359C5.97422 43.9442 6.36207 44.368 6.37483 45.0642C6.39004 45.8973 6.37836 46.7308 6.3785 47.5641Z" fill="white"/>
<path d="M45.6621 47.8691C45.6624 47.1923 45.6472 46.5149 45.6667 45.8385C45.6855 45.1897 46.0808 44.7738 46.6434 44.7618C47.2095 44.7499 47.6604 45.1435 47.6759 45.792C47.71 47.2126 47.7081 48.6351 47.6777 50.0557C47.6641 50.6878 47.1974 51.1156 46.6564 51.1099C46.0828 51.1039 45.6809 50.6566 45.6654 49.9675C45.6498 49.2684 45.662 48.5686 45.6621 47.8691Z" fill="white"/>
<path d="M23.7588 47.9656C23.7584 48.6423 23.7747 49.3196 23.754 49.9957C23.7337 50.6541 23.354 51.0778 22.8064 51.1084C22.2501 51.1395 21.7615 50.6955 21.7459 50.0277C21.7133 48.63 21.7125 47.2303 21.7464 45.8326C21.7631 45.1455 22.2244 44.7345 22.8077 44.763C23.369 44.7903 23.7344 45.1944 23.7545 45.8679C23.7754 46.5665 23.7591 47.2663 23.7588 47.9656Z" fill="white"/>
<path d="M28.117 11.8817C28.117 12.651 28.1299 13.3474 28.1136 14.0432C28.0946 14.8554 27.7212 15.2795 27.0752 15.2632C26.4622 15.2477 26.1122 14.8363 26.0902 14.0534C26.0713 13.3779 26.0658 12.7006 26.0925 12.0256C26.1426 10.7597 26.8778 9.99851 28.1246 9.82542C31.2018 9.3982 34.2791 9.28104 37.3524 9.82814C39.3536 10.1844 41.228 10.8494 42.7724 12.2409C43.3785 12.7868 43.4879 13.3408 43.0888 13.8265C42.6989 14.3011 42.062 14.3146 41.4795 13.7946C40.3686 12.8031 39.0498 12.2614 37.6216 11.9569C34.4913 11.2897 31.3531 11.4192 28.117 11.8817Z" fill="white"/>
<path d="M55.3641 21.9592C57.2781 22.1032 59.1784 22.2851 60.9737 23.0348C61.5033 23.2559 61.8488 23.6078 61.7471 24.2199C61.6398 24.8673 61.0279 25.2213 60.3472 24.9511C58.5345 24.2316 56.6345 24.0882 54.721 23.9943C54.5414 23.9855 54.3617 23.968 54.1831 23.9457C53.6109 23.8746 53.2847 23.555 53.2599 22.9746C53.2361 22.4176 53.6027 22.0233 54.2183 21.9656C54.5972 21.9303 54.9821 21.9592 55.3641 21.9592Z" fill="white"/>
</svg>
