<svg width="42" height="42" viewBox="0 0 42 42" fill="none" xmlns="http://www.w3.org/2000/svg">
<path d="M20.9865 41.9999C9.38844 41.967 0.00923239 32.5854 2.54805e-05 21.0419C-0.00859722 15.502 2.17156 10.1829 6.06602 6.24232C9.96048 2.30171 15.254 0.0585174 20.7945 0.000961578C32.6319 -0.110818 42.094 9.53775 41.9993 21.1734C41.9046 32.6814 32.4991 42.0328 20.9865 41.9999ZM8.02055 31.561C11.3863 27.4357 15.6807 25.1961 20.9944 25.1988C26.3081 25.2014 30.6393 27.4133 33.9945 31.5321C39.0018 25.7327 39.4477 15.7895 32.9108 9.14455C26.4659 2.59162 15.8898 2.50614 9.2043 9.05381C2.67397 15.4529 2.81602 25.4618 8.02055 31.561Z" fill="white"/>
<path d="M12.4551 14.7543C12.4752 10.1011 16.3237 6.33863 21.0318 6.37279C25.7747 6.40695 29.5872 10.1826 29.5444 14.816C29.5348 17.0383 28.6287 19.1661 27.0249 20.7327C25.421 22.2993 23.2503 23.1767 20.989 23.1725C19.8661 23.171 18.7545 22.952 17.7177 22.528C16.6809 22.104 15.7394 21.4833 14.9468 20.7015C14.1543 19.9197 13.5263 18.9921 13.0987 17.9716C12.6712 16.9511 12.4525 15.8579 12.4551 14.7543Z" fill="white"/>
</svg>
