<svg width="64" height="49" viewBox="0 0 64 49" fill="none" xmlns="http://www.w3.org/2000/svg">
<rect x="1" y="6" width="50" height="41" fill="white"/>
<path d="M51.9685 16.3632H0.10083V4.66989H51.9685V16.3632ZM3.12842 13.335H48.9404V7.69749H3.12842V13.335Z" fill="black"/>
<path d="M52.0686 48.4573H0V13.2343H52.0686V48.4573ZM3.22907 45.2288H48.8401V16.4639H3.22907V45.2288Z" fill="black"/>
<path d="M29.4836 31.4478H11.745C11.0001 31.4478 10.3962 30.8444 10.3962 30.099V28.9386C9.48031 28.0831 7.77864 26.1664 8.23605 24.089C8.3406 23.6125 8.69509 23.2303 9.16176 23.0881C11.4815 22.3841 17.8895 20.1689 19.6603 18.3981C20.1869 17.8715 21.0407 17.8715 21.5673 18.3981C23.3381 20.1689 29.7467 22.3841 32.0658 23.0881C32.5325 23.2303 32.887 23.6131 32.9915 24.0895C33.4478 26.1664 31.7473 28.0831 30.8314 28.9386V30.099C30.8319 30.8444 30.2286 31.4478 29.4836 31.4478ZM13.0933 28.7507H28.1348V28.3254C28.1348 27.9116 28.3249 27.5206 28.65 27.2652C29.2392 26.7975 29.9525 26.0046 30.2416 25.3409C28.0521 24.6281 23.2101 22.9313 20.6138 21.0924C18.018 22.9313 13.1777 24.627 10.9876 25.3403C11.2794 26.0095 11.9998 26.8116 12.5776 27.2652C12.9032 27.5212 13.0927 27.9121 13.0927 28.3254V28.7507H13.0933Z" fill="black"/>
<path d="M20.6839 33.9918C18.3452 33.9918 10.7141 33.7364 10.7141 30.4535C10.7141 29.7085 11.3174 29.1046 12.0629 29.1046C12.6908 29.1046 13.2184 29.5337 13.3682 30.1142C13.9884 30.5634 16.5406 31.2942 20.6839 31.2942C24.8262 31.2942 27.379 30.5634 27.9992 30.1142C28.1489 29.5337 28.6766 29.1046 29.3044 29.1046C30.0493 29.1046 30.6532 29.708 30.6532 30.4535C30.6527 33.7364 23.0227 33.9918 20.6839 33.9918Z" fill="black"/>
<path d="M23.2063 24.9913V27.9143L20.6137 30.9533L18.0212 27.9143V24.9913L18.9224 24.7419C20.0289 24.4353 21.198 24.4353 22.3045 24.7419L23.2063 24.9913Z" fill="black"/>
<path d="M20.6146 31.7854L17.4824 28.1131V24.5801L18.7795 24.2213C19.9802 23.8897 21.2489 23.8897 22.4496 24.2213L23.7467 24.5801V28.1131L20.6146 31.7854ZM18.5617 27.7155L20.6146 30.1213L22.6674 27.7155V25.4024L22.1616 25.2624C21.1504 24.9815 20.0793 24.9815 19.0675 25.2624L18.5617 25.4024V27.7155Z" fill="black"/>
<path d="M20.6143 28.583C20.2822 28.583 19.9674 28.4376 19.7513 28.1849L19.0183 27.3257V26.1125H20.0976V26.9276L20.5724 27.4836H20.6546L21.1295 26.9276V26.1125H22.2087V27.3257L21.4752 28.1849C21.2612 28.4376 20.947 28.5825 20.6143 28.583Z" fill="#231F20"/>
<path d="M15.5301 41.4192C13.3417 41.4192 11.561 39.6381 11.561 37.4502V35.9364H19.4992V37.4502C19.4992 39.6386 17.7181 41.4192 15.5301 41.4192Z" fill="black"/>
<path d="M25.6617 41.4192C23.4732 41.4192 21.6926 39.6381 21.6926 37.4502V35.9364H29.6308V37.4502C29.6308 39.6386 27.8502 41.4192 25.6617 41.4192Z" fill="black"/>
<path d="M40.8023 25.8701H35.2219V27.4656H40.8023V25.8701Z" fill="black"/>
<path d="M40.8023 30.3413H35.2219V31.9368H40.8023V30.3413Z" fill="black"/>
<path d="M40.8023 37.4703H35.2219V39.0658H40.8023V37.4703Z" fill="black"/>
<path d="M48.2717 21.5624C40.6352 21.5624 34.4438 11.5882 34.4438 11.5882C34.4438 11.5882 40.6346 1.61399 48.2717 1.61399C55.9087 1.61399 62.0989 11.5882 62.0989 11.5882C62.0989 11.5882 55.9082 21.5624 48.2717 21.5624Z" fill="white"/>
<path d="M48.2717 23.1769C39.8336 23.1769 33.3445 12.8787 33.0722 12.4398L32.5435 11.5887L33.0722 10.7376C33.3445 10.2987 39.8336 0 48.2717 0C56.7098 0 63.1989 10.2987 63.4712 10.7376L63.9999 11.5887L63.4712 12.4398C63.1989 12.8782 56.7098 23.1769 48.2717 23.1769ZM36.3944 11.5882C38.0176 13.8697 42.8514 19.9478 48.2717 19.9478C53.6903 19.9478 58.5241 13.8719 60.149 11.5882C58.5258 9.30658 53.692 3.22798 48.2717 3.22798C42.8525 3.22852 38.0187 9.30549 36.3944 11.5882Z" fill="black"/>
<path d="M48.2721 15.817C50.6076 15.817 52.5009 13.9237 52.5009 11.5882C52.5009 9.25265 50.6076 7.35934 48.2721 7.35934C45.9365 7.35934 44.0432 9.25265 44.0432 11.5882C44.0432 13.9237 45.9365 15.817 48.2721 15.817Z" fill="#FB3544"/>
<path d="M48.2718 17.431C45.0498 17.431 42.429 14.8102 42.429 11.5887C42.429 8.36672 45.0498 5.7459 48.2718 5.7459C51.4938 5.7459 54.1146 8.36672 54.1146 11.5887C54.1146 14.8096 51.4938 17.431 48.2718 17.431ZM48.2718 8.97442C46.8304 8.97442 45.6575 10.1468 45.6575 11.5887C45.6575 13.0295 46.8299 14.2025 48.2718 14.2025C49.7137 14.2025 50.8861 13.0301 50.8861 11.5887C50.8861 10.1468 49.7132 8.97442 48.2718 8.97442Z" fill="black"/>
<path d="M44.0679 34.3234C43.8501 34.3234 43.6322 34.2407 43.4662 34.074C43.134 33.7419 43.134 33.2022 43.4662 32.8701L44.7861 31.5501L43.4662 30.2302C43.134 29.898 43.134 29.3584 43.4662 29.0262C43.7989 28.6935 44.3374 28.6935 44.6701 29.0262L46.5918 30.9479C46.9239 31.28 46.9239 31.8197 46.5918 32.1518L44.6701 34.0735C44.5035 34.2407 44.2857 34.3234 44.0679 34.3234Z" fill="black"/>
<path d="M7.58654 34.3234C7.36873 34.3234 7.15091 34.2407 6.98483 34.074L5.06263 32.1524C4.90308 31.9928 4.81323 31.7767 4.81323 31.5507C4.81323 31.3247 4.90308 31.1085 5.06263 30.949L6.98483 29.0273C7.31754 28.6946 7.85716 28.6946 8.18878 29.0273C8.52095 29.3595 8.52095 29.8991 8.18878 30.2313L6.8683 31.5512L8.18878 32.8712C8.52095 33.2033 8.52095 33.743 8.18878 34.0751C8.0227 34.2407 7.80435 34.3234 7.58654 34.3234Z" fill="black"/>
</svg>
