<svg width="36" height="36" viewBox="0 0 36 36" fill="none" xmlns="http://www.w3.org/2000/svg">
<path d="M15.6981 35.9646C14.9727 35.9042 14.217 35.874 13.4916 35.8136C10.5294 35.6022 7.59738 35.27 4.75607 34.3941C3.33542 33.9713 1.94499 33.4277 0.796376 32.4009C-0.201105 31.4948 -0.261558 30.4076 0.615016 29.4109C1.31023 28.5955 2.21703 28.0821 3.18429 27.6592C5.11879 26.7834 7.14398 26.3002 9.22963 25.968C9.68303 25.9076 10.1062 25.8472 10.5596 25.7868C11.0432 25.7264 11.3757 25.9076 11.4059 26.27C11.4664 26.6324 11.2246 26.9042 10.741 26.9646C8.59486 27.2364 6.479 27.6592 4.45381 28.4445C3.57723 28.7767 2.70066 29.1693 1.94499 29.7733C0.94751 30.5888 0.977736 31.223 2.03567 31.9478C3.24474 32.7331 4.60494 33.1559 5.96514 33.4881C8.98781 34.2431 12.1012 34.5753 15.2145 34.6962C17.9349 34.817 20.6251 34.7566 23.3455 34.5451C26.3077 34.3035 29.2699 33.8807 32.081 32.8539C32.8971 32.5519 33.683 32.2196 34.3178 31.6458C34.9223 31.1022 34.9525 30.619 34.3782 30.0451C33.5923 29.2599 32.5949 28.8069 31.5672 28.4143C29.542 27.629 27.3959 27.2062 25.2498 26.9344C24.7359 26.874 24.4941 26.5116 24.6452 26.119C24.7661 25.817 24.9777 25.6962 25.28 25.7566C28.1515 26.119 30.9928 26.6626 33.5923 28.0519C34.4085 28.4747 35.1641 28.9881 35.6478 29.8035C35.7989 30.0149 35.8593 30.2868 35.9803 30.5284C35.9803 30.7398 35.9803 30.9512 35.9803 31.1626C35.7687 31.676 35.4966 32.129 35.0735 32.4915C33.9551 33.4579 32.5949 33.9713 31.2044 34.3941C28.3631 35.27 25.4311 35.6022 22.4991 35.8136C21.7737 35.874 21.018 35.9042 20.2926 35.9646C18.7813 35.9646 17.2397 35.9646 15.6981 35.9646Z" fill="white"/>
<path d="M17.9046 32.7936C17.4512 32.1594 17.028 31.5553 16.6048 30.9211C13.9146 27.0553 11.2547 23.1896 8.56451 19.3238C7.17408 17.3003 6.5091 15.0654 6.41842 12.6493C6.32774 10.0218 6.90204 7.54527 8.26224 5.28017C9.35041 3.49829 10.8315 2.19963 12.6753 1.26339C14.6703 0.236542 16.8164 -0.156075 19.0532 0.0553342C21.4411 0.266744 23.5872 1.17278 25.431 2.77346C27.8794 4.88755 29.028 7.66607 29.3605 10.8372C29.6023 13.1627 29.2698 15.3976 28.3025 17.5117C27.9701 18.2365 27.5469 18.901 27.0935 19.5654C24.101 23.8842 21.1086 28.203 18.1161 32.5218C18.0557 32.6124 17.965 32.703 17.9046 32.7936ZM17.965 7.15265C15.6073 7.21305 13.7635 9.11574 13.7937 11.411C13.8542 13.7667 15.7887 15.609 18.0859 15.5486C20.3832 15.4882 22.2572 13.5553 22.1968 11.2902C22.1665 8.96473 20.232 7.09225 17.965 7.15265Z" fill="white"/>
</svg>
