<svg width="51" height="66" viewBox="0 0 51 66" fill="none" xmlns="http://www.w3.org/2000/svg">
<path d="M25.6639 0.5C27.2314 1.09167 28.808 1.66054 30.3649 2.27933C34.3092 3.8469 38.1211 5.66311 41.4554 8.34864C41.7999 8.62604 42.1057 8.95616 42.4685 9.20492C43.355 9.81294 43.5917 10.6346 43.4771 11.6703C43.3022 13.2512 43.0898 14.8201 42.272 16.2129C41.9143 16.8223 41.4609 17.4008 40.9488 17.8853C40.5927 18.2222 40.4005 18.5228 40.4513 19.0046C40.5314 19.7625 40.4138 20.4333 39.6305 20.8228C39.5171 20.8792 39.4574 21.1356 39.4521 21.302C39.4317 21.934 39.4472 22.5669 39.4428 23.1994C39.4379 23.8837 39.438 24.4924 39.9726 25.1042C40.6287 25.8552 40.5546 26.8778 40.3306 27.8276C39.9342 29.5093 39.2199 30.963 37.5011 31.6883C37.3502 31.752 37.2107 31.9799 37.1731 32.1546C36.7445 34.147 35.8957 35.9418 34.6379 37.5357C34.3225 37.9355 34.1713 38.2878 34.3673 38.7909C34.5257 39.1978 34.5914 39.6408 34.7204 40.1563C35.7336 39.6265 36.2636 40.2496 36.6185 41.0144C37.3975 42.693 38.6778 43.4633 40.5072 43.6962C42.9026 44.0013 45.1003 44.9042 46.9059 46.5942C49.2539 48.7917 50.5173 51.4913 50.559 54.7132C50.5991 57.8123 50.5704 60.9123 50.5674 64.0119C50.5666 64.8087 50.1858 65.2721 49.5552 65.2711C48.9247 65.2701 48.5483 64.8082 48.5474 64.0087C48.5441 61.0567 48.5487 58.1047 48.5454 55.1527C48.5402 50.4556 45.7286 46.9328 41.1602 45.8957C40.2165 45.6814 39.2635 45.5026 38.3304 45.2494C37.9254 45.1395 37.7276 45.2615 37.4944 45.5639C35.4609 48.2003 33.4138 50.826 31.368 53.453C30.7014 54.3089 30.2619 54.359 29.4231 53.6907C29.029 53.3767 28.6341 53.0637 28.1688 52.6939C27.7903 53.5056 27.2725 54.1364 27.5067 55.1583C28.1648 58.0304 28.685 60.934 29.2599 63.8251C29.4117 64.5887 29.1289 65.1275 28.5073 65.2551C27.9216 65.3754 27.4441 64.9965 27.2959 64.2666C26.714 61.3984 26.1417 58.5284 25.5541 55.6614C25.518 55.485 25.3801 55.3296 25.2896 55.1644C25.1964 55.3263 25.0532 55.478 25.0174 55.6519C24.4289 58.5188 23.8565 61.3888 23.2744 64.2569C23.1253 64.9914 22.6558 65.3707 22.0702 65.2568C21.4457 65.1354 21.1525 64.5917 21.3044 63.8348C21.9051 60.8416 22.4884 57.8447 23.1181 54.8577C23.3012 53.9893 22.6897 53.4565 22.4353 52.6813C21.9549 53.058 21.5295 53.391 21.1046 53.7248C20.3206 54.3407 19.8537 54.2918 19.2448 53.5095C17.1996 50.8821 15.1531 48.2558 13.1225 45.6171C12.8615 45.2779 12.6377 45.1399 12.1841 45.2653C10.6864 45.6795 9.10029 45.8611 7.67972 46.45C4.11498 47.9276 2.20765 50.7297 2.05407 54.5731C1.92785 57.7309 2.02745 60.8977 2.02074 64.0605C2.01909 64.8287 1.57834 65.3682 0.96538 65.2454C0.617396 65.1757 0.320105 64.8524 0 64.6433C0 60.9744 0 57.3054 0 53.6365C0.0383973 53.5195 0.0930112 53.4052 0.113034 53.2852C0.806847 49.134 3.07077 46.1653 6.94421 44.5585C8.36453 43.9693 9.93338 43.7203 11.4506 43.3913C12.1943 43.2302 12.7709 42.9719 13.1267 42.2541C13.3679 41.7675 13.7451 41.3506 14.0203 40.8784C14.4346 40.1679 14.9367 39.7141 15.8439 40.1508C15.9881 39.5876 16.1614 39.0877 16.2295 38.5737C16.2655 38.3027 16.2024 37.9421 16.0406 37.7335C14.7417 36.0604 13.8049 34.2262 13.3885 32.1365C13.3567 31.9767 13.2364 31.7635 13.1015 31.7059C11.1881 30.8889 10.4692 29.2501 10.1597 27.3704C9.99446 26.3668 10.1423 25.394 10.9446 24.6282C11.0592 24.5189 11.1143 24.2989 11.1172 24.1287C11.1334 23.1805 11.131 22.2319 11.1188 21.2836C11.1167 21.1319 11.0752 20.8885 10.9799 20.8448C10.0564 20.4207 10.1032 19.62 10.0944 18.7996C10.0917 18.5376 9.89777 18.2517 9.72935 18.0224C9.2222 17.3316 8.58643 16.7171 8.17913 15.9748C7.33072 14.4282 7.13633 12.7052 7.07702 10.9636C7.05915 10.4387 7.19209 10.0168 7.60533 9.68241C8.65182 8.83552 9.64634 7.91576 10.7447 7.14312C14.0552 4.81393 17.7351 3.2053 21.5003 1.77814C22.6341 1.3488 23.7704 0.925919 24.9053 0.5C25.1581 0.5 25.4109 0.5 25.6639 0.5ZM35.3983 28.5659C35.3983 28.3763 35.3762 28.1836 35.402 27.9976C35.555 26.8894 35.3465 25.9369 34.3527 25.2579C34.1001 25.0853 33.8879 24.8172 33.7305 24.5498C33.429 24.0374 33.1021 23.9899 32.5455 24.206C30.182 25.1232 27.754 25.816 25.1904 25.7952C22.6298 25.7744 20.2113 25.0557 17.845 24.1462C17.4785 24.0053 17.2644 24.0174 16.9966 24.3522C16.525 24.9421 15.9702 25.465 15.4614 26.026C15.3425 26.1573 15.1819 26.3308 15.1856 26.4813C15.228 28.2258 15.0839 30.0104 15.4053 31.7054C16.1 35.3696 18.4554 37.8858 21.5614 39.7896C24.3191 41.4798 27.0087 41.2939 29.6113 39.519C33.455 36.8975 35.6378 33.3641 35.3983 28.5659ZM10.0279 15.2078C10.4632 15.0043 10.8284 14.7097 11.2195 14.67C14.5684 14.3304 17.9163 13.9204 21.2755 13.7553C27.1759 13.4654 33.0677 13.7021 38.9202 14.5717C39.4586 14.6516 39.9676 14.9303 40.5725 15.1461C41.2005 14.0137 41.3993 12.6102 41.4419 11.1742C41.4457 11.0443 41.2915 10.8806 41.1707 10.781C40.4399 10.1783 39.7277 9.54656 38.9539 9.00343C34.863 6.13199 30.2745 4.30336 25.5869 2.69321C25.3733 2.61984 25.0783 2.65405 24.8611 2.73972C22.2796 3.7568 19.6731 4.71978 17.1384 5.8442C14.3786 7.06848 11.8013 8.62794 9.53609 10.6558C9.37135 10.8032 9.13046 11.0057 9.13362 11.1785C9.16087 12.6145 9.36882 14.0167 10.0279 15.2078ZM38.4057 16.5064C29.6469 15.3963 20.9112 15.3922 12.1708 16.507C12.1708 17.2912 12.1708 17.9776 12.1708 18.6834C20.9297 18.6834 29.6543 18.6834 38.4057 18.6834C38.4057 17.9613 38.4057 17.2738 38.4057 16.5064ZM18.0438 39.7319C17.8957 40.3329 17.7502 40.7564 17.7014 41.1907C17.677 41.4085 17.756 41.7352 17.9111 41.8615C20.2451 43.762 22.5956 45.6425 24.9594 47.5057C25.0961 47.6134 25.4551 47.6294 25.5844 47.5276C27.9653 45.6522 30.3293 43.7554 32.6856 41.8491C32.8164 41.7433 32.9353 41.5013 32.9104 41.3468C32.8316 40.8571 32.682 40.3789 32.5242 39.756C27.6969 44.074 22.8842 43.9432 18.0438 39.7319ZM35.1251 20.7912C28.606 20.7912 22.0067 20.7912 15.472 20.7912C22.0132 24.6765 28.6123 24.6415 35.1251 20.7912ZM20.3989 51.6999C21.5211 50.7994 22.5762 49.9527 23.6649 49.0791C20.8667 46.8405 18.1466 44.6645 15.402 42.4689C15.0462 43.0017 14.7319 43.4721 14.3948 43.9767C16.3831 46.5341 18.368 49.0873 20.3989 51.6999ZM30.1732 51.6967C32.1893 49.1037 34.1774 46.5465 36.177 43.9748C35.8364 43.4671 35.5136 42.9858 35.1661 42.4679C32.3911 44.6908 29.6725 46.8684 26.9085 49.0825C28.033 49.9829 29.0805 50.8217 30.1732 51.6967ZM26.5198 51.4244C25.3321 50.2541 25.0499 50.2614 24.066 51.4573C24.2773 51.8835 24.4638 52.331 24.7166 52.737C24.8258 52.9122 25.0775 53.1107 25.2551 53.1022C25.4647 53.0922 25.7336 52.9146 25.8536 52.7296C26.1136 52.3292 26.2949 51.8778 26.5198 51.4244ZM15.3565 23.1191C14.6108 22.7588 13.9135 22.422 13.1793 22.0671C13.1793 22.8594 13.1793 23.5485 13.1793 24.2256C14.2308 24.6119 14.299 24.5782 15.3565 23.1191ZM37.3898 22.0592C36.6328 22.4325 35.9329 22.7778 35.222 23.1285C36.2467 24.5867 36.3805 24.6498 37.3898 24.1893C37.3898 23.5082 37.3898 22.8232 37.3898 22.0592ZM13.1475 29.1272C13.1475 28.3146 13.1413 27.5021 13.1499 26.6896C13.1548 26.2261 12.7914 26.2023 12.5045 26.2033C12.3835 26.2037 12.1663 26.4835 12.1592 26.6436C12.1171 27.5927 12.444 28.4272 13.1475 29.1272ZM37.4214 29.1244C38.1144 28.4547 38.4312 27.6398 38.4119 26.7188C38.4081 26.5357 38.2012 26.2116 38.0747 26.2051C37.7598 26.1886 37.4012 26.2442 37.4153 26.7411C37.438 27.5349 37.4214 28.3298 37.4214 29.1244Z" fill="white"/>
<path d="M10.1155 62.7404C10.1157 62.2554 10.1017 61.77 10.1191 61.2857C10.1423 60.6399 10.5563 60.218 11.1319 60.2225C11.7064 60.2269 12.1197 60.6498 12.1311 61.2995C12.1481 62.2691 12.1492 63.2394 12.1303 64.209C12.1178 64.854 11.6917 65.2775 11.1178 65.2732C10.5449 65.2689 10.1397 64.8437 10.1184 64.195C10.1026 63.7107 10.1154 63.2253 10.1155 62.7404Z" fill="white"/>
<path d="M40.4544 62.7717C40.4535 63.2567 40.4694 63.7423 40.4495 64.2264C40.4233 64.8641 39.9921 65.2878 39.4191 65.2734C38.8703 65.2596 38.4531 64.8486 38.4403 64.2412C38.4195 63.2507 38.4199 62.2591 38.4397 61.2687C38.4525 60.6303 38.8926 60.2084 39.4676 60.2228C40.0172 60.2366 40.4094 60.6467 40.4528 61.2538C40.4559 61.2958 40.455 61.3381 40.455 61.3803C40.4552 61.844 40.4551 62.3079 40.4544 62.7717Z" fill="white"/>
<path d="M28.3179 7.70016C28.3185 9.67401 27.5832 10.784 25.7485 11.5042C25.4986 11.6022 25.1105 11.655 24.9145 11.5291C24.1638 11.0469 23.3963 10.5516 22.7755 9.92239C22.4501 9.59253 22.34 8.98527 22.2703 8.48408C22.187 7.88531 22.1784 7.25384 22.278 6.66014C22.3388 6.29784 22.6525 5.9719 22.8782 5.64749C22.9415 5.55638 23.0951 5.52774 23.2079 5.4716C25.4989 4.33184 25.5091 4.31562 27.7155 5.67955C28.0016 5.85646 28.1926 6.28301 28.2961 6.63289C28.3938 6.96187 28.3173 7.3423 28.3179 7.70016ZM26.2959 7.95222C26.296 7.28096 25.8402 6.7268 25.2896 6.7287C24.7591 6.7306 24.2735 7.28071 24.2731 7.88024C24.2725 8.64857 24.8224 9.47518 25.3108 9.44021C25.7875 9.40599 26.2958 8.6383 26.2959 7.95222Z" fill="white"/>
</svg>
