<svg width="64" height="52" viewBox="0 0 64 52" fill="none" xmlns="http://www.w3.org/2000/svg">
<circle cx="24.4238" cy="23.5" r="19.5" fill="white"/>
<path d="M13.7957 38.0481L10.3149 37.0664C11.9435 31.2974 13.1297 25.3338 13.8426 19.3412C14.6112 12.9855 19.9122 8.3134 25.8729 8.68638C28.6506 8.85781 31.2423 10.2316 33.1669 12.554C35.432 15.2882 36.4646 18.9694 36.0007 22.6546C35.7632 24.5699 35.4795 26.5153 35.1586 28.4329L31.5921 27.8369C31.9043 25.9685 32.1806 24.0747 32.4122 22.2057C32.7528 19.5045 32.0132 16.8294 30.3829 14.8614C29.1023 13.3162 27.421 12.4052 25.6476 12.2957C21.6051 12.042 17.9715 15.3218 17.4334 19.7715C16.699 25.9483 15.4747 32.0989 13.7957 38.0481Z" fill="black"/>
<path d="M32.2082 41.8607L28.8247 40.5836C29.8956 37.7481 30.6375 34.7642 31.0313 31.7144L34.618 32.1771C34.1889 35.5055 33.3775 38.7639 32.2082 41.8607Z" fill="black"/>
<path d="M26.789 42.3265L23.3007 41.3749C24.8934 35.5353 25.9793 29.4946 26.5295 23.4221C26.5973 22.6791 26.3697 21.9435 25.9046 21.4037C25.5137 20.9503 24.9988 20.6833 24.4538 20.6514C23.2144 20.5645 22.1169 21.5827 21.9993 22.8899C21.902 23.9851 21.7856 25.0918 21.6518 26.1789L18.0627 25.7388C18.1907 24.6916 18.3031 23.6254 18.3969 22.5679C18.6935 19.2776 21.4502 16.8539 24.6646 17.0403C26.1947 17.129 27.6085 17.8407 28.6446 19.0437C29.745 20.3213 30.2871 22.0368 30.1307 23.7488C29.562 30.0315 28.4378 36.2824 26.789 42.3265Z" fill="black"/>
<path d="M18.6369 41.1357L15.1561 40.154C16.0932 36.8331 16.6556 33.3848 16.8282 29.9058L20.4398 30.0847C20.2545 33.8354 19.6475 37.5536 18.6369 41.1357Z" fill="black"/>
<path d="M24.4602 44.0308C23.3205 44.0308 22.1726 43.9358 21.0258 43.7435C9.85498 41.8723 2.28766 31.251 4.15661 20.068C5.06126 14.6506 8.02019 9.9107 12.4867 6.72068C16.9537 3.53067 22.395 2.27157 27.8066 3.1797C38.9775 5.05097 46.5448 15.6722 44.6758 26.8552C43.7712 32.2727 40.8122 37.0125 36.3458 40.2025C32.825 42.7173 28.6997 44.0308 24.4602 44.0308ZM7.72309 20.6646C6.18311 29.8813 12.4183 38.6347 21.6229 40.1771C26.0831 40.9253 30.564 39.8875 34.244 37.2598C37.9246 34.631 40.3628 30.724 41.1094 26.2592C42.6494 17.0425 36.4141 8.28905 27.2095 6.74675C22.7483 6.00079 18.2685 7.03633 14.5885 9.66456C10.9079 12.2928 8.46963 16.1998 7.72309 20.6646Z" fill="black"/>
<path d="M4.54012 11.9272H0.923828V0H12.8389V3.61628H4.54012V11.9272Z" fill="black"/>
<path d="M49.0232 11.9272H45.4069V3.61628H37.1082V0H49.0232V11.9272Z" fill="black"/>
<path d="M12.8389 47.3429H0.923828V35.415H4.54012V43.7266H12.8389V47.3429Z" fill="black"/>
<path d="M47.2149 49.5949C39.102 49.5949 32.5256 38.9864 32.5256 38.9864C32.5256 38.9864 39.102 28.3779 47.2149 28.3779C55.3278 28.3779 61.9041 38.9864 61.9041 38.9864C61.9041 38.9864 55.3278 49.5949 47.2149 49.5949Z" fill="white"/>
<path d="M47.215 51.3109C38.2502 51.3109 31.3559 40.3566 31.0669 39.8904L30.5062 38.9858L31.0669 38.0811C31.3559 37.6149 38.2496 26.6606 47.215 26.6606C56.1804 26.6606 63.0742 37.6149 63.3632 38.0811L63.9238 38.9858L63.3632 39.8904C63.0742 40.3566 56.1799 51.3109 47.215 51.3109ZM34.598 38.9858C36.3222 41.4119 41.4576 47.8782 47.215 47.8782C52.9719 47.8782 58.1073 41.413 59.832 38.9858C58.1079 36.5597 52.9725 30.0933 47.215 30.0933C41.4576 30.0933 36.3227 36.5585 34.598 38.9858Z" fill="black"/>
<path d="M47.2152 43.4843C49.6961 43.4843 51.7072 41.4706 51.7072 38.9865C51.7072 36.5025 49.6961 34.4888 47.2152 34.4888C44.7344 34.4888 42.7233 36.5025 42.7233 38.9865C42.7233 41.4706 44.7344 43.4843 47.2152 43.4843Z" fill="#FB3544"/>
<path d="M47.2151 45.1996C43.7923 45.1996 41.0071 42.4127 41.0071 38.9858C41.0071 35.5589 43.7923 32.772 47.2151 32.772C50.6385 32.772 53.4237 35.5589 53.4237 38.9858C53.4237 42.4127 50.6385 45.1996 47.2151 45.1996ZM47.2151 36.2047C45.6844 36.2047 44.4392 37.4522 44.4392 38.9864C44.4392 40.5206 45.6844 41.7681 47.2151 41.7681C48.7464 41.7681 49.9916 40.5206 49.9916 38.9864C49.9916 37.4522 48.7458 36.2047 47.2151 36.2047Z" fill="black"/>
</svg>
