<svg width="34" height="42" viewBox="0 0 34 42" fill="none" xmlns="http://www.w3.org/2000/svg">
<g clip-path="url(#clip0_1127_112905)">
<path d="M1.5918 8.71143H31.9806V41.9999H1.5918V8.71143ZM7.22036 31.0332C6.27985 31.8121 6.68656 32.277 7.18768 32.7745C9.14497 34.7112 11.0914 36.6576 13.0269 38.6136C13.5298 39.1238 14.0019 39.5015 14.641 38.7008C15.6668 40.2731 17.3518 40.1533 18.7916 40.5818C19.3563 40.7489 19.8156 40.3131 19.6504 39.7502C19.2292 38.3104 19.3526 36.6218 17.8184 35.6069C18.5447 34.8679 18.1198 34.3795 17.5751 33.8439C15.6735 31.981 13.7919 30.0982 11.9302 28.1953C11.3855 27.6325 10.8844 27.2875 10.0746 28.0301C9.75141 27.3565 9.57165 26.7192 9.19217 26.2435C8.60935 25.5172 7.88309 24.9053 7.22582 24.2354C6.79369 23.7978 6.39424 23.8359 5.98027 24.2662C5.51909 24.7456 5.03612 25.2031 4.56949 25.677C2.44335 27.8449 2.44335 27.2603 4.56949 29.4191C4.94597 29.8003 5.36233 30.14 5.8114 30.4322C6.15638 30.6556 6.58125 30.7681 7.21311 31.0332H7.22036ZM26.3811 17.2578C27.1237 16.9073 27.7592 16.7312 28.2313 16.3499C28.9575 15.7671 29.5658 15.0372 30.2394 14.3854C30.7205 13.9188 30.6588 13.5084 30.2013 13.0708C29.6765 12.5697 29.1754 12.045 28.6598 11.533C26.7279 9.62107 27.1637 9.63016 25.2372 11.5529C24.8092 11.9697 24.422 12.4263 24.0806 12.9165C23.8337 13.2796 23.7175 13.7299 23.4778 14.2801C22.6953 13.4539 22.2069 13.8189 21.6858 14.3545C19.7993 16.2755 17.9019 18.1856 15.9719 20.0612C15.4072 20.6059 15.0877 21.1106 15.734 21.8296C14.1853 22.8391 14.345 24.5404 13.9184 25.9784C13.7531 26.5358 14.2434 26.9498 14.8044 26.7791C16.2406 26.3452 17.9255 26.465 18.9332 24.9108C19.6032 25.7042 20.068 25.2921 20.5673 24.7928C22.4835 22.8561 24.4087 20.9315 26.343 19.019C26.8423 18.5142 27.3416 18.0349 26.3738 17.2578H26.3811ZM2.97715 13.6864H4.45692V11.562H6.54856V10.1095H3.86683C3.27311 10.1095 2.97715 10.4109 2.97715 11.0046V13.6864ZM26.9785 40.6218C27.9662 40.6218 28.874 40.6853 29.7655 40.5854C30.0596 40.5509 30.5063 40.1152 30.539 39.8247C30.6388 38.9168 30.5753 37.9763 30.5753 37.0503H29.0737V39.2037H26.9785V40.6218ZM24.0734 40.5528H25.4533V39.2219H24.0734V40.5528Z" fill="white"/>
<path d="M1.57227 2.79068V0H31.9847V2.79068H1.57227Z" fill="white"/>
<path d="M30.5434 6.48929V5.03675H0.165503L0.00390625 4.78074C0.185473 4.62278 0.350701 4.46482 0.528637 4.31049C0.544978 4.29414 0.586736 4.31049 0.617603 4.31049L33.2778 4.32864C33.3567 4.35329 33.4333 4.38489 33.5066 4.42306C33.4576 5.45617 32.4735 4.77166 32.074 5.16929V6.33858C32.3881 6.84152 33.5084 5.92279 33.4685 7.16653H0.174579C-0.019697 6.7235 0.0365962 6.46931 0.624872 6.48384C1.32027 6.502 2.01567 6.48384 2.71289 6.48384H30.5434V6.48929Z" fill="white"/>
<path d="M16.3239 34.9119L14.0126 37.2377L8.6582 31.8815L10.9968 29.5811L16.3239 34.9119Z" fill="white"/>
<path d="M6.65518 25.8008L7.63564 26.7794L5.87262 28.5951L4.88672 27.4839L6.65518 25.8008Z" fill="white"/>
<path d="M15.5332 37.9075L16.9058 36.395C17.3235 37.2448 17.6648 37.9365 18.0061 38.6283L17.7156 38.9315L15.5332 37.9075Z" fill="white"/>
<path d="M7.94259 30.0692L7.26172 29.3956L8.60894 28.417L9.11732 28.9018L7.94259 30.0692Z" fill="white"/>
<path d="M17.2324 20.9692L22.5196 15.6802L24.9617 18.115L19.6327 23.4639L17.2324 20.9692Z" fill="white"/>
<path d="M25.8457 12.9546L27.1421 11.6836C27.3752 12.0785 27.6323 12.4586 27.9119 12.822C28.2062 13.1187 28.5211 13.3941 28.8543 13.6463L27.7177 14.7793C27.1167 14.1892 26.5229 13.6118 25.8457 12.9546Z" fill="white"/>
<path d="M17.8797 24.1683L15.8534 25.1415L15.5684 24.8492C15.8807 24.1611 16.1948 23.4729 16.6142 22.5542L17.8797 24.1683Z" fill="white"/>
<path d="M24.4961 15.0212L25.1407 14.5273L26.1956 15.6167L25.5201 16.343L24.4961 15.0212Z" fill="white"/>
</g>
<defs>
<clipPath id="clip0_1127_112905">
<rect width="33.5027" height="42" fill="white"/>
</clipPath>
</defs>
</svg>
