<svg width="35" height="42" viewBox="0 0 35 42" fill="none" xmlns="http://www.w3.org/2000/svg">
<g clip-path="url(#clip0_1127_112879)">
<path d="M1.47461 42.0001V11.9966H32.9623V42.0001H1.47461ZM5.93194 26.9185C5.93194 30.5647 5.93194 34.2114 5.93194 37.8587C5.93194 39.3 6.42557 39.7838 7.86034 39.7854C14.1128 39.7854 20.3652 39.7854 26.6177 39.7854C28.0442 39.7854 28.5313 39.2918 28.5313 37.8422C28.5313 30.6322 28.5313 23.4216 28.5313 16.2104C28.5313 14.7164 28.0377 14.2359 26.5568 14.2359H7.964C6.3795 14.2359 5.92867 14.6901 5.92702 16.3009C5.92812 19.8418 5.92975 23.381 5.93194 26.9185Z" fill="white"/>
<path d="M17.1507 10.4648H1.28753C1.06705 10.4648 0.79393 10.5454 0.642555 10.4401C0.374358 10.2394 0.0436222 9.94651 0.0107146 9.66351C-0.0123208 9.46442 0.389159 9.16989 0.655711 9.00535C0.820249 8.90663 1.08352 8.98232 1.30235 8.98232H33.1948C33.3873 8.98232 33.6258 8.91321 33.7608 9.00206C34.033 9.20841 34.2873 9.43739 34.5209 9.68654C34.2659 9.94651 34.0388 10.2493 33.7427 10.4484C33.5913 10.5504 33.3165 10.4681 33.0961 10.4681L17.1507 10.4648Z" fill="white"/>
<path d="M32.9964 0V1.36567H1.48242V0H32.9964Z" fill="white"/>
<path d="M1.48438 2.96191H32.9638V4.37694H1.48438V2.96191Z" fill="white"/>
<path d="M32.9899 6.02197V7.42055H1.50391V6.02197H32.9899Z" fill="white"/>
<path d="M23.9399 35.2672H10.5234V18.7739H23.9399V35.2672ZM17.1494 27.7511C18.599 27.7511 20.0502 27.7413 21.4998 27.7511C22.0263 27.7511 22.4672 27.6244 22.487 27.0288C22.5067 26.4332 22.0872 26.2522 21.5491 26.2522C18.6763 26.2522 15.804 26.2522 12.9323 26.2522C12.3942 26.2522 11.9813 26.4431 11.9928 27.0272C12.0043 27.6113 12.442 27.7561 12.9701 27.7511C14.3522 27.7413 15.7525 27.7511 17.1494 27.7511ZM19.1238 24.773H21.5047C22.0296 24.773 22.4656 24.5953 22.4788 24.0194C22.4919 23.4435 22.0576 23.2658 21.5261 23.2691C19.9125 23.2768 18.2984 23.2768 16.6838 23.2691C16.1901 23.2691 15.787 23.3942 15.7574 23.9569C15.7278 24.5591 16.1342 24.7615 16.6607 24.7681C17.4785 24.7796 18.3012 24.7796 19.1238 24.7796V24.773ZM15.3642 30.7589C16.1868 30.7589 17.0095 30.7589 17.824 30.7589C18.3176 30.7589 18.7059 30.5861 18.7076 30.0234C18.7092 29.4607 18.3176 29.2649 17.8339 29.2616C16.1885 29.2468 14.5546 29.2501 12.9142 29.2616C12.3893 29.2616 11.9697 29.4771 11.9845 30.0596C11.9993 30.6059 12.414 30.7655 12.9043 30.7655L15.3642 30.7589ZM13.1264 23.2773C12.5736 23.2461 11.9928 23.2773 11.9878 23.9964C11.9878 24.6858 12.5341 24.773 13.1018 24.7779C13.6694 24.7829 14.2074 24.6463 14.2009 23.9766C14.1943 23.307 13.6678 23.2296 13.1264 23.2773ZM21.3698 30.7605C21.9342 30.7737 22.4689 30.698 22.4738 30.0431C22.4738 29.3554 21.9391 29.2534 21.3714 29.2484C20.8038 29.2435 20.2559 29.3652 20.2625 30.0382C20.2756 30.7424 20.8548 30.7819 21.3698 30.7605Z" fill="white"/>
<path d="M11.3998 36.7907C10.9061 38.2797 10.9061 38.2814 9.49933 38.2715C8.89877 38.2715 8.2982 38.2616 7.68941 38.2518C7.6417 38.2518 7.59563 38.2073 7.51172 38.1646V34.3062C8.21101 34.6945 9.00573 34.729 9.07648 35.787C9.11597 36.3892 9.73463 36.7545 10.4142 36.7874C10.7334 36.8071 11.0625 36.7907 11.3998 36.7907Z" fill="white"/>
<path d="M8.88049 18.198C7.31738 17.5547 7.27624 17.4839 7.56418 15.7793H11.4259C11.1379 16.5312 10.9323 17.242 9.95657 17.3852C9.5913 17.4329 9.28525 17.8689 8.88049 18.198Z" fill="white"/>
<path d="M26.7531 19.0091C26.2117 18.5961 25.6819 18.1633 25.1225 17.775C24.7325 17.5035 24.2998 17.2946 23.877 17.0527C24.5664 15.4221 24.0102 15.7068 27.0032 15.7907V18.8346L26.7531 19.0091Z" fill="white"/>
<path d="M23.5996 38.2371C24.1245 37.5328 24.5457 36.9981 24.9307 36.4387C25.1973 36.052 25.4145 35.6324 25.6761 35.1865C27.0516 35.4761 27.2787 35.9878 26.9002 38.2371H23.5996Z" fill="white"/>
<path d="M8.9014 25.6613C7.42056 25.2302 7.40082 25.2055 7.49132 23.2294C8.77142 23.1175 9.16959 23.8037 8.9014 25.6613Z" fill="white"/>
<path d="M26.918 30.1911C25.2134 29.4474 25.4684 29.9065 25.526 27.6704C26.9097 27.8136 27.1862 28.2973 26.918 30.1911Z" fill="white"/>
<path d="M15.1759 15.7811C14.3877 17.4791 14.985 17.2454 12.5762 17.1714C12.9711 15.6889 13.1224 15.6066 15.1759 15.7811Z" fill="white"/>
<path d="M16.3066 17.1843C17.052 15.4715 16.5057 15.7035 18.8784 15.7808C18.5147 17.2403 18.4127 17.2979 16.3066 17.1843Z" fill="white"/>
<path d="M8.89553 29.4014C7.20408 28.8206 7.41469 29.0476 7.52658 26.9136C8.94983 27.1703 9.18182 27.5915 8.89553 29.4014Z" fill="white"/>
<path d="M7.53591 30.6338C9.29975 31.2919 8.99373 30.976 8.93121 33.1381C7.52605 32.939 7.28581 32.5128 7.53591 30.6338Z" fill="white"/>
<path d="M12.5254 38.2403C13.3185 36.4946 12.7409 36.7924 15.1103 36.8335C14.7878 38.2716 14.5854 38.3901 12.5254 38.2403Z" fill="white"/>
<path d="M16.2852 38.2388C16.9269 36.6214 17.0157 36.5769 18.8849 36.8813C18.1971 38.5892 18.6397 38.2947 16.2852 38.2388Z" fill="white"/>
<path d="M20.0723 17.1796C20.7864 15.5145 20.273 15.6692 22.6144 15.7926C22.3116 17.2241 22.157 17.3096 20.0723 17.1796Z" fill="white"/>
<path d="M7.58267 19.3843C9.02567 19.7677 9.12111 19.9454 8.92366 21.8902C7.44117 21.5331 7.18778 21.051 7.58267 19.3843Z" fill="white"/>
<path d="M25.5419 20.0952C27.1988 20.6925 27.0622 20.4243 26.9273 22.5633C25.5616 22.4136 25.328 21.9973 25.5419 20.0952Z" fill="white"/>
<path d="M26.9292 26.4019C25.3875 25.9083 25.2986 25.7355 25.5619 23.8647C27.2533 24.4242 27.0592 24.286 26.9292 26.4019Z" fill="white"/>
<path d="M25.5749 31.4102C26.9932 31.7195 27.1397 31.9844 26.9439 33.8881C25.5124 33.6166 25.2705 33.1789 25.5749 31.4102Z" fill="white"/>
<path d="M20.0645 38.2384C20.6519 36.6424 20.7489 36.5931 22.6214 36.8761C22.2495 38.3125 22.108 38.3931 20.0645 38.2384Z" fill="white"/>
</g>
<defs>
<clipPath id="clip0_1127_112879">
<rect width="34.5102" height="42" fill="white"/>
</clipPath>
</defs>
</svg>
