<svg width="41" height="42" viewBox="0 0 41 42" fill="none" xmlns="http://www.w3.org/2000/svg">
<g clip-path="url(#clip0_1127_112918)">
<path d="M-0.00195312 2.88574H33.3515C33.3515 3.71958 33.3823 4.51716 33.3515 5.32925C33.3062 6.20296 33.6977 6.53287 34.5406 6.48574C35.2047 6.44761 35.8705 6.44761 36.5346 6.48574C37.3793 6.53287 37.7709 6.20296 37.7255 5.32925C37.6857 4.54979 37.7255 3.7649 37.7255 2.91837H40.5805C40.5932 3.21384 40.6204 3.50568 40.6204 3.79934C40.6204 15.8779 40.6204 27.9558 40.6204 40.0332C40.6204 41.554 40.1636 41.9999 38.6138 41.9999H1.992C0.453032 41.9999 -0.00195312 41.5504 -0.00195312 40.0187C-0.00195312 27.9703 -0.00195312 15.922 -0.00195312 3.87366V2.88574ZM18.7974 27.1758C18.3987 29.5758 18.0307 31.8652 17.6373 34.1492C17.3545 35.7806 17.9636 37.0042 19.4826 37.6585C21.3352 38.4561 23.1914 39.2483 25.0621 40.0023C27.0669 40.8108 28.8959 39.7341 29.1896 37.6132C29.6156 34.5317 30.0361 31.4646 30.4784 28.3921C30.7177 26.7226 31.6168 25.5371 33.2518 25.0459C33.9236 24.8668 34.6179 24.7868 35.3129 24.8084C36.0017 24.8084 36.3551 24.5166 36.5944 23.9129C37.1183 22.5987 37.6567 21.2882 38.2385 19.9993C38.5811 19.2362 38.3636 18.8193 37.615 18.5365C36.8663 18.2537 36.0923 17.8948 35.3455 17.5649L35.8458 16.2344L34.5678 15.6906L33.9388 16.9921L9.26814 6.65613L9.77388 5.29843L8.50499 4.77819L7.8923 6.04707C7.56783 5.92925 7.28325 5.83317 7.00409 5.72441C6.01799 5.3365 5.86029 5.39813 5.43974 6.38786C4.78174 7.93952 4.11829 9.48937 3.47841 11.0501C2.72977 12.8628 3.37146 14.3981 5.1914 15.1794C5.57207 15.3444 5.95454 15.5021 6.35515 15.6724C6.19744 16.7437 6.05062 17.7462 5.89291 18.8156C4.93219 18.8156 4.03128 18.8156 3.13038 18.8156C2.49775 18.8156 2.17872 19.0966 2.17872 19.7401C2.17872 22.5196 2.17872 25.299 2.17872 28.0785C2.17872 28.6712 2.47237 28.974 3.06693 28.9758C5.363 28.9758 7.65907 28.9758 9.95514 28.9758C10.5968 28.9758 10.8905 28.6658 10.8887 28.0295C10.8887 25.2815 10.8887 22.5335 10.8887 19.7854C10.8887 19.0948 10.5624 18.803 9.88626 18.8156C9.07962 18.8302 8.27116 18.8156 7.37751 18.8156C7.50802 17.9093 7.62403 17.1226 7.74911 16.2579C8.91104 16.7401 9.96421 17.1734 11.0119 17.6157C12.0597 18.0579 13.0965 18.5021 14.1787 18.9625C13.9974 19.2851 13.8851 19.5244 13.7545 19.7546C12.2663 22.3848 13.073 24.7631 15.8464 25.9305C16.8071 26.3202 17.7715 26.7371 18.7992 27.1776L18.7974 27.1758ZM37.76 26.0882V36.89H39.105V26.0882H37.76ZM37.7709 38.3927V39.7703H39.0832V38.3927H37.7709Z" fill="white"/>
<path d="M0.0449219 1.33958V0H40.5621V1.33958H0.0449219Z" fill="white"/>
<path d="M34.8438 4.97572V2.9165H36.196V4.97572H34.8438Z" fill="white"/>
<path d="M22.9006 21.0179L24.1695 21.5418C24.3798 21.0959 24.5701 20.6953 24.7822 20.2439L32.7236 23.572C32.6029 23.6654 32.475 23.7491 32.3411 23.8222C30.2674 24.6977 29.2777 26.3291 28.9913 28.4989C28.5997 31.4572 28.1737 34.4101 27.7405 37.3629C27.5592 38.6318 26.7272 39.1158 25.5345 38.6318C23.7218 37.8959 21.9182 37.1309 20.1182 36.366C19.1719 35.9635 18.8873 35.4487 19.0541 34.4318C19.7302 30.2971 20.4046 26.1642 21.1079 22.0349C21.3852 20.4034 21.4015 20.3835 19.8916 19.7527L10.8281 15.9551L11.3828 14.6191L23.381 19.6494C23.2197 20.1061 23.0765 20.5176 22.9006 21.0179ZM24.3816 36.3043L25.7103 36.8481C25.9061 36.366 26.0728 35.969 26.2541 35.5213L24.92 35.0246L24.3816 36.3043Z" fill="white"/>
<path d="M28.0432 16.1024C27.7586 16.8274 27.5175 17.4329 27.251 18.0963L28.5199 18.6564L29.4118 16.7042L30.6988 17.219C30.4287 17.9205 30.184 18.5549 29.9211 19.2329L31.2027 19.7622C31.4982 19.1187 31.7773 18.506 32.0945 17.8135L33.387 18.3428C33.1169 19.019 32.8722 19.628 32.5858 20.3368L33.8692 20.8806C34.1773 20.2135 34.4601 19.6008 34.7755 18.9175L36.7296 19.7386C36.2746 20.8425 35.8341 21.9138 35.3664 23.0341C35.0202 22.9126 34.7392 22.8329 34.4728 22.7205C26.1477 19.2389 17.819 15.7573 9.48669 12.2758C8.64016 11.9241 8.19242 11.5507 8.51508 10.5936C8.62747 10.2637 8.62022 9.8957 8.67823 9.45522L7.28608 9.31927C7.17913 9.92471 7.07581 10.503 6.95799 11.1646L5.28125 10.4866C5.76161 9.34465 6.20935 8.2806 6.68608 7.14404L28.0432 16.1024Z" fill="white"/>
<path d="M9.37572 27.4623H3.6875V20.3076H9.37572V27.4623ZM7.92556 23.1118V21.7668H5.11228V23.1118H7.92556ZM7.94188 24.6635H5.14309V26.0121H7.93644L7.94188 24.6635Z" fill="white"/>
<path d="M19.6021 22.2454C19.4209 23.3711 19.2396 24.4823 19.0348 25.6895C17.9091 25.2146 16.8468 24.8194 15.8317 24.3264C15.5379 24.1873 15.2749 23.9908 15.0583 23.7485C14.8417 23.5061 14.6758 23.2228 14.5706 22.9152C14.4653 22.6077 14.4227 22.2822 14.4454 21.9579C14.468 21.6336 14.5554 21.3172 14.7024 21.0273C14.9417 20.5179 15.2462 20.043 15.5526 19.5137L18.8499 20.904L16.8885 22.0224C16.9411 22.3487 17.0118 22.7783 17.1169 23.4146L19.6021 22.2454Z" fill="white"/>
<path d="M6.44177 14.0572C4.82847 13.5387 4.4605 13.0838 4.75053 11.9653C7.01095 12.5726 6.97289 12.6922 6.44177 14.0572Z" fill="white"/>
<path d="M8.26409 13.3159L10.0423 14.0555L9.50941 15.3244C7.77285 14.7878 7.76017 14.7679 8.26409 13.3159Z" fill="white"/>
</g>
<defs>
<clipPath id="clip0_1127_112918">
<rect width="40.5988" height="42" fill="white"/>
</clipPath>
</defs>
</svg>
