<svg width="51" height="53" viewBox="0 0 51 53" fill="none" xmlns="http://www.w3.org/2000/svg">
<path d="M43.3197 14.7156H16.6393V41.0079H43.3197V14.7156Z" fill="white"/>
<path d="M44.7466 42.4349H15.2123V13.2886H44.7466V42.4349ZM18.0663 39.5809H41.8927V16.1431H18.0663V39.5809Z" fill="black"/>
<path d="M38.8431 10.1897H15.1877V36.4819H38.8431V10.1897Z" fill="white"/>
<path d="M40.2699 37.9089H13.7606V8.76225H40.2699V37.9089ZM16.6145 35.055H37.416V11.6167H16.6145V35.055Z" fill="black"/>
<path d="M34.4014 6.02898H10.746V32.3212H34.4014V6.02898Z" fill="white"/>
<path d="M35.8284 33.7482H9.31903V4.60155H35.8284V33.7482ZM12.173 30.8943H32.9744V7.45597H12.173V30.8943Z" fill="black"/>
<path d="M26.5499 3.85783V0.714081L22.971 1.85996L19.3921 0.714081V3.85783H16.4435V8.6466H29.498V3.85783H26.5499Z" fill="white"/>
<path d="M29.4986 9.36055H16.4437C16.0492 9.36055 15.7297 9.04105 15.7297 8.6466V3.85783C15.7297 3.46338 16.0492 3.14388 16.4437 3.14388H18.6779V0.714537C18.6779 0.486457 18.7866 0.272089 18.9713 0.137709C19.1555 0.0028725 19.3927 -0.035524 19.6098 0.0339512L22.9712 1.10991L26.3325 0.0339512C26.55 -0.035524 26.7868 0.0028725 26.971 0.137709C27.1552 0.272089 27.2645 0.486457 27.2645 0.714537V3.14388H29.4986C29.8931 3.14388 30.2126 3.46338 30.2126 3.85783V8.6466C30.2126 9.04105 29.8931 9.36055 29.4986 9.36055ZM17.1581 7.93219H28.7847V4.57178H26.5505C26.1561 4.57178 25.8366 4.25229 25.8366 3.85783V1.69267L23.1892 2.54009C23.047 2.5858 22.8953 2.5858 22.7536 2.54009L20.1067 1.69267V3.85783C20.1067 4.25229 19.7872 4.57178 19.3927 4.57178H17.1585V7.93219H17.1581Z" fill="black"/>
<path d="M30.9595 19.7736H13.9357C13.6053 19.7736 13.337 19.5053 13.337 19.1749C13.337 18.8444 13.6053 18.5761 13.9357 18.5761H30.9595C31.2899 18.5761 31.5582 18.8444 31.5582 19.1749C31.5582 19.5053 31.2899 19.7736 30.9595 19.7736Z" fill="black"/>
<path d="M30.9595 23.3064H13.9357C13.6053 23.3064 13.337 23.0381 13.337 22.7076C13.337 22.3771 13.6053 22.1088 13.9357 22.1088H30.9595C31.2899 22.1088 31.5582 22.3771 31.5582 22.7076C31.5582 23.0381 31.2899 23.3064 30.9595 23.3064Z" fill="black"/>
<path d="M30.9595 26.8395H13.9357C13.6053 26.8395 13.337 26.5712 13.337 26.2408C13.337 25.9103 13.6053 25.642 13.9357 25.642H30.9595C31.2899 25.642 31.5582 25.9103 31.5582 26.2408C31.5582 26.5712 31.2899 26.8395 30.9595 26.8395Z" fill="black"/>
<path d="M30.9594 29.8644H25.2551C24.9247 29.8644 24.6564 29.5961 24.6564 29.2657C24.6564 28.9352 24.9247 28.6669 25.2551 28.6669H30.9594C31.2899 28.6669 31.5582 28.9352 31.5582 29.2657C31.5582 29.5961 31.2899 29.8644 30.9594 29.8644Z" fill="black"/>
<path d="M20.848 11.7049C21.0248 11.7177 21.1935 11.73 21.3617 11.7419C21.3622 11.7584 21.3631 11.7753 21.3635 11.7918C21.3183 11.8023 21.2726 11.8105 21.2282 11.8233C21.0157 11.8859 20.9503 12.0089 21.0514 12.2068C21.1889 12.4751 21.3027 12.7489 21.6606 12.8403C21.8352 12.8851 21.9765 13.0108 22.1867 12.9495C22.2621 12.9276 22.3851 13.0149 22.466 13.078C22.7087 13.2672 22.9222 13.2772 23.1507 13.0752C23.2837 12.9577 23.4167 12.9107 23.5945 12.9669C23.6585 12.987 23.7476 12.9418 23.8203 12.9139C23.919 12.8759 24.01 12.8151 24.1105 12.7831C24.2792 12.7297 24.676 12.1917 24.6083 12.0377C24.5571 11.9206 24.4054 11.848 24.2911 11.7488C24.4255 11.7342 24.5946 11.7159 24.8012 11.693C24.8012 11.9554 24.8359 12.2342 24.7888 12.4988C24.7582 12.6721 24.611 12.8252 24.5123 12.9852C24.4726 13.0496 24.4314 13.1182 24.3757 13.1675C24.2404 13.2864 24.1119 13.4372 23.9515 13.4998C23.5826 13.6443 23.3779 13.8646 23.3541 14.2563C23.3436 14.4286 23.4578 14.5036 23.6114 14.5593C23.9149 14.669 24.2134 14.7929 24.5082 14.9245C24.6037 14.967 24.6938 15.0393 24.7651 15.1174C25.0316 15.4104 24.9392 15.7861 24.5626 15.905C24.3917 15.9589 24.2033 15.958 23.9931 15.9859C24.058 16.0668 24.1174 16.1426 24.1787 16.2167C24.3807 16.4617 24.4218 16.4539 24.6293 16.2149C24.6887 16.1463 24.8071 16.107 24.9013 16.102C24.9379 16.1001 24.9813 16.2299 25.022 16.2994C24.9941 16.2889 24.9657 16.2788 24.9379 16.2683C24.8483 16.3241 24.7294 16.3597 24.675 16.4397C24.5425 16.634 24.4017 16.7839 24.1503 16.8136C24.0671 16.8237 23.9931 16.9128 23.8779 16.9905C23.8587 16.9503 23.7865 16.8694 23.8002 16.8072C23.8112 16.7556 23.9227 16.7245 23.9903 16.6866C24.0347 16.6619 24.1169 16.6436 24.1188 16.6175C24.1224 16.5663 24.0955 16.4987 24.0575 16.4617C23.8934 16.2994 23.7211 16.1454 23.5109 15.9507C23.5968 16.2336 23.7901 16.4434 23.696 16.7295C23.3724 16.6029 23.3006 16.2802 23.1214 16.0535C23.0995 16.0672 23.078 16.0814 23.0561 16.0951C23.1717 16.2766 23.2768 16.4658 23.4057 16.6372C23.5355 16.81 23.5493 16.8324 23.4254 17.1025C23.3294 16.9398 23.238 16.8132 23.1763 16.6738C23.1178 16.5408 23.0958 16.3922 23.0465 16.2542C23.0273 16.2002 22.9784 16.1573 22.9432 16.1093C22.9094 16.1678 22.8454 16.2267 22.8463 16.2843C22.8513 16.5302 22.8792 16.7757 22.8906 17.0216C22.8943 17.097 22.8723 17.1738 22.8623 17.2497C22.8307 17.251 22.7987 17.2524 22.7672 17.2538C22.7576 17.1711 22.7366 17.0879 22.7407 17.0056C22.753 16.7601 22.7827 16.5152 22.7882 16.2697C22.7896 16.208 22.7261 16.1449 22.6648 16.0311C22.4907 16.4187 22.5085 16.8182 22.1835 17.0696C22.0811 16.9073 22.0866 16.7894 22.2087 16.6468C22.3481 16.4841 22.4491 16.2884 22.567 16.107C22.5506 16.096 22.5341 16.0851 22.5176 16.0741C22.344 16.3017 22.1703 16.5289 21.997 16.7565C21.9719 16.7414 21.9468 16.7263 21.9216 16.7108C21.8439 16.4425 22.0222 16.2263 22.1342 15.9292C21.9088 16.1381 21.7324 16.2958 21.5637 16.4617C21.5258 16.4987 21.4984 16.5659 21.5016 16.6171C21.5034 16.6431 21.5861 16.661 21.6286 16.6875C21.6995 16.7314 21.7946 16.7665 21.8261 16.831C21.8448 16.8689 21.7598 16.9576 21.7406 16.991C21.6296 16.9151 21.5564 16.826 21.4732 16.8155C21.2241 16.7839 21.0788 16.6381 20.9467 16.4429C20.8923 16.3629 20.7744 16.3264 20.6852 16.2702C20.6569 16.2807 20.6286 16.2916 20.6002 16.3022C20.6391 16.2318 20.6665 16.1157 20.72 16.102C20.7908 16.0837 20.8877 16.1353 20.9627 16.1769C21.0043 16.2002 21.0157 16.2894 21.0559 16.3026C21.1437 16.3314 21.2726 16.3739 21.3279 16.3332C21.4458 16.2468 21.5276 16.1106 21.6455 15.9689C21.4728 15.9612 21.343 15.9662 21.2164 15.9475C20.9933 15.9141 20.7949 15.8309 20.7227 15.59C20.6619 15.3862 20.7483 15.1426 20.975 15.016C21.2689 14.8519 21.5797 14.7115 21.8965 14.5973C22.2909 14.4547 22.407 14.1151 22.1168 13.8079C21.9966 13.6804 21.8202 13.6063 21.667 13.5108C21.635 13.4907 21.5934 13.4875 21.5587 13.471C21.1697 13.2887 20.7026 12.4518 20.7579 12.0244C20.7735 11.9138 20.8187 11.8077 20.848 11.7049Z" fill="black"/>
<path d="M22.8249 12.364C23.1398 12.3663 23.2098 12.4143 23.2098 12.6291C23.2093 12.8846 23.0841 13.0089 22.8231 13.0121C22.5525 13.0158 22.4263 12.8874 22.4323 12.6159C22.4368 12.4047 22.5036 12.3617 22.8249 12.364Z" fill="black"/>
<path d="M22.3088 12.5016C22.2672 12.47 22.2256 12.439 22.1804 12.4042C22.323 12.252 22.4866 12.1227 22.5885 11.9558C22.6868 11.7949 22.722 11.5952 22.8143 11.3941C22.8719 11.8146 23.1206 12.1108 23.4021 12.4358C23.3564 12.4285 23.2961 12.4376 23.2668 12.4115C23.0072 12.1848 22.5095 12.2241 22.3088 12.5016Z" fill="black"/>
<path d="M20.8347 13.5647C20.2382 13.5387 19.8602 13.2215 19.9013 12.7717C20.1765 13.0848 20.6331 13.157 20.8347 13.5647Z" fill="black"/>
<path d="M24.7823 13.572C25.0031 13.1643 25.4414 13.0802 25.7243 12.7799C25.7645 13.2228 25.4245 13.5094 24.7823 13.572Z" fill="black"/>
<path d="M20.4211 13.0048C19.8739 12.785 19.7035 12.3252 19.9553 11.9088C20.1029 12.2557 20.251 12.6049 20.4211 13.0048Z" fill="black"/>
<path d="M25.204 13.0112C25.3754 12.6072 25.5226 12.2598 25.6684 11.9152C25.9294 12.3009 25.7593 12.769 25.204 13.0112Z" fill="black"/>
<path d="M24.3391 13.8897C24.66 13.5848 25.1189 13.7201 25.4489 13.4591C25.4228 13.8678 24.926 14.051 24.3391 13.8897Z" fill="black"/>
<path d="M20.1633 13.4546C20.5157 13.7124 20.9673 13.5903 21.2863 13.8865C20.7282 14.0543 20.2355 13.881 20.1633 13.4546Z" fill="black"/>
<path d="M20.2369 12.2735C19.9398 11.8087 19.9874 11.4233 20.3946 11.102C20.3393 11.512 20.2913 11.8694 20.2369 12.2735Z" fill="black"/>
<path d="M25.3932 12.2721C25.3369 11.8809 25.2853 11.5243 25.2318 11.1527C25.645 11.2862 25.6756 11.8831 25.3932 12.2721Z" fill="black"/>
<path d="M21.78 14.1658C21.3938 14.3623 21.0126 14.3262 20.6981 14.0332C21.0871 14.0758 21.4495 13.8774 21.78 14.1658Z" fill="black"/>
<path d="M24.8781 14.0515C24.618 14.3258 24.2405 14.3628 23.8538 14.169C24.1706 13.8678 24.539 14.0872 24.8781 14.0515Z" fill="black"/>
<path d="M23.4258 14.2357C23.7421 14.2887 24.0196 14.3349 24.3094 14.3834C24.0772 14.6421 23.6087 14.5826 23.4258 14.2357Z" fill="black"/>
<path d="M22.1608 14.2417C21.9725 14.5922 21.5492 14.6375 21.3152 14.3852C21.6063 14.3354 21.8838 14.2883 22.1608 14.2417Z" fill="black"/>
<path d="M22.7016 16.3058C22.7258 16.8008 22.6806 17.0216 22.5129 17.2268C22.3858 17.0943 22.4854 16.6079 22.7016 16.3058Z" fill="black"/>
<path d="M23.1494 17.262C22.9456 17.028 22.8944 16.7702 22.9337 16.2811C23.0351 16.527 23.1426 16.7583 23.2216 16.9987C23.2436 17.0646 23.1805 17.1578 23.1494 17.262Z" fill="black"/>
<path d="M20.7717 12.8691C20.4084 12.816 20.2978 12.6629 20.3613 12.2982C20.498 12.4888 20.6351 12.6789 20.7717 12.8691Z" fill="black"/>
<path d="M25.2855 12.2548C25.3449 12.6328 25.2466 12.7827 24.8604 12.8782C24.992 12.6849 25.1241 12.4915 25.2855 12.2548Z" fill="black"/>
<path d="M24.7408 13.4166C24.632 13.6817 24.4775 13.7389 24.1544 13.6337C24.3829 13.391 24.4135 13.3796 24.7408 13.4166Z" fill="black"/>
<path d="M21.4926 13.6255C21.164 13.738 21.0342 13.6955 20.8797 13.44C21.1389 13.3563 21.1453 13.3582 21.4926 13.6255Z" fill="black"/>
<path d="M21.983 13.8623C21.7001 14.0177 21.5621 14.0022 21.3491 13.8065C21.6896 13.6516 21.5945 13.6667 21.983 13.8623Z" fill="black"/>
<path d="M23.6572 13.7928C23.8611 13.7681 24.0649 13.7439 24.2688 13.7192C24.1047 13.9994 23.9406 14.0232 23.6659 13.876C23.6627 13.8481 23.66 13.8202 23.6572 13.7928Z" fill="black"/>
<path d="M21.0578 13.2352C20.7136 13.322 20.5509 13.2187 20.4924 12.8919C20.7035 13.0199 20.8809 13.1273 21.0578 13.2352Z" fill="black"/>
<path d="M25.1036 12.9102C25.046 13.2366 24.9089 13.3179 24.5693 13.2366C24.7475 13.1278 24.9253 13.019 25.1036 12.9102Z" fill="black"/>
<path d="M25.1625 11.7122C25.3248 12.0212 25.3037 12.1469 25.0396 12.3604C25.077 12.162 25.1145 11.9636 25.1625 11.7122Z" fill="black"/>
<path d="M20.6007 12.3576C20.3283 12.1634 20.3041 12.0358 20.4554 11.7072C20.5121 11.96 20.5564 12.1588 20.6007 12.3576Z" fill="black"/>
<path d="M22.1772 14.2119C22.0259 14.1644 21.9253 14.1329 21.7768 14.0863C21.9135 14.0154 21.9994 13.9715 22.0963 13.9212C22.1187 14.0017 22.1383 14.0716 22.1772 14.2119Z" fill="black"/>
<path d="M23.4653 14.206C23.4886 14.0872 23.5028 14.0159 23.521 13.9226C23.623 13.9715 23.713 14.0149 23.8579 14.0844C23.7025 14.1324 23.601 14.164 23.4653 14.206Z" fill="black"/>
<path d="M38.6095 51.1362C32.7544 51.1362 28.0081 43.4798 28.0081 43.4798C28.0081 43.4798 32.7544 35.8233 38.6095 35.8233C44.4646 35.8233 49.2109 43.4798 49.2109 43.4798C49.2109 43.4798 44.4642 51.1362 38.6095 51.1362Z" fill="white"/>
<path d="M38.6092 52.491C32.0753 52.491 27.0667 44.5329 26.8565 44.1942L26.414 43.4802L26.8565 42.7663C27.0667 42.4276 32.0753 34.4695 38.6092 34.4695C45.1431 34.4695 50.1517 42.4276 50.3615 42.7663L50.8039 43.4802L50.3615 44.1942C50.1517 44.5324 45.1431 52.491 38.6092 52.491ZM29.6455 43.4802C30.9239 45.2656 34.5586 49.7824 38.6092 49.7824C42.6598 49.7824 46.2935 45.2665 47.5724 43.4802C46.294 41.6949 42.6598 37.1781 38.6092 37.1781C34.5591 37.1781 30.9249 41.6935 29.6455 43.4802Z" fill="black"/>
<path d="M38.6092 46.7259C40.3997 46.7259 41.8512 45.2728 41.8512 43.4802C41.8512 41.6877 40.3997 40.2345 38.6092 40.2345C36.8187 40.2345 35.3672 41.6877 35.3672 43.4802C35.3672 45.2728 36.8187 46.7259 38.6092 46.7259Z" fill="#FB3544"/>
<path d="M38.6092 48.0802C36.0747 48.0802 34.0129 46.0165 34.0129 43.4802C34.0129 40.9439 36.0747 38.8802 38.6092 38.8802C41.1437 38.8802 43.2055 40.9439 43.2055 43.4802C43.2055 46.0165 41.1437 48.0802 38.6092 48.0802ZM38.6092 41.5884C37.5685 41.5884 36.7215 42.4367 36.7215 43.4802C36.7215 44.5237 37.5685 45.3721 38.6092 45.3721C39.65 45.3721 40.4969 44.5237 40.4969 43.4802C40.4969 42.4367 39.6504 41.5884 38.6092 41.5884Z" fill="black"/>
<g clip-path="url(#clip0_5301_69322)">
<path d="M18.5546 28C18.6848 28 18.815 28 18.9452 28C19.3678 28.1953 19.5138 28.5304 19.4878 28.9862C19.4624 29.4311 19.4823 29.8785 19.4823 30.3489C19.5919 30.3489 19.6794 30.3489 19.7669 30.3489C20.784 30.349 21.8015 30.3328 22.8182 30.3541C23.7615 30.3739 24.4329 30.8425 24.824 31.7014C24.904 31.8769 24.9422 32.0715 24.9997 32.2573C24.9997 37.8685 24.9997 43.4797 24.9997 49.091C24.9856 49.1288 24.9669 49.1655 24.958 49.2045C24.7055 50.3124 23.8681 50.9981 22.7449 50.9984C15.9181 51.0004 9.09131 51.0006 2.26447 50.9984C0.952772 50.998 0.00192088 50.0432 0.00138273 48.7275C-0.000867685 43.3615 -0.000671996 37.9956 0.00128489 32.6297C0.00177411 31.2991 0.95057 30.353 2.27993 30.3494C3.13431 30.347 3.98868 30.3489 4.84306 30.3489C5.06057 30.3489 5.27808 30.3489 5.51794 30.3489C5.51794 29.8784 5.538 29.4309 5.51236 28.9861C5.486 28.5299 5.63203 28.1951 6.05496 28C6.18514 28 6.31537 28 6.44555 28C6.8677 28.1952 7.02367 28.53 6.98649 28.9853C6.96535 29.2444 6.98267 29.5066 6.98267 29.7674C6.98267 29.9587 6.98267 30.1501 6.98267 30.336C8.59661 30.336 10.1712 30.336 11.7677 30.336C11.7677 29.8773 11.7877 29.4299 11.7621 28.9852C11.7359 28.5293 11.8823 28.195 12.3048 28C12.4349 28 12.5652 28 12.6954 28C13.1175 28.1953 13.2735 28.53 13.2363 28.9854C13.2152 29.2444 13.2325 29.5066 13.2325 29.7674C13.2325 29.9588 13.2325 30.1502 13.2325 30.3361C14.8464 30.3361 16.421 30.3361 18.0175 30.3361C18.0175 29.8773 18.0375 29.43 18.0119 28.9853C17.9858 28.5293 18.1321 28.1949 18.5546 28ZM23.5349 37.3147C16.1616 37.3147 8.82019 37.3147 1.46523 37.3147C1.46523 37.4205 1.46523 37.5093 1.46523 37.598C1.46523 41.2753 1.46518 44.9527 1.46528 48.63C1.46528 49.2659 1.73235 49.5313 2.37181 49.5314C9.12443 49.5315 15.877 49.5315 22.6296 49.5314C23.2675 49.5314 23.5348 49.2648 23.5349 48.6285C23.535 44.9512 23.5349 41.2738 23.5349 37.5965C23.5349 37.5079 23.5349 37.4192 23.5349 37.3147ZM6.98267 31.8289C6.98267 31.9338 6.98272 32.0219 6.98267 32.11C6.98233 32.5584 6.99128 33.0071 6.97876 33.4552C6.96755 33.8566 6.6408 34.164 6.25187 34.1649C5.86319 34.1659 5.54177 33.858 5.52 33.4586C5.5129 33.3285 5.51794 33.1978 5.51794 33.0674C5.5178 32.655 5.51789 32.2426 5.51789 31.817C4.41974 31.817 3.35504 31.816 2.29035 31.8174C1.75578 31.818 1.46626 32.1116 1.46562 32.6528C1.4645 33.6312 1.46528 34.6096 1.46528 35.588C1.46528 35.6654 1.46528 35.7427 1.46528 35.8099C8.84426 35.8099 16.1855 35.8099 23.5349 35.8099C23.5349 34.7387 23.5362 33.6871 23.5344 32.6355C23.5335 32.1132 23.2382 31.8182 22.7168 31.8174C21.708 31.8159 20.6993 31.8168 19.6904 31.8174C19.6278 31.8174 19.5651 31.8231 19.4823 31.8272C19.4823 31.931 19.4824 32.0188 19.4823 32.1065C19.482 32.555 19.4901 33.0036 19.4787 33.4518C19.469 33.8345 19.1734 34.1346 18.8038 34.1637C18.4478 34.1917 18.114 33.9445 18.0367 33.5826C18.0132 33.4727 18.0187 33.3558 18.0182 33.2421C18.0164 32.7723 18.0175 32.3026 18.0175 31.8352C16.4055 31.8352 14.8245 31.8352 13.2325 31.8352C13.2325 32.3419 13.2333 32.8305 13.2323 33.319C13.2313 33.8328 12.9346 34.1704 12.4912 34.1649C12.057 34.1595 11.7689 33.8264 11.7679 33.3259C11.7669 32.8308 11.7676 32.3357 11.7676 31.8289C10.169 31.8289 8.59378 31.8289 6.98267 31.8289Z" fill="black"/>
<path d="M23.5352 37.3147C23.5352 37.4192 23.5352 37.5079 23.5352 37.5965C23.5352 41.2738 23.5352 44.9511 23.5351 48.6284C23.5351 49.2647 23.2678 49.5313 22.6299 49.5313C15.8772 49.5314 9.12467 49.5314 2.37204 49.5313C1.73258 49.5313 1.46556 49.2658 1.46552 48.6299C1.46542 44.9526 1.46547 41.2753 1.46547 37.598C1.46547 37.5092 1.46547 37.4205 1.46547 37.3147C8.82042 37.3147 16.1619 37.3147 23.5352 37.3147ZM4.66346 40.8192C4.81751 40.8192 4.97221 40.8283 5.12553 40.8175C5.50971 40.7903 5.80652 40.4715 5.8101 40.0931C5.81372 39.7057 5.50883 39.3744 5.11374 39.3567C4.83053 39.3439 4.5458 39.344 4.26254 39.3567C3.86735 39.3743 3.56261 39.7052 3.56594 40.0928C3.56922 40.4708 3.86647 40.7898 4.25007 40.8177C4.38715 40.8276 4.5256 40.8192 4.66346 40.8192ZM8.59631 40.8199C8.73417 40.8199 8.87233 40.8261 9.0098 40.8187C9.40798 40.7974 9.71394 40.4793 9.71619 40.0906C9.71844 39.7027 9.41346 39.3737 9.01743 39.3565C8.73417 39.3442 8.44945 39.3438 8.16624 39.3567C7.78132 39.3743 7.4802 39.693 7.47203 40.0707C7.46366 40.4581 7.76503 40.7902 8.15856 40.8176C8.3038 40.8278 8.45038 40.8193 8.59631 40.8199ZM12.4991 39.3538C12.3612 39.3538 12.2231 39.3479 12.0856 39.3549C11.688 39.3753 11.3807 39.6937 11.3782 40.0818C11.3757 40.4698 11.6798 40.7992 12.0758 40.8171C12.359 40.8299 12.6437 40.8302 12.9269 40.817C13.3221 40.7986 13.6261 40.467 13.6223 40.0795C13.6185 39.6908 13.3113 39.3745 12.9126 39.3548C12.775 39.348 12.6369 39.3537 12.4991 39.3538ZM16.4038 39.3538C16.2659 39.3538 16.1278 39.3478 15.9903 39.355C15.5929 39.3758 15.2861 39.695 15.2844 40.0832C15.2826 40.4714 15.587 40.7997 15.9834 40.8172C16.2666 40.8298 16.5514 40.8304 16.8346 40.8169C17.2295 40.798 17.5331 40.4654 17.5285 40.0781C17.5239 39.6897 17.216 39.374 16.8173 39.3547C16.6797 39.3481 16.5416 39.3537 16.4038 39.3538ZM20.3141 40.8199C20.452 40.8199 20.5902 40.826 20.7276 40.8187C21.126 40.7976 21.432 40.4799 21.4346 40.0912C21.4372 39.7034 21.1323 39.3739 20.7364 39.3565C20.4532 39.344 20.1685 39.3439 19.8852 39.3567C19.5002 39.374 19.1989 39.6924 19.1905 40.0701C19.1817 40.4575 19.4829 40.7899 19.8764 40.8176C20.0216 40.8279 20.1682 40.8193 20.3141 40.8199ZM4.67163 43.9513C4.67163 43.9511 4.67163 43.9508 4.67163 43.9505C4.82568 43.9505 4.98052 43.9606 5.13365 43.9486C5.51666 43.9185 5.81093 43.5947 5.81005 43.2167C5.80917 42.8387 5.51304 42.5107 5.12974 42.4897C4.8387 42.4738 4.54556 42.4749 4.25432 42.489C3.87009 42.5076 3.57103 42.8304 3.56589 43.2083C3.56061 43.5959 3.86373 43.9241 4.25819 43.9498C4.39546 43.9588 4.53377 43.9513 4.67163 43.9513ZM8.60947 42.4859C8.46354 42.4859 8.31716 42.479 8.17167 42.4872C7.77569 42.5097 7.47037 42.8334 7.47203 43.2214C7.47364 43.5995 7.76957 43.9266 8.15312 43.9477C8.44416 43.9637 8.73735 43.9628 9.02854 43.9482C9.41336 43.9289 9.71105 43.6064 9.71619 43.2279C9.72147 42.8409 9.41698 42.5124 9.02291 42.4874C8.88564 42.4788 8.74733 42.4861 8.60947 42.4859ZM12.5098 42.4853C12.372 42.4853 12.2339 42.4803 12.0963 42.4863C11.6873 42.5039 11.3733 42.8301 11.3782 43.2272C11.383 43.6155 11.6904 43.9348 12.0893 43.9499C12.3646 43.9602 12.641 43.9609 12.9162 43.9496C13.3145 43.9333 13.6203 43.6108 13.6224 43.2222C13.6245 42.8235 13.3111 42.5027 12.8991 42.486C12.7695 42.4807 12.6396 42.4852 12.5098 42.4853ZM16.416 42.4853C16.2781 42.4853 16.1401 42.4803 16.0025 42.4863C15.5934 42.5039 15.2795 42.8301 15.2843 43.2272C15.2891 43.6155 15.5965 43.9348 15.9954 43.9499C16.2707 43.9602 16.5471 43.9609 16.8223 43.9496C17.2206 43.9333 17.5264 43.6108 17.5285 43.2222C17.5306 42.8235 17.2172 42.5026 16.8052 42.486C16.6757 42.4807 16.5457 42.4852 16.416 42.4853ZM20.3112 43.9519C20.449 43.9519 20.5872 43.9577 20.7246 43.9507C21.1238 43.9305 21.4303 43.6149 21.4346 43.226C21.439 42.8275 21.1262 42.5006 20.7152 42.487C20.4478 42.4781 20.1798 42.4783 19.9125 42.4868C19.502 42.4999 19.1877 42.8258 19.1905 43.2233C19.1932 43.6214 19.5082 43.9367 19.9219 43.9517C20.0515 43.9564 20.1814 43.9524 20.3112 43.9519ZM4.68552 47.0837C4.82338 47.0837 4.96149 47.0895 5.09901 47.0827C5.49846 47.0627 5.8052 46.748 5.81005 46.359C5.81504 45.9605 5.50242 45.6328 5.09167 45.6189C4.82436 45.6099 4.55632 45.6103 4.28901 45.6186C3.87811 45.6314 3.56374 45.9565 3.56589 46.3541C3.56804 46.7522 3.88295 47.0683 4.2963 47.0835C4.42589 47.0883 4.55578 47.0842 4.68552 47.0837ZM8.61578 47.083C8.75364 47.083 8.89204 47.091 9.02922 47.0814C9.4137 47.0544 9.71139 46.7376 9.71624 46.3592C9.72118 45.9721 9.41678 45.6389 9.02232 45.6205C8.73911 45.6073 8.45444 45.6079 8.17113 45.6201C7.77515 45.6372 7.47007 45.9659 7.47208 46.3538C7.47408 46.7424 7.78004 47.0612 8.17803 47.0823C8.32352 47.0901 8.4698 47.0836 8.61578 47.083ZM12.5002 47.0829C12.6461 47.0829 12.7928 47.0916 12.938 47.0812C13.322 47.0536 13.6189 46.7349 13.6223 46.3565C13.6258 45.9691 13.3211 45.6381 12.9258 45.6203C12.6425 45.6076 12.3578 45.6078 12.0746 45.6203C11.6891 45.6372 11.3875 45.9544 11.3782 46.3322C11.3686 46.7194 11.6693 47.0529 12.0625 47.0812C12.2077 47.0917 12.3543 47.0829 12.5002 47.0829ZM16.392 47.0833C16.5379 47.0833 16.6843 47.0906 16.8298 47.082C17.2259 47.0586 17.5304 46.7347 17.5285 46.3466C17.5266 45.9582 17.22 45.6354 16.8221 45.6196C16.5468 45.6087 16.2705 45.6092 15.9952 45.6193C15.5972 45.6339 15.2887 45.9543 15.2844 46.342C15.28 46.7396 15.5931 47.0646 16.0028 47.083C16.1322 47.0889 16.2622 47.084 16.392 47.0833ZM20.31 45.6175C20.1722 45.6175 20.034 45.6115 19.8965 45.6186C19.4991 45.6394 19.1923 45.9586 19.1905 46.3468C19.1887 46.735 19.493 47.0633 19.8894 47.0808C20.1727 47.0934 20.4574 47.094 20.7406 47.0806C21.1355 47.0617 21.4392 46.7292 21.4347 46.3418C21.4301 45.9534 21.1222 45.6377 20.7236 45.6184C20.586 45.6118 20.4478 45.6174 20.31 45.6175Z" fill="white"/>
<path d="M6.9829 31.8289C8.594 31.8289 10.1692 31.8289 11.7679 31.8289C11.7679 32.3357 11.7671 32.8308 11.7682 33.3259C11.7692 33.8263 12.0573 34.1595 12.4915 34.1649C12.9348 34.1704 13.2315 33.8327 13.2326 33.319C13.2335 32.8305 13.2328 32.3419 13.2328 31.8352C14.8248 31.8352 16.4057 31.8352 18.0178 31.8352C18.0178 32.3026 18.0168 32.7723 18.0185 33.2421C18.019 33.3558 18.0135 33.4727 18.037 33.5826C18.1143 33.9445 18.448 34.1917 18.8041 34.1637C19.1737 34.1346 19.4693 33.8345 19.479 33.4518C19.4903 33.0036 19.4823 32.555 19.4826 32.1065C19.4827 32.0188 19.4826 31.931 19.4826 31.8272C19.5654 31.8231 19.6281 31.8174 19.6907 31.8174C20.6995 31.8168 21.7083 31.8159 22.7171 31.8174C23.2385 31.8182 23.5338 32.1132 23.5347 32.6355C23.5365 33.6871 23.5352 34.7386 23.5352 35.8099C16.1857 35.8099 8.84448 35.8099 1.46556 35.8099C1.46556 35.7427 1.46556 35.6654 1.46556 35.588C1.46556 34.6096 1.46473 33.6312 1.4659 32.6528C1.46654 32.1116 1.75606 31.818 2.29063 31.8174C3.35532 31.8161 4.42001 31.817 5.51817 31.817C5.51817 32.2426 5.51807 32.655 5.51822 33.0674C5.51827 33.1978 5.51323 33.3286 5.52027 33.4586C5.54204 33.858 5.86346 34.1659 6.25215 34.1649C6.64108 34.1639 6.96783 33.8566 6.97903 33.4552C6.99156 33.0071 6.98261 32.5584 6.98295 32.11C6.98295 32.0219 6.9829 31.9338 6.9829 31.8289Z" fill="white"/>
<path d="M4.66345 40.8192C4.52559 40.8192 4.38714 40.8276 4.25001 40.8176C3.86641 40.7897 3.56916 40.4707 3.56588 40.0927C3.56256 39.7051 3.86729 39.3743 4.26249 39.3566C4.54575 39.3439 4.83042 39.3438 5.11368 39.3566C5.50878 39.3744 5.81366 39.7056 5.81004 40.093C5.80652 40.4714 5.50966 40.7902 5.12547 40.8174C4.9722 40.8283 4.81751 40.8192 4.66345 40.8192Z" fill="black"/>
<path d="M8.59631 40.8196C8.45038 40.8193 8.30381 40.8278 8.15856 40.8176C7.76503 40.7901 7.46367 40.4581 7.47203 40.0707C7.4802 39.693 7.78127 39.3742 8.16624 39.3567C8.44945 39.3438 8.73418 39.3441 9.01743 39.3565C9.41346 39.3737 9.71849 39.7027 9.71619 40.0906C9.71394 40.4792 9.40798 40.7974 9.0098 40.8187C8.87233 40.8261 8.73418 40.8199 8.59631 40.8196Z" fill="black"/>
<path d="M12.4991 39.3538C12.637 39.3537 12.7751 39.3481 12.9126 39.3548C13.3113 39.3745 13.6185 39.6908 13.6223 40.0795C13.6262 40.467 13.3221 40.7986 12.927 40.817C12.6438 40.8302 12.359 40.8299 12.0758 40.8171C11.6798 40.7992 11.3757 40.4698 11.3782 40.0818C11.3807 39.6937 11.6881 39.3753 12.0856 39.3549C12.2231 39.3479 12.3612 39.3538 12.4991 39.3538Z" fill="black"/>
<path d="M16.4038 39.3538C16.5417 39.3537 16.6798 39.3481 16.8173 39.3548C17.216 39.374 17.5239 39.6897 17.5285 40.0781C17.5331 40.4654 17.2295 40.7981 16.8346 40.8169C16.5514 40.8304 16.2666 40.8298 15.9834 40.8173C15.587 40.7997 15.2827 40.4714 15.2844 40.0832C15.2861 39.6951 15.5929 39.3758 15.9903 39.355C16.1278 39.3478 16.2659 39.3538 16.4038 39.3538Z" fill="black"/>
<path d="M20.3141 40.8196C20.1682 40.8192 20.0216 40.8278 19.8764 40.8176C19.4829 40.7899 19.1817 40.4575 19.1904 40.0701C19.1989 39.6924 19.5002 39.3741 19.8852 39.3567C20.1684 39.3439 20.4532 39.3441 20.7364 39.3565C21.1322 39.3739 21.4372 39.7034 21.4346 40.0912C21.432 40.4799 21.1259 40.7976 20.7276 40.8187C20.5901 40.826 20.452 40.8199 20.3141 40.8196Z" fill="black"/>
<path d="M4.67166 43.9513C4.5338 43.9513 4.3955 43.9589 4.25822 43.9499C3.86376 43.9241 3.56064 43.596 3.56592 43.2084C3.57111 42.8305 3.87012 42.5076 4.25436 42.4891C4.54559 42.475 4.83873 42.4738 5.12977 42.4897C5.51308 42.5107 5.8092 42.8388 5.81008 43.2167C5.81096 43.5948 5.51665 43.9185 5.13368 43.9486C4.98056 43.9606 4.82572 43.9506 4.67166 43.9506C4.67166 43.9508 4.67166 43.951 4.67166 43.9513Z" fill="black"/>
<path d="M8.60949 42.486C8.74736 42.4861 8.88566 42.4788 9.02293 42.4874C9.417 42.5123 9.72149 42.8409 9.71621 43.2279C9.71107 43.6064 9.41343 43.9289 9.02856 43.9482C8.73737 43.9628 8.44418 43.9637 8.15315 43.9477C7.76955 43.9266 7.47367 43.5994 7.47205 43.2214C7.47039 42.8334 7.77571 42.5096 8.17169 42.4872C8.31718 42.479 8.46356 42.4859 8.60949 42.486Z" fill="black"/>
<path d="M12.5098 42.4852C12.6396 42.4851 12.7695 42.4807 12.899 42.486C13.3111 42.5026 13.6245 42.8234 13.6223 43.2221C13.6202 43.6108 13.3145 43.9333 12.9162 43.9495C12.6409 43.9608 12.3646 43.9602 12.0893 43.9498C11.6903 43.9348 11.3829 43.6155 11.3782 43.2271C11.3733 42.83 11.6873 42.5039 12.0963 42.4862C12.2339 42.4803 12.372 42.4853 12.5098 42.4852Z" fill="black"/>
<path d="M16.416 42.4852C16.5457 42.4851 16.6756 42.4807 16.8051 42.486C17.2172 42.5026 17.5306 42.8234 17.5285 43.2221C17.5264 43.6108 17.2206 43.9333 16.8223 43.9495C16.5471 43.9608 16.2707 43.9602 15.9954 43.9498C15.5965 43.9348 15.289 43.6155 15.2843 43.2271C15.2794 42.83 15.5934 42.5039 16.0025 42.4862C16.14 42.4803 16.2781 42.4853 16.416 42.4852Z" fill="black"/>
<path d="M20.3112 43.9521C20.1814 43.9524 20.0515 43.9564 19.9219 43.9517C19.5082 43.9367 19.1932 43.6215 19.1904 43.2234C19.1877 42.8258 19.5019 42.4998 19.9125 42.4868C20.1798 42.4784 20.4478 42.4781 20.7152 42.487C21.1262 42.5006 21.439 42.8275 21.4346 43.2261C21.4303 43.615 21.1238 43.9306 20.7246 43.9508C20.5872 43.9577 20.449 43.9518 20.3112 43.9521Z" fill="black"/>
<path d="M4.6855 47.084C4.55576 47.0842 4.42587 47.0883 4.29628 47.0835C3.88293 47.0682 3.56802 46.7521 3.56587 46.3541C3.56372 45.9564 3.87809 45.6314 4.28899 45.6186C4.5563 45.6102 4.82439 45.6098 5.09165 45.6188C5.50245 45.6328 5.81502 45.9604 5.81002 46.3589C5.80518 46.7479 5.49844 47.0627 5.09899 47.0826C4.96147 47.0895 4.82336 47.0837 4.6855 47.084Z" fill="black"/>
<path d="M8.61581 47.0833C8.46987 47.0836 8.32355 47.0901 8.178 47.0824C7.78002 47.0613 7.47406 46.7425 7.47206 46.3539C7.47005 45.966 7.77513 45.6373 8.1711 45.6202C8.45436 45.608 8.73909 45.6073 9.0223 45.6206C9.41676 45.6389 9.72115 45.9722 9.71621 46.3593C9.71137 46.7377 9.41368 47.0545 9.0292 47.0815C8.89207 47.0911 8.75362 47.083 8.61581 47.0833Z" fill="black"/>
<path d="M12.5002 47.0829C12.3543 47.0829 12.2077 47.0917 12.0625 47.0812C11.6693 47.0528 11.3686 46.7194 11.3782 46.3321C11.3875 45.9543 11.6891 45.6372 12.0746 45.6202C12.3578 45.6078 12.6425 45.6075 12.9258 45.6203C13.321 45.638 13.6258 45.969 13.6223 46.3565C13.6189 46.7348 13.322 47.0535 12.9379 47.0811C12.7928 47.0916 12.6462 47.0829 12.5002 47.0829Z" fill="black"/>
<path d="M16.3919 47.0836C16.2622 47.0839 16.1322 47.0888 16.0028 47.083C15.593 47.0647 15.2799 46.7396 15.2843 46.3421C15.2887 45.9544 15.5971 45.634 15.9952 45.6194C16.2705 45.6093 16.5469 45.6087 16.8221 45.6197C17.22 45.6355 17.5266 45.9583 17.5285 46.3467C17.5304 46.7347 17.2259 47.0586 16.8297 47.082C16.6843 47.0906 16.5379 47.0833 16.3919 47.0836Z" fill="black"/>
<path d="M20.31 45.6175C20.4479 45.6174 20.586 45.6118 20.7235 45.6184C21.1222 45.6377 21.4301 45.9535 21.4346 46.3419C21.4391 46.7292 21.1354 47.0618 20.7405 47.0806C20.4574 47.0941 20.1726 47.0934 19.8893 47.0809C19.4929 47.0633 19.1886 46.735 19.1904 46.3468C19.1922 45.9586 19.4991 45.6395 19.8965 45.6187C20.034 45.6115 20.1722 45.6175 20.31 45.6175Z" fill="black"/>
</g>
<defs>
<clipPath id="clip0_5301_69322">
<rect width="25" height="23" fill="white" transform="translate(0 28)"/>
</clipPath>
</defs>
</svg>
