<svg width="56" height="53" viewBox="0 0 56 53" fill="none" xmlns="http://www.w3.org/2000/svg">
<path d="M48.3197 14.7156H21.6394V41.0079H48.3197V14.7156Z" fill="white"/>
<path d="M49.7467 42.4349H20.2124V13.2886H49.7467V42.4349ZM23.0664 39.5809H46.8927V16.1431H23.0664V39.5809Z" fill="black"/>
<path d="M43.8431 10.1897H20.1877V36.4819H43.8431V10.1897Z" fill="white"/>
<path d="M45.27 37.9089H18.7606V8.76225H45.27V37.9089ZM21.6146 35.055H42.416V11.6167H21.6146V35.055Z" fill="black"/>
<path d="M39.4015 6.02898H15.7461V32.3212H39.4015V6.02898Z" fill="white"/>
<path d="M40.8285 33.7482H14.3191V4.60155H40.8285V33.7482ZM17.1731 30.8943H37.9745V7.45597H17.1731V30.8943Z" fill="black"/>
<path d="M31.5501 3.85783V0.714081L27.9712 1.85996L24.3923 0.714081V3.85783H21.4437V8.6466H34.4982V3.85783H31.5501Z" fill="white"/>
<path d="M34.4988 9.36055H21.4438C21.0494 9.36055 20.7299 9.04105 20.7299 8.6466V3.85783C20.7299 3.46338 21.0494 3.14388 21.4438 3.14388H23.678V0.714537C23.678 0.486457 23.7868 0.272089 23.9714 0.137709C24.1556 0.0028725 24.3928 -0.035524 24.61 0.0339512L27.9713 1.10991L31.3326 0.0339512C31.5502 -0.035524 31.7869 0.0028725 31.9711 0.137709C32.1553 0.272089 32.2646 0.486457 32.2646 0.714537V3.14388H34.4988C34.8932 3.14388 35.2127 3.46338 35.2127 3.85783V8.6466C35.2127 9.04105 34.8932 9.36055 34.4988 9.36055ZM22.1582 7.93219H33.7848V4.57178H31.5506C31.1562 4.57178 30.8367 4.25229 30.8367 3.85783V1.69267L28.1893 2.54009C28.0472 2.5858 27.8954 2.5858 27.7537 2.54009L25.1068 1.69267V3.85783C25.1068 4.25229 24.7873 4.57178 24.3928 4.57178H22.1587V7.93219H22.1582Z" fill="black"/>
<path d="M35.9595 19.7736H18.9358C18.6053 19.7736 18.337 19.5053 18.337 19.1749C18.337 18.8444 18.6053 18.5761 18.9358 18.5761H35.9595C36.29 18.5761 36.5583 18.8444 36.5583 19.1749C36.5583 19.5053 36.29 19.7736 35.9595 19.7736Z" fill="black"/>
<path d="M35.9595 23.3064H18.9358C18.6053 23.3064 18.337 23.0381 18.337 22.7076C18.337 22.3771 18.6053 22.1088 18.9358 22.1088H35.9595C36.29 22.1088 36.5583 22.3771 36.5583 22.7076C36.5583 23.0381 36.29 23.3064 35.9595 23.3064Z" fill="black"/>
<path d="M35.9595 26.8395H18.9358C18.6053 26.8395 18.337 26.5712 18.337 26.2408C18.337 25.9103 18.6053 25.642 18.9358 25.642H35.9595C36.29 25.642 36.5583 25.9103 36.5583 26.2408C36.5583 26.5712 36.29 26.8395 35.9595 26.8395Z" fill="black"/>
<path d="M35.9595 29.8644H30.2553C29.9248 29.8644 29.6565 29.5961 29.6565 29.2657C29.6565 28.9352 29.9248 28.6669 30.2553 28.6669H35.9595C36.29 28.6669 36.5583 28.9352 36.5583 29.2657C36.5583 29.5961 36.29 29.8644 35.9595 29.8644Z" fill="black"/>
<path d="M25.848 11.7049C26.0248 11.7177 26.1935 11.73 26.3617 11.7419C26.3622 11.7584 26.3631 11.7753 26.3635 11.7918C26.3183 11.8023 26.2726 11.8105 26.2282 11.8233C26.0157 11.8859 25.9503 12.0089 26.0514 12.2068C26.1889 12.4751 26.3027 12.7489 26.6606 12.8403C26.8352 12.8851 26.9765 13.0108 27.1867 12.9495C27.2621 12.9276 27.3851 13.0149 27.466 13.078C27.7087 13.2672 27.9222 13.2772 28.1507 13.0752C28.2837 12.9577 28.4167 12.9107 28.5945 12.9669C28.6585 12.987 28.7476 12.9418 28.8203 12.9139C28.919 12.8759 29.01 12.8151 29.1105 12.7831C29.2792 12.7297 29.676 12.1917 29.6083 12.0377C29.5571 11.9206 29.4054 11.848 29.2911 11.7488C29.4255 11.7342 29.5946 11.7159 29.8012 11.693C29.8012 11.9554 29.8359 12.2342 29.7888 12.4988C29.7582 12.6721 29.611 12.8252 29.5123 12.9852C29.4726 13.0496 29.4314 13.1182 29.3757 13.1675C29.2404 13.2864 29.1119 13.4372 28.9515 13.4998C28.5826 13.6443 28.3779 13.8646 28.3541 14.2563C28.3436 14.4286 28.4578 14.5036 28.6114 14.5593C28.9149 14.669 29.2134 14.7929 29.5082 14.9245C29.6037 14.967 29.6938 15.0393 29.7651 15.1174C30.0316 15.4104 29.9392 15.7861 29.5626 15.905C29.3917 15.9589 29.2033 15.958 28.9931 15.9859C29.058 16.0668 29.1174 16.1426 29.1787 16.2167C29.3807 16.4617 29.4218 16.4539 29.6293 16.2149C29.6887 16.1463 29.8071 16.107 29.9013 16.102C29.9379 16.1001 29.9813 16.2299 30.022 16.2994C29.9941 16.2889 29.9657 16.2788 29.9379 16.2683C29.8483 16.3241 29.7294 16.3597 29.675 16.4397C29.5425 16.634 29.4017 16.7839 29.1503 16.8136C29.0671 16.8237 28.9931 16.9128 28.8779 16.9905C28.8587 16.9503 28.7865 16.8694 28.8002 16.8072C28.8112 16.7556 28.9227 16.7245 28.9903 16.6866C29.0347 16.6619 29.1169 16.6436 29.1188 16.6175C29.1224 16.5663 29.0955 16.4987 29.0575 16.4617C28.8934 16.2994 28.7211 16.1454 28.5109 15.9507C28.5968 16.2336 28.7901 16.4434 28.696 16.7295C28.3724 16.6029 28.3006 16.2802 28.1214 16.0535C28.0995 16.0672 28.078 16.0814 28.0561 16.0951C28.1717 16.2766 28.2768 16.4658 28.4057 16.6372C28.5355 16.81 28.5493 16.8324 28.4254 17.1025C28.3294 16.9398 28.238 16.8132 28.1763 16.6738C28.1178 16.5408 28.0958 16.3922 28.0465 16.2542C28.0273 16.2002 27.9784 16.1573 27.9432 16.1093C27.9094 16.1678 27.8454 16.2267 27.8463 16.2843C27.8513 16.5302 27.8792 16.7757 27.8906 17.0216C27.8943 17.097 27.8723 17.1738 27.8623 17.2497C27.8307 17.251 27.7987 17.2524 27.7672 17.2538C27.7576 17.1711 27.7366 17.0879 27.7407 17.0056C27.753 16.7601 27.7827 16.5152 27.7882 16.2697C27.7896 16.208 27.7261 16.1449 27.6648 16.0311C27.4907 16.4187 27.5085 16.8182 27.1835 17.0696C27.0811 16.9073 27.0866 16.7894 27.2087 16.6468C27.3481 16.4841 27.4491 16.2884 27.567 16.107C27.5506 16.096 27.5341 16.0851 27.5176 16.0741C27.344 16.3017 27.1703 16.5289 26.997 16.7565C26.9719 16.7414 26.9468 16.7263 26.9216 16.7108C26.8439 16.4425 27.0222 16.2263 27.1342 15.9292C26.9088 16.1381 26.7324 16.2958 26.5637 16.4617C26.5258 16.4987 26.4984 16.5659 26.5016 16.6171C26.5034 16.6431 26.5861 16.661 26.6286 16.6875C26.6995 16.7314 26.7946 16.7665 26.8261 16.831C26.8448 16.8689 26.7598 16.9576 26.7406 16.991C26.6296 16.9151 26.5564 16.826 26.4732 16.8155C26.2241 16.7839 26.0788 16.6381 25.9467 16.4429C25.8923 16.3629 25.7744 16.3264 25.6852 16.2702C25.6569 16.2807 25.6286 16.2916 25.6002 16.3022C25.6391 16.2318 25.6665 16.1157 25.72 16.102C25.7908 16.0837 25.8877 16.1353 25.9627 16.1769C26.0043 16.2002 26.0157 16.2894 26.0559 16.3026C26.1437 16.3314 26.2726 16.3739 26.3279 16.3332C26.4458 16.2468 26.5276 16.1106 26.6455 15.9689C26.4728 15.9612 26.343 15.9662 26.2164 15.9475C25.9933 15.9141 25.7949 15.8309 25.7227 15.59C25.6619 15.3862 25.7483 15.1426 25.975 15.016C26.2689 14.8519 26.5797 14.7115 26.8965 14.5973C27.2909 14.4547 27.407 14.1151 27.1168 13.8079C26.9966 13.6804 26.8202 13.6063 26.667 13.5108C26.635 13.4907 26.5934 13.4875 26.5587 13.471C26.1697 13.2887 25.7026 12.4518 25.7579 12.0244C25.7735 11.9138 25.8187 11.8077 25.848 11.7049Z" fill="black"/>
<path d="M27.825 12.364C28.1399 12.3663 28.2098 12.4143 28.2098 12.6291C28.2094 12.8846 28.0841 13.0089 27.8231 13.0121C27.5525 13.0158 27.4264 12.8874 27.4323 12.6159C27.4369 12.4047 27.5036 12.3617 27.825 12.364Z" fill="black"/>
<path d="M27.3089 12.5016C27.2673 12.47 27.2257 12.439 27.1804 12.4042C27.323 12.252 27.4867 12.1227 27.5886 11.9558C27.6869 11.7949 27.7221 11.5952 27.8144 11.3941C27.872 11.8146 28.1206 12.1108 28.4022 12.4358C28.3565 12.4285 28.2961 12.4376 28.2669 12.4115C28.0073 12.1848 27.5095 12.2241 27.3089 12.5016Z" fill="black"/>
<path d="M25.8347 13.5647C25.2382 13.5387 24.8602 13.2215 24.9014 12.7717C25.1765 13.0848 25.6331 13.157 25.8347 13.5647Z" fill="black"/>
<path d="M29.7823 13.572C30.0031 13.1643 30.4415 13.0802 30.7244 12.7799C30.7646 13.2228 30.4245 13.5094 29.7823 13.572Z" fill="black"/>
<path d="M25.4212 13.0048C24.8741 12.785 24.7036 12.3252 24.9554 11.9088C25.1031 12.2557 25.2512 12.6049 25.4212 13.0048Z" fill="black"/>
<path d="M30.2041 13.0112C30.3755 12.6072 30.5227 12.2598 30.6685 11.9152C30.9295 12.3009 30.7594 12.769 30.2041 13.0112Z" fill="black"/>
<path d="M29.3391 13.8897C29.66 13.5848 30.1189 13.7201 30.4489 13.4591C30.4228 13.8678 29.926 14.051 29.3391 13.8897Z" fill="black"/>
<path d="M25.1633 13.4546C25.5157 13.7124 25.9673 13.5903 26.2864 13.8865C25.7283 14.0543 25.2355 13.881 25.1633 13.4546Z" fill="black"/>
<path d="M25.2369 12.2735C24.9398 11.8087 24.9874 11.4233 25.3946 11.102C25.3393 11.512 25.2913 11.8694 25.2369 12.2735Z" fill="black"/>
<path d="M30.3932 12.2721C30.3369 11.8809 30.2853 11.5243 30.2318 11.1527C30.645 11.2862 30.6756 11.8831 30.3932 12.2721Z" fill="black"/>
<path d="M26.7801 14.1658C26.3939 14.3623 26.0127 14.3262 25.6982 14.0332C26.0872 14.0758 26.4497 13.8774 26.7801 14.1658Z" fill="black"/>
<path d="M29.8782 14.0515C29.6181 14.3258 29.2406 14.3628 28.8539 14.169C29.1706 13.8678 29.539 14.0872 29.8782 14.0515Z" fill="black"/>
<path d="M28.4259 14.2357C28.7422 14.2887 29.0196 14.3349 29.3094 14.3834C29.0772 14.6421 28.6087 14.5826 28.4259 14.2357Z" fill="black"/>
<path d="M27.1609 14.2417C26.9726 14.5922 26.5493 14.6375 26.3153 14.3852C26.6065 14.3354 26.8839 14.2883 27.1609 14.2417Z" fill="black"/>
<path d="M27.7017 16.3058C27.7259 16.8008 27.6807 17.0216 27.5129 17.2268C27.3858 17.0943 27.4855 16.6079 27.7017 16.3058Z" fill="black"/>
<path d="M28.1495 17.262C27.9456 17.028 27.8944 16.7702 27.9337 16.2811C28.0352 16.527 28.1426 16.7583 28.2217 16.9987C28.2436 17.0646 28.1806 17.1578 28.1495 17.262Z" fill="black"/>
<path d="M25.7719 12.8691C25.4085 12.816 25.2979 12.6629 25.3614 12.2982C25.4981 12.4888 25.6352 12.6789 25.7719 12.8691Z" fill="black"/>
<path d="M30.2855 12.2548C30.345 12.6328 30.2467 12.7827 29.8605 12.8782C29.9921 12.6849 30.1242 12.4915 30.2855 12.2548Z" fill="black"/>
<path d="M29.7408 13.4166C29.6321 13.6817 29.4776 13.7389 29.1544 13.6337C29.383 13.391 29.4136 13.3796 29.7408 13.4166Z" fill="black"/>
<path d="M26.4927 13.6255C26.1641 13.738 26.0343 13.6955 25.8798 13.44C26.1389 13.3563 26.1453 13.3582 26.4927 13.6255Z" fill="black"/>
<path d="M26.9831 13.8623C26.7002 14.0177 26.5621 14.0022 26.3491 13.8065C26.6896 13.6516 26.5946 13.6667 26.9831 13.8623Z" fill="black"/>
<path d="M28.6573 13.7928C28.8612 13.7681 29.0651 13.7439 29.2689 13.7192C29.1048 13.9994 28.9407 14.0232 28.666 13.876C28.6628 13.8481 28.6601 13.8202 28.6573 13.7928Z" fill="black"/>
<path d="M26.0578 13.2352C25.7137 13.322 25.5509 13.2187 25.4924 12.8919C25.7036 13.0199 25.8809 13.1273 26.0578 13.2352Z" fill="black"/>
<path d="M30.1037 12.9102C30.0461 13.2366 29.9089 13.3179 29.5693 13.2366C29.7476 13.1278 29.9254 13.019 30.1037 12.9102Z" fill="black"/>
<path d="M30.1626 11.7122C30.3249 12.0212 30.3039 12.1469 30.0397 12.3604C30.0772 12.162 30.1146 11.9636 30.1626 11.7122Z" fill="black"/>
<path d="M25.6008 12.3576C25.3284 12.1634 25.3042 12.0358 25.4554 11.7072C25.5121 11.96 25.5565 12.1588 25.6008 12.3576Z" fill="black"/>
<path d="M27.1773 14.2119C27.026 14.1644 26.9254 14.1329 26.7769 14.0863C26.9135 14.0154 26.9994 13.9715 27.0963 13.9212C27.1187 14.0017 27.1384 14.0716 27.1773 14.2119Z" fill="black"/>
<path d="M28.4653 14.206C28.4886 14.0872 28.5028 14.0159 28.5211 13.9226C28.623 13.9715 28.7131 14.0149 28.858 14.0844C28.7026 14.1324 28.6011 14.164 28.4653 14.206Z" fill="black"/>
<path d="M43.6096 51.1362C37.7544 51.1362 33.0082 43.4798 33.0082 43.4798C33.0082 43.4798 37.7544 35.8233 43.6096 35.8233C49.4647 35.8233 54.2109 43.4798 54.2109 43.4798C54.2109 43.4798 49.4642 51.1362 43.6096 51.1362Z" fill="white"/>
<path d="M43.6093 52.491C37.0754 52.491 32.0668 44.5329 31.8565 44.1942L31.4141 43.4802L31.8565 42.7663C32.0668 42.4276 37.0754 34.4695 43.6093 34.4695C50.1431 34.4695 55.1517 42.4276 55.3615 42.7663L55.804 43.4802L55.3615 44.1942C55.1517 44.5324 50.1431 52.491 43.6093 52.491ZM34.6456 43.4802C35.924 45.2656 39.5587 49.7824 43.6093 49.7824C47.6598 49.7824 51.2936 45.2665 52.5725 43.4802C51.294 41.6949 47.6598 37.1781 43.6093 37.1781C39.5591 37.1781 35.9249 41.6935 34.6456 43.4802Z" fill="black"/>
<path d="M43.6092 46.7259C45.3997 46.7259 46.8512 45.2728 46.8512 43.4802C46.8512 41.6877 45.3997 40.2345 43.6092 40.2345C41.8187 40.2345 40.3672 41.6877 40.3672 43.4802C40.3672 45.2728 41.8187 46.7259 43.6092 46.7259Z" fill="#FB3544"/>
<path d="M43.6093 48.0802C41.0748 48.0802 39.0129 46.0165 39.0129 43.4802C39.0129 40.9439 41.0748 38.8802 43.6093 38.8802C46.1437 38.8802 48.2056 40.9439 48.2056 43.4802C48.2056 46.0165 46.1437 48.0802 43.6093 48.0802ZM43.6093 41.5884C42.5685 41.5884 41.7216 42.4367 41.7216 43.4802C41.7216 44.5237 42.5685 45.3721 43.6093 45.3721C44.65 45.3721 45.497 44.5237 45.497 43.4802C45.497 42.4367 44.6505 41.5884 43.6093 41.5884Z" fill="black"/>
<g clip-path="url(#clip0_5301_69235)">
<path d="M18.2153 21C18.8212 21 19.4271 21 20.033 21C20.033 22.226 20.033 23.452 20.033 24.7102C22.4823 24.7102 24.8885 24.7102 27.3039 24.7102C27.3039 24.8636 27.3039 24.9844 27.3039 25.1053C27.3039 29.5843 27.3039 34.0632 27.3039 38.5422C27.3039 39.3593 27.3075 40.1765 27.301 40.9935C27.2997 41.1599 27.3365 41.2612 27.4987 41.35C28.0098 41.6297 28.371 42.0633 28.631 42.5769C29.123 43.5486 29.2371 44.5753 29.0218 45.6362C28.8154 46.6538 28.3558 47.5116 27.421 48.053C27.3698 48.0826 27.3105 48.1541 27.3099 48.2067C27.3023 48.8586 27.3049 49.5105 27.3049 50.1836C28.5607 50.1836 29.7803 50.1836 31 50.1836C31 50.7891 31 51.3946 31 52C20.6661 52 10.3322 52 0 52C0 51.3734 0 50.785 0 50.1748C1.23028 50.1748 2.43804 50.1748 3.67263 50.1748C3.67263 49.5098 3.67822 48.8666 3.66486 48.2238C3.66334 48.1516 3.56165 48.0739 3.49439 48.0118C3.20766 47.7468 2.86264 47.5261 2.63668 47.2177C1.87751 46.1815 1.71839 44.9969 1.94362 43.7606C2.1229 42.7763 2.55308 41.9207 3.43951 41.3757C3.62297 41.2629 3.67797 41.152 3.67737 40.95C3.67093 38.8113 3.67737 36.6725 3.66759 34.5339C3.66656 34.3056 3.73941 34.1735 3.9196 34.0393C6.17709 32.3577 8.42644 30.6653 10.6836 28.9834C10.8705 28.8442 10.9559 28.7059 10.9507 28.4651C10.9338 27.6785 10.9444 26.8914 10.9444 26.1045C10.9444 25.6434 10.9444 25.1822 10.9444 24.6889C13.3811 24.6889 15.7874 24.6889 18.2153 24.6889C18.2153 23.4376 18.2153 22.2188 18.2153 21ZM12.7834 26.5245C12.7834 34.42 12.7834 42.2936 12.7834 50.1692C13.9924 50.1692 15.1799 50.1692 16.4006 50.1692C16.4006 48.3354 16.4006 46.5158 16.4006 44.6958C18.2345 44.6958 20.0351 44.6958 21.858 44.6958C21.858 46.5299 21.858 48.3423 21.858 50.1649C23.0753 50.1649 24.27 50.1649 25.4859 50.1649C25.4859 49.5125 25.4913 48.8785 25.4789 48.2448C25.4775 48.1689 25.3967 48.0658 25.3246 48.0245C24.7203 47.6784 24.3095 47.1629 24.0467 46.5351C23.5317 45.3047 23.53 44.0615 24.0396 42.8282C24.2873 42.2287 24.6648 41.7173 25.2356 41.386C25.4272 41.2748 25.4918 41.159 25.4915 40.9391C25.4845 36.2371 25.4862 31.535 25.4862 26.833C25.4862 26.735 25.4862 26.6369 25.4862 26.5245C21.2398 26.5245 17.0229 26.5245 12.7834 26.5245ZM10.9308 31.0831C10.8665 31.1212 10.8319 31.1376 10.802 31.1601C9.08223 32.4481 7.36147 33.7347 5.64794 35.0308C5.56319 35.0949 5.49817 35.2426 5.49763 35.3516C5.48858 37.2377 5.49277 39.1238 5.48803 41.01C5.48761 41.1676 5.5397 41.2484 5.67095 41.3455C5.95975 41.5593 6.25856 41.7832 6.47839 42.062C7.16107 42.9278 7.37137 43.9477 7.29366 45.0237C7.2165 46.0919 6.90239 47.1 6.00516 47.7514C5.56076 48.074 5.44511 48.3974 5.48409 48.888C5.51796 49.314 5.49113 49.7449 5.49113 50.1675C7.33179 50.1675 9.12466 50.1675 10.9309 50.1675C10.9308 43.8102 10.9308 37.4691 10.9308 31.0831ZM18.2321 46.5049C18.2321 47.7324 18.2321 48.9454 18.2321 50.1637C18.8375 50.1637 19.4258 50.1637 20.0108 50.1637C20.0108 48.9306 20.0108 47.7176 20.0108 46.5049C19.4072 46.5049 18.8261 46.5049 18.2321 46.5049ZM5.4938 44.6715C5.4802 44.1449 5.38938 43.6429 5.07994 43.2074C4.75594 42.7515 4.42646 42.751 4.09347 43.1933C3.53021 43.9414 3.53415 45.4253 4.10136 46.1647C4.42932 46.5923 4.74901 46.593 5.06944 46.1534C5.39114 45.7119 5.48093 45.1996 5.4938 44.6715ZM27.307 44.6775C27.2922 44.133 27.2001 43.6107 26.8615 43.1665C26.5527 42.7614 26.2459 42.7652 25.9295 43.1617C25.3399 43.9009 25.3384 45.4392 25.9267 46.1818C26.243 46.5811 26.5494 46.5873 26.8585 46.1845C27.1988 45.7413 27.291 45.2189 27.307 44.6775Z" fill="black"/>
<path d="M12.7834 26.5245C17.0229 26.5245 21.2398 26.5245 25.4862 26.5245C25.4862 26.6369 25.4862 26.735 25.4862 26.8331C25.4862 31.535 25.4845 36.2371 25.4916 40.9391C25.4919 41.159 25.4272 41.2748 25.2356 41.386C24.6648 41.7173 24.2873 42.2287 24.0396 42.8282C23.53 44.0615 23.5317 45.3047 24.0468 46.5351C24.3096 47.1628 24.7203 47.6784 25.3246 48.0245C25.3968 48.0658 25.4775 48.1689 25.479 48.2448C25.4913 48.8785 25.486 49.5125 25.486 50.1649C24.2701 50.1649 23.0754 50.1649 21.8581 50.1649C21.8581 48.3423 21.8581 46.5299 21.8581 44.6958C20.0352 44.6958 18.2346 44.6958 16.4007 44.6958C16.4007 46.5158 16.4007 48.3354 16.4007 50.1692C15.18 50.1692 13.9924 50.1692 12.7834 50.1692C12.7834 42.2936 12.7834 34.42 12.7834 26.5245ZM14.5918 30.1198C15.2084 30.1198 15.7966 30.1198 16.3827 30.1198C16.3827 29.5164 16.3827 28.9359 16.3827 28.3437C15.7798 28.3437 15.1918 28.3437 14.5918 28.3437C14.5918 28.9415 14.5918 29.5219 14.5918 30.1198ZM20.0153 30.1276C20.0153 29.525 20.0153 28.9374 20.0153 28.3465C19.4094 28.3465 18.8213 28.3465 18.2382 28.3465C18.2382 28.9547 18.2382 29.5424 18.2382 30.1276C18.8423 30.1276 19.4231 30.1276 20.0153 30.1276ZM23.6535 28.3439C23.0504 28.3439 22.4625 28.3439 21.8711 28.3439C21.8711 28.9493 21.8711 29.5369 21.8711 30.1196C22.4798 30.1196 23.0679 30.1196 23.6535 30.1196C23.6535 29.516 23.6535 28.9355 23.6535 28.3439ZM16.3917 31.9774C15.7778 31.9774 15.1899 31.9774 14.6009 31.9774C14.6009 32.5837 14.6009 33.1713 14.6009 33.7516C15.2104 33.7516 15.7986 33.7516 16.3917 33.7516C16.3917 33.1546 16.3917 32.5812 16.3917 31.9774ZM20.0115 33.762C20.0115 33.1499 20.0115 32.5622 20.0115 31.9831C19.4015 31.9831 18.8134 31.9831 18.2313 31.9831C18.2313 32.5879 18.2313 33.1684 18.2313 33.762C18.8282 33.762 19.4091 33.762 20.0115 33.762ZM23.6573 31.9835C23.0363 31.9835 22.4481 31.9835 21.8672 31.9835C21.8672 32.5886 21.8672 33.1691 21.8672 33.7563C22.4719 33.7563 23.0599 33.7563 23.6573 33.7563C23.6573 33.1567 23.6573 32.5763 23.6573 31.9835ZM14.5944 35.6037C14.5944 36.2177 14.5944 36.7981 14.5944 37.391C15.197 37.391 15.785 37.391 16.3776 37.391C16.3776 36.7859 16.3776 36.1983 16.3776 35.6037C15.7767 35.6037 15.1959 35.6037 14.5944 35.6037ZM20.0118 37.3945C20.0118 36.7834 20.0118 36.1958 20.0118 35.6156C19.4023 35.6156 18.8141 35.6156 18.231 35.6156C18.231 36.2201 18.231 36.8006 18.231 37.3945C18.8276 37.3945 19.4085 37.3945 20.0118 37.3945ZM21.8729 35.6046C21.8729 36.2187 21.8729 36.8063 21.8729 37.3834C22.4836 37.3834 23.0717 37.3834 23.6517 37.3834C23.6517 36.7779 23.6517 36.1974 23.6517 35.6046C23.0541 35.6046 22.4732 35.6046 21.8729 35.6046ZM14.5914 41.0178C15.2093 41.0178 15.7975 41.0178 16.3823 41.0178C16.3823 40.4139 16.3823 39.8334 16.3823 39.2425C15.7789 39.2425 15.1909 39.2425 14.5914 39.2425C14.5914 39.8408 14.5914 40.4213 14.5914 41.0178ZM18.221 41.0226C18.8349 41.0226 19.4229 41.0226 20.0119 41.0226C20.0119 40.4163 20.0119 39.8286 20.0119 39.2484C19.4024 39.2484 18.8142 39.2484 18.221 39.2484C18.221 39.8454 18.221 40.4188 18.221 41.0226ZM21.8639 41.0193C22.4772 41.0193 23.0653 41.0193 23.644 41.0193C23.644 40.4096 23.644 39.8218 23.644 39.2411C23.0385 39.2411 22.4576 39.2411 21.8639 39.2411C21.8639 39.8377 21.8639 40.4182 21.8639 41.0193Z" fill="white"/>
<path d="M10.9309 31.0831C10.9309 37.4691 10.9309 43.8103 10.9309 50.1675C9.12462 50.1675 7.33174 50.1675 5.49108 50.1675C5.49108 49.745 5.51792 49.3141 5.48404 48.888C5.44507 48.3975 5.56072 48.074 6.00511 47.7514C6.90234 47.1 7.21645 46.0919 7.29362 45.0237C7.37132 43.9477 7.16103 42.9278 6.47834 42.062C6.25852 41.7833 5.9597 41.5593 5.67091 41.3456C5.53965 41.2484 5.48762 41.1677 5.48799 41.01C5.49272 39.1239 5.48853 37.2378 5.49758 35.3517C5.49813 35.2426 5.56321 35.095 5.6479 35.0309C7.36143 33.7347 9.08224 32.4481 10.8019 31.1601C10.832 31.1376 10.8666 31.1212 10.9309 31.0831ZM9.1027 37.3971C9.1027 36.7778 9.1027 36.1901 9.1027 35.6076C8.49779 35.6076 7.91686 35.6076 7.32731 35.6076C7.32731 36.2111 7.32731 36.7987 7.32731 37.3971C7.9267 37.3971 8.50757 37.3971 9.1027 37.3971ZM7.32998 39.2383C7.32998 39.8494 7.32998 40.4371 7.32998 41.0172C7.93957 41.0172 8.52772 41.0172 9.11078 41.0172C9.11078 40.4128 9.11078 39.8323 9.11078 39.2383C8.51424 39.2383 7.93331 39.2383 7.32998 39.2383Z" fill="white"/>
<path d="M18.2322 46.5049C18.8261 46.5049 19.4073 46.5049 20.0108 46.5049C20.0108 47.7176 20.0108 48.9306 20.0108 50.1637C19.4259 50.1637 18.8376 50.1637 18.2322 50.1637C18.2322 48.9454 18.2322 47.7324 18.2322 46.5049Z" fill="white"/>
<path d="M5.49382 44.6715C5.48095 45.1996 5.39116 45.7119 5.0694 46.1534C4.74898 46.5929 4.42928 46.5923 4.10132 46.1646C3.53411 45.4252 3.53023 43.9413 4.09343 43.1932C4.42643 42.751 4.75596 42.7515 5.0799 43.2074C5.3894 43.6429 5.48022 44.1449 5.49382 44.6715Z" fill="white"/>
<path d="M27.307 44.6775C27.291 45.2189 27.1987 45.7412 26.8586 46.1845C26.5494 46.5873 26.243 46.5811 25.9268 46.1818C25.3385 45.4392 25.3399 43.9009 25.9296 43.1617C26.246 42.7652 26.5527 42.7614 26.8616 43.1665C27.2001 43.6107 27.2922 44.133 27.307 44.6775Z" fill="white"/>
<path d="M14.5918 30.1198C14.5918 29.5219 14.5918 28.9415 14.5918 28.3437C15.1918 28.3437 15.7798 28.3437 16.3827 28.3437C16.3827 28.936 16.3827 29.5164 16.3827 30.1198C15.7966 30.1198 15.2084 30.1198 14.5918 30.1198Z" fill="black"/>
<path d="M20.0153 30.1276C19.4231 30.1276 18.8422 30.1276 18.2382 30.1276C18.2382 29.5424 18.2382 28.9547 18.2382 28.3465C18.8213 28.3465 19.4093 28.3465 20.0153 28.3465C20.0153 28.9374 20.0153 29.525 20.0153 30.1276Z" fill="black"/>
<path d="M23.6535 28.3439C23.6535 28.9356 23.6535 29.516 23.6535 30.1196C23.0679 30.1196 22.4798 30.1196 21.8711 30.1196C21.8711 29.5369 21.8711 28.9493 21.8711 28.3439C22.4624 28.3439 23.0504 28.3439 23.6535 28.3439Z" fill="black"/>
<path d="M16.3917 31.9774C16.3917 32.5812 16.3917 33.1546 16.3917 33.7516C15.7986 33.7516 15.2104 33.7516 14.6008 33.7516C14.6008 33.1713 14.6008 32.5837 14.6008 31.9774C15.1898 31.9774 15.7778 31.9774 16.3917 31.9774Z" fill="black"/>
<path d="M20.0115 33.762C19.4091 33.762 18.8282 33.762 18.2313 33.762C18.2313 33.1684 18.2313 32.5878 18.2313 31.9831C18.8133 31.9831 19.4015 31.9831 20.0115 31.9831C20.0115 32.5622 20.0115 33.1499 20.0115 33.762Z" fill="black"/>
<path d="M23.6573 31.9835C23.6573 32.5763 23.6573 33.1568 23.6573 33.7563C23.0599 33.7563 22.4719 33.7563 21.8672 33.7563C21.8672 33.1691 21.8672 32.5886 21.8672 31.9835C22.4481 31.9835 23.0363 31.9835 23.6573 31.9835Z" fill="black"/>
<path d="M14.5944 35.6037C15.1959 35.6037 15.7768 35.6037 16.3776 35.6037C16.3776 36.1983 16.3776 36.7859 16.3776 37.391C15.785 37.391 15.197 37.391 14.5944 37.391C14.5944 36.7981 14.5944 36.2176 14.5944 35.6037Z" fill="black"/>
<path d="M20.0119 37.3945C19.4085 37.3945 18.8276 37.3945 18.2311 37.3945C18.2311 36.8006 18.2311 36.2201 18.2311 35.6156C18.8141 35.6156 19.4023 35.6156 20.0119 35.6156C20.0119 36.1957 20.0119 36.7834 20.0119 37.3945Z" fill="black"/>
<path d="M21.8729 35.6046C22.4733 35.6046 23.0542 35.6046 23.6517 35.6046C23.6517 36.1974 23.6517 36.7779 23.6517 37.3834C23.0718 37.3834 22.4836 37.3834 21.8729 37.3834C21.8729 36.8063 21.8729 36.2187 21.8729 35.6046Z" fill="black"/>
<path d="M14.5914 41.0178C14.5914 40.4213 14.5914 39.8408 14.5914 39.2425C15.1909 39.2425 15.7789 39.2425 16.3823 39.2425C16.3823 39.8335 16.3823 40.4139 16.3823 41.0178C15.7976 41.0178 15.2094 41.0178 14.5914 41.0178Z" fill="black"/>
<path d="M18.2211 41.0226C18.2211 40.4188 18.2211 39.8454 18.2211 39.2484C18.8142 39.2484 19.4024 39.2484 20.0119 39.2484C20.0119 39.8286 20.0119 40.4163 20.0119 41.0226C19.4229 41.0226 18.835 41.0226 18.2211 41.0226Z" fill="black"/>
<path d="M21.8639 41.0193C21.8639 40.4182 21.8639 39.8378 21.8639 39.2411C22.4576 39.2411 23.0386 39.2411 23.6441 39.2411C23.6441 39.8218 23.6441 40.4096 23.6441 41.0193C23.0653 41.0193 22.4772 41.0193 21.8639 41.0193Z" fill="black"/>
<path d="M9.10266 37.3971C8.50753 37.3971 7.92666 37.3971 7.32727 37.3971C7.32727 36.7987 7.32727 36.2111 7.32727 35.6076C7.91676 35.6076 8.49769 35.6076 9.10266 35.6076C9.10266 36.1901 9.10266 36.7778 9.10266 37.3971Z" fill="black"/>
<path d="M7.32996 39.2383C7.93329 39.2383 8.51422 39.2383 9.11075 39.2383C9.11075 39.8323 9.11075 40.4128 9.11075 41.0172C8.52776 41.0172 7.93954 41.0172 7.32996 41.0172C7.32996 40.4371 7.32996 39.8494 7.32996 39.2383Z" fill="black"/>
</g>
<defs>
<clipPath id="clip0_5301_69235">
<rect width="31" height="31" fill="white" transform="translate(0 21)"/>
</clipPath>
</defs>
</svg>
