<svg width="54" height="53" viewBox="0 0 54 53" fill="none" xmlns="http://www.w3.org/2000/svg">
<path d="M46.3197 15.0105H19.6393V41.3028H46.3197V15.0105Z" fill="white"/>
<path d="M47.7466 42.7298H18.2123V13.5835H47.7466V42.7298ZM21.0663 39.8758H44.8927V16.438H21.0663V39.8758Z" fill="black"/>
<path d="M41.8431 10.4846H18.1877V36.7769H41.8431V10.4846Z" fill="white"/>
<path d="M43.2699 38.2039H16.7606V9.05718H43.2699V38.2039ZM19.6145 35.3499H40.416V11.9116H19.6145V35.3499Z" fill="black"/>
<path d="M37.4014 6.3239H13.746V32.6162H37.4014V6.3239Z" fill="white"/>
<path d="M38.8284 34.0432H12.319V4.89646H38.8284V34.0432ZM15.173 31.1892H35.9744V7.75089H15.173V31.1892Z" fill="black"/>
<path d="M29.5499 4.15276V1.009L25.971 2.15489L22.3921 1.009V4.15276H19.4435V8.94152H32.498V4.15276H29.5499Z" fill="white"/>
<path d="M32.4986 9.65547H19.4437C19.0492 9.65547 18.7297 9.33598 18.7297 8.94152V4.15276C18.7297 3.7583 19.0492 3.4388 19.4437 3.4388H21.6779V1.00946C21.6779 0.781379 21.7866 0.567011 21.9713 0.432631C22.1555 0.297794 22.3927 0.259398 22.6098 0.328873L25.9712 1.40483L29.3325 0.328873C29.55 0.259398 29.7868 0.297794 29.971 0.432631C30.1552 0.567011 30.2645 0.781379 30.2645 1.00946V3.4388H32.4986C32.8931 3.4388 33.2126 3.7583 33.2126 4.15276V8.94152C33.2126 9.33598 32.8931 9.65547 32.4986 9.65547ZM20.1581 8.22711H31.7847V4.8667H29.5505C29.1561 4.8667 28.8366 4.54721 28.8366 4.15276V1.9876L26.1892 2.83501C26.047 2.88072 25.8953 2.88072 25.7536 2.83501L23.1067 1.9876V4.15276C23.1067 4.54721 22.7872 4.8667 22.3927 4.8667H20.1585V8.22711H20.1581Z" fill="black"/>
<path d="M33.9595 20.0686H16.9357C16.6053 20.0686 16.337 19.8003 16.337 19.4698C16.337 19.1393 16.6053 18.871 16.9357 18.871H33.9595C34.2899 18.871 34.5582 19.1393 34.5582 19.4698C34.5582 19.8003 34.2899 20.0686 33.9595 20.0686Z" fill="black"/>
<path d="M33.9595 23.6013H16.9357C16.6053 23.6013 16.337 23.333 16.337 23.0025C16.337 22.6721 16.6053 22.4038 16.9357 22.4038H33.9595C34.2899 22.4038 34.5582 22.6721 34.5582 23.0025C34.5582 23.333 34.2899 23.6013 33.9595 23.6013Z" fill="black"/>
<path d="M33.9595 27.1345H16.9357C16.6053 27.1345 16.337 26.8662 16.337 26.5357C16.337 26.2052 16.6053 25.9369 16.9357 25.9369H33.9595C34.2899 25.9369 34.5582 26.2052 34.5582 26.5357C34.5582 26.8662 34.2899 27.1345 33.9595 27.1345Z" fill="black"/>
<path d="M33.9594 30.1594H28.2551C27.9247 30.1594 27.6564 29.8911 27.6564 29.5606C27.6564 29.2301 27.9247 28.9618 28.2551 28.9618H33.9594C34.2899 28.9618 34.5582 29.2301 34.5582 29.5606C34.5582 29.8911 34.2899 30.1594 33.9594 30.1594Z" fill="black"/>
<path d="M23.848 11.9998C24.0248 12.0126 24.1935 12.025 24.3617 12.0368C24.3622 12.0533 24.3631 12.0702 24.3635 12.0867C24.3183 12.0972 24.2726 12.1054 24.2282 12.1182C24.0157 12.1808 23.9503 12.3038 24.0514 12.5017C24.1889 12.77 24.3027 13.0438 24.6606 13.1352C24.8352 13.18 24.9765 13.3057 25.1867 13.2444C25.2621 13.2225 25.3851 13.3098 25.466 13.3729C25.7087 13.5621 25.9222 13.5722 26.1507 13.3701C26.2837 13.2527 26.4167 13.2056 26.5945 13.2618C26.6585 13.2819 26.7476 13.2367 26.8203 13.2088C26.919 13.1708 27.01 13.1101 27.1105 13.0781C27.2792 13.0246 27.676 12.4866 27.6083 12.3326C27.5571 12.2156 27.4054 12.1429 27.2911 12.0437C27.4255 12.0291 27.5946 12.0108 27.8012 11.9879C27.8012 12.2503 27.8359 12.5291 27.7888 12.7938C27.7582 12.967 27.611 13.1201 27.5123 13.2801C27.4726 13.3445 27.4314 13.4131 27.3757 13.4625C27.2404 13.5813 27.1119 13.7321 26.9515 13.7948C26.5826 13.9392 26.3779 14.1595 26.3541 14.5512C26.3436 14.7235 26.4578 14.7985 26.6114 14.8542C26.9149 14.9639 27.2134 15.0878 27.5082 15.2195C27.6037 15.262 27.6938 15.3342 27.7651 15.4123C28.0316 15.7053 27.9392 16.081 27.5626 16.1999C27.3917 16.2538 27.2033 16.2529 26.9931 16.2808C27.058 16.3617 27.1174 16.4376 27.1787 16.5116C27.3807 16.7566 27.4218 16.7488 27.6293 16.5098C27.6887 16.4412 27.8071 16.4019 27.9013 16.3969C27.9379 16.395 27.9813 16.5249 28.022 16.5943C27.9941 16.5838 27.9657 16.5738 27.9379 16.5632C27.8483 16.619 27.7294 16.6547 27.675 16.7346C27.5425 16.9289 27.4017 17.0788 27.1503 17.1085C27.0671 17.1186 26.9931 17.2077 26.8779 17.2854C26.8587 17.2452 26.7865 17.1643 26.8002 17.1021C26.8112 17.0505 26.9227 17.0194 26.9903 16.9815C27.0347 16.9568 27.1169 16.9385 27.1188 16.9125C27.1224 16.8613 27.0955 16.7936 27.0575 16.7566C26.8934 16.5943 26.7211 16.4403 26.5109 16.2456C26.5968 16.5285 26.7901 16.7383 26.696 17.0244C26.3724 16.8978 26.3006 16.5751 26.1214 16.3484C26.0995 16.3621 26.078 16.3763 26.0561 16.39C26.1717 16.5715 26.2768 16.7607 26.4057 16.9321C26.5355 17.1049 26.5493 17.1273 26.4254 17.3974C26.3294 17.2347 26.238 17.1081 26.1763 16.9687C26.1178 16.8357 26.0958 16.6871 26.0465 16.5491C26.0273 16.4951 25.9784 16.4522 25.9432 16.4042C25.9094 16.4627 25.8454 16.5217 25.8463 16.5792C25.8513 16.8252 25.8792 17.0706 25.8906 17.3165C25.8943 17.3919 25.8723 17.4687 25.8623 17.5446C25.8307 17.546 25.7987 17.5473 25.7672 17.5487C25.7576 17.466 25.7366 17.3828 25.7407 17.3005C25.753 17.0551 25.7827 16.8101 25.7882 16.5646C25.7896 16.5029 25.7261 16.4398 25.6648 16.326C25.4907 16.7136 25.5085 17.1131 25.1835 17.3645C25.0811 17.2022 25.0866 17.0843 25.2087 16.9417C25.3481 16.779 25.4491 16.5834 25.567 16.4019C25.5506 16.3909 25.5341 16.38 25.5176 16.369C25.344 16.5966 25.1703 16.8238 24.997 17.0514C24.9719 17.0363 24.9468 17.0212 24.9216 17.0057C24.8439 16.7374 25.0222 16.5212 25.1342 16.2241C24.9088 16.433 24.7324 16.5907 24.5637 16.7566C24.5258 16.7936 24.4984 16.8608 24.5016 16.912C24.5034 16.938 24.5861 16.9559 24.6286 16.9824C24.6995 17.0263 24.7946 17.0615 24.8261 17.1259C24.8448 17.1638 24.7598 17.2525 24.7406 17.2859C24.6296 17.21 24.5564 17.1209 24.4732 17.1104C24.2241 17.0788 24.0788 16.933 23.9467 16.7378C23.8923 16.6579 23.7744 16.6213 23.6852 16.5651C23.6569 16.5756 23.6286 16.5866 23.6002 16.5971C23.6391 16.5267 23.6665 16.4106 23.72 16.3969C23.7908 16.3786 23.8877 16.4302 23.9627 16.4718C24.0043 16.4951 24.0157 16.5843 24.0559 16.5975C24.1437 16.6263 24.2726 16.6688 24.3279 16.6281C24.4458 16.5418 24.5276 16.4056 24.6455 16.2639C24.4728 16.2561 24.343 16.2611 24.2164 16.2424C23.9933 16.209 23.7949 16.1258 23.7227 15.885C23.6619 15.6811 23.7483 15.4375 23.975 15.3109C24.2689 15.1468 24.5797 15.0065 24.8965 14.8922C25.2909 14.7496 25.407 14.41 25.1168 14.1028C24.9966 13.9753 24.8202 13.9013 24.667 13.8057C24.635 13.7856 24.5934 13.7824 24.5587 13.766C24.1697 13.5836 23.7026 12.7467 23.7579 12.3193C23.7735 12.2087 23.8187 12.1027 23.848 11.9998Z" fill="black"/>
<path d="M25.8249 12.6589C26.1398 12.6612 26.2098 12.7092 26.2098 12.924C26.2093 13.1795 26.0841 13.3039 25.8231 13.3071C25.5525 13.3107 25.4263 13.1823 25.4323 12.9108C25.4368 12.6996 25.5036 12.6566 25.8249 12.6589Z" fill="black"/>
<path d="M25.3088 12.7965C25.2672 12.765 25.2256 12.7339 25.1804 12.6991C25.323 12.5469 25.4866 12.4176 25.5885 12.2507C25.6868 12.0899 25.722 11.8901 25.8143 11.689C25.8719 12.1095 26.1206 12.4057 26.4021 12.7307C26.3564 12.7234 26.2961 12.7325 26.2668 12.7065C26.0072 12.4797 25.5095 12.5191 25.3088 12.7965Z" fill="black"/>
<path d="M23.8347 13.8597C23.2382 13.8336 22.8602 13.5164 22.9013 13.0666C23.1765 13.3797 23.6331 13.4519 23.8347 13.8597Z" fill="black"/>
<path d="M27.7823 13.867C28.0031 13.4593 28.4414 13.3751 28.7243 13.0749C28.7645 13.5178 28.4245 13.8043 27.7823 13.867Z" fill="black"/>
<path d="M23.4211 13.2997C22.8739 13.0799 22.7035 12.6201 22.9553 12.2037C23.1029 12.5506 23.251 12.8998 23.4211 13.2997Z" fill="black"/>
<path d="M28.204 13.3061C28.3754 12.9021 28.5226 12.5547 28.6684 12.2101C28.9294 12.5959 28.7593 13.0639 28.204 13.3061Z" fill="black"/>
<path d="M27.3391 14.1846C27.66 13.8798 28.1189 14.015 28.4489 13.7541C28.4228 14.1627 27.926 14.346 27.3391 14.1846Z" fill="black"/>
<path d="M23.1633 13.7495C23.5157 14.0073 23.9673 13.8853 24.2863 14.1814C23.7282 14.3492 23.2355 14.176 23.1633 13.7495Z" fill="black"/>
<path d="M23.2369 12.5684C22.9398 12.1036 22.9874 11.7183 23.3946 11.3969C23.3393 11.8069 23.2913 12.1644 23.2369 12.5684Z" fill="black"/>
<path d="M28.3932 12.567C28.3369 12.1758 28.2853 11.8193 28.2318 11.4477C28.645 11.5811 28.6756 12.1781 28.3932 12.567Z" fill="black"/>
<path d="M24.78 14.4607C24.3938 14.6573 24.0126 14.6211 23.6981 14.3282C24.0871 14.3707 24.4495 14.1723 24.78 14.4607Z" fill="black"/>
<path d="M27.8781 14.3464C27.618 14.6207 27.2405 14.6577 26.8538 14.4639C27.1706 14.1627 27.539 14.3821 27.8781 14.3464Z" fill="black"/>
<path d="M26.4258 14.5306C26.7421 14.5837 27.0196 14.6298 27.3094 14.6783C27.0772 14.937 26.6087 14.8776 26.4258 14.5306Z" fill="black"/>
<path d="M25.1608 14.5366C24.9725 14.8872 24.5492 14.9324 24.3152 14.6801C24.6063 14.6303 24.8838 14.5832 25.1608 14.5366Z" fill="black"/>
<path d="M25.7016 16.6007C25.7258 17.0957 25.6806 17.3165 25.5129 17.5217C25.3858 17.3892 25.4854 16.9028 25.7016 16.6007Z" fill="black"/>
<path d="M26.1494 17.5569C25.9456 17.3229 25.8944 17.0651 25.9337 16.576C26.0351 16.8219 26.1426 17.0532 26.2216 17.2937C26.2436 17.3595 26.1805 17.4527 26.1494 17.5569Z" fill="black"/>
<path d="M23.7717 13.164C23.4084 13.1109 23.2978 12.9578 23.3613 12.5931C23.498 12.7837 23.6351 12.9738 23.7717 13.164Z" fill="black"/>
<path d="M28.2855 12.5497C28.3449 12.9277 28.2466 13.0776 27.8604 13.1731C27.992 12.9798 28.1241 12.7865 28.2855 12.5497Z" fill="black"/>
<path d="M27.7408 13.7115C27.632 13.9767 27.4775 14.0338 27.1544 13.9287C27.3829 13.686 27.4135 13.6745 27.7408 13.7115Z" fill="black"/>
<path d="M24.4926 13.9205C24.164 14.0329 24.0342 13.9904 23.8797 13.7349C24.1389 13.6512 24.1453 13.6531 24.4926 13.9205Z" fill="black"/>
<path d="M24.983 14.1572C24.7001 14.3126 24.5621 14.2971 24.3491 14.1014C24.6896 13.9465 24.5945 13.9616 24.983 14.1572Z" fill="black"/>
<path d="M26.6572 14.0877C26.8611 14.063 27.0649 14.0388 27.2688 14.0141C27.1047 14.2943 26.9406 14.3181 26.6659 14.1709C26.6627 14.143 26.66 14.1151 26.6572 14.0877Z" fill="black"/>
<path d="M24.0578 13.5301C23.7136 13.6169 23.5509 13.5136 23.4924 13.1868C23.7035 13.3148 23.8809 13.4222 24.0578 13.5301Z" fill="black"/>
<path d="M28.1036 13.2051C28.046 13.5315 27.9089 13.6128 27.5693 13.5315C27.7475 13.4227 27.9253 13.3139 28.1036 13.2051Z" fill="black"/>
<path d="M28.1625 12.0071C28.3248 12.3161 28.3037 12.4418 28.0396 12.6553C28.077 12.4569 28.1145 12.2585 28.1625 12.0071Z" fill="black"/>
<path d="M23.6007 12.6525C23.3283 12.4583 23.3041 12.3307 23.4554 12.0021C23.5121 12.2549 23.5564 12.4537 23.6007 12.6525Z" fill="black"/>
<path d="M25.1772 14.5069C25.0259 14.4593 24.9253 14.4278 24.7768 14.3812C24.9135 14.3103 24.9994 14.2664 25.0963 14.2162C25.1187 14.2966 25.1383 14.3665 25.1772 14.5069Z" fill="black"/>
<path d="M26.4653 14.5009C26.4886 14.3821 26.5028 14.3108 26.521 14.2175C26.623 14.2664 26.713 14.3099 26.8579 14.3793C26.7025 14.4273 26.601 14.4589 26.4653 14.5009Z" fill="black"/>
<path d="M41.6095 51.4311C35.7544 51.4311 31.0081 43.7747 31.0081 43.7747C31.0081 43.7747 35.7544 36.1182 41.6095 36.1182C47.4646 36.1182 52.2109 43.7747 52.2109 43.7747C52.2109 43.7747 47.4642 51.4311 41.6095 51.4311Z" fill="white"/>
<path d="M41.6092 52.7859C35.0753 52.7859 30.0667 44.8278 29.8565 44.4891L29.414 43.7752L29.8565 43.0612C30.0667 42.7225 35.0753 34.7644 41.6092 34.7644C48.1431 34.7644 53.1517 42.7225 53.3615 43.0612L53.8039 43.7752L53.3615 44.4891C53.1517 44.8273 48.1431 52.7859 41.6092 52.7859ZM32.6455 43.7752C33.9239 45.5605 37.5586 50.0773 41.6092 50.0773C45.6598 50.0773 49.2935 45.5614 50.5724 43.7752C49.294 41.9898 45.6598 37.473 41.6092 37.473C37.5591 37.473 33.9249 41.9885 32.6455 43.7752Z" fill="black"/>
<path d="M41.6092 47.0208C43.3997 47.0208 44.8512 45.5677 44.8512 43.7751C44.8512 41.9826 43.3997 40.5295 41.6092 40.5295C39.8187 40.5295 38.3672 41.9826 38.3672 43.7751C38.3672 45.5677 39.8187 47.0208 41.6092 47.0208Z" fill="#FB3544"/>
<path d="M41.6092 48.3751C39.0747 48.3751 37.0129 46.3114 37.0129 43.7751C37.0129 41.2388 39.0747 39.1752 41.6092 39.1752C44.1437 39.1752 46.2055 41.2388 46.2055 43.7751C46.2055 46.3114 44.1437 48.3751 41.6092 48.3751ZM41.6092 41.8833C40.5685 41.8833 39.7215 42.7316 39.7215 43.7751C39.7215 44.8186 40.5685 45.667 41.6092 45.667C42.65 45.667 43.4969 44.8186 43.4969 43.7751C43.4969 42.7316 42.6504 41.8833 41.6092 41.8833Z" fill="black"/>
<g clip-path="url(#clip0_5301_69075)">
<path d="M22.8184 47C15.6025 47 8.38675 47 1.17092 47C1.14212 46.9878 1.11437 46.9712 1.0844 46.964C0.397189 46.7992 0.00189458 46.3139 0.00156308 45.6019C-0.000852162 39.8628 9.4991e-05 34.1238 0.00071064 28.3847C0.000757998 28.0753 0.0771932 27.7885 0.266908 27.5385C0.570044 27.139 0.980824 26.9998 1.46709 27C8.48507 27.0032 15.503 27.0022 22.521 27.0023C22.584 27.0023 22.6472 26.9998 22.7099 27.0043C23.2211 27.0407 23.6089 27.2773 23.8438 27.7403C23.9141 27.8789 23.9489 28.0359 24 28.1844C24 34.0594 24 39.9342 24 45.8092C23.9621 45.9282 23.932 46.0505 23.885 46.1657C23.6882 46.6478 23.3015 46.8874 22.8184 47ZM0.750335 31.501C0.750335 31.6102 0.750335 31.6891 0.750335 31.7681C0.750335 36.3396 0.75024 40.9111 0.750429 45.4825C0.750429 46.0449 0.94076 46.2341 1.50512 46.2341C8.49819 46.2342 15.4913 46.2342 22.4844 46.2341C23.0479 46.2341 23.2389 46.0442 23.2389 45.482C23.2391 40.9106 23.239 36.339 23.239 31.7676C23.239 31.6831 23.239 31.5986 23.239 31.501C15.733 31.501 8.25586 31.501 0.750335 31.501ZM23.239 30.7251C23.239 29.948 23.2404 29.1947 23.2384 28.4414C23.2372 27.9739 23.0227 27.7597 22.5568 27.7597C15.5153 27.7592 8.47375 27.7593 1.43219 27.7597C0.966191 27.7597 0.752134 27.9739 0.750856 28.4414C0.748961 29.132 0.749909 29.8227 0.751092 30.5132C0.751187 30.5809 0.761464 30.6486 0.767762 30.7251C8.25856 30.7251 15.7307 30.7251 23.239 30.7251Z" fill="black"/>
<path d="M0.750313 31.501C8.25584 31.501 15.733 31.501 23.239 31.501C23.239 31.5986 23.239 31.6831 23.239 31.7676C23.239 36.339 23.2391 40.9105 23.2389 45.482C23.2389 46.0442 23.0479 46.2341 22.4843 46.2341C15.4913 46.2342 8.49816 46.2342 1.5051 46.2341C0.940738 46.2341 0.750407 46.0449 0.750407 45.4826C0.750265 40.9111 0.750313 36.3396 0.750313 31.7681C0.750313 31.6891 0.750313 31.6102 0.750313 31.501ZM11.9655 38.5245C11.9831 38.5251 12.0006 38.5257 12.0182 38.5263C12.0431 38.5997 12.0695 38.6727 12.0928 38.7466C12.2892 39.3737 12.4857 40.0009 12.6808 40.6284C12.7395 40.8169 12.8617 40.9295 13.0592 40.9252C13.2449 40.9212 13.3614 40.8123 13.4172 40.6331C13.7611 39.5294 14.1087 38.427 14.4491 37.3223C14.5228 37.0832 14.4232 36.8813 14.2254 36.8158C14.0122 36.7453 13.8255 36.8547 13.7364 37.1032C13.7204 37.1479 13.7069 37.1935 13.6927 37.2389C13.4854 37.9007 13.2781 38.5626 13.0541 39.2778C13.0054 39.1378 12.9722 39.0505 12.9444 38.9615C12.7532 38.3493 12.562 37.7371 12.3732 37.1242C12.3139 36.9318 12.2083 36.7994 11.9916 36.8008C11.7744 36.8022 11.6731 36.9381 11.6145 37.13C11.4573 37.645 11.2966 38.1588 11.1356 38.6726C11.0771 38.8592 11.0139 39.0443 10.9363 39.2804C10.6989 38.5235 10.4809 37.8207 10.2573 37.1197C10.1719 36.8523 9.97686 36.7404 9.75797 36.8179C9.55372 36.8901 9.46923 37.0931 9.54591 37.3508C9.63399 37.6467 9.73003 37.9403 9.82233 38.2349C10.0708 39.0283 10.3163 39.8226 10.5689 40.6146C10.6632 40.9102 10.9424 41.0275 11.1512 40.8542C11.235 40.7846 11.2934 40.6655 11.3282 40.5575C11.546 39.8816 11.7541 39.2025 11.9655 38.5245ZM6.95445 39.288C6.71804 38.5326 6.50322 37.8546 6.29466 37.1746C6.23239 36.9714 6.14866 36.801 5.90458 36.7982C5.66163 36.7956 5.56848 36.9564 5.50781 37.1641C5.40585 37.5135 5.29324 37.8597 5.18408 38.207C5.078 38.5443 4.97059 38.8813 4.84656 39.2726C4.80304 39.1443 4.77751 39.0739 4.75521 39.0026C4.56156 38.3833 4.37028 37.7632 4.17446 37.1446C4.08429 36.8598 3.89263 36.7398 3.66759 36.8167C3.45614 36.889 3.37364 37.0961 3.45893 37.3706C3.79243 38.4436 4.13113 39.515 4.46296 40.5885C4.52287 40.7824 4.62601 40.9217 4.83515 40.9275C5.05801 40.9336 5.17006 40.788 5.23054 40.5865C5.34201 40.2151 5.45761 39.845 5.57321 39.4749C5.67352 39.1538 5.77624 38.8335 5.89657 38.4541C5.93375 38.5538 5.95084 38.5937 5.96377 38.635C6.16935 39.292 6.3755 39.9488 6.57885 40.6065C6.63909 40.8013 6.75484 40.9303 6.96562 40.9251C7.16377 40.9202 7.27274 40.7973 7.329 40.6091C7.44005 40.2376 7.56129 39.8693 7.67679 39.4992C7.90316 38.774 8.13157 38.0496 8.35254 37.3228C8.4258 37.0818 8.33123 36.8815 8.1346 36.8149C7.91912 36.7419 7.73107 36.8486 7.64222 37.0954C7.62352 37.1475 7.60903 37.2011 7.59245 37.254C7.38673 37.9101 7.18082 38.5664 6.95445 39.288ZM17.0385 39.2731C16.998 39.1576 16.9736 39.0937 16.9532 39.0285C16.7538 38.3945 16.5537 37.7606 16.3572 37.1257C16.3009 36.9437 16.2061 36.8118 16.0017 36.8C15.6994 36.7826 15.5448 37.0381 15.6525 37.3852C15.9807 38.4433 16.313 39.5001 16.6403 40.5585C16.7039 40.7642 16.8023 40.9289 17.0404 40.9254C17.2789 40.9219 17.369 40.7515 17.431 40.5465C17.6167 39.933 17.8096 39.3218 18.0009 38.7101C18.0222 38.6419 18.0518 38.5763 18.0958 38.4624C18.139 38.5937 18.1643 38.6677 18.1876 38.7423C18.3745 39.3389 18.5653 39.9342 18.7452 40.5329C18.8095 40.7468 18.8983 40.9269 19.1488 40.9254C19.401 40.9239 19.4881 40.7346 19.5488 40.5251C19.604 40.3352 19.6648 40.1469 19.7236 39.9581C19.9827 39.1271 20.2421 38.2962 20.5012 37.4652C20.5177 37.4123 20.5366 37.3599 20.5492 37.3061C20.6055 37.0665 20.5065 36.8649 20.3073 36.8092C20.0968 36.7503 19.913 36.852 19.8358 37.0911C19.6582 37.6407 19.49 38.1933 19.3171 38.7445C19.2679 38.9013 19.2154 39.0571 19.148 39.2639C19.1091 39.1557 19.0889 39.1054 19.0728 39.0538C18.8694 38.4044 18.6671 37.7547 18.4635 37.1053C18.4063 36.923 18.2981 36.8004 18.0928 36.7992C17.8881 36.798 17.7761 36.9161 17.7184 37.0997C17.6353 37.364 17.5553 37.6291 17.4725 37.8934C17.3334 38.3375 17.1933 38.7811 17.0385 39.2731Z" fill="white"/>
<path d="M23.2389 30.7251C15.7307 30.7251 8.25853 30.7251 0.767739 30.7251C0.761441 30.6486 0.751164 30.5809 0.751069 30.5132C0.749885 29.8227 0.748938 29.132 0.750832 28.4414C0.752111 27.9739 0.966168 27.7597 1.43217 27.7597C8.47373 27.7593 15.5152 27.7593 22.5568 27.7597C23.0227 27.7597 23.2372 27.974 23.2384 28.4414C23.2404 29.1948 23.2389 29.948 23.2389 30.7251ZM5.99455 29.2559C5.99872 28.9514 5.76762 28.7095 5.46652 28.7033C5.15509 28.6969 4.90467 28.9422 4.90727 29.2513C4.90973 29.5451 5.1603 29.7975 5.45065 29.7988C5.74427 29.8 5.99043 29.5542 5.99455 29.2559ZM7.06801 29.2423C7.06588 29.5458 7.29897 29.7909 7.59657 29.7981C7.89521 29.8053 8.15828 29.5426 8.15435 29.2413C8.15046 28.9424 7.90752 28.7032 7.6076 28.703C7.30513 28.7029 7.07014 28.9377 7.06801 29.2423ZM3.29498 28.7033C2.99506 28.7047 2.75652 28.9444 2.75553 29.2455C2.75453 29.5437 2.99558 29.793 3.2901 29.7982C3.59191 29.8036 3.84651 29.545 3.8412 29.2386C3.83599 28.9357 3.59741 28.7019 3.29498 28.7033Z" fill="white"/>
<path d="M11.9655 38.5245C11.7542 39.2025 11.5461 39.8816 11.3281 40.5574C11.2932 40.6654 11.2349 40.7845 11.1511 40.8541C10.9423 41.0274 10.663 40.9101 10.5688 40.6145C10.3162 39.8224 10.0707 39.0281 9.82221 38.2348C9.72991 37.9402 9.63387 37.6466 9.54578 37.3507C9.46906 37.093 9.5536 36.89 9.75785 36.8178C9.97679 36.7403 10.1719 36.8522 10.2571 37.1196C10.4808 37.8206 10.6988 38.5235 10.9362 39.2803C11.0138 39.0442 11.077 38.8591 11.1355 38.6725C11.2965 38.1587 11.4572 37.6449 11.6144 37.1299C11.673 36.938 11.7743 36.8021 11.9915 36.8007C12.2082 36.7993 12.3137 36.9317 12.373 37.1241C12.5618 37.7371 12.753 38.3492 12.9443 38.9614C12.9721 39.0504 13.0053 39.1377 13.054 39.2777C13.278 38.5625 13.4853 37.9006 13.6926 37.2388C13.7068 37.1934 13.7203 37.1478 13.7363 37.1031C13.8254 36.8546 14.0121 36.7452 14.2253 36.8157C14.4231 36.8812 14.5226 37.0831 14.449 37.3222C14.1086 38.4269 13.7609 39.5294 13.4171 40.633C13.3612 40.8122 13.2447 40.9211 13.0591 40.9251C12.8616 40.9294 12.7393 40.8168 12.6807 40.6283C12.4856 40.0008 12.2891 39.3737 12.0926 38.7465C12.0694 38.6726 12.043 38.5996 12.018 38.5262C12.0006 38.5257 11.983 38.5251 11.9655 38.5245Z" fill="black"/>
<path d="M6.95445 39.288C7.18082 38.5664 7.38668 37.9101 7.59254 37.2539C7.60912 37.201 7.62361 37.1474 7.64232 37.0954C7.73111 36.8485 7.91922 36.7418 8.13469 36.8148C8.33132 36.8814 8.4259 37.0817 8.35263 37.3227C8.13166 38.0495 7.90326 38.774 7.67689 39.4991C7.56134 39.8692 7.44015 40.2375 7.32909 40.609C7.27283 40.7972 7.16386 40.9201 6.96572 40.925C6.75498 40.9302 6.63919 40.8012 6.57895 40.6064C6.37559 39.9488 6.16945 39.2919 5.96387 38.6349C5.95094 38.5937 5.93389 38.5537 5.89667 38.454C5.77638 38.8335 5.67361 39.1537 5.57331 39.4748C5.45766 39.8449 5.34206 40.215 5.23063 40.5864C5.17015 40.7879 5.0581 40.9335 4.83524 40.9274C4.62611 40.9216 4.52296 40.7823 4.46306 40.5884C4.13127 39.5149 3.79252 38.4435 3.45903 37.3705C3.37374 37.096 3.45623 36.8889 3.66768 36.8166C3.89273 36.7397 4.08438 36.8597 4.17455 37.1445C4.37038 37.7631 4.56165 38.3832 4.7553 39.0025C4.77761 39.0738 4.80308 39.1442 4.84665 39.2725C4.97068 38.8812 5.07809 38.5442 5.18417 38.2069C5.29333 37.8596 5.40595 37.5134 5.50791 37.164C5.56853 36.9563 5.66173 36.7955 5.90467 36.7982C6.14875 36.8009 6.23243 36.9713 6.29475 37.1745C6.50322 37.8546 6.71809 38.5327 6.95445 39.288Z" fill="black"/>
<path d="M17.0385 39.2731C17.1934 38.7811 17.3335 38.3375 17.4725 37.8935C17.5553 37.6292 17.6353 37.364 17.7184 37.0998C17.7761 36.9162 17.8881 36.7981 18.0928 36.7992C18.2982 36.8004 18.4064 36.923 18.4635 37.1054C18.6671 37.7547 18.8695 38.4044 19.0728 39.0538C19.089 39.1055 19.1092 39.1558 19.148 39.2639C19.2154 39.0572 19.2679 38.9014 19.3171 38.7445C19.4901 38.1934 19.6583 37.6407 19.8358 37.0911C19.9131 36.852 20.0969 36.7504 20.3073 36.8092C20.5066 36.865 20.6055 37.0665 20.5493 37.3062C20.5366 37.36 20.5178 37.4124 20.5013 37.4652C20.2421 38.2962 19.9828 39.1271 19.7237 39.9581C19.6648 40.1469 19.604 40.3353 19.5489 40.5252C19.4881 40.7346 19.401 40.9239 19.1488 40.9254C18.8983 40.9269 18.8095 40.7469 18.7452 40.5329C18.5653 39.9343 18.3745 39.3389 18.1877 38.7424C18.1643 38.6678 18.139 38.5938 18.0958 38.4624C18.0519 38.5763 18.0223 38.6419 18.0009 38.7101C17.8096 39.3218 17.6167 39.9331 17.4311 40.5466C17.3691 40.7515 17.279 40.922 17.0404 40.9255C16.8023 40.9289 16.704 40.7643 16.6404 40.5586C16.3131 39.5002 15.9808 38.4434 15.6526 37.3853C15.5449 37.0381 15.6995 36.7826 16.0017 36.8C16.2062 36.8118 16.301 36.9437 16.3573 37.1257C16.5537 37.7607 16.7539 38.3945 16.9532 39.0286C16.9737 39.0937 16.9981 39.1576 17.0385 39.2731Z" fill="black"/>
<path d="M5.99459 29.2559C5.99047 29.5542 5.74431 29.8 5.45069 29.7988C5.16034 29.7976 4.90977 29.5451 4.90731 29.2513C4.9047 28.9422 5.15513 28.6969 5.46655 28.7033C5.76761 28.7095 5.99876 28.9514 5.99459 29.2559Z" fill="black"/>
<path d="M7.06801 29.2423C7.07014 28.9377 7.30513 28.7029 7.6076 28.7031C7.90752 28.7033 8.15046 28.9424 8.15434 29.2413C8.15828 29.5427 7.8952 29.8053 7.59657 29.7981C7.29892 29.791 7.06583 29.5458 7.06801 29.2423Z" fill="black"/>
<path d="M3.29501 28.7033C3.59743 28.7019 3.83602 28.9357 3.84123 29.2386C3.84654 29.5451 3.59194 29.8036 3.29013 29.7982C2.99561 29.793 2.75456 29.5437 2.75556 29.2455C2.75655 28.9444 2.99509 28.7047 3.29501 28.7033Z" fill="black"/>
</g>
<defs>
<clipPath id="clip0_5301_69075">
<rect width="24" height="20" fill="white" transform="translate(0 27)"/>
</clipPath>
</defs>
</svg>
