<svg width="50" height="53" viewBox="0 0 50 53" fill="none" xmlns="http://www.w3.org/2000/svg">
<path d="M42.3196 15.0105H15.6393V41.3028H42.3196V15.0105Z" fill="white"/>
<path d="M43.7466 42.7298H14.2123V13.5835H43.7466V42.7298ZM17.0663 39.8758H40.8926V16.438H17.0663V39.8758Z" fill="black"/>
<path d="M37.8431 10.4846H14.1877V36.7769H37.8431V10.4846Z" fill="white"/>
<path d="M39.2699 38.2039H12.7606V9.05718H39.2699V38.2039ZM15.6145 35.3499H36.416V11.9116H15.6145V35.3499Z" fill="black"/>
<path d="M33.4015 6.3239H9.74605V32.6162H33.4015V6.3239Z" fill="white"/>
<path d="M34.8284 34.0432H8.31903V4.89646H34.8284V34.0432ZM11.173 31.1892H31.9744V7.75089H11.173V31.1892Z" fill="black"/>
<path d="M25.55 4.15276V1.009L21.9711 2.15489L18.3922 1.009V4.15276H15.4436V8.94152H28.4981V4.15276H25.55Z" fill="white"/>
<path d="M28.4987 9.65547H15.4437C15.0493 9.65547 14.7298 9.33598 14.7298 8.94152V4.15276C14.7298 3.7583 15.0493 3.4388 15.4437 3.4388H17.6779V1.00946C17.6779 0.781379 17.7867 0.567011 17.9713 0.432631C18.1555 0.297794 18.3928 0.259398 18.6099 0.328873L21.9712 1.40483L25.3325 0.328873C25.5501 0.259398 25.7868 0.297794 25.971 0.432631C26.1552 0.567011 26.2645 0.781379 26.2645 1.00946V3.4388H28.4987C28.8931 3.4388 29.2126 3.7583 29.2126 4.15276V8.94152C29.2126 9.33598 28.8931 9.65547 28.4987 9.65547ZM16.1581 8.22711H27.7847V4.8667H25.5505C25.1561 4.8667 24.8366 4.54721 24.8366 4.15276V1.9876L22.1892 2.83501C22.0471 2.88072 21.8953 2.88072 21.7536 2.83501L19.1067 1.9876V4.15276C19.1067 4.54721 18.7872 4.8667 18.3928 4.8667H16.1586V8.22711H16.1581Z" fill="black"/>
<path d="M29.9594 20.0686H12.9357C12.6052 20.0686 12.3369 19.8003 12.3369 19.4698C12.3369 19.1393 12.6052 18.871 12.9357 18.871H29.9594C30.2899 18.871 30.5582 19.1393 30.5582 19.4698C30.5582 19.8003 30.2899 20.0686 29.9594 20.0686Z" fill="black"/>
<path d="M29.9594 23.6013H12.9357C12.6052 23.6013 12.3369 23.333 12.3369 23.0025C12.3369 22.6721 12.6052 22.4038 12.9357 22.4038H29.9594C30.2899 22.4038 30.5582 22.6721 30.5582 23.0025C30.5582 23.333 30.2899 23.6013 29.9594 23.6013Z" fill="black"/>
<path d="M29.9594 27.1345H12.9357C12.6052 27.1345 12.3369 26.8662 12.3369 26.5357C12.3369 26.2052 12.6052 25.9369 12.9357 25.9369H29.9594C30.2899 25.9369 30.5582 26.2052 30.5582 26.5357C30.5582 26.8662 30.2899 27.1345 29.9594 27.1345Z" fill="black"/>
<path d="M29.9594 30.1594H24.2552C23.9247 30.1594 23.6564 29.8911 23.6564 29.5606C23.6564 29.2301 23.9247 28.9618 24.2552 28.9618H29.9594C30.2899 28.9618 30.5582 29.2301 30.5582 29.5606C30.5582 29.8911 30.2899 30.1594 29.9594 30.1594Z" fill="black"/>
<path d="M19.848 11.9998C20.0248 12.0126 20.1935 12.025 20.3617 12.0368C20.3622 12.0533 20.3631 12.0702 20.3635 12.0867C20.3183 12.0972 20.2726 12.1054 20.2282 12.1182C20.0157 12.1808 19.9503 12.3038 20.0514 12.5017C20.1889 12.77 20.3027 13.0438 20.6606 13.1352C20.8352 13.18 20.9765 13.3057 21.1867 13.2444C21.2621 13.2225 21.3851 13.3098 21.466 13.3729C21.7087 13.5621 21.9222 13.5722 22.1507 13.3701C22.2837 13.2527 22.4167 13.2056 22.5945 13.2618C22.6585 13.2819 22.7476 13.2367 22.8203 13.2088C22.919 13.1708 23.01 13.1101 23.1105 13.0781C23.2792 13.0246 23.676 12.4866 23.6083 12.3326C23.5571 12.2156 23.4054 12.1429 23.2911 12.0437C23.4255 12.0291 23.5946 12.0108 23.8012 11.9879C23.8012 12.2503 23.8359 12.5291 23.7888 12.7938C23.7582 12.967 23.611 13.1201 23.5123 13.2801C23.4726 13.3445 23.4314 13.4131 23.3757 13.4625C23.2404 13.5813 23.1119 13.7321 22.9515 13.7948C22.5826 13.9392 22.3779 14.1595 22.3541 14.5512C22.3436 14.7235 22.4578 14.7985 22.6114 14.8542C22.9149 14.9639 23.2134 15.0878 23.5082 15.2195C23.6037 15.262 23.6938 15.3342 23.7651 15.4123C24.0316 15.7053 23.9392 16.081 23.5626 16.1999C23.3917 16.2538 23.2033 16.2529 22.9931 16.2808C23.058 16.3617 23.1174 16.4376 23.1787 16.5116C23.3807 16.7566 23.4218 16.7488 23.6293 16.5098C23.6887 16.4412 23.8071 16.4019 23.9013 16.3969C23.9379 16.395 23.9813 16.5249 24.022 16.5943C23.9941 16.5838 23.9657 16.5738 23.9379 16.5632C23.8483 16.619 23.7294 16.6547 23.675 16.7346C23.5425 16.9289 23.4017 17.0788 23.1503 17.1085C23.0671 17.1186 22.9931 17.2077 22.8779 17.2854C22.8587 17.2452 22.7865 17.1643 22.8002 17.1021C22.8112 17.0505 22.9227 17.0194 22.9903 16.9815C23.0347 16.9568 23.1169 16.9385 23.1188 16.9125C23.1224 16.8613 23.0955 16.7936 23.0575 16.7566C22.8934 16.5943 22.7211 16.4403 22.5109 16.2456C22.5968 16.5285 22.7901 16.7383 22.696 17.0244C22.3724 16.8978 22.3006 16.5751 22.1214 16.3484C22.0995 16.3621 22.078 16.3763 22.0561 16.39C22.1717 16.5715 22.2768 16.7607 22.4057 16.9321C22.5355 17.1049 22.5493 17.1273 22.4254 17.3974C22.3294 17.2347 22.238 17.1081 22.1763 16.9687C22.1178 16.8357 22.0958 16.6871 22.0465 16.5491C22.0273 16.4951 21.9784 16.4522 21.9432 16.4042C21.9094 16.4627 21.8454 16.5217 21.8463 16.5792C21.8513 16.8252 21.8792 17.0706 21.8906 17.3165C21.8943 17.3919 21.8723 17.4687 21.8623 17.5446C21.8307 17.546 21.7987 17.5473 21.7672 17.5487C21.7576 17.466 21.7366 17.3828 21.7407 17.3005C21.753 17.0551 21.7827 16.8101 21.7882 16.5646C21.7896 16.5029 21.7261 16.4398 21.6648 16.326C21.4907 16.7136 21.5085 17.1131 21.1835 17.3645C21.0811 17.2022 21.0866 17.0843 21.2087 16.9417C21.3481 16.779 21.4491 16.5834 21.567 16.4019C21.5506 16.3909 21.5341 16.38 21.5176 16.369C21.344 16.5966 21.1703 16.8238 20.997 17.0514C20.9719 17.0363 20.9468 17.0212 20.9216 17.0057C20.8439 16.7374 21.0222 16.5212 21.1342 16.2241C20.9088 16.433 20.7324 16.5907 20.5637 16.7566C20.5258 16.7936 20.4984 16.8608 20.5016 16.912C20.5034 16.938 20.5861 16.9559 20.6286 16.9824C20.6995 17.0263 20.7946 17.0615 20.8261 17.1259C20.8448 17.1638 20.7598 17.2525 20.7406 17.2859C20.6296 17.21 20.5564 17.1209 20.4732 17.1104C20.2241 17.0788 20.0788 16.933 19.9467 16.7378C19.8923 16.6579 19.7744 16.6213 19.6852 16.5651C19.6569 16.5756 19.6286 16.5866 19.6002 16.5971C19.6391 16.5267 19.6665 16.4106 19.72 16.3969C19.7908 16.3786 19.8877 16.4302 19.9627 16.4718C20.0043 16.4951 20.0157 16.5843 20.0559 16.5975C20.1437 16.6263 20.2726 16.6688 20.3279 16.6281C20.4458 16.5418 20.5276 16.4056 20.6455 16.2639C20.4728 16.2561 20.343 16.2611 20.2164 16.2424C19.9933 16.209 19.7949 16.1258 19.7227 15.885C19.6619 15.6811 19.7483 15.4375 19.975 15.3109C20.2689 15.1468 20.5797 15.0065 20.8965 14.8922C21.2909 14.7496 21.407 14.41 21.1168 14.1028C20.9966 13.9753 20.8202 13.9013 20.667 13.8057C20.635 13.7856 20.5934 13.7824 20.5587 13.766C20.1697 13.5836 19.7026 12.7467 19.7579 12.3193C19.7735 12.2087 19.8187 12.1027 19.848 11.9998Z" fill="black"/>
<path d="M21.8249 12.6589C22.1398 12.6612 22.2098 12.7092 22.2098 12.924C22.2093 13.1795 22.0841 13.3039 21.8231 13.3071C21.5525 13.3107 21.4263 13.1823 21.4323 12.9108C21.4368 12.6996 21.5036 12.6566 21.8249 12.6589Z" fill="black"/>
<path d="M21.3088 12.7965C21.2672 12.765 21.2256 12.7339 21.1804 12.6991C21.323 12.5469 21.4866 12.4176 21.5885 12.2507C21.6868 12.0899 21.722 11.8901 21.8143 11.689C21.8719 12.1095 22.1206 12.4057 22.4021 12.7307C22.3564 12.7234 22.2961 12.7325 22.2668 12.7065C22.0072 12.4797 21.5095 12.5191 21.3088 12.7965Z" fill="black"/>
<path d="M19.8347 13.8597C19.2382 13.8336 18.8602 13.5164 18.9013 13.0666C19.1765 13.3797 19.6331 13.4519 19.8347 13.8597Z" fill="black"/>
<path d="M23.7823 13.867C24.0031 13.4593 24.4414 13.3751 24.7243 13.0749C24.7646 13.5178 24.4245 13.8043 23.7823 13.867Z" fill="black"/>
<path d="M19.4211 13.2997C18.874 13.0799 18.7035 12.6201 18.9553 12.2037C19.103 12.5506 19.2511 12.8998 19.4211 13.2997Z" fill="black"/>
<path d="M24.204 13.3061C24.3754 12.9021 24.5226 12.5547 24.6684 12.2101C24.9294 12.5959 24.7594 13.0639 24.204 13.3061Z" fill="black"/>
<path d="M23.3391 14.1846C23.66 13.8798 24.1189 14.015 24.4489 13.7541C24.4228 14.1627 23.926 14.346 23.3391 14.1846Z" fill="black"/>
<path d="M19.1633 13.7495C19.5157 14.0073 19.9673 13.8853 20.2863 14.1814C19.7282 14.3492 19.2355 14.176 19.1633 13.7495Z" fill="black"/>
<path d="M19.2369 12.5684C18.9398 12.1036 18.9874 11.7183 19.3946 11.3969C19.3393 11.8069 19.2913 12.1644 19.2369 12.5684Z" fill="black"/>
<path d="M24.3932 12.567C24.3369 12.1758 24.2853 11.8193 24.2318 11.4477C24.645 11.5811 24.6756 12.1781 24.3932 12.567Z" fill="black"/>
<path d="M20.78 14.4607C20.3938 14.6573 20.0126 14.6211 19.6982 14.3282C20.0871 14.3707 20.4496 14.1723 20.78 14.4607Z" fill="black"/>
<path d="M23.8781 14.3464C23.618 14.6207 23.2405 14.6577 22.8538 14.4639C23.1706 14.1627 23.539 14.3821 23.8781 14.3464Z" fill="black"/>
<path d="M22.4258 14.5306C22.7421 14.5837 23.0196 14.6298 23.3094 14.6783C23.0772 14.937 22.6087 14.8776 22.4258 14.5306Z" fill="black"/>
<path d="M21.1608 14.5366C20.9725 14.8872 20.5492 14.9324 20.3152 14.6801C20.6064 14.6303 20.8838 14.5832 21.1608 14.5366Z" fill="black"/>
<path d="M21.7016 16.6007C21.7258 17.0957 21.6806 17.3165 21.5129 17.5217C21.3858 17.3892 21.4854 16.9028 21.7016 16.6007Z" fill="black"/>
<path d="M22.1494 17.5569C21.9456 17.3229 21.8944 17.0651 21.9337 16.576C22.0352 16.8219 22.1426 17.0532 22.2216 17.2937C22.2436 17.3595 22.1805 17.4527 22.1494 17.5569Z" fill="black"/>
<path d="M19.7718 13.164C19.4084 13.1109 19.2978 12.9578 19.3613 12.5931C19.498 12.7837 19.6351 12.9738 19.7718 13.164Z" fill="black"/>
<path d="M24.2855 12.5497C24.3449 12.9277 24.2466 13.0776 23.8604 13.1731C23.992 12.9798 24.1241 12.7865 24.2855 12.5497Z" fill="black"/>
<path d="M23.7408 13.7115C23.632 13.9767 23.4775 14.0338 23.1544 13.9287C23.3829 13.686 23.4135 13.6745 23.7408 13.7115Z" fill="black"/>
<path d="M20.4927 13.9205C20.164 14.0329 20.0342 13.9904 19.8797 13.7349C20.1389 13.6512 20.1453 13.6531 20.4927 13.9205Z" fill="black"/>
<path d="M20.983 14.1572C20.7001 14.3126 20.5621 14.2971 20.3491 14.1014C20.6896 13.9465 20.5945 13.9616 20.983 14.1572Z" fill="black"/>
<path d="M22.6572 14.0877C22.8611 14.063 23.065 14.0388 23.2688 14.0141C23.1047 14.2943 22.9406 14.3181 22.6659 14.1709C22.6627 14.143 22.66 14.1151 22.6572 14.0877Z" fill="black"/>
<path d="M20.0578 13.5301C19.7136 13.6169 19.5509 13.5136 19.4924 13.1868C19.7035 13.3148 19.8809 13.4222 20.0578 13.5301Z" fill="black"/>
<path d="M24.1036 13.2051C24.046 13.5315 23.9089 13.6128 23.5693 13.5315C23.7475 13.4227 23.9254 13.3139 24.1036 13.2051Z" fill="black"/>
<path d="M24.1625 12.0071C24.3248 12.3161 24.3038 12.4418 24.0396 12.6553C24.0771 12.4569 24.1146 12.2585 24.1625 12.0071Z" fill="black"/>
<path d="M19.6008 12.6525C19.3284 12.4583 19.3041 12.3307 19.4554 12.0021C19.5121 12.2549 19.5564 12.4537 19.6008 12.6525Z" fill="black"/>
<path d="M21.1772 14.5069C21.0259 14.4593 20.9253 14.4278 20.7768 14.3812C20.9135 14.3103 20.9994 14.2664 21.0963 14.2162C21.1187 14.2966 21.1383 14.3665 21.1772 14.5069Z" fill="black"/>
<path d="M22.4653 14.5009C22.4886 14.3821 22.5027 14.3108 22.521 14.2175C22.6229 14.2664 22.713 14.3099 22.8579 14.3793C22.7025 14.4273 22.601 14.4589 22.4653 14.5009Z" fill="black"/>
<path d="M37.6095 51.4311C31.7544 51.4311 27.0081 43.7747 27.0081 43.7747C27.0081 43.7747 31.7544 36.1182 37.6095 36.1182C43.4646 36.1182 48.2109 43.7747 48.2109 43.7747C48.2109 43.7747 43.4641 51.4311 37.6095 51.4311Z" fill="white"/>
<path d="M37.6092 52.7859C31.0753 52.7859 26.0667 44.8278 25.8565 44.4891L25.414 43.7752L25.8565 43.0612C26.0667 42.7225 31.0753 34.7644 37.6092 34.7644C44.1431 34.7644 49.1517 42.7225 49.3615 43.0612L49.8039 43.7752L49.3615 44.4891C49.1517 44.8273 44.1431 52.7859 37.6092 52.7859ZM28.6455 43.7752C29.9239 45.5605 33.5586 50.0773 37.6092 50.0773C41.6598 50.0773 45.2935 45.5614 46.5724 43.7752C45.294 41.9898 41.6598 37.473 37.6092 37.473C33.5591 37.473 29.9249 41.9885 28.6455 43.7752Z" fill="black"/>
<path d="M37.6092 47.0208C39.3997 47.0208 40.8512 45.5677 40.8512 43.7751C40.8512 41.9826 39.3997 40.5295 37.6092 40.5295C35.8186 40.5295 34.3671 41.9826 34.3671 43.7751C34.3671 45.5677 35.8186 47.0208 37.6092 47.0208Z" fill="#FB3544"/>
<path d="M37.6092 48.3751C35.0747 48.3751 33.0129 46.3114 33.0129 43.7751C33.0129 41.2388 35.0747 39.1752 37.6092 39.1752C40.1437 39.1752 42.2055 41.2388 42.2055 43.7751C42.2055 46.3114 40.1437 48.3751 37.6092 48.3751ZM37.6092 41.8833C36.5684 41.8833 35.7215 42.7316 35.7215 43.7751C35.7215 44.8186 36.5684 45.667 37.6092 45.667C38.65 45.667 39.4969 44.8186 39.4969 43.7751C39.4969 42.7316 38.6504 41.8833 37.6092 41.8833Z" fill="black"/>
<g clip-path="url(#clip0_5301_69151)">
<path d="M10.578 47C10.1876 47 9.79729 47 9.40696 47C9.27906 46.985 9.15128 46.9687 9.02323 46.955C6.92901 46.7299 5.0656 45.9567 3.47334 44.5715C1.67261 43.0049 0.553847 41.0428 0.149009 38.6835C0.0866449 38.3201 0.0490701 37.9523 0 37.5866C0 37.196 0 36.8054 0 36.4148C0.0115735 36.3523 0.0295203 36.2903 0.0338212 36.2274C0.0827349 35.5106 0.219115 34.8102 0.423411 34.1224C1.90083 29.1485 7.02398 26.1214 12.0919 27.2276C18.0121 28.5199 21.48 34.7053 19.3863 40.3685C18.0591 43.9582 15.4386 46.1128 11.6752 46.85C11.3135 46.9208 10.9438 46.951 10.578 47ZM1.29897 36.366C1.38952 36.366 1.44692 36.366 1.50432 36.366C2.34278 36.366 3.18135 36.3601 4.01968 36.3706C4.20302 36.3729 4.2465 36.3126 4.25295 36.1411C4.29745 34.9548 4.47199 33.7873 4.79362 32.6437C4.83041 32.5129 4.81259 32.44 4.69044 32.3614C4.3959 32.1717 4.11211 31.9648 3.82974 31.757C3.66407 31.6351 3.50947 31.4981 3.34142 31.3609C2.12964 32.8142 1.45095 34.4649 1.29897 36.366ZM3.32085 42.6151C3.81429 42.2633 4.28654 41.9316 4.74999 41.588C4.7935 41.5557 4.80883 41.4413 4.79147 41.3775C4.47637 40.2187 4.29577 39.0396 4.25166 37.8402C4.24591 37.6834 4.20228 37.6301 4.03857 37.6317C3.18725 37.6397 2.33582 37.6352 1.48442 37.6359C1.42831 37.6359 1.37216 37.6429 1.30006 37.6477C1.4515 39.5368 2.12984 41.1875 3.32085 42.6151ZM16.6633 31.3862C16.1726 31.7366 15.696 32.0727 15.2271 32.4194C15.1873 32.4489 15.1746 32.5552 15.1907 32.6145C15.5078 33.7795 15.6893 34.965 15.7338 36.1711C15.7392 36.3185 15.7797 36.3711 15.9366 36.3696C16.7945 36.3618 17.6524 36.3662 18.5103 36.3652C18.5647 36.3652 18.6191 36.3557 18.6846 36.3495C18.5295 34.4579 17.8526 32.8079 16.6633 31.3862ZM18.6853 37.6354C18.6017 37.6354 18.5508 37.6354 18.5 37.6354C17.6486 37.6354 16.7972 37.6397 15.9459 37.6317C15.782 37.6301 15.7448 37.6854 15.7315 37.8401C15.676 38.487 15.627 39.1361 15.5307 39.7776C15.4422 40.3665 15.2962 40.9468 15.1763 41.5269C15.6611 41.8855 16.1549 42.2508 16.6578 42.6229C17.8545 41.1872 18.5328 39.5364 18.6853 37.6354ZM9.34846 33.9073C8.7728 33.8077 8.20425 33.7386 7.65107 33.6055C7.09292 33.4712 6.54998 33.2734 5.99906 33.1031C5.77995 33.6309 5.4557 35.8682 5.53327 36.3514C6.80178 36.3514 8.07115 36.3514 9.34846 36.3514C9.34846 35.5203 9.34846 34.7039 9.34846 33.9073ZM5.5093 37.646C5.55966 38.7695 5.7003 39.8526 5.9957 40.9393C7.07618 40.4735 8.18783 40.2105 9.34201 40.1298C9.34201 39.2911 9.34201 38.4703 9.34201 37.646C8.06017 37.646 6.79541 37.646 5.5093 37.646ZM13.9901 33.0622C12.902 33.5327 11.7897 33.7899 10.6395 33.8729C10.6395 34.714 10.6395 35.5296 10.6395 36.3524C11.9228 36.3524 13.1925 36.3524 14.4738 36.3524C14.4279 35.2388 14.283 34.1549 13.9901 33.0622ZM10.6332 40.1309C11.8051 40.2079 12.9151 40.4774 13.9912 40.9367C14.2818 39.8431 14.4317 38.7569 14.4715 37.6523C13.1778 37.6523 11.9087 37.6523 10.6332 37.6523C10.6332 38.4802 10.6332 39.2913 10.6332 40.1309ZM13.6053 42.1665C12.6466 41.7313 11.671 41.4833 10.642 41.4119C10.642 42.8255 10.642 44.2167 10.642 45.6474C12.2631 44.9991 12.9597 43.6189 13.6053 42.1665ZM10.64 28.3802C10.64 29.7913 10.64 31.1839 10.64 32.5911C11.6783 32.5127 12.6559 32.2696 13.6013 31.835C13.484 31.572 13.3836 31.3255 13.2663 31.0874C12.8612 30.2653 12.375 29.5016 11.6511 28.9169C11.3523 28.6756 11.0272 28.4816 10.64 28.3802ZM6.3781 31.8346C7.34593 32.2704 8.31889 32.5157 9.3487 32.5896C9.3487 31.177 9.3487 29.7875 9.3487 28.3533C7.72383 28.9951 7.02805 30.3783 6.3781 31.8346ZM9.34569 45.6228C9.34569 44.2051 9.34569 42.8152 9.34569 41.4082C8.30837 41.493 7.32814 41.7287 6.38908 42.1655C6.80037 43.1786 7.29459 44.1103 8.07667 44.8596C8.43607 45.204 8.84028 45.4799 9.34569 45.6228ZM14.7693 31.2074C15.0777 30.973 15.4071 30.7227 15.755 30.4582C15.0768 29.8624 14.3555 29.3935 13.5864 29.0517C13.9732 29.7566 14.3672 30.4746 14.7693 31.2074ZM13.5843 44.9522C14.3563 44.6031 15.0785 44.1401 15.7546 43.542C15.4065 43.278 15.0753 43.0269 14.7694 42.7951C14.363 43.5349 13.9709 44.2484 13.5843 44.9522ZM6.39968 29.049C5.62907 29.4016 4.90068 29.8596 4.23262 30.4617C4.58393 30.7275 4.91221 30.9758 5.2159 31.2055C5.62015 30.469 6.01201 29.7552 6.39968 29.049ZM6.39683 44.9476C6.01072 44.2436 5.6173 43.5262 5.21559 42.7937C4.90502 43.03 4.57658 43.2799 4.23039 43.5433C4.91006 44.1391 5.63043 44.6074 6.39683 44.9476Z" fill="black"/>
<path d="M1.29897 36.3659C1.45095 34.4649 2.12964 32.8142 3.34138 31.3609C3.50943 31.498 3.66403 31.6351 3.82969 31.757C4.11203 31.9648 4.39586 32.1717 4.69039 32.3614C4.8125 32.44 4.83037 32.5128 4.79358 32.6437C4.47194 33.7873 4.2974 34.9548 4.25291 36.1411C4.2465 36.3126 4.20302 36.3729 4.01964 36.3706C3.1813 36.3601 2.34277 36.366 1.50428 36.366C1.44692 36.3659 1.38956 36.3659 1.29897 36.3659Z" fill="white"/>
<path d="M3.32085 42.615C2.12988 41.1875 1.4515 39.5368 1.30006 37.6477C1.37216 37.6429 1.42827 37.6359 1.48442 37.6359C2.33581 37.6352 3.18725 37.6397 4.03857 37.6317C4.20232 37.6301 4.24591 37.6834 4.25166 37.8402C4.29576 39.0396 4.47633 40.2187 4.79147 41.3775C4.80883 41.4413 4.7935 41.5557 4.74999 41.588C4.2865 41.9315 3.81429 42.2632 3.32085 42.615Z" fill="white"/>
<path d="M16.6633 31.3861C17.8527 32.8078 18.5296 34.4578 18.6847 36.3495C18.6191 36.3556 18.5647 36.3652 18.5103 36.3652C17.6524 36.3662 16.7945 36.3618 15.9366 36.3696C15.7797 36.3711 15.7392 36.3185 15.7338 36.1711C15.6893 34.965 15.5078 33.7795 15.1907 32.6145C15.1746 32.5551 15.1873 32.4488 15.2271 32.4194C15.696 32.0727 16.1726 31.7366 16.6633 31.3861Z" fill="white"/>
<path d="M18.6853 37.6354C18.5327 39.5364 17.8545 41.1872 16.6578 42.6229C16.1549 42.2508 15.661 41.8854 15.1763 41.5268C15.2962 40.9468 15.4423 40.3665 15.5307 39.7776C15.627 39.1361 15.676 38.487 15.7315 37.8401C15.7448 37.6853 15.782 37.6301 15.946 37.6316C16.7972 37.6397 17.6486 37.6354 18.5 37.6354C18.5509 37.6354 18.6017 37.6354 18.6853 37.6354Z" fill="white"/>
<path d="M9.34846 33.9072C9.34846 34.7038 9.34846 35.5203 9.34846 36.3513C8.07115 36.3513 6.80182 36.3513 5.53327 36.3513C5.45569 35.8681 5.77995 33.6309 5.99906 33.1031C6.54997 33.2734 7.09287 33.4712 7.65106 33.6055C8.20428 33.7386 8.77283 33.8077 9.34846 33.9072Z" fill="white"/>
<path d="M5.50931 37.646C6.79541 37.646 8.06017 37.646 9.34205 37.646C9.34205 38.4702 9.34205 39.2911 9.34205 40.1297C8.18787 40.2104 7.07623 40.4734 5.99575 40.9392C5.70031 39.8526 5.55967 38.7695 5.50931 37.646Z" fill="white"/>
<path d="M13.9901 33.0622C14.283 34.1549 14.4279 35.2387 14.4738 36.3523C13.1925 36.3523 11.9228 36.3523 10.6395 36.3523C10.6395 35.5296 10.6395 34.7139 10.6395 33.8728C11.7897 33.7899 12.902 33.5327 13.9901 33.0622Z" fill="white"/>
<path d="M10.6332 40.1308C10.6332 39.2912 10.6332 38.4802 10.6332 37.6522C11.9087 37.6522 13.1778 37.6522 14.4715 37.6522C14.4317 38.7569 14.2818 39.843 13.9912 40.9367C12.9151 40.4773 11.8051 40.2078 10.6332 40.1308Z" fill="white"/>
<path d="M13.6053 42.1664C12.9597 43.6189 12.2631 44.9991 10.642 45.6473C10.642 44.2166 10.642 42.8254 10.642 41.4119C11.671 41.4832 12.6466 41.7313 13.6053 42.1664Z" fill="white"/>
<path d="M10.64 28.3801C11.0272 28.4816 11.3523 28.6756 11.6511 28.9169C12.375 29.5015 12.8612 30.2652 13.2663 31.0873C13.3836 31.3255 13.484 31.5719 13.6013 31.8349C12.656 32.2695 11.6783 32.5126 10.64 32.591C10.64 31.1838 10.64 29.7913 10.64 28.3801Z" fill="white"/>
<path d="M6.3781 31.8346C7.02809 30.3783 7.72383 28.9951 9.3487 28.3532C9.3487 29.7875 9.3487 31.1769 9.3487 32.5896C8.31889 32.5157 7.34593 32.2703 6.3781 31.8346Z" fill="white"/>
<path d="M9.34569 45.6227C8.84029 45.4799 8.43612 45.204 8.07663 44.8596C7.29456 44.1103 6.80034 43.1786 6.38905 42.1654C7.32811 41.7287 8.30838 41.493 9.34565 41.4081C9.34569 42.8151 9.34569 44.205 9.34569 45.6227Z" fill="white"/>
<path d="M14.7693 31.2074C14.3672 30.4746 13.9732 29.7566 13.5864 29.0517C14.3554 29.3934 15.0768 29.8623 15.755 30.4582C15.4071 30.7226 15.0777 30.973 14.7693 31.2074Z" fill="white"/>
<path d="M13.5843 44.9522C13.9709 44.2484 14.363 43.5349 14.7694 42.795C15.0753 43.0269 15.4065 43.278 15.7546 43.5419C15.0785 44.14 14.3563 44.603 13.5843 44.9522Z" fill="white"/>
<path d="M6.39967 29.049C6.012 29.7551 5.62014 30.469 5.21585 31.2055C4.91221 30.9758 4.58389 30.7274 4.23257 30.4617C4.90067 29.8595 5.62906 29.4016 6.39967 29.049Z" fill="white"/>
<path d="M6.39683 44.9475C5.6304 44.6074 4.91002 44.139 4.23039 43.5432C4.57662 43.2798 4.90506 43.03 5.21559 42.7937C5.61734 43.5261 6.01072 44.2435 6.39683 44.9475Z" fill="white"/>
</g>
<defs>
<clipPath id="clip0_5301_69151">
<rect width="20" height="20" fill="white" transform="translate(0 27)"/>
</clipPath>
</defs>
</svg>
