<svg width="51" height="53" viewBox="0 0 51 53" fill="none" xmlns="http://www.w3.org/2000/svg">
<path d="M43.3197 15.0105H16.6394V41.3028H43.3197V15.0105Z" fill="white"/>
<path d="M44.7467 42.7298H15.2124V13.5835H44.7467V42.7298ZM18.0664 39.8758H41.8927V16.438H18.0664V39.8758Z" fill="black"/>
<path d="M38.8431 10.4846H15.1877V36.7769H38.8431V10.4846Z" fill="white"/>
<path d="M40.27 38.2039H13.7606V9.05717H40.27V38.2039ZM16.6146 35.3499H37.416V11.9116H16.6146V35.3499Z" fill="black"/>
<path d="M34.4015 6.32391H10.7461V32.6162H34.4015V6.32391Z" fill="white"/>
<path d="M35.8285 34.0432H9.31909V4.89647H35.8285V34.0432ZM12.1731 31.1892H32.9745V7.75089H12.1731V31.1892Z" fill="black"/>
<path d="M26.5501 4.15276V1.009L22.9712 2.15489L19.3923 1.009V4.15276H16.4437V8.94152H29.4982V4.15276H26.5501Z" fill="white"/>
<path d="M29.4988 9.65547H16.4438C16.0494 9.65547 15.7299 9.33598 15.7299 8.94152V4.15276C15.7299 3.7583 16.0494 3.4388 16.4438 3.4388H18.678V1.00946C18.678 0.781379 18.7868 0.567011 18.9714 0.432631C19.1556 0.297794 19.3928 0.259398 19.61 0.328873L22.9713 1.40483L26.3326 0.328873C26.5502 0.259398 26.7869 0.297794 26.9711 0.432631C27.1553 0.567011 27.2646 0.781379 27.2646 1.00946V3.4388H29.4988C29.8932 3.4388 30.2127 3.7583 30.2127 4.15276V8.94152C30.2127 9.33598 29.8932 9.65547 29.4988 9.65547ZM17.1582 8.22711H28.7848V4.8667H26.5506C26.1562 4.8667 25.8367 4.54721 25.8367 4.15276V1.9876L23.1893 2.83501C23.0472 2.88072 22.8954 2.88072 22.7537 2.83501L20.1068 1.9876V4.15276C20.1068 4.54721 19.7873 4.8667 19.3928 4.8667H17.1587V8.22711H17.1582Z" fill="black"/>
<path d="M30.9595 20.0686H13.9358C13.6053 20.0686 13.337 19.8003 13.337 19.4698C13.337 19.1393 13.6053 18.871 13.9358 18.871H30.9595C31.29 18.871 31.5583 19.1393 31.5583 19.4698C31.5583 19.8003 31.29 20.0686 30.9595 20.0686Z" fill="black"/>
<path d="M30.9595 23.6013H13.9358C13.6053 23.6013 13.337 23.333 13.337 23.0025C13.337 22.6721 13.6053 22.4038 13.9358 22.4038H30.9595C31.29 22.4038 31.5583 22.6721 31.5583 23.0025C31.5583 23.333 31.29 23.6013 30.9595 23.6013Z" fill="black"/>
<path d="M30.9595 27.1345H13.9358C13.6053 27.1345 13.337 26.8662 13.337 26.5357C13.337 26.2052 13.6053 25.9369 13.9358 25.9369H30.9595C31.29 25.9369 31.5583 26.2052 31.5583 26.5357C31.5583 26.8662 31.29 27.1345 30.9595 27.1345Z" fill="black"/>
<path d="M30.9595 30.1594H25.2553C24.9248 30.1594 24.6565 29.8911 24.6565 29.5606C24.6565 29.2301 24.9248 28.9618 25.2553 28.9618H30.9595C31.29 28.9618 31.5583 29.2301 31.5583 29.5606C31.5583 29.8911 31.29 30.1594 30.9595 30.1594Z" fill="black"/>
<path d="M20.848 11.9998C21.0248 12.0126 21.1935 12.025 21.3617 12.0368C21.3622 12.0533 21.3631 12.0702 21.3635 12.0867C21.3183 12.0972 21.2726 12.1054 21.2282 12.1182C21.0157 12.1808 20.9503 12.3038 21.0514 12.5017C21.1889 12.77 21.3027 13.0438 21.6606 13.1352C21.8352 13.18 21.9765 13.3057 22.1867 13.2444C22.2621 13.2225 22.3851 13.3098 22.466 13.3729C22.7087 13.5621 22.9222 13.5721 23.1507 13.3701C23.2837 13.2527 23.4167 13.2056 23.5945 13.2618C23.6585 13.2819 23.7476 13.2367 23.8203 13.2088C23.919 13.1708 24.01 13.11 24.1105 13.078C24.2792 13.0246 24.676 12.4866 24.6083 12.3326C24.5571 12.2156 24.4054 12.1429 24.2911 12.0437C24.4255 12.0291 24.5946 12.0108 24.8012 11.9879C24.8012 12.2503 24.8359 12.5291 24.7888 12.7938C24.7582 12.967 24.611 13.1201 24.5123 13.2801C24.4726 13.3445 24.4314 13.4131 24.3757 13.4624C24.2404 13.5813 24.1119 13.7321 23.9515 13.7947C23.5826 13.9392 23.3779 14.1595 23.3541 14.5512C23.3436 14.7235 23.4578 14.7985 23.6114 14.8542C23.9149 14.9639 24.2134 15.0878 24.5082 15.2194C24.6037 15.262 24.6938 15.3342 24.7651 15.4123C25.0316 15.7053 24.9392 16.081 24.5626 16.1999C24.3917 16.2538 24.2033 16.2529 23.9931 16.2808C24.058 16.3617 24.1174 16.4375 24.1787 16.5116C24.3807 16.7566 24.4218 16.7488 24.6293 16.5098C24.6887 16.4412 24.8071 16.4019 24.9013 16.3969C24.9379 16.395 24.9813 16.5248 25.022 16.5943C24.9941 16.5838 24.9657 16.5738 24.9379 16.5632C24.8483 16.619 24.7294 16.6547 24.675 16.7346C24.5425 16.9289 24.4017 17.0788 24.1503 17.1085C24.0671 17.1186 23.9931 17.2077 23.8779 17.2854C23.8587 17.2452 23.7865 17.1643 23.8002 17.1021C23.8112 17.0505 23.9227 17.0194 23.9903 16.9815C24.0347 16.9568 24.1169 16.9385 24.1188 16.9124C24.1224 16.8613 24.0955 16.7936 24.0575 16.7566C23.8934 16.5943 23.7211 16.4403 23.5109 16.2456C23.5968 16.5285 23.7901 16.7383 23.696 17.0244C23.3724 16.8978 23.3006 16.5751 23.1214 16.3484C23.0995 16.3621 23.078 16.3763 23.0561 16.39C23.1717 16.5715 23.2768 16.7607 23.4057 16.9321C23.5355 17.1049 23.5493 17.1273 23.4254 17.3974C23.3294 17.2347 23.238 17.1081 23.1763 16.9687C23.1178 16.8357 23.0958 16.6871 23.0465 16.5491C23.0273 16.4951 22.9784 16.4522 22.9432 16.4042C22.9094 16.4627 22.8454 16.5216 22.8463 16.5792C22.8513 16.8251 22.8792 17.0706 22.8906 17.3165C22.8943 17.3919 22.8723 17.4687 22.8623 17.5446C22.8307 17.5459 22.7987 17.5473 22.7672 17.5487C22.7576 17.466 22.7366 17.3828 22.7407 17.3005C22.753 17.0551 22.7827 16.8101 22.7882 16.5646C22.7896 16.5029 22.7261 16.4398 22.6648 16.326C22.4907 16.7136 22.5085 17.1131 22.1835 17.3645C22.0811 17.2022 22.0866 17.0843 22.2087 16.9417C22.3481 16.779 22.4491 16.5834 22.567 16.4019C22.5506 16.3909 22.5341 16.38 22.5176 16.369C22.344 16.5966 22.1703 16.8238 21.997 17.0514C21.9719 17.0363 21.9468 17.0212 21.9216 17.0057C21.8439 16.7374 22.0222 16.5212 22.1342 16.2241C21.9088 16.433 21.7324 16.5907 21.5637 16.7566C21.5258 16.7936 21.4984 16.8608 21.5016 16.912C21.5034 16.938 21.5861 16.9559 21.6286 16.9824C21.6995 17.0263 21.7946 17.0615 21.8261 17.1259C21.8448 17.1638 21.7598 17.2525 21.7406 17.2859C21.6296 17.21 21.5564 17.1209 21.4732 17.1104C21.2241 17.0788 21.0788 16.933 20.9467 16.7378C20.8923 16.6579 20.7744 16.6213 20.6852 16.5651C20.6569 16.5756 20.6286 16.5866 20.6002 16.5971C20.6391 16.5267 20.6665 16.4106 20.72 16.3969C20.7908 16.3786 20.8877 16.4302 20.9627 16.4718C21.0043 16.4951 21.0157 16.5843 21.0559 16.5975C21.1437 16.6263 21.2726 16.6688 21.3279 16.6281C21.4458 16.5418 21.5276 16.4055 21.6455 16.2639C21.4728 16.2561 21.343 16.2611 21.2164 16.2424C20.9933 16.209 20.7949 16.1258 20.7227 15.8849C20.6619 15.6811 20.7483 15.4375 20.975 15.3109C21.2689 15.1468 21.5797 15.0064 21.8965 14.8922C22.2909 14.7496 22.407 14.41 22.1168 14.1028C21.9966 13.9753 21.8202 13.9012 21.667 13.8057C21.635 13.7856 21.5934 13.7824 21.5587 13.7659C21.1697 13.5836 20.7026 12.7467 20.7579 12.3193C20.7735 12.2087 20.8187 12.1027 20.848 11.9998Z" fill="black"/>
<path d="M22.825 12.6589C23.1399 12.6612 23.2098 12.7092 23.2098 12.924C23.2094 13.1795 23.0841 13.3039 22.8231 13.3071C22.5525 13.3107 22.4264 13.1823 22.4323 12.9108C22.4369 12.6996 22.5036 12.6566 22.825 12.6589Z" fill="black"/>
<path d="M22.3089 12.7965C22.2673 12.7649 22.2257 12.7339 22.1804 12.6991C22.323 12.5469 22.4867 12.4176 22.5886 12.2507C22.6869 12.0899 22.7221 11.8901 22.8144 11.689C22.872 12.1095 23.1206 12.4057 23.4022 12.7307C23.3565 12.7234 23.2961 12.7325 23.2669 12.7064C23.0073 12.4797 22.5095 12.519 22.3089 12.7965Z" fill="black"/>
<path d="M20.8347 13.8597C20.2382 13.8336 19.8602 13.5164 19.9014 13.0666C20.1765 13.3797 20.6331 13.4519 20.8347 13.8597Z" fill="black"/>
<path d="M24.7823 13.867C25.0031 13.4592 25.4415 13.3751 25.7244 13.0748C25.7646 13.5177 25.4245 13.8043 24.7823 13.867Z" fill="black"/>
<path d="M20.4212 13.2997C19.8741 13.0799 19.7036 12.6201 19.9554 12.2037C20.1031 12.5506 20.2512 12.8998 20.4212 13.2997Z" fill="black"/>
<path d="M25.2041 13.3061C25.3755 12.9021 25.5227 12.5547 25.6685 12.2101C25.9295 12.5958 25.7594 13.0639 25.2041 13.3061Z" fill="black"/>
<path d="M24.3391 14.1846C24.66 13.8797 25.1189 14.015 25.4489 13.7541C25.4228 14.1627 24.926 14.346 24.3391 14.1846Z" fill="black"/>
<path d="M20.1633 13.7495C20.5157 14.0073 20.9673 13.8853 21.2864 14.1814C20.7283 14.3492 20.2355 14.176 20.1633 13.7495Z" fill="black"/>
<path d="M20.2369 12.5684C19.9398 12.1036 19.9874 11.7183 20.3946 11.3969C20.3393 11.8069 20.2913 12.1644 20.2369 12.5684Z" fill="black"/>
<path d="M25.3932 12.567C25.3369 12.1758 25.2853 11.8192 25.2318 11.4476C25.645 11.5811 25.6756 12.1781 25.3932 12.567Z" fill="black"/>
<path d="M21.7801 14.4607C21.3939 14.6572 21.0127 14.6211 20.6982 14.3282C21.0872 14.3707 21.4497 14.1723 21.7801 14.4607Z" fill="black"/>
<path d="M24.8782 14.3464C24.6181 14.6207 24.2406 14.6577 23.8539 14.4639C24.1706 14.1627 24.539 14.3821 24.8782 14.3464Z" fill="black"/>
<path d="M23.4259 14.5306C23.7422 14.5836 24.0196 14.6298 24.3094 14.6783C24.0772 14.937 23.6087 14.8775 23.4259 14.5306Z" fill="black"/>
<path d="M22.1609 14.5366C21.9726 14.8872 21.5493 14.9324 21.3153 14.6801C21.6065 14.6303 21.8839 14.5832 22.1609 14.5366Z" fill="black"/>
<path d="M22.7017 16.6007C22.7259 17.0957 22.6807 17.3165 22.5129 17.5217C22.3858 17.3892 22.4855 16.9028 22.7017 16.6007Z" fill="black"/>
<path d="M23.1495 17.5569C22.9456 17.3229 22.8944 17.0651 22.9337 16.576C23.0352 16.8219 23.1426 17.0532 23.2217 17.2936C23.2436 17.3595 23.1806 17.4527 23.1495 17.5569Z" fill="black"/>
<path d="M20.7719 13.164C20.4085 13.1109 20.2979 12.9578 20.3614 12.5931C20.4981 12.7837 20.6352 12.9738 20.7719 13.164Z" fill="black"/>
<path d="M25.2855 12.5497C25.345 12.9277 25.2467 13.0776 24.8605 13.1731C24.9921 12.9798 25.1242 12.7864 25.2855 12.5497Z" fill="black"/>
<path d="M24.7408 13.7115C24.6321 13.9766 24.4776 14.0338 24.1544 13.9287C24.383 13.6859 24.4136 13.6745 24.7408 13.7115Z" fill="black"/>
<path d="M21.4927 13.9204C21.1641 14.0329 21.0343 13.9904 20.8798 13.7349C21.1389 13.6512 21.1453 13.6531 21.4927 13.9204Z" fill="black"/>
<path d="M21.9831 14.1572C21.7002 14.3126 21.5621 14.2971 21.3491 14.1014C21.6896 13.9465 21.5946 13.9616 21.9831 14.1572Z" fill="black"/>
<path d="M23.6573 14.0877C23.8612 14.063 24.0651 14.0388 24.2689 14.0141C24.1048 14.2943 23.9407 14.3181 23.666 14.1709C23.6628 14.143 23.6601 14.1151 23.6573 14.0877Z" fill="black"/>
<path d="M21.0578 13.5301C20.7137 13.6169 20.5509 13.5136 20.4924 13.1868C20.7036 13.3148 20.8809 13.4222 21.0578 13.5301Z" fill="black"/>
<path d="M25.1037 13.2051C25.0461 13.5315 24.9089 13.6128 24.5693 13.5315C24.7476 13.4227 24.9254 13.3139 25.1037 13.2051Z" fill="black"/>
<path d="M25.1626 12.0071C25.3249 12.3161 25.3039 12.4418 25.0397 12.6553C25.0772 12.4569 25.1146 12.2585 25.1626 12.0071Z" fill="black"/>
<path d="M20.6008 12.6525C20.3284 12.4583 20.3042 12.3307 20.4554 12.0021C20.5121 12.2549 20.5565 12.4537 20.6008 12.6525Z" fill="black"/>
<path d="M22.1773 14.5068C22.026 14.4593 21.9254 14.4278 21.7769 14.3812C21.9135 14.3103 21.9994 14.2664 22.0963 14.2161C22.1187 14.2966 22.1384 14.3665 22.1773 14.5068Z" fill="black"/>
<path d="M23.4653 14.5009C23.4886 14.3821 23.5028 14.3108 23.5211 14.2175C23.623 14.2664 23.7131 14.3099 23.858 14.3793C23.7026 14.4273 23.6011 14.4589 23.4653 14.5009Z" fill="black"/>
<path d="M38.6096 51.4311C32.7544 51.4311 28.0082 43.7747 28.0082 43.7747C28.0082 43.7747 32.7544 36.1182 38.6096 36.1182C44.4647 36.1182 49.2109 43.7747 49.2109 43.7747C49.2109 43.7747 44.4642 51.4311 38.6096 51.4311Z" fill="white"/>
<path d="M38.6093 52.7859C32.0754 52.7859 27.0668 44.8278 26.8565 44.4891L26.4141 43.7751L26.8565 43.0612C27.0668 42.7225 32.0754 34.7644 38.6093 34.7644C45.1431 34.7644 50.1517 42.7225 50.3615 43.0612L50.804 43.7751L50.3615 44.4891C50.1517 44.8273 45.1431 52.7859 38.6093 52.7859ZM29.6456 43.7751C30.924 45.5605 34.5587 50.0773 38.6093 50.0773C42.6598 50.0773 46.2936 45.5614 47.5725 43.7751C46.294 41.9898 42.6598 37.473 38.6093 37.473C34.5591 37.473 30.9249 41.9884 29.6456 43.7751Z" fill="black"/>
<path d="M38.6092 47.0208C40.3997 47.0208 41.8512 45.5677 41.8512 43.7751C41.8512 41.9826 40.3997 40.5294 38.6092 40.5294C36.8187 40.5294 35.3672 41.9826 35.3672 43.7751C35.3672 45.5677 36.8187 47.0208 38.6092 47.0208Z" fill="#FB3544"/>
<path d="M38.6093 48.3751C36.0748 48.3751 34.0129 46.3114 34.0129 43.7751C34.0129 41.2388 36.0748 39.1751 38.6093 39.1751C41.1437 39.1751 43.2056 41.2388 43.2056 43.7751C43.2056 46.3114 41.1437 48.3751 38.6093 48.3751ZM38.6093 41.8833C37.5685 41.8833 36.7216 42.7316 36.7216 43.7751C36.7216 44.8186 37.5685 45.667 38.6093 45.667C39.65 45.667 40.497 44.8186 40.497 43.7751C40.497 42.7316 39.6505 41.8833 38.6093 41.8833Z" fill="black"/>
<g clip-path="url(#clip0_5301_69002)">
<path d="M11.249 26C11.7489 26 12.2489 26 12.7488 26C12.809 26.013 12.8687 26.0337 12.9295 26.0378C15.25 26.1969 17.3926 26.9005 19.3477 28.15C21.0953 29.2667 22.5254 30.6824 23.4097 32.5856C23.9559 33.7611 24.1453 34.9873 23.8842 36.2659C23.58 37.7562 22.6972 38.8251 21.3989 39.573C21.1931 39.6916 21.128 39.8168 21.1332 40.0447C21.1486 40.7209 21.1589 41.3984 21.1314 42.0738C21.1138 42.5054 21.0722 42.9464 20.9616 43.3621C20.3878 45.5177 18.4642 46.9883 16.2211 46.9953C13.4717 47.0038 10.7223 46.9988 7.97287 46.9954C7.68466 46.995 7.395 46.9795 7.10853 46.9483C5.00077 46.719 3.10993 44.8568 2.91664 42.756C2.83356 41.8532 2.86578 40.9391 2.86545 40.0301C2.86535 39.8091 2.80449 39.6904 2.60748 39.577C1.44216 38.907 0.585431 37.974 0.214383 36.6583C0.117969 36.3166 0.0701146 35.9612 0 35.6121C0 35.2855 0 34.9589 0 34.6323C0.013619 34.5811 0.0339067 34.5306 0.0399179 34.4786C0.136237 33.641 0.418293 32.8633 0.814936 32.1249C1.56938 30.7205 2.63975 29.5917 3.91787 28.6521C5.68816 27.3506 7.66424 26.5293 9.83708 26.1828C10.3055 26.1082 10.7782 26.0602 11.249 26ZM11.987 38.5984C14.5405 38.5984 17.0942 38.5848 19.6475 38.6098C20.1643 38.6149 20.5812 38.4695 20.9896 38.1865C22.2359 37.323 22.7147 36.1261 22.5577 34.6532C22.4422 33.569 21.9736 32.6213 21.3019 31.7861C19.0219 28.9516 15.9834 27.5884 12.3968 27.4176C9.84666 27.2961 7.4877 28.0001 5.34087 29.3734C3.99583 30.2338 2.86254 31.3117 2.08245 32.7206C1.54478 33.6918 1.27812 34.7218 1.46339 35.8367C1.66866 37.072 2.41494 37.9007 3.49122 38.4694C3.63492 38.5453 3.81277 38.5926 3.97498 38.593C6.64562 38.6006 9.31632 38.5984 11.987 38.5984ZM19.6518 42.8092C14.5431 42.8092 9.45439 42.8092 4.35006 42.8092C4.36448 42.8818 4.37345 42.9424 4.38871 43.0014C4.77878 44.5081 6.18051 45.5923 7.76877 45.5958C10.5885 45.602 13.4082 45.6016 16.2279 45.5952C17.1759 45.5931 17.9965 45.2512 18.6753 44.5919C19.1788 44.103 19.5076 43.5151 19.6518 42.8092ZM4.2761 41.3821C9.4364 41.3821 14.5778 41.3821 19.7136 41.3821C19.7136 40.9123 19.7136 40.4588 19.7136 40.0103C14.5587 40.0103 9.42283 40.0103 4.2761 40.0103C4.2761 40.4699 4.2761 40.9178 4.2761 41.3821Z" fill="black"/>
<path d="M11.987 38.5984C9.31628 38.5984 6.64558 38.6006 3.97494 38.5931C3.81273 38.5926 3.63488 38.5454 3.49118 38.4695C2.41495 37.9008 1.66867 37.0721 1.46335 35.8368C1.27808 34.7219 1.54474 33.6918 2.08241 32.7207C2.8625 31.3118 3.99574 30.2339 5.34083 29.3735C7.48766 28.0002 9.84662 27.2962 12.3968 27.4177C15.9834 27.5885 19.0219 28.9516 21.3018 31.7862C21.9736 32.6214 22.4421 33.5691 22.5577 34.6533C22.7147 36.1262 22.2359 37.3231 20.9895 38.1866C20.5812 38.4696 20.1642 38.615 19.6475 38.6099C17.0942 38.5848 14.5405 38.5984 11.987 38.5984ZM16.3819 32.6469C16.3106 32.6318 16.2825 32.6242 16.2539 32.62C15.3666 32.4902 14.4799 32.3569 13.5916 32.2347C13.4201 32.2111 13.3237 32.1467 13.2463 31.9848C12.8848 31.2282 12.5062 30.4795 12.133 29.7285C12.0963 29.6547 12.0545 29.5835 11.9997 29.4828C11.9451 29.5817 11.9026 29.6523 11.866 29.7259C11.4864 30.4911 11.1049 31.2556 10.7313 32.0238C10.6706 32.1487 10.5951 32.2091 10.4553 32.2278C9.85259 32.3082 9.25119 32.3989 8.64942 32.4866C8.31716 32.5351 7.98509 32.5849 7.62188 32.6388C7.69613 32.7166 7.73717 32.7625 7.78127 32.8054C8.39028 33.3969 8.9959 33.9918 9.61195 34.576C9.74946 34.7064 9.80943 34.8207 9.76261 35.0178C9.68019 35.3645 9.63445 35.72 9.57471 36.072C9.4806 36.6269 9.38762 37.1819 9.28871 37.7692C9.39912 37.7144 9.47548 37.6782 9.55029 37.6391C10.2957 37.2495 11.043 36.8633 11.7843 36.466C11.9362 36.3846 12.053 36.3753 12.2105 36.4604C12.9573 36.8637 13.7119 37.2527 14.4639 37.6465C14.5347 37.6836 14.6068 37.7182 14.7104 37.77C14.5475 36.8142 14.4006 35.9032 14.231 34.9964C14.1968 34.8136 14.2469 34.7116 14.3689 34.5948C15.0325 33.9598 15.6897 33.3182 16.3819 32.6469Z" fill="white"/>
<path d="M19.6518 42.8092C19.5076 43.5151 19.1787 44.1031 18.6754 44.5919C17.9965 45.2512 17.1759 45.5931 16.228 45.5952C13.4083 45.6016 10.5885 45.6019 7.76881 45.5958C6.18054 45.5923 4.77886 44.5081 4.38875 43.0014C4.37349 42.9424 4.36452 42.8819 4.3501 42.8092C9.45437 42.8092 14.5431 42.8092 19.6518 42.8092Z" fill="white"/>
<path d="M4.27612 41.3821C4.27612 40.9178 4.27612 40.47 4.27612 40.0103C9.42281 40.0103 14.5587 40.0103 19.7136 40.0103C19.7136 40.4588 19.7136 40.9123 19.7136 41.3821C14.5778 41.3821 9.43643 41.3821 4.27612 41.3821Z" fill="white"/>
<path d="M16.3819 32.6469C15.6897 33.3182 15.0325 33.9598 14.3689 34.5948C14.2469 34.7116 14.1968 34.8136 14.231 34.9964C14.4006 35.9032 14.5475 36.8142 14.7104 37.77C14.6068 37.7181 14.5347 37.6835 14.4639 37.6465C13.7119 37.2527 12.9573 36.8636 12.2105 36.4603C12.053 36.3753 11.9362 36.3846 11.7843 36.466C11.043 36.8633 10.2957 37.2494 9.5503 37.6391C9.47549 37.6782 9.39913 37.7144 9.28872 37.7691C9.38762 37.1819 9.4806 36.6268 9.57472 36.0719C9.63445 35.7199 9.68015 35.3644 9.76261 35.0177C9.80948 34.8207 9.74946 34.7064 9.61196 34.5759C8.99591 33.9918 8.39028 33.3969 7.78128 32.8054C7.73713 32.7625 7.69609 32.7165 7.62189 32.6387C7.98509 32.5849 8.31712 32.535 8.64942 32.4866C9.25119 32.3989 9.85259 32.3081 10.4554 32.2277C10.5951 32.2091 10.6706 32.1487 10.7313 32.0238C11.1049 31.2555 11.4864 30.4911 11.8661 29.7258C11.9026 29.6522 11.9451 29.5816 11.9997 29.4827C12.0545 29.5834 12.0963 29.6546 12.133 29.7284C12.5062 30.4795 12.8848 31.2281 13.2463 31.9848C13.3237 32.1467 13.4201 32.2111 13.5916 32.2347C14.4799 32.3568 15.3667 32.4901 16.2539 32.6199C16.2825 32.6242 16.3106 32.6318 16.3819 32.6469ZM10.6594 33.6145C10.8437 33.8046 11.022 33.9667 11.1711 34.152C11.2381 34.2353 11.2826 34.3676 11.2748 34.473C11.2572 34.7097 11.2005 34.9436 11.1533 35.2158C11.3384 35.1203 11.501 35.0584 11.638 34.9608C11.8829 34.7864 12.106 34.7732 12.355 34.9558C12.4921 35.0563 12.6596 35.1156 12.8441 35.2092C12.7982 34.9438 12.768 34.721 12.7189 34.5024C12.6849 34.3507 12.7085 34.2404 12.8324 34.1327C13.0104 33.9782 13.1691 33.8017 13.3584 33.612C13.0943 33.5742 12.8716 33.5334 12.647 33.5133C12.4909 33.4995 12.3909 33.4444 12.3271 33.2936C12.2362 33.0786 12.122 32.8733 11.9989 32.6258C11.8715 32.8816 11.7616 33.0789 11.6743 33.2856C11.6118 33.4334 11.5183 33.4981 11.3598 33.513C11.1308 33.5345 10.9039 33.5779 10.6594 33.6145Z" fill="black"/>
<path d="M10.6594 33.6145C10.9039 33.5779 11.1308 33.5345 11.3598 33.513C11.5183 33.4981 11.6118 33.4334 11.6742 33.2856C11.7615 33.0789 11.8715 32.8816 11.9988 32.6258C12.122 32.8733 12.2361 33.0786 12.3271 33.2936C12.3908 33.4444 12.4909 33.4995 12.647 33.5134C12.8716 33.5334 13.0943 33.5742 13.3584 33.612C13.169 33.8017 13.0104 33.9782 12.8324 34.1328C12.7085 34.2404 12.6849 34.3507 12.7189 34.5024C12.768 34.721 12.7982 34.9437 12.8441 35.2092C12.6595 35.1157 12.4921 35.0563 12.355 34.9558C12.106 34.7732 11.8829 34.7864 11.6379 34.9608C11.5009 35.0584 11.3384 35.1203 11.1533 35.2158C11.2005 34.9436 11.2572 34.7098 11.2748 34.473C11.2826 34.3676 11.238 34.2353 11.1711 34.152C11.022 33.9667 10.8438 33.8046 10.6594 33.6145Z" fill="white"/>
</g>
<defs>
<clipPath id="clip0_5301_69002">
<rect width="24" height="21" fill="white" transform="translate(0 26)"/>
</clipPath>
</defs>
</svg>
