<svg width="42" height="42" viewBox="0 0 42 42" fill="none" xmlns="http://www.w3.org/2000/svg">
<path d="M23.949 23.1824C23.9755 23.2617 24.0283 23.4468 24.0812 23.6318C25.7201 27.7555 27.3854 31.9055 29.0243 36.0292C29.6058 37.483 30.1874 38.9105 30.7689 40.3643C30.9275 40.7344 31.1654 40.9987 31.5884 41.0252C32.0113 41.0252 32.2756 40.7872 32.4342 40.4172C32.4607 40.3643 32.4871 40.285 32.5135 40.2321C33.2273 38.5668 33.941 36.8751 34.6811 35.2097C34.7604 34.9983 34.9719 34.8132 35.1833 34.7075C36.9015 33.9409 38.6197 33.2008 40.3643 32.4871C40.7344 32.3285 40.9723 32.0906 40.9988 31.6941C41.0252 31.2976 40.7873 31.0332 40.4436 30.8482C40.4172 30.8218 40.3643 30.8218 40.3379 30.7953C35.3684 28.0198 30.3989 25.2707 25.4029 22.4952C25.2707 22.4158 25.1121 22.3365 24.9799 22.3101C24.4513 22.0986 23.9226 22.5216 23.949 23.1824ZM11.0758 3.41005C11.5781 3.41005 12.0803 3.43648 12.5826 3.41005C12.794 3.41005 13.0319 3.35718 13.2434 3.27788C13.587 3.11928 13.7192 2.7492 13.6135 2.3527C13.5342 1.95619 13.217 1.71829 12.6883 1.71829C11.631 1.71829 10.5736 1.69186 9.54269 1.71829C9.27836 1.71829 8.93472 1.85046 8.77612 2.0355C8.61751 2.24696 8.59108 2.61704 8.64395 2.88137C8.72325 3.25144 9.09332 3.41005 9.43696 3.41005C9.99206 3.43648 10.5472 3.41005 11.0758 3.41005ZM21.385 1.71829C21.385 1.71829 21.385 1.69186 21.385 1.71829C20.8827 1.71829 20.3805 1.69186 19.8783 1.71829C19.6668 1.71829 19.4553 1.77116 19.2703 1.85046C18.9266 2.00906 18.768 2.37913 18.8473 2.7492C18.9266 3.14571 19.2438 3.41005 19.7725 3.43648C20.8563 3.46291 21.9401 3.46291 22.9974 3.43648C23.2353 3.43648 23.5261 3.30431 23.7111 3.14571C23.9755 2.93424 24.0019 2.56417 23.8697 2.2734C23.7376 1.90333 23.4204 1.77116 23.0503 1.74472C22.4688 1.69186 21.9136 1.71829 21.385 1.71829ZM3.41008 11.1022C3.41008 10.5736 3.46295 10.0713 3.41008 9.54266C3.38365 9.25189 3.27791 8.90825 3.06645 8.74965C2.88141 8.59104 2.4849 8.56461 2.22057 8.64391C1.79763 8.74965 1.69189 9.14615 1.69189 9.54266C1.69189 10.5736 1.69189 11.6309 1.69189 12.6618C1.69189 12.8469 1.74476 13.0583 1.82406 13.2434C1.98266 13.587 2.35274 13.7192 2.72281 13.6399C3.11931 13.5606 3.35722 13.2434 3.38365 12.7676C3.43652 12.2125 3.41008 11.6573 3.41008 11.1022ZM3.38365 21.3585C3.41008 21.3585 3.41008 21.3585 3.43652 21.3585C3.43652 20.8298 3.43652 20.3276 3.43652 19.7989C3.41008 19.1909 3.09288 18.8209 2.56421 18.8209C2.06197 18.8209 1.71833 19.1909 1.71833 19.7725C1.69189 20.8298 1.71833 21.8872 1.71833 22.9181C1.71833 23.1031 1.7712 23.2882 1.8505 23.4468C2.0091 23.764 2.29987 23.9226 2.66994 23.8697C3.04001 23.8168 3.35722 23.6054 3.38365 23.2353C3.41008 22.6273 3.38365 21.9929 3.38365 21.3585ZM29.0507 11.1022C29.0507 11.6045 29.0507 12.1067 29.0507 12.6354C29.0507 12.6618 29.0507 12.6883 29.0507 12.7147C29.0772 13.2962 29.3944 13.6663 29.8966 13.6927C30.3989 13.6927 30.7425 13.3227 30.7425 12.7411C30.7425 11.6838 30.7425 10.6 30.7425 9.54266C30.7425 8.96112 30.3724 8.59104 29.8702 8.59104C29.3679 8.59104 29.0507 8.96112 29.0507 9.51622C29.0507 10.0185 29.0507 10.5471 29.0507 11.1022ZM29.0507 21.3585C29.0507 21.8872 29.0507 22.3894 29.0507 22.9181C29.0507 22.9445 29.0507 22.971 29.0507 22.9974C29.0772 23.5525 29.4208 23.9226 29.8966 23.9226C30.3724 23.9226 30.7425 23.5525 30.7425 22.9974C30.7425 21.9136 30.7425 20.8298 30.7425 19.746C30.7425 19.1909 30.3989 18.8209 29.8966 18.8209C29.3944 18.8209 29.0507 19.1645 29.0243 19.7725C29.0507 20.2747 29.0507 20.8298 29.0507 21.3585ZM11.1023 29.8966C11.6045 29.8966 12.1068 29.8966 12.6354 29.8966C12.6619 29.8966 12.6883 29.8966 12.7147 29.8966C13.2963 29.8701 13.6663 29.5529 13.6663 29.0507C13.6663 28.5485 13.2963 28.2048 12.7147 28.2048C11.6574 28.2048 10.5736 28.2048 9.51626 28.2048C8.96115 28.2048 8.59108 28.5485 8.59108 29.0243C8.59108 29.5265 8.93472 29.8701 9.51626 29.8966C10.0185 29.8966 10.5736 29.8966 11.1023 29.8966ZM21.3585 29.8966C21.8608 29.8966 22.363 29.8966 22.8917 29.8966C22.9181 29.8966 22.9446 29.8966 22.971 29.8966C23.5525 29.8701 23.9226 29.5529 23.9226 29.0507C23.9226 28.5485 23.5525 28.2048 22.971 28.2048C21.9136 28.2048 20.8299 28.2048 19.7725 28.2048C19.2174 28.2048 18.8473 28.5485 18.8209 29.0243C18.8209 29.5265 19.1645 29.8701 19.7461 29.8966C20.2748 29.8966 20.8034 29.8966 21.3585 29.8966Z" fill="white"/>
<path d="M4.49372 0C4.99596 0.237903 5.15456 0.634408 5.12813 1.16308C5.1017 2.14113 5.12813 3.11917 5.12813 4.07078C5.12813 4.78449 4.81093 5.12813 4.07078 5.12813C3.09274 5.12813 2.11469 5.1017 1.16308 5.12813C0.634408 5.12813 0.237903 4.96953 0 4.49372C0 3.22491 0 1.92966 0 0.660842C0.211469 0.422939 0.422939 0.211469 0.634408 0C1.92966 0 3.19847 0 4.49372 0Z" fill="white"/>
<path d="M31.7997 0C32.302 0.211469 32.487 0.581541 32.4606 1.11021C32.4342 2.08826 32.4606 3.09274 32.4606 4.07078C32.4606 4.83736 32.1434 5.12813 31.4032 5.12813C30.3988 5.12813 29.3943 5.12813 28.4162 5.12813C27.7025 5.12813 27.3589 4.81093 27.3589 4.07078C27.3589 3.0663 27.3589 2.06183 27.3589 1.08378C27.3589 0.555107 27.5439 0.185036 28.0726 0C29.2885 0 30.5574 0 31.7997 0Z" fill="white"/>
<path d="M0 27.1474C0.211469 26.6452 0.581541 26.4602 1.11021 26.4866C2.08826 26.513 3.09274 26.4866 4.07078 26.4866C4.83736 26.4866 5.12813 26.8038 5.12813 27.5704C5.12813 28.5748 5.12813 29.5793 5.12813 30.5574C5.12813 31.2711 4.81093 31.5883 4.12365 31.6147C3.09274 31.6147 2.06183 31.6147 1.05735 31.6147C0.555107 31.6147 0.185036 31.4032 0.0264337 30.901C0 29.6586 0 28.4162 0 27.1474Z" fill="white"/>
<path d="M23.9487 23.1824C23.9487 22.5216 24.451 22.1251 25.0061 22.2573C25.1647 22.3101 25.2968 22.363 25.429 22.4423C30.3985 25.2178 35.3681 27.9669 40.364 30.7425C40.3905 30.7689 40.4433 30.7689 40.4698 30.7953C40.8134 30.9804 41.0513 31.2447 41.0249 31.6412C40.9984 32.0377 40.7605 32.2756 40.3905 32.4342C38.6723 33.1744 36.9277 33.9145 35.2095 34.6546C34.998 34.7339 34.7865 34.9454 34.7072 35.1569C33.9671 36.8222 33.2534 38.514 32.5397 40.1793C32.5132 40.2322 32.4868 40.3115 32.4604 40.3643C32.3018 40.7344 32.0374 40.9987 31.6145 40.9723C31.1916 40.9723 30.9272 40.708 30.795 40.3115C30.2135 38.8576 29.632 37.4302 29.0504 35.9763C27.4115 31.8527 25.7462 27.729 24.1073 23.5789C24.0016 23.4468 23.9752 23.2617 23.9487 23.1824Z" fill="white"/>
<path d="M11.0758 3.41007C10.5207 3.41007 9.992 3.41007 9.43689 3.41007C9.06682 3.41007 8.72319 3.25146 8.64388 2.88139C8.59102 2.61706 8.61745 2.24698 8.77605 2.03552C8.93466 1.85048 9.27829 1.71831 9.54263 1.71831C10.6 1.69188 11.6573 1.69188 12.6882 1.71831C13.2169 1.71831 13.5341 1.95621 13.6134 2.35272C13.6927 2.72279 13.587 3.09286 13.2433 3.2779C13.0583 3.38363 12.8204 3.41007 12.5825 3.41007C12.1067 3.4365 11.578 3.4365 11.0758 3.41007Z" fill="white"/>
<path d="M21.3849 1.71833C21.94 1.71833 22.4687 1.71833 23.0238 1.71833C23.3938 1.71833 23.7111 1.87693 23.8432 2.247C23.9754 2.56421 23.949 2.90784 23.6846 3.11931C23.4996 3.27791 23.2088 3.41008 22.9709 3.41008C21.8871 3.43652 20.8033 3.43652 19.746 3.41008C19.2438 3.41008 18.9001 3.14575 18.8208 2.72281C18.768 2.37917 18.9001 1.98266 19.2438 1.82406C19.4288 1.74476 19.6403 1.69189 19.8517 1.69189C20.3804 1.69189 20.8827 1.69189 21.3849 1.71833C21.3849 1.71833 21.3849 1.69189 21.3849 1.71833Z" fill="white"/>
<path d="M3.41002 11.1023C3.41002 11.6574 3.43645 12.1861 3.41002 12.7412C3.38358 13.2434 3.14568 13.5342 2.74917 13.6135C2.3791 13.7192 2.00903 13.5606 1.85043 13.2434C1.77113 13.0584 1.71826 12.8733 1.71826 12.6619C1.71826 11.631 1.71826 10.5736 1.71826 9.54269C1.71826 9.14619 1.824 8.74968 2.24694 8.64395C2.51127 8.56465 2.88134 8.61751 3.09281 8.74968C3.30428 8.90828 3.41002 9.25192 3.43645 9.54269C3.46288 10.0714 3.41002 10.6 3.41002 11.1023Z" fill="white"/>
<path d="M3.38361 21.3586C3.38361 21.993 3.41005 22.6274 3.38361 23.2618C3.35718 23.6583 3.06641 23.8698 2.6699 23.8962C2.29983 23.9491 2.00906 23.7905 1.85046 23.4733C1.77116 23.3147 1.71829 23.1297 1.71829 22.9446C1.71829 21.8873 1.69186 20.8299 1.71829 19.799C1.71829 19.191 2.06193 18.8474 2.56417 18.8474C3.09284 18.8474 3.41005 19.191 3.43648 19.8255C3.46291 20.3541 3.43648 20.8564 3.43648 21.385C3.41005 21.3586 3.38361 21.3586 3.38361 21.3586Z" fill="white"/>
<path d="M29.0508 11.1021C29.0508 10.5734 29.0508 10.0447 29.0508 9.48963C29.0508 8.90809 29.3944 8.56445 29.8702 8.56445C30.3725 8.56445 30.7425 8.93452 30.7425 9.51606C30.7425 10.5734 30.7425 11.6572 30.7425 12.7145C30.7425 13.2961 30.3989 13.6662 29.8967 13.6662C29.3944 13.6662 29.0772 13.2961 29.0508 12.6881C29.0508 12.6617 29.0508 12.6352 29.0508 12.6088C29.0508 12.1066 29.0508 11.6043 29.0508 11.1021Z" fill="white"/>
<path d="M29.0508 21.3585C29.0508 20.8298 29.0508 20.3012 29.0508 19.746C29.0508 19.1645 29.3944 18.7944 29.9231 18.7944C30.3989 18.7944 30.7425 19.1645 30.769 19.7196C30.769 20.8034 30.769 21.8872 30.769 22.971C30.769 23.5261 30.3989 23.8961 29.9231 23.8961C29.4473 23.8961 29.1036 23.5261 29.0772 22.971C29.0772 22.9445 29.0772 22.9181 29.0772 22.8917C29.0508 22.3894 29.0508 21.8872 29.0508 21.3585Z" fill="white"/>
<path d="M11.1019 29.8966C10.5733 29.8966 10.0446 29.8966 9.4895 29.8966C8.90795 29.8966 8.53788 29.553 8.56432 29.0243C8.56432 28.5485 8.93439 28.2048 9.4895 28.2048C10.5468 28.2048 11.6306 28.2048 12.688 28.2048C13.2695 28.2048 13.6396 28.5485 13.6396 29.0507C13.6396 29.553 13.2695 29.8702 12.688 29.8966C12.6615 29.8966 12.6351 29.8966 12.6087 29.8966C12.1064 29.8966 11.6042 29.8966 11.1019 29.8966Z" fill="white"/>
<path d="M21.3583 29.8966C20.8296 29.8966 20.3009 29.8966 19.7458 29.8966C19.1643 29.8702 18.7942 29.553 18.8207 29.0243C18.8207 28.5485 19.1907 28.2048 19.7723 28.2048C20.8296 28.2048 21.9134 28.2048 22.9708 28.2048C23.5523 28.2048 23.9224 28.5485 23.9224 29.0507C23.9224 29.553 23.5523 29.8702 22.9708 29.8966C22.9443 29.8966 22.9179 29.8966 22.8914 29.8966C22.3628 29.8966 21.8605 29.8966 21.3583 29.8966Z" fill="white"/>
</svg>
