<svg width="23" height="27" viewBox="0 0 23 27" fill="none" xmlns="http://www.w3.org/2000/svg">
<path d="M4.9933 5.59951C4.86071 5.59951 4.75223 5.70799 4.75223 5.84058V7.28701C4.75223 7.4196 4.86071 7.52808 4.9933 7.52808H16.5647C16.6973 7.52808 16.8058 7.4196 16.8058 7.28701V5.84058C16.8058 5.70799 16.6973 5.59951 16.5647 5.59951H4.9933ZM10.5379 9.93879H4.9933C4.86071 9.93879 4.75223 10.0473 4.75223 10.1799V11.6263C4.75223 11.7589 4.86071 11.8674 4.9933 11.8674H10.5379C10.6705 11.8674 10.779 11.7589 10.779 11.6263V10.1799C10.779 10.0473 10.6705 9.93879 10.5379 9.93879ZM9.09152 23.7401H2.34152V2.52584H19.2165V12.1687C19.2165 12.3013 19.325 12.4098 19.4576 12.4098H21.1451C21.2777 12.4098 21.3862 12.3013 21.3862 12.1687V1.32049C21.3862 0.787116 20.9552 0.356201 20.4219 0.356201H1.13616C0.60279 0.356201 0.171875 0.787116 0.171875 1.32049V24.9455C0.171875 25.4789 0.60279 25.9098 1.13616 25.9098H9.09152C9.22411 25.9098 9.33259 25.8013 9.33259 25.6687V23.9812C9.33259 23.8486 9.22411 23.7401 9.09152 23.7401ZM22.3504 21.0883H18.0112V19.9854C19.4064 19.5696 20.4219 18.2799 20.4219 16.7491C20.4219 14.8838 18.9122 13.3741 17.0469 13.3741C15.1816 13.3741 13.6719 14.8838 13.6719 16.7491C13.6719 18.2769 14.6874 19.5696 16.0826 19.9854V21.0883H11.7433C11.4781 21.0883 11.2612 21.3053 11.2612 21.5705V26.1508C11.2612 26.416 11.4781 26.633 11.7433 26.633H22.3504C22.6156 26.633 22.8326 26.416 22.8326 26.1508V21.5705C22.8326 21.3053 22.6156 21.0883 22.3504 21.0883ZM15.5402 16.7491C15.5402 15.9174 16.2152 15.2424 17.0469 15.2424C17.8786 15.2424 18.5536 15.9174 18.5536 16.7491C18.5536 17.5808 17.8786 18.2558 17.0469 18.2558C16.2152 18.2558 15.5402 17.5808 15.5402 16.7491ZM20.9643 24.7647H13.1295V22.9567H20.9643V24.7647Z" fill="white"/>
</svg>
