<svg width="41" height="51" viewBox="0 0 41 51" fill="none" xmlns="http://www.w3.org/2000/svg">
<path d="M19.918 0C20.2893 0 20.6505 0 21.0218 0C21.4131 0.179648 21.8346 0.309393 22.1858 0.548924C25.4871 2.72466 28.9188 4.6409 32.7318 5.82857C33.9861 6.21781 34.2169 7.57515 33.2636 8.47339C32.5512 9.14207 31.8187 9.80078 31.1263 10.4994C30.9658 10.6591 30.8353 10.9485 30.8353 11.1781C30.8152 13.0045 30.8353 14.8309 30.8253 16.6573C30.8152 17.825 30.2734 18.6734 29.1997 19.1924C29.0392 19.2722 28.8987 19.5018 28.8385 19.6914C28.688 20.1605 28.6177 20.6595 28.4672 21.1286C27.9053 22.8751 26.7112 24.1526 25.2864 25.2405C24.8047 25.6098 24.8047 26.0489 25.2663 26.4182C25.9988 27.017 26.7714 27.5759 27.4738 28.2147C28.096 28.7736 28.7984 29.0431 29.6011 29.2027C31.2969 29.5521 33.0127 29.8415 34.6584 30.3605C38.0499 31.4284 40.2575 34.5423 40.4381 38.1951C40.5786 40.9796 40.7592 43.7642 40.98 46.5387C41.1907 49.2534 39.6253 51 36.886 51C27.7147 51 18.5433 51 9.36199 51C7.51569 51 5.65935 51 3.81304 51C2.74941 51 1.83629 50.6108 1.07369 49.8622C0.471635 49.2634 0.20071 48.5049 -0.0100098 47.7164C-0.0100098 47.3871 -0.0100098 47.0477 -0.0100098 46.7184C0.020093 46.5886 0.0602301 46.4689 0.0702643 46.3391C0.180641 44.6624 0.27095 42.9957 0.401395 41.319C0.511772 39.762 0.511772 38.1851 0.822834 36.6681C1.50516 33.3446 3.57222 31.1589 6.85343 30.2207C8.55925 29.7317 10.3253 29.4423 12.0612 29.053C12.3422 28.9932 12.6532 28.9033 12.884 28.7237C13.8774 27.9652 14.8407 27.1767 15.804 26.3783C15.9545 26.2485 16.095 25.9791 16.0649 25.8094C16.0348 25.5898 15.8742 25.3303 15.6836 25.1906C13.7871 23.7534 12.5128 21.947 12.1917 19.5417C12.1716 19.4219 12.0211 19.2722 11.9007 19.2123C10.7467 18.6734 10.2149 17.7751 10.2149 16.5176C10.2249 14.7611 10.2249 13.0045 10.2049 11.238C10.2049 11.0084 10.0744 10.729 9.91388 10.5693C9.25162 9.91057 8.59939 9.2319 7.86689 8.67299C6.82332 7.88454 6.89356 6.27769 8.48901 5.79863C10.9374 5.06008 13.2252 3.95225 15.4327 2.65479C16.9278 1.77652 18.4229 0.888258 19.918 0ZM19.7675 35.9695C19.7675 36.5982 19.7776 37.2969 19.7675 37.9855C19.7575 38.5744 19.4866 38.9137 19.035 38.9237C18.5634 38.9337 18.2724 38.5744 18.2724 37.9556C18.2624 37.1072 18.2624 36.2589 18.2724 35.4205C18.2825 35.1311 18.1721 34.9914 17.9212 34.8417C16.8476 34.2129 15.7237 33.9235 14.4795 34.0532C14.1684 34.0832 13.8373 34.0832 13.5362 34.0233C12.6432 33.8436 12.001 33.0352 12.0211 32.117C12.0311 31.608 12.0913 31.099 12.1314 30.5501C11.2183 30.7597 10.3755 30.9493 9.51251 31.1389C10.1045 32.5162 9.89381 33.674 8.88035 34.3826C7.6662 35.2309 6.41192 36.0294 5.15764 36.7978C4.37496 37.2769 3.54212 37.227 2.72934 36.7879C2.61897 36.728 2.49856 36.6681 2.34804 36.5783C2.29787 36.8577 2.22763 37.0973 2.20756 37.3468C1.97677 40.6204 1.73595 43.9039 1.53527 47.1775C1.45499 48.455 2.47849 49.463 3.77291 49.483C4.70609 49.5029 5.63928 49.483 6.57247 49.483C6.94373 49.483 7.32504 49.483 7.71637 49.483C7.82675 47.8162 7.91706 46.2294 8.02744 44.6425C8.06757 44.0337 8.38867 43.6843 8.85024 43.7243C9.30179 43.7642 9.56268 44.1135 9.52254 44.7023C9.47237 45.6505 9.40213 46.5886 9.34192 47.5368C9.30179 48.1755 9.27168 48.8143 9.23155 49.463C12.2619 49.463 15.2421 49.463 18.2724 49.463C18.2724 49.2434 18.2724 49.0438 18.2724 48.8442C18.2724 46.5986 18.2724 44.363 18.2724 42.1174C18.2724 41.9677 18.2624 41.818 18.2825 41.6683C18.3226 41.1892 18.6136 40.9098 19.0451 40.9098C19.4565 40.9198 19.7274 41.1892 19.7675 41.6483C19.7876 41.818 19.7776 41.9777 19.7776 42.1474C19.7776 44.393 19.7776 46.6286 19.7776 48.8742C19.7776 49.0638 19.7776 49.2634 19.7776 49.463C20.3094 49.463 20.771 49.463 21.2827 49.463C21.2827 49.2734 21.2827 49.1137 21.2827 48.954C21.2827 48.2554 21.2727 47.5568 21.3028 46.8681C21.3228 46.4489 21.5837 46.1994 22.0152 46.1894C22.4467 46.1795 22.6975 46.419 22.7577 46.8382C22.7878 47.0477 22.7778 47.2673 22.7778 47.4869C22.7778 48.1456 22.7778 48.7943 22.7778 49.463C25.8282 49.463 28.8084 49.463 31.8187 49.463C31.7685 48.7245 31.7183 48.0159 31.6782 47.3072C31.618 46.3791 31.5578 45.4509 31.5176 44.5227C31.4976 44.0836 31.7886 43.7642 32.1799 43.7243C32.5612 43.6843 32.9024 43.9538 32.9827 44.383C33.0228 44.5726 33.0228 44.7822 33.0328 44.9818C33.1332 46.4689 33.2335 47.956 33.3238 49.4231C33.3941 49.453 33.4242 49.483 33.4543 49.483C34.6684 49.483 35.8926 49.493 37.1067 49.493C38.652 49.493 39.6153 48.425 39.515 46.898C39.3143 43.9638 39.1337 41.0395 38.933 38.1053C38.9029 37.6063 38.8025 37.1072 38.7222 36.5284C37.4278 37.4466 36.304 37.1671 35.1902 36.3587C34.2871 35.71 33.3238 35.1411 32.3906 34.5323C31.2768 33.7937 30.9256 32.616 31.4374 31.4084C31.4675 31.3286 31.4976 31.2387 31.5277 31.119C30.6547 30.9294 29.8118 30.7397 28.9288 30.5401C28.9689 31.109 29.0392 31.618 29.0392 32.127C29.0492 33.0352 28.3769 33.8536 27.4939 34.0133C27.1828 34.0732 26.8617 34.0732 26.5507 34.0333C25.3466 33.9035 24.2428 34.173 23.1992 34.7918C22.8982 34.9714 22.7778 35.1311 22.7778 35.4804C22.7878 37.9855 22.7878 40.4906 22.7778 42.9957C22.7778 43.2053 22.828 43.4847 22.7176 43.6245C22.547 43.844 22.256 44.1235 22.0152 44.1135C21.7844 44.1135 21.5035 43.8241 21.3329 43.5945C21.2325 43.4648 21.2827 43.2153 21.2827 43.0157C21.2827 40.79 21.2827 38.5644 21.2827 36.3387C21.2827 36.1691 21.2626 35.9994 21.2626 35.9395C20.7308 35.9695 20.2893 35.9695 19.7675 35.9695ZM11.7401 12.2859C17.6102 11.2879 23.4401 11.2779 29.27 12.236C29.27 11.8268 29.27 11.4575 29.27 11.0084C27.534 10.8188 25.8282 10.5393 24.1224 10.4795C21.6941 10.3896 19.2558 10.4595 16.8275 10.4695C16.2656 10.4695 15.9344 10.2299 15.9144 9.78082C15.8943 9.3317 16.1953 9.02231 16.7472 8.98239C17.3994 8.93249 18.0416 8.89256 18.6939 8.8726C22.3062 8.75284 25.8985 8.98239 29.4606 9.58121C29.6011 9.60117 29.8018 9.63112 29.8821 9.56125C30.6948 8.83268 31.4875 8.07417 32.3304 7.28571C32.1197 7.19589 31.9893 7.13601 31.8488 7.08611C29.862 6.45734 27.9354 5.6589 26.1192 4.63092C24.5238 3.7227 22.9685 2.76458 21.4131 1.79648C20.7709 1.39726 20.1689 1.3773 19.5568 1.81644C19.3561 1.96614 19.1354 2.09589 18.9347 2.22564C16.2455 3.99217 13.466 5.58904 10.4256 6.70685C9.87374 6.90646 9.31182 7.10607 8.75994 7.29569C8.78 7.37554 8.78 7.41546 8.80007 7.43542C9.26165 7.87456 9.76336 8.2638 10.1647 8.74286C10.8069 9.50137 11.5294 9.8407 12.5027 9.46145C12.6231 9.41155 12.7636 9.42153 12.8941 9.40157C13.4259 9.32172 13.8072 9.54129 13.8874 9.98043C13.9677 10.4096 13.6868 10.7489 13.1549 10.8587C12.6833 10.9485 12.2117 11.0284 11.7301 11.1082C11.7401 11.5174 11.7401 11.8667 11.7401 12.2859ZM11.72 15.0106C11.72 15.2701 11.72 15.3998 11.72 15.5196C11.72 15.9487 11.7 16.3879 11.7301 16.817C11.7702 17.3959 12.1415 17.7552 12.7435 17.875C13.466 18.0147 13.5764 18.1344 13.6266 18.8431C13.747 20.4399 14.2788 21.8771 15.4528 22.9849C16.2254 23.7135 17.0683 24.3822 17.9513 24.971C19.627 26.0888 21.373 26.0789 23.0688 24.991C23.7411 24.5618 24.3532 24.0429 24.9753 23.5438C26.4704 22.3562 27.233 20.7992 27.3936 18.9129C27.4638 18.1045 27.524 18.0247 28.3167 17.875C28.8084 17.7851 29.1897 17.5157 29.2499 17.0266C29.3201 16.3879 29.27 15.7292 29.27 15.0106C27.9555 16.1483 26.4403 16.3579 24.8348 16.338C21.8948 16.308 18.9648 16.308 16.0247 16.3579C14.4694 16.3779 13.0446 16.1184 11.72 15.0106ZM20.5201 33.8037C21.383 32.2667 22.1456 30.7896 23.0287 29.3924C23.6106 28.4742 23.3999 27.526 23.4702 26.4781C21.4834 27.526 19.5568 27.526 17.5399 26.4581C17.5901 27.2865 17.4195 28.1049 17.7105 28.7037C18.5233 30.4204 19.5367 32.0472 20.5201 33.8037ZM12.5027 13.6832C13.2453 14.4018 14.038 14.8209 14.9611 14.8309C18.6136 14.8509 22.256 14.8409 25.9085 14.8209C26.8818 14.811 27.7448 14.4417 28.5174 13.6432C23.1491 12.8149 17.8911 12.8249 12.5027 13.6832ZM15.8943 28.2546C15.6434 28.4542 15.3524 28.7436 15.0012 28.9532C13.9878 29.5521 13.5262 30.3904 13.5262 31.5881C13.5362 32.4963 13.5463 32.636 14.4494 32.5761C15.8341 32.4763 17.1285 32.6859 18.3326 33.3945C18.3928 33.4245 18.4631 33.4344 18.6136 33.4744C17.9513 32.2967 17.3192 31.2088 16.7271 30.101C16.4161 29.5121 16.1753 28.8933 15.8943 28.2546ZM25.1258 28.2247C24.895 28.8035 24.7244 29.3225 24.4736 29.8115C23.8916 30.9094 23.2594 31.9773 22.6574 33.0652C22.5972 33.1849 22.547 33.3047 22.4968 33.4245C23.7913 32.6959 25.1359 32.4464 26.5708 32.5761C26.7012 32.5861 26.8417 32.5861 26.9721 32.5861C27.3735 32.5961 27.5641 32.4065 27.534 32.0072C27.4738 31.3984 27.4136 30.7896 27.3434 30.1808C27.3334 30.081 27.2732 29.9513 27.1929 29.8914C26.4905 29.3125 25.778 28.7436 25.1258 28.2247ZM3.89332 35.7399C4.20438 35.5902 4.42513 35.5204 4.61579 35.3906C5.42856 34.8716 6.2313 34.3427 7.04408 33.8237C7.36517 33.6141 7.6963 33.4245 7.99733 33.1849C8.37863 32.8855 8.40874 32.4264 8.20805 31.9673C7.99733 31.4683 7.65617 31.5182 7.24476 31.638C5.57907 32.107 4.25455 33.0552 3.3013 34.4924C3.18089 34.672 3.05044 35.0113 3.14075 35.1211C3.32137 35.3806 3.64246 35.5403 3.89332 35.7399ZM36.9763 35.6501C37.6385 35.6401 38.1302 35.1211 37.9095 34.7618C36.8659 33.0652 35.3808 31.9773 33.4141 31.5681C33.2937 31.5481 33.1131 31.5881 33.0328 31.6779C32.511 32.2368 32.5913 32.9155 33.2235 33.3247C34.2871 34.0333 35.3608 34.7219 36.4445 35.4106C36.6351 35.5303 36.8659 35.6002 36.9763 35.6501Z" fill="white"/>
</svg>
