<svg
      width="140"
      height="140"
      viewBox="-0.25 0.20 140 140"
      fill="none"
      xmlns="http://www.w3.org/2000/svg"
    >
      <circle cx="70.5" cy="69.5" r="61" fill="none" stroke="#EEEEEE" />
      <path
        d="M82.4395 78.8816C83.0593 77.6229 83.5905 76.585 84.0996 75.5471C85.0514 73.648 84.7636 72.3672 83.0593 71.0643C81.1115 69.5627 78.8317 68.8781 76.4854 68.4585C70.9962 67.4648 65.529 67.531 60.1504 69.1872C58.7117 69.6289 57.3394 70.2693 56.1663 71.241C54.7054 72.4776 54.4619 73.7142 55.3252 75.4146C55.8564 76.4967 56.3876 77.5787 56.9852 78.7491C55.79 78.6829 54.794 78.3075 53.7758 77.9983C51.4517 77.2917 49.2161 76.3863 47.2683 74.9067C44.2802 72.6322 44.3024 70.1368 47.3126 67.8402C48.9948 66.5594 50.8983 65.6981 52.8904 65.0577C59.5085 62.8936 66.3037 62.3416 73.2096 62.6949C77.9463 62.9378 82.6166 63.6224 87.1098 65.2344C89.0576 65.9411 90.9169 66.7802 92.5327 68.1052C95.0781 70.181 95.0781 72.6543 92.5106 74.708C89.611 76.9825 86.1802 77.9762 82.4395 78.8816ZM69.8009 64.3732C69.1148 64.2186 68.8049 64.4394 68.827 65.2123C68.8491 65.8969 69.0041 66.184 69.7345 66.1398C70.3321 66.1177 70.6863 66.0515 70.642 65.3227C70.5977 64.7265 70.6641 64.1523 69.8009 64.3732ZM48.53 71.3734C48.7513 70.6668 48.4193 70.4901 47.6889 70.468C46.9806 70.468 46.7371 70.6668 46.7592 71.3955C46.7814 72.0139 46.8699 72.3451 47.6003 72.2788C48.2201 72.2568 48.7513 72.2788 48.53 71.3734ZM91.8687 72.2347C92.6876 72.5218 92.6876 72.0139 92.7098 71.3514C92.7319 70.6889 92.577 70.446 91.8687 70.468C91.2268 70.4901 90.8726 70.5564 90.8948 71.3514C90.939 72.0359 91.0276 72.4334 91.8687 72.2347Z"
        fill="white"
      />
      <path
        d="M94.4584 63.821C89.3454 59.7136 83.3913 58.4991 77.2823 57.7482C71.6381 57.0416 65.9939 57.152 60.3718 57.9691C56.4319 58.5432 52.6027 59.4707 48.9948 61.2153C47.6004 61.8777 46.3387 62.739 45.1656 63.799C44.7451 60.089 44.9221 58.7861 48.1537 56.7103C51.4296 54.5904 55.126 53.6187 58.8888 52.9563C67.1227 51.543 75.3345 51.6534 83.4798 53.5746C86.2687 54.2371 88.9691 55.1645 91.4039 56.7103C93.4845 58.0132 94.8125 59.6915 94.4584 62.3194C94.4141 62.7611 94.4584 63.2027 94.4584 63.821Z"
        fill="white"
      />
      <path
        d="M60.947 82.6355C59.5304 79.8309 58.1802 77.1147 56.8079 74.4206C56.4759 73.7361 56.6972 73.2282 57.2063 72.7644C58.3573 71.6824 59.796 71.1082 61.279 70.7107C67.1888 69.1428 73.0986 69.1428 78.9642 70.9315C80.2037 71.3069 81.3547 71.859 82.3064 72.7644C82.8598 73.2723 82.9926 73.8023 82.6384 74.531C81.3547 77.0264 80.093 79.5439 78.8314 82.0613C78.6986 82.3263 78.6764 82.7459 78.1673 82.3926C76.463 81.2001 74.4931 80.7363 72.4789 80.5376C68.5611 80.118 63.9572 80.4272 60.947 82.6355ZM65.9714 78.1306C66.1042 78.0643 66.8789 78.4176 66.7904 77.6668C66.6133 76.1873 66.3034 74.7077 66.0378 73.2502C65.8829 72.4111 65.2631 73.0294 64.8868 72.9632C64.577 72.919 64.2007 73.0294 64.2892 73.5152C64.5548 74.9506 64.7983 76.386 65.0418 77.8214C65.1082 78.2851 65.3295 78.3735 65.9714 78.1306ZM74.0947 72.919C73.4749 72.5657 73.4528 73.0957 73.3864 73.4711C73.165 74.7298 72.988 75.9885 72.7445 77.2472C72.6559 77.7331 72.5674 78.1306 73.2314 78.1747C73.7405 78.1968 74.4045 78.5722 74.5152 77.5785C74.648 76.4302 74.7808 75.2598 75.0686 74.1336C75.312 73.2061 75.1128 72.8086 74.0947 72.919ZM63.3375 78.9918C62.8505 77.4681 62.4521 75.9885 61.9209 74.5531C61.6774 73.8906 61.1683 74.4427 60.792 74.4869C60.3715 74.531 60.128 74.774 60.2829 75.2377C60.7035 76.5848 61.1462 77.9318 61.5667 79.3009C61.6995 79.7426 61.9209 79.8309 62.275 79.6322C62.6513 79.4334 63.2711 79.5659 63.3375 78.9918ZM78.0345 74.2661C77.7025 74.2219 77.5919 74.4206 77.5033 74.6856C77.0828 76.0327 76.6622 77.4018 76.2417 78.7489C76.0203 79.4555 76.5958 79.4334 76.9721 79.5439C77.3484 79.6543 77.7689 80.0297 77.9681 79.2568C78.278 78.0643 78.6986 76.8939 79.0527 75.7235C79.3183 74.7298 78.9863 74.2661 78.0345 74.2661ZM68.871 74.8623C68.871 75.4806 68.9153 76.121 68.8489 76.7173C68.7825 77.4239 69.0702 77.5785 69.7342 77.5564C70.3097 77.5343 70.7081 77.5343 70.6639 76.7614C70.5975 75.6352 70.6196 74.4869 70.6639 73.3607C70.686 72.6982 70.7303 72.2123 69.7342 72.2123C68.8046 72.2344 68.8489 72.6982 68.871 73.3165C68.871 73.8244 68.871 74.3544 68.871 74.8623Z"
        fill="white"
      />
      <path
        d="M94.3478 67.2661C89.8103 63.5782 84.5866 62.3637 79.2302 61.5024C74.1172 60.7075 68.9821 60.5971 63.8469 61.0608C59.0881 61.5024 54.4178 62.3416 49.9909 64.2628C48.3087 64.9915 46.7594 65.919 45.21 67.244C45.4977 65.8749 46.2724 65.124 47.1356 64.4395C49.6147 62.5183 52.5364 61.4583 55.5909 60.7295C65.9497 58.3225 76.2421 58.3667 86.468 61.4804C88.6151 62.1429 90.6514 63.0703 92.4221 64.4836C93.2632 65.1682 93.9715 65.919 94.3478 67.2661Z"
        fill="white"
      />
      <path
        d="M70.1773 87.008C67.499 87.0301 65.352 86.7651 63.3378 85.9039C62.6959 85.6389 61.877 85.3518 61.877 84.5789C61.877 83.8281 62.6959 83.4968 63.3378 83.276C67.5876 81.7081 71.8816 81.7081 76.1314 83.276C76.7732 83.5189 77.5922 83.8281 77.5922 84.5789C77.5922 85.3297 76.7511 85.6168 76.1314 85.9039C74.5598 86.6547 72.3243 87.008 70.1773 87.008ZM69.7789 85.4401C70.6199 85.6389 70.6199 85.131 70.6421 84.5127C70.6864 83.806 70.3986 83.6735 69.7567 83.6735C69.0484 83.6514 68.8271 83.8502 68.8271 84.5789C68.8271 85.3297 69.0706 85.5947 69.7789 85.4401Z"
        fill="white"
      />
    </svg>
