<svg width="63" height="41" viewBox="0 0 63 41" fill="none" xmlns="http://www.w3.org/2000/svg">
<g clip-path="url(#clip0_5444_412)">
<rect x="11" y="1" width="40" height="33" fill="white"/>
<path d="M51.9227 34.7656H10.3076V0H51.9227V34.7656ZM12.831 32.2112H49.3565V2.55438H12.831V32.2112Z" fill="black"/>
<path d="M50.6395 39.7448C44.6518 39.7448 39.776 31.8218 39.776 31.8218C39.776 31.8218 44.6518 23.8989 50.6395 23.8989C56.6273 23.8989 61.5031 31.8218 61.5031 31.8218C61.5031 31.8218 56.6273 39.7448 50.6395 39.7448Z" fill="white"/>
<path d="M50.6395 41.0001C44.0102 41.0001 38.9206 32.8175 38.7068 32.4711L38.2791 31.7784L38.7068 31.0857C38.9206 30.7393 44.0102 22.5566 50.6395 22.5566C57.2689 22.5566 62.3585 30.7393 62.5723 31.0857L63 31.7784L62.5723 32.4711C62.3585 32.8175 57.2689 41.0001 50.6395 41.0001ZM41.3157 31.7784C42.5988 33.5968 46.4053 38.4458 50.6395 38.4458C54.9165 38.4458 58.6803 33.5968 59.9634 31.7784C58.6803 29.96 54.8738 25.111 50.6395 25.111C46.4053 25.1543 42.5988 30.0033 41.3157 31.7784Z" fill="black"/>
<path d="M50.6395 35.1553C52.482 35.1553 53.9756 33.6434 53.9756 31.7783C53.9756 29.9133 52.482 28.4014 50.6395 28.4014C48.7971 28.4014 47.3035 29.9133 47.3035 31.7783C47.3035 33.6434 48.7971 35.1553 50.6395 35.1553Z" fill="#FB3544"/>
<path d="M50.6395 36.454C48.1161 36.454 46.0631 34.3759 46.0631 31.8215C46.0631 29.2671 48.1161 27.189 50.6395 27.189C53.1629 27.189 55.2159 29.2671 55.2159 31.8215C55.2159 34.3759 53.1629 36.454 50.6395 36.454ZM50.6395 29.7001C49.5275 29.7001 48.5865 30.6525 48.5865 31.7782C48.5865 32.9039 49.5275 33.8563 50.6395 33.8563C51.7515 33.8563 52.6924 32.9039 52.6924 31.7782C52.6924 30.6525 51.7943 29.7001 50.6395 29.7001Z" fill="black"/>
<path d="M12.1467 27.7086H15.3545V24.4615L16.9797 22.8163L12.5744 18.3569L0.598877 30.5227L0.983806 34.6357L4.83309 35.1119L7.01435 32.9039H10.1793V29.7001L12.1467 27.7086Z" fill="white"/>
<path d="M4.83304 35.6747C4.79027 35.6747 4.79027 35.6747 4.7475 35.6747L0.898212 35.1985C0.641593 35.1552 0.427744 34.9387 0.384974 34.6789L-0.0427246 30.5226C-0.0427246 30.3495 4.52437e-05 30.1763 0.128355 30.0464L12.1467 17.8806C12.3605 17.6641 12.7455 17.6641 12.9593 17.8806L17.3646 22.34C17.5785 22.5564 17.5785 22.9461 17.3646 23.1626L15.9104 24.6346V27.7085C15.9104 28.0116 15.6538 28.3146 15.3117 28.3146H12.4033L10.778 29.9598V32.9038C10.778 33.2069 10.5214 33.51 10.1793 33.51H7.22815L5.26074 35.5015C5.13243 35.6314 5.00412 35.6747 4.83304 35.6747ZM1.53976 34.1161L4.61919 34.5057L6.5866 32.5142C6.71491 32.3843 6.84322 32.341 7.0143 32.341H9.62326V29.7C9.62326 29.5269 9.66603 29.397 9.79434 29.2671L11.7618 27.2755C11.8901 27.1457 12.0184 27.1024 12.1895 27.1024H14.7984V24.4614C14.7984 24.2882 14.8412 24.1583 14.9695 24.0285L16.2098 22.7729L12.6172 19.1362L1.1976 30.7391L1.53976 34.1161Z" fill="black"/>
<path d="M3.25056 31.7347C3.12225 31.7347 2.95117 31.6914 2.82286 31.5615C2.60901 31.3451 2.60901 30.9554 2.82286 30.7389L12.4889 20.9543C12.7027 20.7379 13.0876 20.7379 13.3015 20.9543C13.5153 21.1708 13.5153 21.5605 13.3015 21.7769L3.63549 31.5615C3.54995 31.6914 3.37887 31.7347 3.25056 31.7347Z" fill="black"/>
<path d="M28.8696 21.6904L28.613 21.4306C28.3992 21.2142 28.3564 20.8678 28.4847 20.608C28.8268 19.9153 29.0835 19.2226 29.2973 18.5299C29.3829 18.2268 29.6822 18.0104 29.9816 18.0104H30.4093C30.7943 18.0104 31.1364 17.7073 31.1364 17.2744V14.1571C31.1364 13.7675 30.837 13.4211 30.4093 13.4211H29.8961C29.5967 13.4211 29.2973 13.2047 29.2118 12.9016C28.9979 12.2089 28.7413 11.5595 28.3992 10.91C28.2281 10.6503 28.3136 10.3039 28.5275 10.0442L28.9124 9.6545C29.2118 9.35144 29.2118 8.9185 28.9124 8.61543L26.7311 6.40741C26.4317 6.10435 26.004 6.10435 25.7046 6.40741L25.3625 6.75376C25.1486 6.97024 24.8065 7.01353 24.5071 6.88365C23.8655 6.53729 23.1812 6.23423 22.4969 6.01776C22.1975 5.93117 21.9837 5.6281 21.9837 5.32504V4.8488C21.9837 4.45915 21.6843 4.11279 21.2566 4.11279H18.1772C17.7922 4.11279 17.4501 4.41586 17.4501 4.8488V5.19516C17.4501 5.49822 17.2362 5.80128 16.9368 5.88787C16.2097 6.06105 15.4827 6.36411 14.7983 6.71047C14.5417 6.84035 14.1996 6.79706 13.9857 6.58059L13.7719 6.36411C13.4725 6.06105 13.0448 6.06105 12.7454 6.36411L10.6069 8.65873C10.3075 8.96179 10.3075 9.39474 10.6069 9.6978L10.6924 9.78439C10.9063 10.0009 10.9918 10.3905 10.8207 10.6503C10.393 11.3863 10.0937 12.1223 9.83703 12.9016C9.75149 13.2047 9.4521 13.4211 9.15272 13.4211H9.06718C8.68225 13.4211 8.34009 13.7242 8.34009 14.1571V17.2744C8.34009 17.664 8.63948 18.0104 9.06718 18.0104C9.36656 18.0104 9.66595 18.2268 9.75149 18.5299C9.96534 19.3525 10.2647 20.1318 10.6924 20.8678C10.8635 21.1276 10.778 21.5172 10.5641 21.7337C10.2647 22.0368 10.2647 22.4697 10.5641 22.7728L12.7454 24.9808C13.0448 25.2839 13.4725 25.2839 13.7719 24.9808C13.9857 24.7643 14.3279 24.721 14.6273 24.8509C15.3543 25.2406 16.1242 25.5869 16.9368 25.7601C17.2362 25.8467 17.4501 26.1498 17.4501 26.4528V26.5394C17.4501 26.9291 17.7495 27.2754 18.1772 27.2754H21.2566C21.6415 27.2754 21.9837 26.9724 21.9837 26.5394V26.3662C21.9837 26.0632 22.1975 25.7601 22.4541 25.6735C23.1812 25.457 23.9083 25.1107 24.6354 24.721C24.892 24.5479 25.277 24.5911 25.4908 24.8509L25.6619 25.0241C25.9613 25.3272 26.389 25.3272 26.6884 25.0241L28.8696 22.8161C29.169 22.4697 29.169 21.9935 28.8696 21.6904ZM16.8513 18.4866C15.3971 17.0146 15.3971 14.6334 16.8513 13.2047C18.3055 11.7326 20.6578 11.7326 22.0692 13.2047C23.5234 14.6767 23.5234 17.0579 22.0692 18.4866C20.6578 19.9586 18.3055 19.9586 16.8513 18.4866Z" fill="white"/>
<path d="M21.2994 28.0549H18.22C17.3646 28.0549 16.6802 27.3622 16.6802 26.4963C15.8676 26.2798 15.0978 25.9767 14.4134 25.5871C13.7719 26.1499 12.831 26.1066 12.275 25.5438L10.0937 23.3358C9.49491 22.7296 9.49491 21.7772 10.0081 21.171C9.62322 20.435 9.28106 19.6557 9.06721 18.8331C8.25459 18.7898 7.61304 18.0971 7.61304 17.2745V14.1573C7.61304 13.2914 8.29735 12.5987 9.15275 12.5987C9.40937 11.8194 9.70876 11.0834 10.0937 10.3474L10.0509 10.3041C9.45214 9.69797 9.45214 8.70219 10.0509 8.05277L12.2322 5.84475C12.831 5.23862 13.8574 5.23862 14.4562 5.84475L14.5845 5.97463C15.2688 5.62827 15.9532 5.36851 16.6802 5.15203V4.93556C16.6802 4.06967 17.3646 3.37695 18.22 3.37695H21.2994C22.1548 3.37695 22.8391 4.06967 22.8391 4.93556V5.28192C23.5234 5.49839 24.165 5.80145 24.8065 6.14781L25.0631 5.88804C25.6619 5.28192 26.6884 5.28192 27.2872 5.88804L29.4684 8.09607C30.0672 8.70219 30.0672 9.69797 29.4684 10.3474L29.169 10.6504C29.5112 11.2566 29.7678 11.9493 29.9817 12.5987H30.3666C31.222 12.5987 31.9063 13.2914 31.9063 14.1573V17.2745C31.9063 18.1404 31.222 18.8331 30.3666 18.8331H30.0244C29.8106 19.5258 29.554 20.2186 29.2118 20.9113L29.4257 21.1277C29.7251 21.4308 29.8961 21.8205 29.8961 22.2534C29.8961 22.6864 29.7251 23.076 29.4257 23.3791L27.2872 25.5438C26.6884 26.1499 25.7047 26.1499 25.0631 25.5438L24.9776 25.4572C24.2933 25.8469 23.5662 26.1499 22.8391 26.4097V26.4963C22.8391 27.3622 22.1548 28.0549 21.2994 28.0549ZM18.3483 26.3664H21.1711V26.3231C21.1711 25.6304 21.5988 25.0243 22.2403 24.8078C22.9246 24.5913 23.609 24.2883 24.2077 23.9419C24.8065 23.5955 25.5764 23.6821 26.0896 24.2017L26.1752 24.2883L28.1853 22.2534L28.0143 22.0802C27.5438 21.604 27.4155 20.868 27.7149 20.2619C28.0143 19.6557 28.2709 19.0063 28.442 18.3569C28.613 17.6642 29.2546 17.1879 29.9389 17.1879H30.2383V14.2872H29.8534C29.169 14.2872 28.5703 13.811 28.3564 13.1615C28.1853 12.5121 27.9287 11.906 27.5866 11.3432C27.2444 10.737 27.3727 9.95773 27.8432 9.48149L28.0998 9.22173L26.0896 7.18688L25.833 7.44665C25.3198 7.96618 24.5927 8.05277 23.9939 7.70641C23.3951 7.36006 22.7963 7.10029 22.1548 6.92711C21.5132 6.71064 21.0428 6.10451 21.0428 5.4118V5.06544H18.22V5.28192C18.22 6.01792 17.7495 6.62405 17.0652 6.79723C16.3809 6.97041 15.7393 7.23017 15.0978 7.57653C14.499 7.87959 13.7719 7.793 13.3014 7.27347L13.2159 7.18688L11.2057 9.22173C11.7189 9.74126 11.8045 10.5206 11.4623 11.1267C11.0774 11.7761 10.778 12.4688 10.5642 13.2048C10.3931 13.8542 9.7943 14.2872 9.10998 14.3305V17.1879C9.75153 17.2312 10.3075 17.7075 10.4786 18.3569C10.6925 19.0929 10.9491 19.8289 11.334 20.5216C11.6334 21.0845 11.5906 21.8205 11.1629 22.2967L13.1731 24.3315C13.6864 23.8986 14.3707 23.812 14.9267 24.1151C15.5682 24.5047 16.2953 24.7645 17.0224 24.981C17.835 25.0676 18.3055 25.6737 18.3483 26.3664ZM19.4603 20.435C18.3055 20.435 17.1507 20.0021 16.2525 19.0929C14.499 17.3178 14.499 14.3738 16.2525 12.5987C18.0061 10.8236 20.9145 10.8236 22.668 12.5987C24.4216 14.3738 24.4216 17.3178 22.668 19.0929C21.8126 20.0021 20.6578 20.435 19.4603 20.435ZM19.4603 12.9451C18.7332 12.9451 18.0061 13.2481 17.4501 13.811C16.3381 14.9366 16.3381 16.755 17.4501 17.8806C18.5621 19.0063 20.3585 19.0063 21.4705 17.8806C22.5825 16.755 22.5825 14.9366 21.4705 13.811C20.9145 13.2481 20.1874 12.9451 19.4603 12.9451Z" fill="black"/>
<path d="M46.3198 8.48584H36.9532V10.2176H46.3198V8.48584Z" fill="black"/>
<path d="M46.3198 12.4688H36.9532V14.2005H46.3198V12.4688Z" fill="black"/>
<path d="M35.5418 8.48584H33.5316V10.2176H35.5418V8.48584Z" fill="black"/>
<path d="M35.5418 12.4688H33.5316V14.2005H35.5418V12.4688Z" fill="black"/>
<path d="M46.3198 16.5386H36.9532V18.2704H46.3198V16.5386Z" fill="black"/>
<path d="M35.5418 16.5386H33.5316V18.2704H35.5418V16.5386Z" fill="black"/>
</g>
<defs>
<clipPath id="clip0_5444_412">
<rect width="63" height="41" fill="white"/>
</clipPath>
</defs>
</svg>
