<svg width="32" height="40" viewBox="0 0 32 40" fill="none" xmlns="http://www.w3.org/2000/svg">
<path d="M31.0089 10.0313L21.4018 0.419636C21.1338 0.151818 20.7678 0 20.3884 0H1.42855C0.638364 0 0 0.638364 0 1.42855V38.5715C0 39.3616 0.638364 40 1.42855 40H30C30.7902 40 31.4285 39.3616 31.4285 38.5715V11.0402C31.4285 10.6607 31.2767 10.2991 31.0089 10.0313ZM28.1338 11.6964H19.732V3.29455L28.1338 11.6964ZM28.2144 36.7856H3.21436V3.21436H16.6965V12.8571C16.6965 13.3544 16.894 13.8313 17.2458 14.1829C17.5975 14.5345 18.0744 14.732 18.5716 14.732H28.2145V36.7856H28.2144Z" fill="white"/>
<path d="M14.8318 31.455C14.5547 31.4191 14.2758 31.3928 14.0007 31.3455C13.5478 31.2675 13.12 31.107 12.71 30.9024C10.9229 30.0111 9.14126 29.1088 7.34944 28.2271C6.28199 27.7019 6.18308 26.3251 7.06708 25.6653C7.16781 25.5902 7.28053 25.5291 7.39326 25.4726C8.4849 24.9248 9.5769 24.3779 10.6713 23.8359C10.7836 23.7802 10.848 23.7077 10.8896 23.5904C11.6393 21.4815 12.3944 19.3744 13.1438 17.2655C13.3758 16.6128 13.7993 16.1599 14.4783 15.9881C15.4464 15.7431 16.3574 16.2604 16.7091 17.2422C17.3858 19.1319 18.0591 21.023 18.7338 22.9133C18.8171 23.1464 18.8925 23.3828 18.9887 23.6102C19.0231 23.6915 19.0945 23.7782 19.1718 23.8173C20.2464 24.3622 21.3211 24.9068 22.404 25.435C22.9113 25.6824 23.2651 26.0364 23.3743 26.6042C23.376 26.613 23.3887 26.6195 23.3962 26.6271C23.3962 26.7815 23.3962 26.9357 23.3962 27.0901C23.3867 27.1028 23.3716 27.1144 23.3689 27.1286C23.2678 27.6491 22.9594 28.0022 22.492 28.2353C20.7156 29.1208 18.9451 30.0177 17.1624 30.8897C16.7713 31.081 16.3445 31.2084 15.9231 31.325C15.6354 31.4046 15.3284 31.4142 15.03 31.455C14.9642 31.455 14.898 31.455 14.8318 31.455ZM10.4776 24.7335C10.4298 24.7491 10.4094 24.7533 10.3914 24.7622C9.47562 25.2193 8.55908 25.6751 7.64526 26.1364C7.54908 26.185 7.45508 26.253 7.38326 26.333C7.00635 26.7531 7.14344 27.3313 7.6849 27.6026C9.46599 28.4951 11.2449 29.3921 13.0318 30.2726C14.2091 30.8528 15.4307 30.9244 16.6198 30.3584C18.5076 29.4599 20.3694 28.5064 22.2367 27.5653C22.3794 27.4933 22.5147 27.3548 22.592 27.2137C22.8198 26.7973 22.6451 26.3511 22.1836 26.1186C21.294 25.6704 20.4024 25.2264 19.5113 24.7813C19.4796 24.7655 19.4453 24.755 19.384 24.7308C19.5294 25.1399 19.6587 25.5239 19.8031 25.9022C19.88 26.1039 19.8767 26.3004 19.8211 26.5008C19.73 26.8286 19.5436 27.0962 19.2938 27.3233C18.8313 27.7437 18.2762 27.9939 17.6909 28.1826C16.1409 28.6822 14.5676 28.7522 12.9785 28.4039C12.206 28.2344 11.4584 27.991 10.8074 27.5197C10.4569 27.2659 10.1874 26.9517 10.046 26.5295C9.92926 26.181 10.0674 25.8817 10.1778 25.5721C10.2745 25.3001 10.3722 25.0281 10.4776 24.7335ZM11.2344 24.7177C11.0778 25.1537 10.9407 25.5777 10.7724 25.9888C10.6702 26.2384 10.7316 26.4362 10.8774 26.6306C11.0887 26.9121 11.3818 27.0866 11.6913 27.2351C12.3678 27.5602 13.0894 27.7244 13.8284 27.8291C15.2329 28.0281 16.5947 27.8555 17.9142 27.3491C18.3213 27.193 18.7087 26.9897 18.984 26.6308C19.1318 26.4381 19.1938 26.2386 19.0898 25.9893C18.9398 25.6295 18.8227 25.2559 18.6907 24.8886C18.6714 24.8351 18.6463 24.7837 18.6304 24.7462C18.3811 24.9008 18.1524 25.0657 17.9036 25.1908C17.6545 25.3161 17.3909 25.4197 17.1238 25.501C16.1405 25.8004 15.1311 25.8526 14.1145 25.7604C13.0758 25.6664 12.0854 25.419 11.2344 24.7177ZM12.1447 22.1642C11.9427 22.731 11.7507 23.2801 11.5493 23.8255C11.5105 23.9304 11.5285 23.9964 11.6003 24.0744C11.92 24.4217 12.3287 24.6197 12.7636 24.7693C13.3989 24.9877 14.0571 25.0721 14.7267 25.0862C15.558 25.1039 16.376 25.0277 17.1642 24.7459C17.5764 24.5986 17.9616 24.4028 18.2643 24.0717C18.3373 23.9921 18.3494 23.9248 18.3116 23.8221C18.1251 23.3166 17.9482 22.8079 17.7667 22.3004C17.7513 22.2573 17.7289 22.217 17.7078 22.1708C16.4465 23.2397 13.4205 23.2468 12.1447 22.1642ZM13.0167 19.7217C12.8247 20.2602 12.6327 20.7928 12.4482 21.3281C12.4333 21.371 12.4529 21.4553 12.4865 21.4808C12.6953 21.6386 12.8942 21.8284 13.13 21.9281C14.1407 22.3559 15.1862 22.3617 16.2393 22.1062C16.6607 22.0041 17.052 21.8341 17.3602 21.5093C17.4318 21.4339 17.4385 21.3697 17.4042 21.2764C17.2293 20.8017 17.0605 20.3246 16.8891 19.8484C16.8731 19.8037 16.8531 19.7604 16.8387 19.7257C15.5613 20.3071 14.2983 20.3088 13.0167 19.7217ZM14.8238 19.451C15.5464 19.4541 16.1093 19.321 16.4882 19.0888C16.5669 19.0406 16.5922 19.0022 16.5571 18.9071C16.374 18.4124 16.2107 17.9099 16.0158 17.4201C15.9449 17.2419 15.8323 17.0621 15.6929 16.9322C15.0853 16.3671 14.1425 16.6197 13.8407 17.4206C13.6567 17.9091 13.4913 18.4046 13.3082 18.8935C13.2669 19.0037 13.3002 19.0462 13.3903 19.0979C13.8645 19.3688 14.382 19.4441 14.8238 19.451Z" fill="white"/>
</svg>
