<svg width="48" height="42" viewBox="0 0 48 42" fill="none" xmlns="http://www.w3.org/2000/svg">
<g clip-path="url(#clip0_1127_113085)">
<path d="M39.6435 36.7468H7.95783C7.95783 37.4488 7.95783 38.1361 7.95783 38.8253C7.9411 40.9683 6.91707 41.9818 4.75563 41.991C4.07542 41.991 3.39149 42.0168 2.71127 41.9818C1.05721 41.8952 0.00157464 40.8172 0.00157464 39.192C-0.00833738 32.4036 -0.00833738 25.6158 0.00157464 18.8286C0.0103356 18.4631 0.0793951 18.1014 0.206011 17.758C1.91336 12.8688 3.62814 7.9839 5.35035 3.10328C6.13464 0.932611 7.43559 0.00574892 9.74014 0.00390625C19.0983 0.00390625 28.4528 0.00390625 37.8036 0.00390625C40.1731 0.00390625 41.4574 0.916031 42.2454 3.1475C43.9564 8.0011 45.6607 12.8565 47.3581 17.7138C47.5058 18.1471 47.5805 18.6016 47.5793 19.059C47.5942 25.6926 47.5972 32.3262 47.5886 38.9598C47.5886 40.9241 46.5441 41.9634 44.5592 41.9892C43.9087 41.9892 43.2583 42.0002 42.6078 41.9892C40.7623 41.956 39.6881 40.8983 39.6342 39.0575C39.6267 38.3222 39.6435 37.5889 39.6435 36.7468ZM42.2454 15.7053C42.1469 15.3368 42.0855 15.0456 41.9908 14.7655C40.8757 11.4487 39.7513 8.15404 38.6715 4.83355C38.454 4.16466 38.1344 3.95459 37.4281 3.95643C28.3475 3.97977 19.2681 3.97977 10.1899 3.95643C9.48924 3.95643 9.15842 4.14071 8.93912 4.82434C7.86119 8.14114 6.7275 11.4469 5.61983 14.7563C5.51761 15.0567 5.45629 15.3699 5.36894 15.7053H42.2454ZM13.197 24.9703C13.1991 24.1962 12.97 23.4389 12.5385 22.7939C12.107 22.1489 11.4924 21.645 10.7723 21.346C10.0523 21.0469 9.25903 20.9661 8.49267 21.1136C7.72631 21.2611 7.0212 21.6305 6.46634 22.1749C5.91148 22.7194 5.53173 23.4147 5.37503 24.1729C5.21833 24.9312 5.29169 25.7185 5.58585 26.4355C5.88002 27.1524 6.38181 27.7669 7.02789 28.2014C7.67397 28.6359 8.43539 28.8709 9.21604 28.8767C10.2661 28.8811 11.2751 28.4723 12.0214 27.7399C12.7678 27.0075 13.1906 26.0114 13.197 24.9703ZM34.3839 24.9703C34.3909 25.7451 34.6294 26.5006 35.0694 27.1411C35.5093 27.7817 36.1308 28.2785 36.8554 28.5689C37.5801 28.8593 38.3753 28.9302 39.1405 28.7726C39.9058 28.6151 40.6068 28.2361 41.1549 27.6837C41.703 27.1312 42.0736 26.4301 42.2199 25.6688C42.3662 24.9076 42.2817 24.1205 41.9769 23.4069C41.6722 22.6933 41.1609 22.0853 40.5077 21.6597C39.8545 21.2341 39.0888 21.0101 38.3072 21.0159C37.2659 21.0365 36.2739 21.4599 35.543 22.1956C34.8121 22.9313 34.4002 23.921 34.3951 24.9537L34.3839 24.9703Z" fill="white"/>
</g>
<defs>
<clipPath id="clip0_1127_113085">
<rect width="47.6" height="42" fill="white"/>
</clipPath>
</defs>
</svg>
