<svg width="9" height="10" viewBox="0 0 9 10" fill="none" xmlns="http://www.w3.org/2000/svg">
  <g clip-path="url(#clip0_7246_42137)">
    <path
      d="M0.839468 4.89175L0.839161 4.8916L0.839468 4.89224C1.24978 5.74044 1.74582 6.36605 2.33794 6.7796C2.93008 7.19316 3.61826 7.39463 4.41282 7.39463C5.20787 7.39463 5.89631 7.19316 6.48844 6.7796C7.08057 6.36605 7.57636 5.74044 7.98618 4.89224L7.98648 4.89239L7.98618 4.89175C7.57586 4.04355 7.07983 3.41794 6.4877 3.00439C5.89557 2.59083 5.20738 2.38936 4.41282 2.38936C3.61826 2.38936 2.93008 2.59083 2.33794 3.00439C1.74582 3.41794 1.24978 4.04355 0.839468 4.89175ZM4.41282 1.68122C5.35888 1.68122 6.18475 1.92869 6.89082 2.42202C7.59689 2.91535 8.1832 3.65456 8.65009 4.63809C8.72587 4.80047 8.72587 4.98549 8.65009 5.14492C8.1832 6.12894 7.59714 6.8684 6.89119 7.36185C6.18524 7.8553 5.35937 8.10277 4.41282 8.10277C3.46676 8.10277 2.6409 7.8553 1.93483 7.36197C1.22875 6.86864 0.642444 6.12943 0.175552 5.1459C0.13813 5.06666 0.118722 4.98012 0.118722 4.89249C0.118722 4.80486 0.13813 4.71831 0.175551 4.63907C0.642444 3.65505 1.22851 2.91559 1.93446 2.42214C2.6404 1.92869 3.46627 1.68122 4.41282 1.68122ZM2.64025 4.89199C2.64025 3.93481 3.41624 3.15883 4.37342 3.15883C5.3306 3.15883 6.10659 3.93481 6.10659 4.89199C6.10659 5.84918 5.3306 6.62516 4.37342 6.62516C3.41624 6.62516 2.64025 5.84918 2.64025 4.89199ZM3.26958 4.89199C3.26958 5.50206 3.76335 5.99583 4.37342 5.99583C4.98349 5.99583 5.47726 5.50206 5.47726 4.89199C5.47726 4.28193 4.98349 3.78816 4.37342 3.78816C3.76335 3.78816 3.26958 4.28193 3.26958 4.89199Z"
      fill="white" stroke="white" stroke-width="0.00111607"/>
  </g>
  <defs>
    <clipPath id="clip0_7246_42137">
      <rect y="0.478516" width="8.82623" height="8.82623" rx="4" fill="white"/>
    </clipPath>
  </defs>
</svg>
